v -0.52 3.98 5.13
v -0.61 4.08 5.18
v 0.00 2.44 6.00
v -0.35 3.70 4.33
v -0.11 3.79 5.03
v 0.00 3.70 5.24
v -0.01 3.63 5.32
v -0.38 2.63 5.67
v -0.62 2.92 5.53
v -0.48 2.90 5.59
v -0.41 2.88 5.62
v -0.69 2.58 5.52
v -0.67 2.99 5.50
v -0.63 3.71 5.23
v -0.68 3.26 5.34
v -0.16 2.30 5.92
v -0.88 2.96 5.18
v -0.95 2.88 5.03
v -0.10 1.91 5.54
v -0.24 1.92 5.50
v -0.88 2.38 5.15
v -0.96 2.55 5.05
v -0.88 3.73 5.06
v -0.91 3.74 5.06
v -0.21 3.59 4.11
v -0.25 1.90 4.91
v -0.77 3.25 4.33
v 0.60 4.07 5.28
v 0.06 2.46 6.01
v 0.52 3.91 5.27
v 0.01 3.73 4.60
v 0.33 3.28 5.60
v 0.54 2.55 5.62
v 0.68 3.27 5.33
v 0.64 3.71 5.22
v 0.36 2.02 5.56
v 0.23 2.03 5.73
v 0.88 3.19 4.99
v 0.58 3.84 4.67
v 0.79 2.29 4.69
v 0.92 2.47 4.91
v 0.26 1.88 4.88
v 0.84 2.18 4.21
v 0.79 2.24 4.50
v 0.75 1.86 4.34
v 0.87 3.24 4.41
v 0.81 2.30 5.24
v 0.95 3.12 4.85
v 0.88 3.82 4.79
v 0.10 1.91 5.54
v 0.88 2.46 5.22
v 0.15 2.30 5.92
v 0.41 2.54 5.77
v 0.74 2.63 5.50
v 0.83 2.77 5.40
v 0.53 2.92 5.62
v 0.62 2.66 5.58
v 0.28 3.79 5.11
v 0.17 3.08 5.80
v 1.04 4.05 5.30
v 0.47 3.79 5.22
v 0.16 3.79 4.59
v 0.22 2.53 5.84
v 0.18 2.53 5.94
v 0.18 2.48 5.97
v 0.60 4.07 5.16
v -0.24 3.42 3.83
v -0.43 1.97 5.09
v -0.28 1.92 4.98
v -0.93 2.94 4.73
v -0.95 3.13 4.85
v -0.94 3.08 4.61
v -0.92 3.25 4.49
v -1.05 3.84 5.16
v -0.89 3.18 4.98
v -0.54 2.07 5.40
v 0.01 2.21 5.91
v -0.22 2.03 5.74
v -0.39 2.01 5.61
v -0.63 2.43 5.51
v -0.21 2.62 5.75
v -0.39 2.90 5.68
v -0.64 2.88 5.50
v -0.52 2.89 5.56
v -0.10 3.51 5.51
v -0.10 3.28 5.71
v 0.08 3.31 5.69
v -0.03 3.73 4.40
v -0.14 3.77 4.56
v -0.18 2.53 5.93
v -0.85 3.99 4.97
v -0.50 2.06 5.49
v -0.22 2.54 5.84
v -0.23 2.44 5.88
v -0.06 2.57 5.92
v -0.80 4.12 5.30
v -0.84 3.92 5.19
v -0.00 2.98 5.80
v -0.08 3.71 5.25
v -0.23 3.69 5.28
v -0.23 3.58 5.41
v 0.06 2.77 5.81
v -0.07 2.75 5.81
v -0.53 2.55 5.62
v -0.51 2.36 5.73
v -0.36 2.02 5.56
v -0.22 2.01 5.69
v -0.33 1.92 5.28
v -0.95 2.64 5.14
v -0.97 2.82 4.92
v -1.04 3.86 5.18
v -0.01 3.62 4.10
v -0.03 1.93 5.31
v -0.93 2.48 4.91
v -0.65 2.01 4.59
v -0.34 2.66 5.64
v 1.02 3.89 5.09
v 0.95 3.79 4.85
v 0.68 2.29 5.45
v 0.40 2.60 5.70
v 0.59 3.97 4.89
v 0.09 3.49 5.53
v 0.22 2.65 5.71
v 0.74 2.81 5.46
v 0.41 3.61 5.30
v 0.46 3.51 5.38
v 0.68 3.41 5.28
v 0.78 3.29 5.16
v 0.80 3.41 5.08
v 0.52 2.37 5.73
v 0.31 2.31 5.89
v 0.26 1.92 5.49
v 0.94 3.03 4.90
v 0.98 3.26 4.83
v 0.92 3.25 4.48
v 0.51 2.00 5.28
v 0.46 1.97 5.26
v 0.71 2.17 5.13
v 0.01 1.93 4.89
v 0.26 1.92 4.96
v 0.88 3.06 4.38
v 0.86 2.90 4.34
v 0.00 3.09 3.43
v -0.01 3.45 3.78
v 0.36 1.63 4.37
v 0.50 3.25 3.87
v 0.33 2.98 3.48
v 0.66 2.03 4.61
v 0.43 1.97 5.11
v 0.44 1.96 4.88
v 0.97 2.82 4.93
v 0.94 2.73 4.78
v 0.13 1.95 5.12
v 0.01 1.98 5.10
v 0.53 2.06 5.40
v 0.20 1.99 5.67
v 0.39 2.01 5.61
v 0.22 2.50 5.90
v 0.82 3.91 5.18
v 0.69 4.00 5.25
v 0.48 2.48 5.70
v 0.29 2.77 5.69
v 0.61 2.87 5.48
v 0.81 4.11 5.30
v 0.36 3.72 4.37
v 0.38 3.82 4.57
v 0.63 2.75 5.52
v 0.69 4.07 5.04
v -0.60 2.98 3.75
v -0.55 3.37 4.06
v -0.73 3.10 4.16
v -0.58 2.03 4.78
v -0.54 2.03 5.09
v -0.64 2.11 4.87
v -0.83 3.23 5.10
v -0.70 2.15 5.29
v 0.00 1.93 5.54
v -0.57 2.32 5.61
v -0.48 2.17 5.75
v -0.70 4.00 5.25
v -0.39 3.31 5.54
v -0.68 3.42 5.28
v -0.62 2.65 5.58
v -0.83 2.77 5.40
v -0.68 2.81 5.49
v -0.41 3.79 5.21
v -0.70 4.09 5.07
v -0.67 2.27 5.46
v -0.61 2.11 5.37
v -0.06 2.46 6.01
v -0.41 3.84 4.62
v -0.52 3.91 5.27
v -0.60 4.06 5.28
v -0.07 3.80 4.83
v -0.07 3.11 5.79
v -0.22 3.09 5.78
v -0.57 3.02 5.59
v -0.07 2.66 5.86
v -0.44 2.51 5.74
v -0.72 2.92 5.47
v -0.81 3.04 5.27
v -0.67 3.55 5.19
v -0.85 2.64 5.32
v -0.10 2.19 5.91
v -0.27 2.17 5.87
v -0.10 2.03 5.73
v -0.94 3.02 4.88
v -0.98 3.29 4.84
v -0.94 2.73 4.78
v -0.03 1.80 4.73
v -0.45 3.51 4.20
v -0.83 2.43 4.12
v 0.52 2.07 5.48
v 0.97 4.00 5.13
v 0.64 2.13 5.39
v 0.91 3.73 5.05
v -0.00 3.11 5.77
v 0.07 3.11 5.79
v 0.23 3.69 5.28
v 0.62 2.91 5.53
v 0.67 3.55 5.19
v 0.23 2.44 5.88
v 0.57 2.31 5.61
v 0.95 2.65 5.14
v 0.22 3.60 4.13
v 0.70 2.15 5.31
v 0.62 2.06 5.25
v 0.57 3.39 4.11
v 0.82 2.45 4.40
v 0.75 3.08 4.19
v 0.86 2.71 4.53
v 0.79 2.67 4.04
v 0.64 3.45 4.40
v 0.77 3.25 4.34
v 0.61 2.09 4.84
v 0.52 1.92 4.69
v 0.83 2.28 5.02
v 0.96 2.56 5.05
v 0.32 1.92 5.30
v 0.26 1.93 5.15
v 0.46 3.51 4.20
v 0.60 3.75 4.59
v 0.97 3.32 4.87
v 0.87 3.62 5.05
v 0.89 2.39 5.15
v 0.19 2.02 5.71
v 0.87 3.12 5.11
v 0.28 2.17 5.87
v 0.47 2.17 5.76
v 0.60 2.45 5.54
v 0.85 2.90 5.30
v 0.67 2.99 5.51
v 0.71 2.91 5.47
v 0.83 2.98 5.27
v 0.16 2.64 5.78
v 0.48 2.62 5.64
v 0.46 3.65 5.27
v 0.42 3.80 5.21
v 0.25 3.08 5.77
v 0.91 4.02 5.28
v 0.62 3.82 5.22
v 0.25 3.82 5.06
v 0.40 3.88 5.04
v 0.22 2.59 5.77
v -0.00 3.78 5.02
v 1.05 3.85 5.16
v -0.02 1.65 4.42
v -0.31 2.99 3.47
v -0.93 3.78 4.81
v -0.72 3.81 4.68
v -0.04 2.02 5.72
v -0.03 2.07 5.79
v -0.79 2.39 5.30
v -0.31 2.31 5.89
v -0.34 2.42 5.85
v -0.80 3.41 5.08
v -0.45 3.51 5.39
v -0.18 2.70 5.75
v -0.47 3.78 5.22
v -0.44 3.63 5.28
v -0.90 4.01 5.28
v -0.60 3.98 4.93
v -0.22 2.50 5.90
v -0.18 2.48 5.97
v -1.03 4.05 5.30
v -1.01 4.08 5.27
v -0.83 2.74 4.30
v -0.81 2.46 4.39
v -0.84 2.17 4.23
v -0.79 2.24 4.49
v -0.87 2.72 4.59
v -0.50 2.67 5.56
v -0.86 4.23 5.28
v -0.76 4.00 4.93
v -0.94 4.24 5.37
v -0.44 3.89 5.06
v -0.26 3.82 5.06
v -0.39 3.86 4.71
v -0.65 3.84 5.21
v 0.02 3.79 4.82
v -0.11 2.91 5.81
v -0.33 3.36 5.54
v -0.61 2.86 5.48
v -0.24 2.66 5.68
v -0.29 2.78 5.69
v -0.76 2.65 5.48
v -0.35 2.54 5.79
v -0.03 2.23 5.91
v -0.08 2.30 5.91
v -0.60 2.20 5.59
v -0.89 2.47 5.22
v -0.66 3.45 4.40
v -0.59 3.80 4.63
v -0.27 1.93 5.16
v -0.73 2.18 5.12
v -0.84 2.29 5.03
v -0.87 3.24 4.41
v -0.87 3.06 4.37
v -0.57 1.74 4.35
v 0.03 2.23 5.91
v 0.93 4.24 5.34
v 0.79 4.03 4.97
v 0.91 4.25 5.38
v 0.25 2.66 5.68
v 0.72 3.81 4.68
v 0.51 3.01 5.63
v 0.50 3.27 5.47
v 0.65 2.86 5.49
v 0.10 2.74 5.80
v 0.68 3.86 5.20
v 0.74 2.52 5.43
v 0.60 2.20 5.58
v 0.00 2.05 5.73
v 0.95 2.88 5.04
v 1.03 3.83 5.16
v 0.17 3.69 4.36
v 0.93 2.93 4.73
v 0.24 3.42 3.83
v 0.29 1.82 4.80
v 0.62 3.00 3.79
v 0.82 2.36 4.66
v 0.97 3.24 4.69
v 0.11 2.19 5.91
v 0.35 2.43 5.85
v 0.85 2.64 5.32
v 0.39 2.89 5.68
v 0.00 3.51 5.49
v 0.23 3.59 5.40
v 0.47 3.91 5.08
v 0.05 2.59 5.91
v 0.06 2.66 5.86
v 0.09 2.32 5.91
v 0.87 4.27 5.35
v 0.72 4.21 5.30
v 0.55 2.68 5.58
v 0.94 3.07 4.57
v -0.44 1.96 4.87
v -0.36 1.64 4.38
v -0.30 1.81 4.77
v -0.66 3.29 4.26
v -0.81 2.33 4.67
v -0.97 3.26 4.70
v -1.02 3.88 5.08
v -0.63 2.06 5.24
v -0.44 1.96 5.31
v -0.63 2.13 5.41
v -0.85 2.91 5.31
v -0.53 2.92 5.62
v -0.73 2.83 5.46
v -0.63 2.76 5.51
v -0.58 2.74 5.51
v -0.42 3.03 5.68
v -0.88 4.27 5.37
v -0.72 4.21 5.30
v -0.55 2.68 5.58
v -0.21 2.44 5.94
v -0.17 2.42 5.95
v -0.13 2.42 5.97
v 0.00 2.35 5.98
v 0.14 2.42 5.97
v 0.21 2.44 5.94
v -0.05 2.36 5.98
v -0.10 2.35 5.91
v 0.14 2.41 5.95
v 0.08 2.37 5.97
v 0.19 2.40 5.91
v -0.19 2.40 5.91
v -0.17 2.41 5.92
v 0.00 2.23 5.91
v 0.17 2.40 5.91
v 0.45 2.67 5.59
v 0.39 2.70 5.62
v 0.56 2.84 5.55
v -0.41 2.78 5.65
v -0.48 2.82 5.63
v -0.45 2.67 5.59
v 0.50 2.84 5.62
v 0.41 2.78 5.65
v 0.53 2.78 5.61
v -0.36 2.84 5.64
v -0.53 2.77 5.61
v 0.50 2.67 5.56
v 0.58 2.74 5.51
v 0.56 2.75 5.56
v 0.51 2.72 5.60
v -0.56 2.75 5.56
v -0.56 2.84 5.55
v -0.39 2.70 5.62
v -0.47 2.75 5.63
v 0.36 2.84 5.64
v 0.47 2.75 5.64
v 0.41 2.88 5.62
v 0.34 2.66 5.64
v 0.27 2.73 5.60
v -0.27 2.73 5.60
v 0.52 1.74 -3.73
v 0.36 2.27 -3.48
v 1.17 0.08 -1.74
v 0.89 -0.02 -1.46
v 0.75 -1.54 -2.39
v 1.17 -2.57 -1.99
v 0.76 -2.57 -2.15
v 1.12 -2.30 -2.05
v 1.05 -2.22 -1.89
v 1.01 -2.33 -1.40
v 1.18 -2.23 -1.63
v 1.21 -2.27 -1.60
v 1.28 -2.51 -1.72
v 0.62 -2.57 -2.00
v 0.99 -2.23 -1.86
v 1.27 -2.26 -1.79
v 0.45 -1.58 -2.62
v 0.51 -1.29 -2.52
v 0.70 -1.05 -3.19
v 0.61 -0.91 -2.29
v 0.12 1.89 -3.57
v 0.50 1.10 -3.77
v 0.52 -0.57 -1.71
v 0.74 -0.49 -1.69
v 0.73 -0.08 -1.45
v 0.56 -0.05 -1.47
v 1.12 1.15 -1.19
v 0.87 1.62 -1.25
v 0.76 1.76 -0.92
v 0.17 0.24 -2.61
v 0.51 0.79 -3.65
v 0.65 0.39 -3.58
v 0.91 0.88 -3.39
v 0.45 -0.63 -1.92
v 0.47 -0.14 -1.69
v 0.40 0.01 -3.07
v 0.51 0.46 -3.55
v 0.65 -0.49 -2.95
v 0.48 -0.67 -2.58
v 0.48 -0.06 -3.18
v 0.73 -0.74 -3.13
v 0.94 -2.25 -2.59
v 0.59 -2.21 -1.59
v 0.57 -2.51 -1.60
v 0.68 -2.53 -1.45
v 0.72 -2.37 -1.47
v 1.26 -2.58 -1.69
v 0.83 -2.03 -2.21
v 0.70 -2.02 -2.18
v 0.79 -1.78 -2.41
v 0.70 2.16 -1.36
v 0.56 -1.50 -2.44
v 0.44 -1.64 -2.63
v 0.76 -1.84 -3.04
v 0.85 -1.77 -3.07
v 0.88 -2.18 -2.74
v 1.09 -2.58 -1.54
v 1.01 -2.58 -1.46
v 0.68 -2.36 -1.46
v 1.01 -2.53 -1.35
v 1.13 -2.33 -1.48
v 1.04 -2.57 -2.14
v 0.78 -2.21 -2.75
v 1.02 -2.23 -2.00
v 0.92 -1.54 -2.87
v 0.93 -1.41 -2.73
v 0.67 -0.63 -3.18
v 0.91 -1.29 -2.39
v 0.99 -0.95 -2.25
v 0.84 -0.52 -3.05
v 0.90 0.25 -3.33
v 0.56 0.30 -3.60
v 0.42 0.01 -1.67
v 0.34 -0.12 -2.50
v 1.16 0.77 -1.27
v 0.98 1.58 -2.06
v 1.15 1.15 -1.50
v 1.16 1.00 -2.58
v 1.13 -0.32 -2.08
v 1.21 0.19 -2.42
v 0.64 -0.01 -3.43
v 1.07 -0.35 -1.88
v 0.51 -0.89 -2.55
v 0.65 -0.77 -2.81
v 0.77 -1.43 -2.37
v 0.88 -2.24 -1.78
v 0.57 -2.24 -1.58
v 0.76 -2.35 -1.41
v 0.75 -2.53 -1.41
v 0.90 -2.53 -1.37
v 0.73 -2.24 -1.74
v 0.67 -2.58 -1.51
v 0.60 -2.57 -1.60
v 0.75 -1.62 -3.21
v 0.53 -1.55 -3.12
v 0.75 -1.11 -2.99
v 0.51 -1.27 -2.66
v 0.59 -1.13 -2.88
v 0.89 1.72 -2.41
v 0.51 2.17 -3.12
v 0.61 2.26 -2.09
v 0.96 -1.73 -2.84
v 0.95 -1.25 -2.45
v 0.58 -2.05 -2.26
v 0.58 -2.22 -1.95
v 0.67 -2.12 -2.65
v 0.65 -2.08 -2.50
v 0.62 -1.54 -2.40
v 0.68 -1.79 -2.38
v 0.56 -2.07 -2.32
v 0.95 -2.53 -1.39
v 0.91 -2.33 -1.40
v 1.11 -2.23 -1.54
v 1.01 -2.30 -1.46
v 0.88 -1.18 -2.69
v 0.38 -0.33 -2.64
v 0.24 0.17 -2.71
v 0.32 -0.09 -2.77
v 0.15 0.11 -2.58
v 1.22 0.00 -1.96
v 1.22 0.54 -1.71
v 0.95 1.17 -0.86
v -0.00 0.39 -2.57
v 1.16 0.31 -2.74
v 1.17 0.77 -2.71
v 1.17 -0.05 -1.78
v 0.68 1.46 -3.68
v 0.78 1.63 -3.32
v 0.67 -0.97 -2.10
v 0.83 -1.03 -2.17
v 0.69 -0.70 -1.83
v 0.54 -0.76 -1.85
v 0.58 -1.12 -3.14
v 0.56 -1.39 -3.02
v 0.45 -1.52 -2.73
v 0.74 -1.48 -3.29
v 0.64 -2.50 -2.19
v 0.88 -2.58 -1.45
v 0.77 -2.58 -1.49
v 0.09 0.22 -2.33
v 0.72 -2.22 -1.79
v 0.75 -2.11 -2.05
v 0.77 -1.39 -3.11
v 0.59 -1.41 -3.17
v 0.67 2.19 -1.93
v 0.79 -0.06 -1.42
v 0.62 -1.41 -3.21
v 0.61 -1.07 -3.18
v 0.97 -2.12 -2.21
v 1.00 -2.21 -2.44
v 0.88 -1.76 -2.52
v 0.79 -1.53 -2.54
v 1.23 -2.57 -1.57
v 1.17 -2.57 -1.60
v 0.72 -2.53 -1.46
v 0.96 -2.35 -1.43
v 0.97 -2.35 -2.26
v 1.21 -2.53 -1.96
v 1.03 -2.52 -2.19
v 0.61 -1.55 -3.29
v 0.74 -1.38 -2.34
v 0.50 -0.88 -2.41
v 1.05 -0.77 -2.30
v 0.98 -0.65 -2.55
v 0.65 1.36 -3.75
v 0.64 0.90 -3.72
v 1.01 0.32 -3.15
v 1.01 0.88 -3.22
v 0.05 0.24 -2.54
v 0.81 0.05 -1.32
v 1.21 0.68 -2.42
v 1.21 0.95 -1.56
v 0.69 -0.50 -3.23
v 0.69 -0.61 -2.95
v 1.12 0.04 -2.56
v 0.68 -1.11 -2.22
v 0.91 -1.53 -3.01
v 1.07 -2.29 -2.15
v 0.70 -2.11 -2.74
v 0.76 -2.50 -2.31
v 1.16 -2.53 -1.57
v 1.16 -2.27 -1.59
v 1.12 -2.53 -1.43
v 0.61 -1.77 -2.42
v 0.46 -1.84 -2.53
v 1.24 -2.23 -1.79
v 0.81 -1.62 -3.18
v 0.77 -1.54 -3.28
v 0.56 -1.86 -2.94
v 0.51 -1.89 -2.58
v 0.60 -2.35 -2.05
v 0.57 -2.22 -1.98
v 0.93 -1.35 -2.77
v 0.72 -1.39 -3.21
v -0.12 -1.14 -6.27
v -0.20 -1.02 -6.25
v -0.20 -1.13 -6.18
v -0.23 -0.98 -6.15
v -0.59 0.01 -0.15
v -0.76 0.13 -0.14
v -0.05 2.72 -0.28
v -0.22 -0.95 -5.74
v -0.64 0.09 3.17
v -0.35 2.27 -3.49
v -0.63 1.55 -3.71
v -0.22 2.68 -0.33
v -0.95 0.71 0.91
v -1.02 1.04 -0.08
v -0.79 1.85 -0.19
v -0.17 2.69 1.09
v -0.05 2.72 1.09
v -0.39 2.78 2.95
v -0.08 2.87 3.04
v -0.42 0.04 1.36
v -0.77 0.26 1.13
v -0.64 0.26 1.29
v -1.00 0.65 1.33
v -1.01 1.19 1.17
v -0.58 2.53 2.27
v 0.20 -1.02 -6.25
v 0.20 -1.13 -6.17
v 0.14 -1.05 -6.30
v 0.93 0.43 -1.07
v 0.98 0.89 -0.90
v 1.02 1.03 -0.12
v 0.98 0.74 0.11
v 0.05 2.04 -3.58
v 0.21 2.07 -3.62
v 0.04 -0.37 -5.08
v 0.18 -0.68 -5.34
v 0.53 2.60 -1.21
v 0.55 2.54 -0.28
v 0.84 0.24 -0.23
v 0.27 2.65 0.54
v 0.52 2.51 0.70
v 0.45 -0.07 2.62
v 0.38 0.35 3.51
v 0.08 1.01 3.99
v 0.08 0.55 3.61
v 0.49 0.09 1.33
v 0.93 2.24 2.19
v 0.69 2.44 2.19
v 0.07 2.63 2.17
v 0.40 2.59 1.96
v 0.61 -0.20 1.74
v 0.71 -0.04 1.56
v 0.55 -0.22 1.94
v 0.03 -0.08 2.31
v -0.02 -0.13 1.70
v 0.59 0.01 -0.20
v 0.75 0.18 0.30
v 0.58 0.06 0.94
v 0.73 2.32 -0.23
v 0.33 2.45 -2.47
v 0.49 -0.04 -1.38
v 0.69 0.11 -0.98
v 0.78 0.16 -0.59
v 0.13 -0.94 -6.28
v 0.00 -0.89 -6.26
v -1.15 1.11 3.74
v -0.43 -0.00 1.20
v -0.46 1.05 4.02
v -0.73 1.19 4.00
v -0.85 0.37 1.11
v -0.93 0.56 0.22
v -0.34 2.63 -0.01
v -0.61 2.51 -1.47
v -0.39 2.53 -2.12
v -0.48 1.63 -3.76
v -0.28 2.05 -3.50
v -0.27 2.44 -3.53
v -0.18 2.38 -3.79
v -0.17 1.76 -4.39
v -0.20 1.30 -4.65
v -0.19 0.30 -5.08
v -0.23 -0.51 -5.47
v -0.27 2.13 -3.86
v -0.23 2.10 -3.48
v -0.75 2.20 -0.27
v -0.63 1.56 4.15
v -0.81 1.80 4.18
v -0.57 2.79 3.56
v -0.89 2.30 3.65
v -0.79 0.14 -0.75
v -0.98 0.89 -0.90
v -0.00 2.03 -3.52
v -0.21 2.07 -3.62
v 0.00 -1.09 -5.83
v 0.00 -0.93 -5.56
v -0.05 0.15 -4.77
v -0.06 1.12 -4.31
v -0.00 1.83 -3.85
v -0.06 2.04 -3.58
v -0.12 1.89 -3.57
v -0.00 1.95 -3.54
v -0.43 -0.05 -0.23
v -0.99 1.16 0.95
v -0.89 1.89 0.94
v -0.94 1.73 0.32
v -1.00 1.30 0.46
v -1.12 1.05 1.45
v -1.00 0.63 1.42
v -0.80 0.34 3.50
v -0.57 0.01 2.99
v -1.10 0.99 3.69
v -0.91 0.73 3.58
v -1.08 1.98 2.11
v -1.10 2.04 3.07
v -0.78 2.23 1.12
v -0.92 2.16 1.80
v -0.39 2.61 2.38
v -0.07 2.64 2.18
v 0.13 -1.14 -6.27
v -0.05 -1.14 -6.30
v 0.35 1.45 4.21
v 0.66 1.58 4.15
v 0.76 0.13 -0.16
v 0.23 -0.60 -5.33
v 0.26 0.24 -4.96
v 0.28 1.34 -4.46
v 0.27 1.36 -4.53
v 0.27 2.11 -3.89
v 0.47 0.27 3.43
v 0.63 0.07 3.14
v 0.76 0.24 3.43
v 0.05 2.72 -0.29
v 1.00 1.27 -0.07
v 0.92 1.85 0.30
v 1.00 1.27 0.32
v 0.38 2.79 2.99
v 0.39 2.62 2.41
v 0.09 -0.13 1.52
v 0.05 0.24 2.98
v 0.95 0.70 1.10
v 0.92 1.84 1.19
v 0.09 2.86 3.02
v 0.53 2.78 3.48
v 1.05 1.87 1.81
v 1.12 1.24 1.49
v 0.09 -0.08 1.10
v 0.80 0.37 3.51
v 0.91 0.73 3.58
v 0.78 0.63 3.71
v 1.01 0.64 1.42
v 1.11 1.06 1.43
v 1.10 1.10 1.69
v 0.99 0.68 1.55
v 0.90 1.86 0.95
v 0.99 1.16 0.95
v 0.80 1.83 -0.17
v 0.41 2.52 -2.11
v 0.28 2.05 -3.50
v 0.48 1.63 -3.76
v 0.18 2.38 -3.78
v 0.26 2.44 -3.53
v 0.25 1.94 -4.16
v 0.24 2.11 -3.49
v 0.76 2.20 -0.13
v 0.08 -1.02 -6.34
v -0.92 1.88 1.21
v -0.97 0.72 1.15
v -0.39 0.11 2.97
v -0.45 -0.07 2.61
v -0.02 -0.01 2.53
v -0.44 -0.13 2.40
v -0.55 -0.22 1.94
v -0.79 0.67 3.73
v -0.97 0.61 1.55
v -0.76 2.21 0.42
v -0.73 2.32 -0.22
v -0.21 2.75 -2.05
v -0.19 2.69 -2.46
v -0.33 2.46 -2.46
v -0.18 2.08 -4.14
v -0.15 1.29 -4.69
v -0.13 0.31 -5.11
v -0.00 -0.75 -5.89
v -0.17 2.54 -3.53
v -0.69 0.10 -1.01
v -0.53 -0.02 -1.31
v -0.86 2.35 3.91
v -0.06 -1.04 -6.34
v -0.74 2.55 3.56
v -0.89 1.90 4.07
v -0.06 -0.98 -6.33
v -0.14 -1.05 -6.30
v -0.37 1.34 4.14
v -0.24 -0.67 -5.52
v -0.23 -0.62 -5.35
v 0.07 -1.12 -6.31
v -0.15 -0.77 -5.87
v 0.00 -0.52 -5.64
v -0.01 2.41 -3.81
v 0.00 2.10 -4.18
v -0.51 1.73 -3.73
v -0.28 2.35 -3.50
v -0.19 2.80 -1.47
v -0.04 2.87 -1.57
v -0.94 0.50 -0.66
v -0.81 0.03 -1.34
v -0.82 0.09 -0.96
v -0.64 2.41 0.84
v -0.65 2.46 -0.31
v -0.74 0.18 0.32
v -1.11 1.36 1.91
v -1.04 1.83 1.73
v -0.90 1.60 4.00
v -0.97 1.13 3.83
v -0.75 0.26 3.45
v -0.41 0.33 3.51
v -0.31 0.59 3.73
v -0.66 0.70 3.81
v -0.47 0.04 1.47
v -1.08 1.98 3.65
v -0.98 2.35 3.12
v -0.99 2.32 2.89
v -0.65 2.52 2.42
v -0.89 2.13 3.99
v -0.00 -1.19 -6.08
v 0.16 -1.17 -6.16
v 0.84 2.35 4.10
v 0.82 0.01 -0.95
v 0.53 0.02 -0.64
v 0.44 -0.06 -0.13
v 0.11 -0.11 0.07
v 0.01 -0.09 -1.61
v 0.15 -0.90 -6.20
v 0.15 -0.77 -5.87
v 0.15 -0.54 -5.61
v 0.23 -0.53 -5.49
v 0.22 -0.80 -5.79
v 0.16 -0.22 -5.39
v 0.19 0.30 -5.08
v 0.24 0.26 -5.02
v 0.20 1.29 -4.65
v 0.17 1.74 -4.41
v 0.18 2.07 -4.15
v 0.30 2.43 -3.33
v 0.17 2.55 -3.50
v 0.11 -0.12 -1.33
v 0.10 -0.11 -0.73
v 0.79 0.14 -0.75
v 0.75 2.23 0.33
v 0.48 0.02 1.17
v 0.71 2.63 3.04
v 1.14 1.10 3.74
v 1.11 1.32 3.83
v 1.09 1.97 2.16
v 0.99 2.35 3.06
v 1.10 2.05 3.05
v 0.46 0.05 1.43
v 0.66 0.26 1.36
v 0.73 0.06 1.48
v 0.46 0.43 3.62
v 0.49 2.76 3.04
v 0.08 2.72 1.07
v 0.23 2.67 -0.30
v 0.21 2.79 -1.40
v 0.54 2.58 -1.52
v 0.03 2.80 -2.41
v 0.26 2.15 -3.61
v 0.25 1.91 -3.91
v 0.25 1.61 -4.17
v 0.26 1.22 -4.38
v 0.24 0.16 -4.87
v 0.22 -0.94 -5.72
v -0.00 2.58 -3.54
v 0.81 1.56 -0.84
v 0.92 2.11 3.80
v 0.96 1.82 3.94
v 0.90 1.60 4.00
v 0.00 -1.18 -6.25
v 0.56 2.82 3.57
v -0.92 2.26 2.20
v -0.93 2.08 3.81
v -1.12 1.76 3.71
v -0.96 1.83 3.95
v -0.10 -0.12 1.45
v -0.09 -0.08 1.07
v -0.40 -0.02 0.92
v -0.11 -0.11 -0.12
v -0.88 1.95 0.24
v -0.52 0.01 -0.66
v -0.04 2.79 -2.48
v -0.20 1.86 -3.89
v -0.19 1.58 -4.12
v -0.20 0.96 -4.45
v -0.19 0.11 -4.84
v 0.01 -0.72 -5.31
v -0.18 -0.65 -5.31
v -0.17 -0.98 -5.70
v -0.04 -0.37 -5.08
v -0.33 1.02 4.02
v -0.06 1.45 4.19
v -0.35 1.45 4.20
v -0.13 -0.94 -6.28
v -0.79 2.67 4.04
v 0.89 2.13 4.00
v -0.14 -0.89 -6.19
v -0.78 1.72 4.17
v -0.73 -0.08 -1.45
v -0.82 0.01 -0.94
v -0.11 -0.11 -1.34
v -0.23 -0.79 -5.77
v -0.16 -0.54 -5.61
v -0.24 0.28 -5.01
v -0.16 -0.22 -5.39
v -0.26 1.31 -4.55
v -0.25 1.96 -4.14
v -0.30 2.43 -3.30
v -0.63 2.25 -2.08
v -0.56 2.54 -0.44
v -0.51 2.61 -1.49
v -0.83 0.32 0.37
v -0.84 0.24 -0.24
v -0.08 0.25 3.00
v -0.08 0.55 3.61
v -0.58 0.09 1.12
v -1.12 1.27 1.48
v -0.72 2.61 2.99
v 0.72 2.65 3.81
v 0.84 2.39 3.90
v 0.89 1.91 4.07
v 0.82 1.76 4.16
v 0.73 1.18 4.00
v 0.24 -0.75 -5.58
v 0.65 2.46 -0.40
v 0.00 -0.21 -5.42
v 0.00 0.32 -5.13
v 0.13 0.31 -5.11
v -0.00 1.29 -4.72
v -0.00 1.77 -4.44
v 0.14 1.29 -4.69
v 0.28 2.35 -3.50
v 0.04 2.87 -1.53
v 0.82 0.09 -0.96
v 0.92 0.41 -0.75
v 0.77 0.25 1.12
v 0.83 0.76 3.76
v 0.57 0.02 2.99
v 1.01 0.66 1.34
v 0.66 0.28 1.30
v 1.01 1.11 1.16
v 0.61 2.55 2.44
v 0.73 2.56 3.56
v 0.64 2.41 0.87
v 0.75 2.37 1.89
v 0.93 2.15 1.85
v 0.77 2.24 1.11
v 0.89 2.30 3.66
v 1.09 1.98 3.66
v 0.66 0.67 3.78
v 0.38 1.03 4.03
v 0.83 0.32 0.39
v 0.93 0.50 -0.18
v 0.85 0.37 1.12
v 0.62 2.49 -1.37
v 0.19 2.68 -2.50
v 0.20 2.75 -2.13
v 0.27 0.60 3.73
v 0.20 1.58 -4.13
v 0.20 1.86 -3.89
v 0.00 1.55 -4.08
v 0.04 1.13 -4.30
v 0.20 0.97 -4.44
v 0.05 0.15 -4.77
v 0.17 -0.97 -5.69
v 0.18 -0.03 -4.91
v 0.37 1.34 4.14
v -0.07 1.04 4.00
v 0.22 -0.98 -6.16
v -0.40 2.59 1.94
v -0.71 2.41 1.85
v -0.53 2.51 0.60
v -0.60 -0.19 1.74
v -0.71 -0.04 1.56
v -0.11 -0.08 2.35
v -0.48 -0.18 1.83
v -0.56 2.75 3.45
v -0.48 2.75 3.00
v -0.77 0.09 1.50
v -0.66 0.24 1.38
v -0.81 1.57 -0.84
v -0.02 2.65 -3.26
v -0.16 2.61 -3.27
v -0.26 2.15 -3.61
v -0.26 1.26 -4.36
v -0.25 1.71 -4.12
v -0.28 1.38 -4.45
v -0.24 0.19 -4.86
v -0.26 0.26 -4.95
v -1.00 1.27 -0.08
v -1.12 1.31 3.82
v 0.00 -1.20 -6.18
v -0.16 -1.16 -6.15
v -0.72 2.65 3.81
v 1.15 0.58 1.69
v 1.13 1.66 2.09
v 1.20 1.15 2.61
v 0.98 -1.36 2.91
v 0.88 -1.51 2.26
v 1.13 -2.55 2.69
v 0.82 -2.55 2.75
v 1.24 -2.32 2.86
v 1.16 -2.25 2.98
v 1.34 -2.26 3.32
v 1.42 -2.49 3.23
v 0.47 -1.62 2.55
v 0.71 -0.53 2.89
v 0.84 -1.41 2.91
v 0.84 -2.52 3.53
v 0.80 -2.52 3.48
v 1.05 -1.37 2.28
v 0.99 -1.99 2.37
v 1.26 0.18 2.33
v 1.15 -1.09 2.32
v 1.11 0.15 3.27
v 1.12 -0.58 2.94
v 1.28 0.13 2.52
v 1.21 -0.69 2.70
v 1.05 -1.88 2.76
v 0.93 -1.90 2.89
v 0.95 -2.19 3.04
v 1.09 -2.17 2.91
v 1.20 0.79 1.72
v 1.28 0.46 2.54
v 1.41 -2.24 3.13
v 0.86 -2.03 2.38
v 1.02 -2.39 2.58
v 1.09 -0.06 1.91
v 1.22 0.53 1.83
v 1.28 -2.26 3.33
v 1.24 -2.51 3.52
v 0.66 -1.48 2.35
v 1.36 -2.55 3.37
v 0.61 -1.57 2.78
v 0.50 -1.74 2.64
v 0.62 -1.92 2.76
v 1.03 -1.70 2.73
v 1.12 -1.79 2.58
v 1.13 1.75 3.70
v 1.19 1.74 2.95
v 0.65 -2.07 2.54
v 0.64 -1.92 2.68
v 0.97 -2.56 3.50
v 0.67 -2.38 2.82
v 0.52 -1.33 2.50
v 0.86 -1.02 2.85
v 0.75 -1.09 2.73
v 0.63 -2.23 3.34
v 0.87 -1.34 2.18
v 1.04 0.11 3.34
v 0.90 -0.08 3.20
v 1.13 -2.02 2.66
v 1.18 -2.24 2.80
v 1.02 0.53 3.50
v 0.90 -0.22 1.74
v 1.09 -0.73 2.08
v 0.96 -0.88 1.95
v 0.85 -2.44 2.57
v 0.68 -2.48 2.77
v 1.12 -2.52 3.60
v 0.63 -2.25 3.05
v 0.45 -0.68 2.44
v 0.45 -0.13 2.40
v 1.01 -2.31 3.52
v 1.31 -2.22 3.29
v 0.57 -1.95 2.83
v 0.80 -1.89 2.97
v 1.12 1.30 1.78
v 1.12 1.23 1.89
v 0.84 0.04 1.66
v 0.74 -2.56 3.44
v 0.67 -2.56 3.35
v 1.00 -2.27 3.16
v 0.82 -2.27 3.17
v 0.85 -2.33 3.50
v 0.63 -2.03 2.79
v 0.54 -1.10 2.41
v 0.80 -2.36 3.45
v 0.76 -2.52 3.49
v 1.07 -2.33 3.48
v 1.04 -0.90 2.89
v 1.19 1.32 3.32
v 1.22 0.50 3.03
v 1.18 -0.72 2.80
v 1.05 -1.00 2.90
v 1.21 -2.39 2.79
v 1.23 -2.22 3.38
v 1.05 -2.51 3.55
v 1.00 -2.52 3.58
v 1.12 -2.32 3.52
v 1.25 -2.32 3.44
v 0.76 -2.34 3.46
v 1.12 -2.56 3.49
v 1.20 -2.56 3.41
v 0.66 -1.56 2.34
v 1.10 -1.29 2.67
v 0.84 -0.20 1.67
v 0.76 0.04 1.52
v 1.08 0.62 3.46
v 1.18 1.09 3.37
v 1.14 1.04 3.70
v 0.81 -1.70 2.93
v 0.90 -1.76 2.89
v 1.29 -2.56 3.35
v 1.29 -2.56 2.95
v 1.39 -2.56 3.27
v 1.37 -2.22 3.13
v 0.75 -2.22 3.42
v 0.63 -2.50 3.34
v 0.61 -1.54 2.80
v 0.47 -1.64 2.65
v 0.45 -0.58 2.61
v 0.55 -1.07 2.54
v 0.72 -0.96 2.71
v 0.71 -2.56 2.86
v 0.85 -2.56 3.46
v 1.03 -2.25 3.09
v 0.69 -0.63 2.03
v 0.84 -0.40 1.77
v 0.91 -2.53 2.63
v 1.05 -1.99 2.42
v 0.89 -0.81 2.91
v 1.19 -0.77 2.43
v 0.85 0.25 3.45
v 0.82 -2.20 3.06
v 1.10 -2.38 2.64
v 1.34 -2.52 2.99
v 0.67 -0.98 2.09
v 0.90 -0.84 1.92
v 1.28 -2.51 3.38
v 0.80 -2.25 3.13
v 0.66 -2.20 3.32
v 0.60 -0.61 2.17
v 0.63 -2.22 2.97
v 0.62 -1.59 2.43
v 1.07 -1.47 2.32
v 1.16 -1.29 2.40
v 1.03 -0.11 1.85
v -1.31 -2.22 3.28
v -1.16 -2.25 2.98
v -1.37 -2.22 3.13
v -1.01 -2.33 3.53
v -1.01 -2.30 3.50
v -0.62 -0.63 2.15
v -0.69 -0.48 2.90
v -0.47 -0.68 2.59
v -0.79 -2.24 3.13
v -1.28 -2.51 3.37
v -0.66 -1.48 2.35
v -0.84 -1.36 2.20
v -0.90 -0.86 1.92
v -1.09 -2.37 2.64
v -0.83 -2.19 3.05
v -1.10 -1.26 2.68
v -1.21 -0.66 2.70
v -1.11 -0.11 3.20
v -1.05 0.09 3.33
v -0.63 -2.50 3.35
v -0.86 -1.03 2.85
v -0.75 -1.10 2.73
v -1.24 -2.51 3.51
v -1.12 -2.52 3.60
v -0.76 -2.35 3.47
v -0.66 -2.20 3.32
v -1.20 -2.56 3.43
v -1.29 -2.56 2.95
v -1.12 -2.56 3.49
v -1.04 -1.53 2.30
v -1.06 -1.34 2.29
v -0.92 -1.41 2.24
v -1.18 1.73 2.99
v -1.13 1.68 2.09
v -1.03 0.52 3.50
v -0.81 -1.71 2.93
v -0.50 -1.74 2.63
v -1.36 -2.55 3.38
v -1.39 -2.56 3.27
v -1.22 -2.23 3.40
v -0.65 -2.08 2.55
v -0.63 -0.05 3.06
v -1.24 -2.32 3.44
v -1.22 0.53 1.83
v -1.12 -0.05 1.97
v -1.27 0.22 2.34
v -1.03 -2.40 2.59
v -0.99 -2.00 2.37
v -0.84 -1.42 2.91
v -0.98 -1.38 2.91
v -1.20 1.14 2.59
v -1.19 -0.67 2.80
v -1.10 -0.90 2.86
v -1.05 -0.88 2.90
v -1.04 -1.95 2.40
v -1.11 -1.99 2.59
v -1.15 -1.30 2.38
v -1.07 -2.33 3.48
v -0.80 -2.52 3.48
v -0.76 -2.52 3.49
v -0.80 -2.36 3.45
v -0.44 -0.55 2.58
v -0.54 -1.13 2.41
v -0.45 -0.68 2.44
v -1.41 -2.26 3.14
v -1.42 -2.49 3.22
v -1.34 -2.25 3.32
v -1.24 -2.32 2.87
v -1.08 0.61 3.45
v -0.77 -0.02 1.55
v -0.84 -0.19 1.67
v -0.64 -1.92 2.68
v -0.90 -2.55 2.72
v -0.61 -1.53 2.80
v -0.47 -1.64 2.65
v -0.54 -1.26 2.54
v -0.63 -2.25 3.05
v -1.12 -2.32 3.52
v -0.68 -2.49 2.77
v -0.80 -2.45 2.60
v -0.86 -1.98 2.37
v -0.96 -0.87 1.94
v -1.10 -0.83 2.11
v -1.05 -0.13 1.87
v -0.89 -0.21 1.73
v -0.80 -1.88 2.97
v -0.93 -1.90 2.90
v -0.93 0.02 3.24
v -1.19 -0.76 2.41
v -1.16 -1.27 2.41
v -0.86 -0.08 3.17
v -1.21 -2.39 2.80
v -0.89 -2.53 2.62
v -1.14 -2.55 2.69
v -0.84 -0.37 1.76
v -0.68 -0.62 2.02
v -1.03 -2.25 3.09
v -1.22 -2.22 3.31
v -0.71 -2.56 2.86
v -0.55 -1.02 2.54
v -0.75 -2.22 3.42
v -1.29 -2.56 3.34
v -0.69 -2.03 2.48
v -0.86 -1.52 2.27
v -0.67 -1.57 2.34
v -1.03 -1.73 2.73
v -0.91 -1.75 2.88
v -1.03 0.82 1.59
v -1.18 0.76 1.72
v -1.10 1.16 1.84
v -1.15 0.57 1.70
v -0.84 0.04 1.66
v -1.19 1.20 3.35
v -0.97 -2.56 3.50
v -0.86 -2.56 3.45
v -1.28 -2.26 3.32
v -0.63 -2.22 2.97
v -0.64 -2.23 3.34
v -0.64 -2.03 2.79
v -0.60 -1.97 2.86
v -0.76 -2.21 3.03
v -1.00 -2.51 3.58
v -1.05 -2.51 3.55
v -0.65 -1.05 2.13
v -1.38 -2.26 3.08
v -1.34 -2.52 2.99
v -1.10 -2.17 2.90
v -0.95 -2.18 3.04
v -1.22 0.14 2.92
v -1.29 0.36 2.49
v -1.18 -2.24 2.80
v -1.06 -1.90 2.76
v -1.11 -1.92 2.65
v -1.18 -0.80 2.32
v -0.85 -2.52 3.54
v -0.89 -0.80 2.91
v -0.46 -1.60 2.55
v -0.65 -1.60 2.41
v -0.85 -2.33 3.50
v -0.82 -2.27 3.17
v -1.00 -2.27 3.16
v -0.67 -2.56 3.34
v -0.74 -2.56 3.44
v -0.57 -1.93 2.82
v -0.62 -1.91 2.76
v -0.61 -1.59 2.80
v -1.22 0.79 1.87
v -1.14 1.15 1.98
v -0.77 2.88 4.08
v 0.49 2.89 5.59
v -0.77 0.16 -0.57
v 0.70 0.04 -3.46
v 0.72 -0.62 -3.19
v -0.77 1.61 -3.37
v -0.89 -2.14 -2.76
v -0.72 -1.50 -2.38
v -1.17 -2.57 -1.99
v -0.78 -2.57 -2.15
v -1.12 -2.29 -2.04
v -1.01 -2.33 -1.40
v -1.21 -2.26 -1.60
v -1.22 -2.53 -1.56
v -1.28 -2.51 -1.72
v -1.27 -2.26 -1.78
v -1.01 -2.22 -1.96
v -0.61 -1.55 -3.29
v -0.74 -1.49 -3.29
v -0.44 -1.62 -2.63
v -0.51 -1.31 -2.53
v -0.73 -0.76 -3.14
v -0.86 -0.48 -3.04
v -0.61 -0.91 -2.29
v -0.50 1.10 -3.77
v -0.00 1.75 -3.36
v -0.52 -0.57 -1.71
v -0.56 -0.05 -1.47
v -1.12 1.16 -1.19
v -0.76 1.76 -0.92
v -0.17 0.23 -2.60
v -0.44 0.79 -3.52
v -0.52 0.72 -3.63
v -0.91 0.47 -3.36
v -0.65 0.39 -3.58
v -0.90 1.06 -3.42
v -0.45 -0.62 -1.91
v -0.47 -0.14 -1.69
v -0.51 0.45 -3.55
v -0.68 -0.50 -2.99
v -0.50 -0.77 -2.54
v -1.07 -2.29 -2.16
v -0.72 -2.23 -1.76
v -0.57 -2.22 -1.97
v -0.59 -2.21 -1.59
v -0.57 -2.52 -1.60
v -0.68 -2.54 -1.45
v -0.57 -2.24 -1.58
v -1.15 -2.58 -1.66
v -1.26 -2.58 -1.68
v -0.73 -2.01 -2.18
v -0.98 -2.12 -2.22
v -0.79 -1.78 -2.41
v -0.77 -1.30 -2.31
v -0.84 1.65 -1.17
v -0.56 -1.50 -2.44
v -0.46 -1.87 -2.52
v -0.76 -1.84 -3.04
v -0.85 -1.76 -3.08
v -0.78 -2.15 -2.80
v -1.08 -2.58 -1.53
v -1.01 -2.53 -1.35
v -0.72 -2.37 -1.47
v -1.04 -2.57 -2.14
v -0.93 -2.31 -2.56
v -0.92 -1.54 -2.88
v -0.93 -1.41 -2.72
v -0.61 -1.02 -3.17
v -0.66 -0.65 -3.18
v -0.72 -0.58 -3.20
v -0.91 -1.29 -2.39
v -1.00 -0.92 -2.23
v -0.83 -1.00 -2.15
v -0.88 0.09 -3.30
v -0.56 0.30 -3.60
v -0.41 0.02 -1.68
v -0.34 -0.12 -2.52
v -1.16 0.54 -1.40
v -1.16 0.92 -1.24
v -0.93 0.44 -1.05
v -0.96 1.63 -2.09
v -1.15 1.15 -1.50
v -1.15 1.03 -2.59
v -0.81 1.63 -3.18
v -1.13 -0.29 -2.06
v -1.13 0.06 -2.55
v -1.21 0.20 -2.42
v -0.64 -0.02 -3.43
v -1.07 -0.34 -1.87
v -0.76 -1.55 -2.40
v -0.77 -1.43 -2.37
v -0.76 -2.35 -1.41
v -0.76 -2.53 -1.41
v -0.91 -2.53 -1.37
v -0.91 -2.33 -1.39
v -1.05 -2.22 -1.85
v -0.88 -2.23 -1.79
v -0.67 -2.58 -1.51
v -0.60 -2.57 -1.61
v -0.75 -1.10 -2.99
v -0.51 -1.24 -2.65
v -0.57 -1.38 -3.01
v -0.90 1.71 -2.41
v -0.49 2.18 -3.13
v -0.91 -1.54 -3.00
v -0.96 -1.76 -2.85
v -0.57 -2.07 -2.24
v -0.66 -2.11 -2.65
v -0.65 -2.09 -2.50
v -0.62 -1.55 -2.40
v -0.68 -1.79 -2.37
v -1.18 -2.23 -1.63
v -0.51 -1.89 -2.58
v -0.56 -2.07 -2.33
v -0.95 -2.53 -1.39
v -1.11 -2.23 -1.54
v -1.01 -2.30 -1.46
v -1.00 -2.21 -2.43
v -0.95 -1.26 -2.45
v -0.87 -1.18 -2.71
v -0.38 -0.32 -2.64
v -0.24 0.18 -2.70
v -0.47 0.00 -3.22
v -0.32 -0.09 -2.77
v -1.22 0.01 -1.95
v -1.21 0.56 -1.70
v -0.94 1.18 -0.86
v 0.00 0.81 -2.77
v -1.15 0.30 -2.75
v -1.17 0.74 -2.74
v -1.17 -0.04 -1.78
v -0.67 -0.97 -2.10
v -0.73 -0.52 -1.70
v -0.54 -0.76 -1.85
v -0.58 -1.13 -3.14
v -0.67 -0.72 -2.89
v -0.54 -1.55 -3.14
v -0.45 -1.52 -2.73
v -0.94 -2.13 -2.13
v -0.71 -2.20 -1.85
v -1.01 -2.58 -1.46
v -0.87 -2.58 -1.45
v -0.77 -2.58 -1.50
v -0.75 -1.62 -3.21
v -0.09 0.21 -2.33
v -0.72 -2.10 -2.08
v -0.74 -1.39 -3.20
v -0.59 -1.43 -3.18
v -0.71 2.13 -1.37
v -0.79 -0.06 -1.42
v -0.62 -1.41 -3.21
v -0.70 -1.04 -3.19
v -0.97 -1.81 -2.71
v -0.88 -1.75 -2.52
v -0.78 -1.53 -2.53
v -1.22 -2.58 -1.58
v -1.12 -2.33 -1.47
v -0.61 -2.51 -2.02
v -0.57 -2.32 -1.94
v -0.68 -2.36 -1.45
v -0.72 -2.53 -1.46
v -0.96 -2.35 -1.43
v -0.97 -2.35 -2.28
v -1.21 -2.53 -1.96
v -1.03 -2.52 -2.19
v -0.60 -1.12 -2.31
v -0.50 -0.89 -2.41
v -1.05 -0.76 -2.29
v -0.99 -0.64 -2.56
v -0.65 1.36 -3.75
v -0.63 0.94 -3.73
v -0.98 0.15 -3.13
v -1.03 0.46 -3.15
v -1.03 0.85 -3.17
v -0.15 0.11 -2.58
v -0.05 0.24 -2.54
v -1.17 0.08 -1.74
v -1.21 0.72 -2.39
v -1.21 0.95 -1.56
v -0.70 0.04 -3.46
v -0.69 -0.47 -3.24
v -0.70 -1.11 -2.22
v -0.95 -2.24 -2.57
v -0.70 -2.11 -2.74
v -0.78 -2.27 -2.67
v -0.77 -2.50 -2.32
v -0.64 -2.57 -2.08
v -1.16 -2.52 -1.57
v -1.16 -2.27 -1.59
v -1.12 -2.53 -1.43
v -0.62 -1.77 -2.42
v -0.54 -1.97 -2.38
v -1.24 -2.23 -1.78
v -0.81 -1.62 -3.17
v -0.77 -1.53 -3.28
v -0.56 -1.86 -2.94
v -0.61 -2.29 -2.14
v -0.92 -1.35 -2.78
v -0.70 -1.40 -3.22
f 1304 169 1011
f 1304 1011 912
f 324 123 264
f 134 266 335
f 134 335 243
f 321 60 214
f 319 357 172
f 293 294 91
f 293 91 295
f 96 373 295
f 96 295 281
f 73 269 317
f 321 322 353
f 258 257 61
f 329 59 102
f 317 318 73
f 282 298 191
f 298 89 191
f 242 165 39
f 351 350 329
f 338 228 146
f 137 237 138
f 132 137 136
f 255 264 123
f 56 412 1305
f 49 214 117
f 69 154 314
f 74 208 111
f 17 184 367
f 192 279 186
f 304 93 81
f 314 68 69
f 63 324 264
f 121 263 349
f 257 58 125
f 118 135 46
f 118 46 49
f 243 48 134
f 231 152 341
f 146 228 340
f 150 140 42
f 341 41 40
f 261 257 35
f 125 221 257
f 31 194 300
f 280 299 14
f 197 15 13
f 183 306 12
f 292 371 375
f 2 187 374
f 16 309 387
f 91 294 270
f 24 97 111
f 372 82 196
f 9 84 368
f 90 95 198
f 281 285 111
f 281 111 97
f 333 272 206
f 365 76 364
f 312 27 317
f 72 208 362
f 288 361 291
f 288 291 287
f 357 319 358
f 357 358 359
f 262 258 263
f 353 354 323
f 165 336 62
f 165 62 166
f 347 122 348
f 347 348 7
f 253 328 124
f 162 123 324
f 120 53 161
f 221 330 35
f 55 345 251
f 37 248 343
f 133 334 151
f 46 234 233
f 356 342 134
f 231 341 229
f 230 232 936
f 230 936 340
f 134 48 133
f 134 133 337
f 225 112 88
f 225 88 336
f 151 334 224
f 151 224 238
f 271 156 246
f 272 37 343
f 272 343 77
f 119 250 223
f 119 223 332
f 254 247 128
f 346 56 326
f 326 327 32
f 98 218 217
f 159 330 216
f 158 63 264
f 60 321 323
f 213 226 215
f 115 319 172
f 317 27 318
f 209 291 361
f 209 361 114
f 314 108 365
f 314 365 68
f 276 23 208
f 208 75 276
f 177 19 113
f 310 188 366
f 16 308 309
f 184 203 306
f 197 181 15
f 198 304 81
f 198 278 304
f 302 101 277
f 82 305 301
f 301 196 82
f 296 297 298
f 295 286 285
f 375 396 292
f 318 1304 287
f 285 286 363
f 285 363 74
f 194 297 5
f 296 298 282
f 279 192 299
f 6 99 7
f 279 280 100
f 305 278 103
f 305 103 301
f 202 276 175
f 202 175 182
f 274 275 105
f 80 12 273
f 273 188 80
f 107 20 19
f 107 19 271
f 71 208 72
f 287 72 318
f 359 358 267
f 359 267 210
f 353 322 168
f 64 65 158
f 264 64 158
f 121 62 262
f 121 262 263
f 162 346 259
f 259 329 162
f 57 355 391
f 57 391 256
f 346 410 412
f 53 344 130
f 128 252 253
f 128 253 254
f 251 247 254
f 130 223 250
f 352 77 52
f 246 156 36
f 245 51 47
f 241 242 233
f 241 165 242
f 152 151 238
f 152 238 41
f 148 235 150
f 148 150 236
f 142 231 232
f 413 324 120
f 339 42 139
f 339 139 210
f 138 47 226
f 138 226 227
f 225 336 165
f 243 216 244
f 240 132 50
f 246 272 333
f 246 37 272
f 54 331 345
f 261 61 257
f 33 54 57
f 98 102 59
f 252 220 253
f 259 346 326
f 325 39 322
f 325 322 49
f 226 119 215
f 287 212 288
f 287 912 212
f 72 362 73
f 72 73 318
f 70 291 209
f 75 17 175
f 275 274 387
f 306 203 12
f 14 299 202
f 369 200 201
f 198 103 278
f 197 368 372
f 5 297 100
f 5 100 99
f 31 89 194
f 294 282 191
f 191 313 294
f 188 176 189
f 296 186 297
f 308 77 389
f 171 169 1304
f 187 293 374
f 2 282 187
f 2 1 282
f 281 97 96
f 196 181 372
f 183 375 370
f 200 83 9
f 198 81 90
f 306 183 185
f 306 185 184
f 23 180 97
f 23 299 180
f 283 93 94
f 178 179 105
f 178 310 179
f 107 79 106
f 107 78 79
f 176 188 273
f 176 273 21
f 294 313 270
f 173 174 357
f 173 357 68
f 171 27 360
f 354 353 168
f 66 168 121
f 164 160 159
f 326 32 259
f 162 414 410
f 162 410 346
f 161 33 120
f 127 126 327
f 127 327 34
f 386 52 131
f 334 251 345
f 334 345 224
f 156 132 36
f 135 118 266
f 135 266 342
f 153 240 113
f 153 113 154
f 149 150 235
f 149 235 137
f 234 141 230
f 338 147 143
f 338 143 144
f 139 140 153
f 139 153 154
f 136 137 138
f 342 266 134
f 136 155 36
f 136 36 132
f 33 331 54
f 221 125 126
f 221 126 127
f 162 324 414
f 328 163 403
f 328 403 167
f 348 219 6
f 31 336 88
f 164 354 28
f 117 118 49
f 44 43 836
f 44 836 229
f 27 312 360
f 315 316 174
f 315 174 173
f 314 154 113
f 24 111 208
f 20 365 108
f 108 314 20
f 18 17 75
f 179 205 274
f 274 105 179
f 178 105 199
f 8 183 104
f 183 370 185
f 7 99 100
f 7 100 101
f 374 96 180
f 318 171 1304
f 366 189 92
f 2 374 193
f 284 95 90
f 193 374 180
f 88 89 31
f 196 195 86
f 183 396 375
f 11 400 82
f 105 307 199
f 105 275 307
f 184 369 367
f 310 178 80
f 310 80 188
f 77 204 272
f 333 206 271
f 207 75 71
f 74 363 362
f 365 364 173
f 68 357 69
f 170 211 25
f 170 25 67
f 28 354 66
f 64 350 65
f 62 300 262
f 260 60 323
f 259 32 87
f 58 219 125
f 56 220 252
f 56 252 326
f 330 244 216
f 63 222 344
f 63 344 53
f 224 345 51
f 215 332 213
f 227 226 155
f 233 325 49
f 233 49 46
f 237 245 47
f 237 47 138
f 340 228 233
f 340 233 230
f 236 45 148
f 144 112 225
f 144 225 338
f 150 42 339
f 339 236 150
f 41 238 245
f 41 245 237
f 47 119 226
f 36 37 246
f 36 157 37
f 130 332 223
f 130 249 332
f 250 33 161
f 35 257 221
f 57 256 33
f 350 64 255
f 220 328 253
f 59 218 98
f 300 62 31
f 166 121 39
f 242 325 233
f 67 25 112
f 67 112 144
f 359 26 357
f 316 21 22
f 316 22 114
f 25 211 4
f 21 311 109
f 21 109 22
f 106 79 92
f 274 205 204
f 274 204 16
f 199 104 80
f 202 280 14
f 104 183 12
f 301 103 102
f 301 102 98
f 9 13 200
f 8 116 396
f 8 396 183
f 101 302 85
f 265 5 99
f 265 99 6
f 191 4 313
f 312 270 313
f 287 291 72
f 1 2 192
f 2 193 192
f 189 366 188
f 3 95 190
f 97 180 96
f 85 7 101
f 368 10 11
f 368 11 82
f 175 13 15
f 15 182 175
f 274 16 387
f 109 203 17
f 109 17 18
f 113 19 20
f 113 20 314
f 23 24 208
f 361 174 316
f 316 114 361
f 171 318 27
f 290 696 115
f 290 289 696
f 28 66 349
f 349 30 28
f 29 95 3
f 29 350 95
f 261 160 28
f 261 28 30
f 6 262 265
f 6 219 262
f 34 252 128
f 128 127 34
f 344 222 386
f 51 345 331
f 51 331 47
f 177 50 271
f 50 156 271
f 38 128 247
f 38 129 128
f 237 40 41
f 237 235 40
f 230 233 234
f 45 43 44
f 44 148 45
f 236 145 45
f 141 234 46
f 41 341 152
f 50 177 113
f 113 240 50
f 215 119 332
f 77 343 52
f 55 54 345
f 34 327 326
f 34 326 252
f 130 161 53
f 124 167 57
f 87 218 59
f 7 348 6
f 261 30 61
f 117 266 118
f 356 337 231
f 70 207 71
f 70 71 72
f 362 208 74
f 365 106 76
f 78 205 179
f 78 179 79
f 184 185 369
f 81 93 90
f 303 84 9
f 9 83 303
f 100 297 186
f 347 86 87
f 347 85 86
f 187 282 294
f 93 304 8
f 93 8 307
f 363 91 269
f 76 92 189
f 296 1 192
f 296 192 186
f 269 91 270
f 24 23 97
f 217 195 98
f 277 181 302
f 197 13 9
f 197 9 368
f 351 102 103
f 351 103 198
f 201 200 13
f 201 13 175
f 201 17 367
f 199 80 178
f 204 77 308
f 22 109 18
f 22 18 110
f 89 88 112
f 89 112 25
f 114 22 110
f 114 110 209
f 1304 912 287
f 8 304 116
f 258 30 349
f 63 53 120
f 322 39 121
f 322 121 168
f 335 159 216
f 87 122 347
f 32 126 348
f 32 327 126
f 251 124 55
f 127 128 129
f 127 129 221
f 130 344 131
f 331 250 119
f 119 47 331
f 156 50 132
f 48 38 133
f 138 227 136
f 337 356 134
f 141 356 142
f 210 267 145
f 210 145 339
f 146 147 338
f 44 235 148
f 44 40 235
f 337 133 151
f 337 151 152
f 48 243 38
f 227 155 136
f 36 213 157
f 52 343 248
f 52 248 131
f 159 160 330
f 55 124 57
f 55 57 54
f 329 350 255
f 56 1305 163
f 56 163 220
f 256 391 413
f 256 413 120
f 122 32 348
f 39 165 166
f 403 355 167
f 341 44 229
f 67 268 169
f 67 169 170
f 115 361 290
f 115 172 361
f 209 110 207
f 209 207 70
f 175 276 75
f 271 19 177
f 273 12 203
f 273 203 311
f 275 387 94
f 201 175 17
f 15 181 277
f 15 277 182
f 307 8 199
f 303 83 185
f 7 85 347
f 191 89 4
f 370 375 371
f 361 288 290
f 91 363 286
f 284 190 95
f 192 193 180
f 192 180 299
f 301 98 195
f 301 195 196
f 305 304 278
f 199 8 104
f 201 367 369
f 299 23 276
f 299 276 202
f 272 204 205
f 272 205 78
f 107 271 206
f 110 18 75
f 110 75 207
f 4 89 25
f 364 176 21
f 364 21 315
f 210 139 26
f 360 211 170
f 155 213 36
f 320 389 77
f 214 49 322
f 350 29 65
f 164 260 323
f 164 323 354
f 217 218 87
f 348 126 125
f 348 125 219
f 346 412 56
f 124 251 254
f 221 129 244
f 221 244 330
f 158 222 63
f 332 249 157
f 332 157 213
f 238 224 51
f 238 51 245
f 225 165 241
f 152 231 337
f 141 135 342
f 141 342 356
f 229 232 231
f 229 836 232
f 232 230 142
f 137 235 237
f 149 137 239
f 149 239 240
f 243 129 38
f 243 244 129
f 239 132 240
f 133 247 251
f 133 251 334
f 131 249 130
f 131 248 249
f 250 161 130
f 159 260 164
f 159 335 260
f 255 64 264
f 220 163 328
f 257 258 58
f 265 262 300
f 266 117 60
f 355 402 391
f 142 230 141
f 226 213 155
f 144 143 268
f 144 268 67
f 154 26 139
f 364 315 173
f 317 269 270
f 317 270 312
f 76 176 364
f 76 189 176
f 206 78 107
f 206 272 78
f 308 16 204
f 12 80 104
f 182 277 280
f 182 280 202
f 82 372 368
f 372 181 197
f 196 86 181
f 281 295 285
f 297 89 298
f 297 194 89
f 283 90 93
f 283 284 90
f 91 286 295
f 288 289 290
f 288 212 289
f 291 70 72
f 293 187 294
f 282 1 296
f 300 194 5
f 300 5 265
f 86 85 302
f 86 302 181
f 370 371 303
f 370 303 185
f 307 275 94
f 307 94 93
f 311 203 109
f 21 273 311
f 312 4 211
f 312 313 4
f 315 21 316
f 210 26 359
f 171 360 170
f 171 170 169
f 115 915 319
f 320 77 352
f 321 214 322
f 63 120 324
f 28 160 164
f 31 62 336
f 32 122 87
f 124 328 167
f 33 256 120
f 33 250 331
f 157 249 248
f 157 248 37
f 271 246 333
f 243 335 216
f 240 140 150
f 240 150 149
f 338 225 241
f 338 241 228
f 339 145 236
f 228 241 233
f 153 140 240
f 137 132 239
f 38 247 133
f 386 131 344
f 335 60 260
f 254 253 124
f 255 123 329
f 167 355 57
f 121 349 66
f 390 352 52
f 354 168 66
f 402 355 403
f 142 356 231
f 360 312 211
f 69 26 154
f 68 365 173
f 362 363 269
f 362 269 73
f 75 208 71
f 106 365 20
f 106 20 107
f 366 79 179
f 366 179 310
f 184 17 203
f 280 279 299
f 82 415 305
f 82 400 415
f 369 185 83
f 369 83 200
f 100 280 277
f 100 277 101
f 87 195 217
f 87 86 195
f 374 373 96
f 351 198 95
f 351 95 350
f 106 92 76
f 79 366 92
f 361 172 174
f 69 357 26
f 915 115 696
f 39 325 242
f 330 160 261
f 329 259 59
f 219 58 262
f 135 141 46
f 329 102 351
f 259 87 59
f 30 258 61
f 279 100 186
f 357 174 172
f 263 258 349
f 139 42 140
f 44 341 40
f 390 52 386
f 62 121 166
f 373 374 293
f 60 117 214
f 35 330 261
f 60 335 266
f 111 285 74
f 353 323 321
f 123 162 329
f 258 262 58
f 295 373 293
f 415 304 305
f 380 29 379
f 382 190 378
f 380 65 29
f 386 380 384
f 386 384 390
f 388 377 387
f 378 383 309
f 320 385 379
f 379 382 308
f 387 309 383
f 378 309 382
f 222 158 381
f 384 352 390
f 382 309 308
f 380 386 381
f 378 190 284
f 376 387 377
f 380 381 65
f 190 379 3
f 190 382 379
f 388 383 378
f 65 381 158
f 376 94 387
f 383 388 387
f 320 352 385
f 320 379 389
f 380 352 384
f 283 376 284
f 29 3 379
f 381 386 222
f 376 283 94
f 389 379 308
f 284 376 378
f 377 388 378
f 385 352 380
f 377 378 376
f 380 379 385
f 409 394 395
f 391 405 411
f 397 412 398
f 401 396 409
f 407 401 395
f 403 393 404
f 399 397 411
f 401 406 292
f 401 292 396
f 406 407 371
f 402 405 391
f 398 392 411
f 394 409 408
f 404 393 399
f 393 1305 397
f 395 10 407
f 409 396 408
f 292 406 371
f 11 394 400
f 1305 412 397
f 395 11 10
f 392 391 411
f 402 403 404
f 402 404 405
f 401 407 406
f 407 10 84
f 401 409 395
f 412 410 398
f 394 408 415
f 395 394 11
f 393 397 399
f 411 397 398
f 405 404 399
f 399 411 405
f 163 1305 393
f 407 84 303
f 403 163 393
f 408 116 415
f 414 413 392
f 408 396 116
f 10 368 84
f 371 407 303
f 413 391 392
f 400 394 415
f 410 414 398
f 392 398 414
f 304 415 116
f 324 413 414
f 499 453 589
f 487 452 447
f 492 442 587
f 442 490 587
f 438 449 547
f 581 446 437
f 577 454 498
f 542 580 768
f 768 416 542
f 592 603 551
f 572 593 423
f 480 566 517
f 464 519 557
f 594 552 521
f 557 556 506
f 510 468 550
f 589 588 482
f 448 580 542
f 448 542 583
f 445 584 538
f 490 418 535
f 490 535 536
f 544 547 449
f 544 449 435
f 519 600 525
f 574 573 421
f 574 421 477
f 525 607 520
f 525 520 519
f 480 517 592
f 560 491 514
f 560 514 516
f 521 604 594
f 575 603 509
f 570 460 507
f 554 553 505
f 554 505 504
f 576 420 500
f 433 577 498
f 433 498 512
f 589 549 513
f 589 513 499
f 546 545 439
f 496 589 453
f 493 514 491
f 442 537 639
f 442 639 490
f 534 533 489
f 534 489 555
f 496 455 487
f 582 485 486
f 518 578 484
f 518 484 483
f 588 1308 482
f 564 430 479
f 569 568 596
f 461 506 556
f 553 508 473
f 600 432 468
f 599 464 524
f 557 564 463
f 472 421 569
f 499 498 454
f 499 454 453
f 533 451 455
f 533 455 531
f 487 455 451
f 487 451 452
f 488 489 450
f 583 582 486
f 583 486 448
f 581 447 452
f 581 452 446
f 492 443 442
f 547 546 439
f 547 439 438
f 580 581 437
f 580 437 768
f 1308 485 456
f 462 421 573
f 462 573 428
f 529 424 430
f 552 595 422
f 552 422 429
f 568 462 428
f 593 479 424
f 593 424 423
f 471 470 457
f 563 562 559
f 563 559 548
f 515 543 417
f 562 609 551
f 525 606 607
f 525 522 606
f 592 602 603
f 596 597 476
f 596 476 598
f 457 593 572
f 523 545 591
f 523 576 545
f 496 588 589
f 536 586 493
f 536 493 587
f 445 534 584
f 590 582 539
f 578 590 494
f 578 579 590
f 523 420 576
f 572 423 573
f 572 573 574
f 461 474 460
f 461 460 570
f 425 528 529
f 566 480 567
f 566 564 565
f 565 517 566
f 609 558 551
f 443 560 466
f 443 491 560
f 608 558 511
f 608 511 530
f 554 508 553
f 426 424 597
f 521 552 606
f 521 606 522
f 423 601 431
f 548 549 589
f 548 589 482
f 542 543 583
f 539 582 583
f 539 583 540
f 442 883 537
f 451 533 534
f 435 449 531
f 588 496 1308
f 457 565 593
f 526 571 527
f 526 527 505
f 601 424 426
f 465 523 524
f 556 519 520
f 602 592 517
f 602 517 470
f 418 585 419
f 558 609 434
f 558 434 511
f 604 469 594
f 469 575 509
f 469 604 575
f 527 506 503
f 527 501 506
f 503 505 527
f 503 504 505
f 564 557 501
f 564 501 430
f 420 567 500
f 545 484 497
f 545 497 439
f 590 495 535
f 535 494 590
f 491 492 493
f 491 443 492
f 488 555 489
f 485 1307 486
f 485 1308 1307
f 563 482 1308
f 565 564 479
f 596 568 427
f 427 597 596
f 425 475 598
f 425 598 476
f 503 506 461
f 473 508 421
f 473 421 472
f 469 470 471
f 469 471 478
f 444 443 466
f 602 470 469
f 500 483 576
f 566 463 564
f 566 465 463
f 465 566 420
f 431 601 426
f 431 426 427
f 502 474 458
f 556 520 458
f 574 457 572
f 530 511 485
f 530 485 579
f 451 532 452
f 447 581 448
f 448 486 447
f 445 1431 446
f 438 440 441
f 438 439 440
f 436 768 437
f 456 485 511
f 432 467 433
f 428 573 431
f 429 422 508
f 427 426 597
f 601 423 424
f 465 420 523
f 548 559 549
f 418 419 541
f 543 416 417
f 470 517 565
f 470 565 457
f 477 421 508
f 477 508 422
f 427 568 428
f 427 428 431
f 430 501 529
f 575 562 551
f 511 434 456
f 531 577 435
f 446 1431 1329
f 442 443 444
f 446 452 532
f 489 449 450
f 453 454 455
f 454 531 455
f 563 456 434
f 565 479 593
f 475 425 571
f 571 526 475
f 502 460 474
f 502 459 460
f 569 421 462
f 566 567 420
f 464 463 465
f 464 465 524
f 500 567 483
f 469 509 602
f 605 600 468
f 432 600 599
f 458 607 502
f 474 461 458
f 458 461 556
f 477 595 478
f 478 471 477
f 567 480 481
f 567 481 483
f 576 483 484
f 576 484 545
f 490 639 638
f 543 493 583
f 543 514 493
f 453 455 496
f 513 512 498
f 513 498 499
f 573 423 431
f 424 528 597
f 604 510 575
f 469 478 594
f 549 512 513
f 514 543 515
f 514 515 516
f 518 483 481
f 605 521 522
f 605 604 521
f 600 522 525
f 600 605 522
f 528 424 529
f 603 575 551
f 518 530 579
f 518 579 578
f 451 534 532
f 535 495 586
f 535 586 536
f 538 1431 445
f 439 497 541
f 439 541 419
f 544 545 546
f 544 546 547
f 510 550 512
f 510 512 549
f 557 506 501
f 504 503 461
f 504 461 570
f 425 476 528
f 529 501 571
f 602 509 603
f 519 556 557
f 439 419 561
f 609 562 563
f 609 563 434
f 599 467 432
f 462 568 569
f 528 476 597
f 429 607 606
f 429 502 607
f 429 459 502
f 501 527 571
f 575 510 559
f 510 549 559
f 433 591 577
f 433 467 591
f 580 448 581
f 540 583 493
f 418 490 638
f 638 585 418
f 486 1307 447
f 579 485 582
f 579 582 590
f 592 551 558
f 592 558 608
f 594 595 552
f 594 478 595
f 464 599 600
f 464 600 519
f 604 605 468
f 604 468 510
f 608 530 518
f 419 585 561
f 543 542 416
f 535 418 541
f 595 477 422
f 529 571 425
f 575 559 562
f 512 550 432
f 512 432 433
f 577 591 435
f 531 454 577
f 446 1329 436
f 446 436 437
f 450 449 438
f 450 438 441
f 439 561 440
f 883 442 444
f 446 532 445
f 531 449 489
f 1308 456 563
f 477 471 457
f 477 457 574
f 473 475 526
f 607 458 520
f 508 507 460
f 508 460 459
f 557 463 464
f 598 475 473
f 598 473 472
f 596 598 472
f 592 608 481
f 592 481 480
f 563 548 482
f 1308 496 1307
f 447 1307 487
f 536 587 490
f 587 493 492
f 541 497 494
f 541 494 535
f 590 539 495
f 578 494 497
f 578 497 484
f 508 554 507
f 608 518 481
f 467 599 524
f 467 524 523
f 553 526 505
f 534 445 532
f 539 540 586
f 539 586 495
f 591 545 544
f 554 504 570
f 429 606 552
f 584 534 555
f 523 591 467
f 493 586 540
f 479 430 424
f 429 508 459
f 432 550 468
f 531 489 533
f 591 544 435
f 488 450 441
f 473 526 553
f 596 472 569
f 507 554 570
f 538 584 555
f 496 487 1307
f 555 1448 538
f 993 781 990
f 933 895 676
f 441 670 488
f 949 770 417
f 770 853 417
f 661 868 1115
f 954 967 758
f 747 664 893
f 726 634 832
f 681 625 621
f 684 620 810
f 882 793 1000
f 882 1000 999
f 996 997 991
f 969 971 953
f 969 953 666
f 647 650 961
f 647 961 942
f 983 645 733
f 909 910 802
f 1379 841 918
f 1379 918 795
f 897 785 694
f 629 933 676
f 999 899 875
f 616 626 871
f 616 871 741
f 749 970 641
f 147 888 752
f 667 859 839
f 668 858 773
f 841 1448 555
f 950 875 813
f 994 798 697
f 780 992 779
f 780 779 778
f 724 713 775
f 909 984 730
f 737 771 770
f 972 560 516
f 972 516 874
f 883 444 765
f 764 640 744
f 956 760 759
f 967 740 756
f 967 756 758
f 764 763 750
f 764 750 958
f 628 143 751
f 956 953 971
f 931 779 748
f 870 959 746
f 870 746 745
f 949 417 416
f 740 869 738
f 771 737 736
f 977 976 878
f 977 878 877
f 976 980 879
f 980 983 880
f 980 880 879
f 845 849 734
f 845 734 941
f 983 733 880
f 846 845 941
f 645 982 881
f 645 881 733
f 440 561 837
f 988 989 817
f 824 827 782
f 824 782 718
f 717 783 1263
f 633 775 713
f 633 713 712
f 614 711 895
f 785 1452 694
f 1003 1002 901
f 1007 1430 700
f 1007 700 623
f 610 1010 612
f 685 811 693
f 810 685 684
f 928 786 683
f 928 683 682
f 818 817 989
f 818 989 927
f 819 630 679
f 819 679 929
f 827 908 677
f 895 894 676
f 671 857 672
f 857 952 672
f 949 737 770
f 417 853 515
f 839 665 667
f 964 750 763
f 747 660 662
f 747 662 664
f 866 868 661
f 626 727 658
f 626 658 871
f 659 649 871
f 959 656 657
f 1085 753 863
f 861 954 758
f 861 758 1118
f 985 932 654
f 985 654 653
f 651 738 652
f 872 871 649
f 874 873 646
f 877 876 643
f 877 643 977
f 708 707 642
f 879 878 976
f 978 706 979
f 706 705 981
f 706 981 979
f 767 710 701
f 767 701 772
f 835 728 636
f 888 340 752
f 717 716 632
f 712 622 776
f 712 776 633
f 997 717 632
f 997 632 631
f 992 828 629
f 992 629 663
f 832 995 627
f 832 627 726
f 751 658 727
f 751 727 628
f 681 987 625
f 897 624 714
f 998 1007 624
f 1407 925 619
f 695 802 910
f 610 887 1009
f 610 1009 1010
f 833 892 799
f 833 890 892
f 1007 998 1430
f 617 803 613
f 1002 1003 1004
f 787 999 1000
f 787 899 999
f 622 712 623
f 994 268 995
f 990 991 997
f 988 987 989
f 637 728 805
f 637 805 774
f 731 45 145
f 731 939 45
f 644 645 983
f 835 982 703
f 835 703 834
f 983 981 644
f 980 976 979
f 653 975 968
f 560 972 466
f 647 872 649
f 647 649 650
f 654 748 652
f 965 884 966
f 860 752 960
f 958 760 956
f 958 956 749
f 955 738 651
f 754 753 1085
f 668 942 961
f 668 961 858
f 974 875 950
f 974 950 873
f 809 808 769
f 809 769 852
f 944 946 948
f 944 948 945
f 943 847 844
f 943 844 807
f 805 797 774
f 938 43 45
f 938 45 939
f 232 836 937
f 937 936 232
f 798 995 935
f 829 890 698
f 825 931 932
f 931 825 777
f 724 817 784
f 927 621 812
f 927 812 928
f 788 1000 925
f 788 787 1000
f 691 921 690
f 691 690 922
f 613 806 914
f 896 711 898
f 896 898 918
f 319 915 695
f 797 729 610
f 797 610 801
f 796 212 912
f 800 911 674
f 908 985 909
f 908 909 802
f 927 681 621
f 704 904 905
f 704 905 906
f 705 902 903
f 978 707 900
f 978 900 901
f 786 899 787
f 786 813 899
f 699 917 794
f 897 694 624
f 832 935 995
f 893 629 676
f 722 725 821
f 722 889 725
f 888 147 146
f 885 886 862
f 862 1056 885
f 882 854 769
f 882 769 808
f 734 735 879
f 737 876 877
f 766 974 874
f 974 873 874
f 872 741 871
f 759 762 1115
f 967 869 740
f 864 966 865
f 864 965 966
f 659 658 746
f 863 656 864
f 864 865 863
f 870 860 959
f 765 858 743
f 765 773 858
f 855 670 838
f 855 838 856
f 853 973 669
f 853 854 973
f 847 848 849
f 847 849 845
f 856 838 839
f 856 839 840
f 836 913 884
f 836 884 965
f 800 774 797
f 831 935 832
f 831 832 889
f 997 828 990
f 822 1008 823
f 822 823 678
f 933 630 819
f 933 819 614
f 699 814 816
f 814 1383 815
f 814 815 816
f 685 810 811
f 790 688 947
f 790 947 946
f 678 677 802
f 678 802 695
f 800 801 611
f 800 611 911
f 697 798 1011
f 674 911 914
f 898 1306 794
f 898 794 795
f 687 686 793
f 806 920 807
f 806 807 792
f 688 789 809
f 688 809 947
f 683 787 788
f 683 786 787
f 614 819 615
f 996 783 717
f 992 780 781
f 679 632 776
f 628 268 143
f 628 627 268
f 674 673 774
f 674 774 800
f 731 940 886
f 842 843 846
f 842 846 986
f 850 851 771
f 850 771 736
f 767 768 710
f 444 466 773
f 444 773 765
f 744 743 763
f 744 763 764
f 756 757 758
f 859 747 755
f 750 754 958
f 750 753 754
f 143 745 751
f 143 147 745
f 971 749 956
f 866 660 747
f 736 737 877
f 736 877 878
f 734 879 880
f 941 733 881
f 951 561 585
f 951 837 561
f 986 636 635
f 726 727 987
f 831 722 723
f 831 889 722
f 778 777 719
f 1263 1265 716
f 1263 716 717
f 896 895 711
f 926 683 788
f 707 708 702
f 707 702 900
f 705 706 902
f 905 904 907
f 701 693 708
f 693 702 708
f 699 816 917
f 1010 1009 834
f 801 610 612
f 801 612 611
f 822 678 695
f 811 692 1001
f 811 1001 693
f 920 691 922
f 921 923 689
f 921 689 690
f 924 686 687
f 924 687 789
f 926 1452 682
f 814 700 1383
f 679 622 680
f 679 680 929
f 827 826 908
f 894 893 676
f 674 842 673
f 670 671 672
f 670 672 838
f 854 770 769
f 792 807 844
f 792 844 843
f 947 809 852
f 947 852 851
f 669 974 766
f 669 973 974
f 665 732 666
f 665 666 667
f 867 759 868
f 662 1080 663
f 662 663 664
f 871 658 659
f 757 1118 758
f 653 654 975
f 858 961 964
f 646 873 872
f 646 872 647
f 710 768 436
f 976 978 979
f 982 704 703
f 638 639 640
f 638 640 641
f 886 939 731
f 635 636 728
f 635 728 637
f 936 960 752
f 776 632 716
f 776 716 633
f 777 825 719
f 727 726 627
f 727 627 628
f 714 624 1007
f 1007 715 714
f 621 616 813
f 621 813 812
f 824 618 825
f 804 1005 1006
f 804 1006 803
f 612 617 613
f 614 615 1306
f 614 1306 898
f 358 319 695
f 358 695 910
f 729 887 610
f 611 612 613
f 1453 917 816
f 816 815 1453
f 617 804 803
f 1003 692 1004
f 622 623 814
f 629 664 663
f 630 631 632
f 988 634 987
f 752 340 936
f 885 938 939
f 885 939 886
f 837 951 857
f 642 772 701
f 642 643 772
f 645 644 904
f 980 979 981
f 977 643 642
f 977 642 707
f 669 766 516
f 648 970 969
f 748 651 652
f 859 655 747
f 753 656 863
f 753 963 656
f 656 962 657
f 656 963 962
f 650 649 659
f 650 659 657
f 660 866 661
f 743 858 964
f 743 964 763
f 466 942 668
f 466 972 942
f 669 515 853
f 943 944 945
f 943 945 847
f 674 792 843
f 674 843 842
f 672 952 970
f 672 970 648
f 936 937 965
f 936 965 960
f 798 830 698
f 798 935 830
f 782 823 675
f 827 677 678
f 989 681 927
f 682 683 926
f 710 684 685
f 923 924 688
f 923 688 689
f 613 919 806
f 822 695 915
f 822 696 799
f 822 799 892
f 169 268 697
f 698 890 833
f 698 833 796
f 814 623 700
f 703 704 906
f 706 978 901
f 709 684 710
f 624 694 1452
f 624 1452 1333
f 712 713 714
f 712 714 715
f 782 721 718
f 782 720 721
f 724 725 988
f 724 988 817
f 728 887 729
f 728 729 805
f 730 731 145
f 838 672 732
f 838 732 665
f 986 941 881
f 986 881 636
f 941 734 880
f 941 880 733
f 738 739 740
f 873 950 741
f 873 741 872
f 765 743 744
f 744 742 765
f 751 745 746
f 751 746 658
f 748 779 651
f 964 963 753
f 964 753 750
f 860 870 752
f 885 1056 966
f 885 966 884
f 652 975 654
f 759 760 761
f 759 761 762
f 516 766 874
f 852 769 770
f 852 770 771
f 848 850 736
f 848 736 849
f 847 845 844
f 772 876 737
f 772 737 949
f 909 730 145
f 909 145 267
f 938 913 43
f 775 821 725
f 775 725 724
f 777 778 779
f 777 779 931
f 678 823 782
f 713 724 784
f 713 784 897
f 785 682 1452
f 785 818 682
f 925 1407 788
f 922 791 944
f 922 944 943
f 914 806 792
f 914 792 674
f 930 680 814
f 930 814 1306
f 798 796 1011
f 798 698 796
f 797 801 800
f 799 289 833
f 696 289 799
f 797 805 729
f 807 920 922
f 807 922 943
f 791 790 946
f 791 946 944
f 789 687 808
f 789 808 809
f 812 813 786
f 784 817 818
f 784 818 785
f 820 722 821
f 820 821 934
f 824 825 826
f 824 826 827
f 829 698 830
f 830 723 829
f 833 289 212
f 833 212 796
f 835 834 1009
f 671 441 440
f 440 837 671
f 555 488 841
f 843 844 845
f 843 845 846
f 851 852 771
f 516 515 669
f 671 837 857
f 840 839 859
f 840 859 755
f 968 869 967
f 861 862 954
f 864 860 960
f 960 965 864
f 656 959 860
f 656 860 864
f 866 867 868
f 870 147 752
f 641 640 764
f 641 764 749
f 854 999 875
f 875 973 854
f 735 736 878
f 735 878 879
f 537 883 765
f 537 765 742
f 885 884 913
f 913 938 885
f 835 1009 887
f 835 887 728
f 988 725 889
f 889 634 988
f 890 829 891
f 890 891 892
f 826 932 985
f 894 895 896
f 897 784 785
f 918 898 795
f 908 826 985
f 706 901 902
f 907 705 903
f 907 903 905
f 834 703 906
f 834 906 1010
f 267 358 910
f 267 910 909
f 796 912 1011
f 836 43 913
f 911 611 613
f 911 613 914
f 916 1331 794
f 794 917 916
f 841 1379 1448
f 919 691 920
f 919 920 806
f 924 789 688
f 926 788 1407
f 929 680 930
f 989 987 681
f 825 932 826
f 629 631 630
f 630 933 629
f 633 821 775
f 633 934 821
f 798 994 995
f 673 635 637
f 673 637 774
f 731 984 968
f 731 968 940
f 946 947 851
f 946 851 948
f 949 416 767
f 951 952 857
f 951 585 638
f 951 638 952
f 667 666 953
f 940 954 862
f 940 862 886
f 956 957 953
f 659 959 657
f 961 962 963
f 961 963 964
f 957 655 859
f 859 953 957
f 967 940 968
f 969 970 749
f 969 749 971
f 973 875 974
f 976 977 707
f 976 707 978
f 983 980 981
f 982 645 904
f 982 904 704
f 984 909 985
f 984 985 968
f 842 986 635
f 842 635 673
f 625 987 727
f 625 727 626
f 823 1008 675
f 992 993 828
f 996 717 997
f 621 626 616
f 928 812 786
f 1003 1001 692
f 1005 1002 1004
f 1005 1004 1006
f 808 687 793
f 808 793 882
f 1008 892 891
f 1008 822 892
f 697 1011 169
f 916 917 1453
f 898 711 614
f 930 1306 615
f 1010 906 617
f 1010 617 612
f 691 919 803
f 906 905 804
f 906 804 617
f 921 691 803
f 921 803 1006
f 905 903 1005
f 905 1005 804
f 903 902 1005
f 902 901 1002
f 924 1004 692
f 901 900 1003
f 719 825 618
f 810 620 619
f 619 811 810
f 741 950 813
f 741 813 616
f 680 622 814
f 715 1007 623
f 626 621 625
f 629 893 664
f 632 679 630
f 934 633 716
f 726 987 634
f 970 952 638
f 970 638 641
f 537 742 640
f 537 640 639
f 701 708 642
f 876 772 643
f 907 904 644
f 709 710 436
f 942 972 646
f 942 646 647
f 666 732 648
f 666 648 969
f 866 747 655
f 962 961 650
f 962 650 657
f 651 779 663
f 651 663 1080
f 940 967 954
f 759 1115 868
f 957 956 759
f 957 759 867
f 773 466 668
f 848 847 945
f 854 853 770
f 732 672 648
f 441 671 670
f 836 965 937
f 888 146 340
f 935 831 830
f 720 782 675
f 755 747 893
f 755 893 894
f 678 782 827
f 679 776 622
f 693 701 710
f 693 710 685
f 692 686 924
f 688 790 689
f 1004 924 923
f 790 791 690
f 790 690 689
f 1006 1004 923
f 1006 923 921
f 613 803 919
f 702 693 1001
f 686 692 811
f 696 822 915
f 268 994 697
f 1002 1005 902
f 1001 1003 900
f 1001 900 702
f 998 624 1333
f 623 712 715
f 713 897 714
f 820 934 716
f 820 716 1265
f 723 830 831
f 984 731 730
f 839 838 665
f 982 835 636
f 982 636 881
f 738 955 739
f 742 744 640
f 147 870 745
f 760 958 754
f 869 975 652
f 754 1085 761
f 754 761 760
f 767 416 768
f 948 851 850
f 735 734 849
f 735 849 736
f 945 948 850
f 945 850 848
f 941 986 846
f 949 767 772
f 995 268 627
f 993 992 781
f 929 930 615
f 929 615 819
f 927 928 682
f 927 682 818
f 922 690 791
f 925 1000 793
f 925 793 686
f 814 699 1306
f 794 1331 795
f 699 794 1306
f 908 802 677
f 895 933 614
f 828 993 990
f 631 629 828
f 631 828 997
f 634 889 832
f 896 918 856
f 896 856 840
f 670 855 841
f 670 841 488
f 918 855 856
f 894 896 840
f 894 840 755
f 968 975 869
f 959 659 746
f 655 957 867
f 655 867 866
f 958 749 764
f 854 882 999
f 875 899 813
f 644 981 705
f 644 705 907
f 748 654 932
f 748 932 931
f 953 859 667
f 968 985 653
f 686 811 619
f 619 925 686
f 663 779 992
f 874 646 972
f 738 869 652
f 1379 795 1331
f 841 855 918
f 709 436 1329
f 862 861 1099
f 740 1141 756
f 1062 1130 1094
f 1147 1111 1121
f 1090 1134 1038
f 1041 1034 1030
f 1088 1133 1027
f 1152 1049 1112
f 1103 1070 1019
f 1018 1075 1137
f 1143 1017 1044
f 1099 861 1118
f 1099 1118 1117
f 1117 1100 1099
f 1069 1138 1055
f 1150 660 1135
f 1150 662 660
f 1129 739 955
f 1130 1129 1079
f 1130 1079 1094
f 1096 1126 1089
f 1096 1089 1088
f 1051 1083 1127
f 1017 1144 1122
f 1148 1125 1091
f 1131 1130 1062
f 1131 1062 1064
f 1142 1151 1078
f 1142 1078 1148
f 1110 1077 1105
f 1146 1136 1072
f 1146 1072 1074
f 1120 1119 1084
f 1120 1084 1037
f 1103 1069 1070
f 1154 1028 1031
f 1128 1062 1023
f 1151 1061 1078
f 1105 1106 1060
f 1106 1026 1133
f 1106 1133 1060
f 1059 1152 1112
f 863 1013 1085
f 1114 1087 1072
f 1036 1069 1055
f 1036 1055 1054
f 1051 1128 1052
f 1052 1059 1053
f 1111 1147 1048
f 1155 1012 1046
f 1155 1046 1045
f 1044 1137 1075
f 1123 1122 1144
f 1123 1144 1022
f 1030 1046 1040
f 1030 1040 1041
f 1041 1100 1034
f 1067 1098 1033
f 1067 1033 1032
f 1035 1100 1101
f 1034 1140 1031
f 1034 1031 1030
f 1153 1138 1029
f 1153 1029 1028
f 1042 1103 1019
f 1133 1026 1027
f 1152 1052 1023
f 1050 1123 1022
f 1070 1039 1020
f 1070 1020 1019
f 1155 1087 1012
f 1040 762 761
f 1052 1152 1059
f 1080 662 1150
f 1125 1148 1149
f 1049 1145 1146
f 1049 1146 1066
f 1084 1142 1038
f 1140 1113 1154
f 1140 1035 1113
f 1067 1139 1098
f 1044 1017 1137
f 1104 1020 1134
f 1024 1130 1131
f 1024 1129 1130
f 1051 1127 1128
f 1065 1125 1149
f 1042 1124 1082
f 1042 1082 1021
f 1114 1115 1087
f 865 1057 1013
f 865 1013 863
f 1112 1043 1058
f 1112 1016 1043
f 1149 1078 1065
f 1065 1109 1125
f 1058 1061 1093
f 1151 1142 1083
f 1090 1107 1104
f 1144 1103 1042
f 1101 1015 1113
f 1101 1102 1015
f 1153 1055 1138
f 1153 1154 1055
f 1090 1081 1097
f 955 651 1129
f 1083 1093 1151
f 1020 1104 1047
f 1088 1089 1133
f 1087 1115 762
f 1091 1125 1095
f 1064 1062 1128
f 1064 1128 1127
f 1077 1107 1097
f 1097 1105 1077
f 1072 1045 1073
f 1072 1073 1074
f 1067 1071 1141
f 1016 1112 1049
f 1094 1145 1049
f 1076 1126 1065
f 1076 1065 1078
f 1078 1061 1076
f 1082 1020 1047
f 1015 1025 1119
f 1087 1155 1072
f 1057 1056 1099
f 1057 1099 1014
f 1051 1052 1053
f 1058 1076 1061
f 1142 1084 1083
f 1030 1045 1046
f 1022 1144 1042
f 1036 1037 1038
f 1036 1038 1039
f 1100 1033 1101
f 1100 1032 1033
f 1045 1030 1031
f 1045 1031 1073
f 1019 1124 1042
f 1049 1152 1023
f 1021 1082 1047
f 1124 1019 1020
f 1086 1013 1057
f 1086 1057 1014
f 762 1012 1087
f 1017 1122 1133
f 1017 1133 1018
f 1021 1050 1022
f 1021 1022 1042
f 1131 1068 1024
f 1131 1139 1068
f 1026 1092 1095
f 1026 1095 1027
f 1016 1029 1043
f 1016 1028 1029
f 1015 1102 1025
f 1034 1035 1140
f 1034 1100 1035
f 1040 1014 1041
f 1075 1043 1044
f 1043 1029 1044
f 1147 1047 1108
f 1147 1108 1048
f 1127 1025 1063
f 1104 1108 1047
f 1123 1050 1121
f 1113 1054 1055
f 1055 1154 1113
f 1086 1014 1040
f 865 966 1056
f 865 1056 1057
f 1013 1086 1085
f 1112 1058 1059
f 1107 1090 1097
f 1107 1108 1104
f 1062 1049 1023
f 1063 1064 1127
f 1074 1028 1066
f 1074 1073 1028
f 1067 1068 1139
f 1069 1036 1070
f 1036 1039 1070
f 1038 1037 1084
f 1058 1075 1076
f 1058 1043 1075
f 1148 1078 1149
f 1150 1079 1080
f 1124 1020 1082
f 1025 1127 1083
f 1025 1083 1084
f 1085 1086 1040
f 757 756 1071
f 1051 1053 1083
f 1081 1091 1092
f 1081 1090 1091
f 1092 1026 1106
f 1092 1106 1081
f 1079 1150 1145
f 1079 1145 1094
f 1095 1096 1027
f 1095 1109 1096
f 660 661 1114
f 660 1114 1135
f 1098 1063 1025
f 1014 1099 1100
f 1014 1100 1041
f 1136 1146 1145
f 1105 1097 1081
f 1105 1081 1106
f 739 1024 1068
f 1107 1077 1048
f 1107 1048 1108
f 1092 1091 1095
f 1110 1133 1122
f 1110 1122 1111
f 1015 1120 1054
f 1054 1113 1015
f 1071 1118 757
f 1116 1117 1118
f 1119 1120 1015
f 1121 1122 1123
f 1125 1109 1095
f 1065 1096 1109
f 1065 1126 1096
f 1068 740 739
f 1089 1132 1018
f 1089 1018 1133
f 1135 1136 1145
f 1069 1103 1143
f 1143 1138 1069
f 1117 1116 1032
f 1117 1032 1100
f 1141 1068 1067
f 1143 1103 1144
f 1143 1144 1017
f 1147 1050 1021
f 1021 1047 1147
f 1129 1024 739
f 1093 1061 1151
f 1153 1028 1154
f 762 1040 1012
f 1137 1017 1018
f 1064 1063 1139
f 1064 1139 1131
f 1098 1025 1102
f 1102 1101 1033
f 1134 1020 1039
f 1134 1039 1038
f 1054 1120 1037
f 1054 1037 1036
f 1138 1143 1044
f 1138 1044 1029
f 1050 1147 1121
f 1066 1028 1016
f 1045 1072 1155
f 1025 1084 1119
f 1058 1093 1059
f 1133 1110 1060
f 1132 1089 1126
f 1132 1126 1076
f 1094 1049 1062
f 1049 1066 1016
f 1066 1146 1074
f 1073 1031 1028
f 1140 1154 1031
f 1071 756 1141
f 1032 1116 1071
f 1032 1071 1067
f 1018 1132 1076
f 1018 1076 1075
f 1129 651 1080
f 1129 1080 1079
f 1040 761 1085
f 1093 1083 1053
f 1027 1096 1088
f 1038 1142 1091
f 1038 1091 1090
f 1135 1145 1150
f 1136 1135 1114
f 1115 1114 661
f 1098 1139 1063
f 1113 1035 1101
f 1104 1134 1090
f 1110 1111 1048
f 1110 1048 1077
f 1122 1121 1111
f 1116 1118 1071
f 1068 1141 740
f 1046 1012 1040
f 1052 1128 1023
f 1098 1102 1033
f 1091 1142 1148
f 1059 1093 1053
f 1114 1072 1136
f 1105 1060 1110
f 862 1099 1056
f 1214 1270 1298
f 1248 1235 1254
f 1254 1228 1248
f 1230 1192 1292
f 1184 1269 1278
f 1177 1255 1291
f 1167 1259 1187
f 1219 1217 1163
f 618 1197 719
f 1276 1295 1164
f 1276 1170 1295
f 1250 1240 1226
f 1290 1277 1269
f 1290 1269 1270
f 1297 1298 1270
f 783 1266 1264
f 783 1264 1263
f 1302 1303 1265
f 1302 1265 1264
f 1287 1242 1262
f 1287 1262 1261
f 1236 1187 1259
f 1221 1281 1183
f 1221 1183 1194
f 1162 1291 1255
f 1234 1175 1297
f 1234 1297 1254
f 1195 1296 1252
f 1195 1252 1253
f 1246 824 718
f 1246 718 1243
f 1191 1262 1242
f 1191 1242 1241
f 1238 1200 1239
f 1254 1235 1234
f 1275 1272 1299
f 1297 1184 1183
f 1249 1248 1228
f 1279 1251 1161
f 1226 1225 991
f 1185 1203 1210
f 1245 1244 1289
f 1245 1289 1212
f 1236 1235 1248
f 1285 1302 1199
f 1285 1199 1201
f 618 1246 1197
f 1234 1258 1196
f 1193 1221 1194
f 1227 1192 1300
f 1230 1229 1192
f 1225 1267 996
f 1288 1287 1261
f 1257 1183 1182
f 1278 1179 1184
f 1273 1272 1232
f 1182 1184 1179
f 1182 1179 1178
f 1231 1230 1292
f 1231 1292 1218
f 1203 1202 1169
f 1203 1169 1210
f 1209 1176 1291
f 1299 1301 1275
f 1204 1191 1241
f 675 1224 720
f 1224 1190 720
f 1267 1226 1240
f 1302 1206 1303
f 1299 1300 1301
f 1295 1296 1160
f 1160 1294 1295
f 1159 1277 1290
f 1159 1290 1294
f 1162 1246 1291
f 1214 1216 1294
f 1214 1294 1290
f 1236 1203 1185
f 1236 1185 1187
f 1190 1174 1243
f 1244 1284 1285
f 1244 1172 1284
f 1285 1206 1302
f 1279 1168 1250
f 1277 1159 1213
f 1277 1213 1278
f 618 824 1246
f 1272 1175 1234
f 1272 1273 1175
f 1271 1157 1156
f 1270 1269 1184
f 1270 1184 1297
f 1205 1262 1191
f 1008 891 675
f 891 1188 1268
f 891 1268 675
f 1267 1266 783
f 1261 1205 1171
f 1261 1262 1205
f 1258 1259 1260
f 1258 1236 1259
f 1222 1156 1158
f 1222 1158 1220
f 1181 1256 1273
f 1163 1162 1255
f 1252 1157 1253
f 1202 1248 1249
f 1186 1289 1238
f 1243 718 1190
f 1237 1238 1239
f 1237 1239 1240
f 1278 1213 1179
f 1213 1233 1179
f 1229 1230 1231
f 1229 1231 1177
f 1272 1274 1299
f 1183 1228 1297
f 1186 1185 1212
f 722 820 1189
f 1267 1225 1226
f 722 1189 1188
f 722 1188 723
f 1157 1223 1158
f 1271 1156 1222
f 1272 1234 1274
f 1217 778 719
f 1213 1160 1296
f 1210 1212 1185
f 1210 1211 1212
f 1207 1208 1173
f 1285 1268 1206
f 1285 1284 1268
f 1187 1186 1238
f 1199 1200 1201
f 1275 1241 1276
f 1294 1160 1159
f 1300 1192 1229
f 1261 1171 1245
f 1190 718 721
f 1206 1188 1189
f 1206 1189 820
f 1187 1185 1186
f 1273 1232 1181
f 1256 1180 1273
f 1176 1204 1229
f 1166 1260 1259
f 1169 1211 1210
f 1169 1247 1211
f 1284 1173 1224
f 1284 1224 1268
f 1249 1281 1247
f 1249 1247 1169
f 1271 1193 1165
f 1271 1222 1193
f 1197 1162 1163
f 1216 1256 1295
f 721 720 1190
f 1240 1239 1267
f 1241 1275 1301
f 1241 1301 1204
f 1156 1157 1158
f 1213 1159 1160
f 1161 781 780
f 1181 1164 1256
f 1166 1167 1168
f 1166 1168 1279
f 1283 1170 1241
f 1171 1172 1244
f 1209 1291 1174
f 1187 1238 1237
f 1280 1221 1220
f 1176 1229 1177
f 1292 1279 1218
f 1198 1178 1179
f 1198 1179 1233
f 1216 1295 1294
f 1184 1182 1183
f 1288 1261 1245
f 783 996 1267
f 1191 1204 1205
f 1193 1194 1257
f 1271 1198 1195
f 1260 1166 1293
f 1246 1162 1197
f 1178 1198 1271
f 1178 1271 1165
f 1202 1203 1248
f 1203 1236 1248
f 1186 1212 1289
f 1205 1208 1207
f 1207 1171 1205
f 1207 1173 1284
f 1205 1204 1176
f 1176 1209 1205
f 1251 1226 991
f 1251 991 990
f 1214 1215 1180
f 1180 1216 1214
f 1218 1161 1219
f 1218 1279 1161
f 1220 1221 1193
f 1220 1193 1222
f 1228 1183 1249
f 675 1268 1224
f 1188 891 829
f 1188 829 723
f 1227 1293 1192
f 1280 1220 1158
f 780 1219 1161
f 1181 1232 1164
f 1235 1236 1258
f 1258 1234 1235
f 1241 1242 1283
f 1244 1245 1171
f 1291 1246 1174
f 1280 1247 1281
f 1279 1250 1251
f 1292 1166 1279
f 1180 1215 1175
f 1180 1175 1273
f 1216 1180 1256
f 1194 1183 1257
f 1263 1264 1265
f 1266 1267 1239
f 1227 1196 1260
f 1227 1260 1293
f 1213 1296 1233
f 1195 1198 1233
f 1274 1234 1196
f 1275 1276 1272
f 1195 1233 1296
f 1280 1281 1221
f 1282 1283 1242
f 1282 1242 1287
f 1286 1282 1287
f 1286 1287 1288
f 1238 1289 1201
f 1238 1201 1200
f 1280 1158 1223
f 1271 1253 1157
f 1206 1268 1188
f 1229 1204 1301
f 1281 1249 1183
f 1256 1164 1295
f 1251 990 781
f 1251 781 1161
f 1217 719 1197
f 1217 1197 1163
f 1193 1257 1165
f 1166 1259 1167
f 1187 1237 1168
f 1187 1168 1167
f 1202 1249 1169
f 1276 1241 1170
f 1296 1295 1170
f 1296 1170 1283
f 1171 1207 1172
f 1174 1190 1224
f 1174 1224 1173
f 1173 1208 1209
f 1173 1209 1174
f 1286 1288 1211
f 1286 1211 1247
f 1291 1176 1177
f 1178 1165 1182
f 1212 1211 1288
f 1212 1288 1245
f 1303 1206 820
f 1301 1300 1229
f 1253 1271 1195
f 1266 1239 1200
f 1266 1200 1199
f 1205 1209 1208
f 1284 1172 1207
f 1251 1250 1226
f 1298 1215 1214
f 1219 780 778
f 1219 778 1217
f 1163 1255 1218
f 1163 1218 1219
f 1282 1286 1223
f 1282 1223 1157
f 1293 1292 1192
f 1254 1297 1228
f 1300 1299 1274
f 1255 1177 1231
f 1272 1276 1164
f 1272 1164 1232
f 1250 1168 1237
f 1250 1237 1240
f 1243 1174 1246
f 1280 1223 1247
f 1283 1282 1157
f 1283 1157 1252
f 1292 1293 1166
f 1298 1297 1175
f 1298 1175 1215
f 1260 1196 1258
f 1274 1196 1227
f 1214 1290 1270
f 1277 1278 1269
f 1201 1289 1244
f 1201 1244 1285
f 1257 1182 1165
f 1223 1286 1247
f 1283 1252 1296
f 1231 1218 1255
f 820 1265 1303
f 991 1225 996
f 1300 1274 1227
f 1264 1266 1199
f 1199 1302 1264
f 1448 1479 538
f 1464 1446 1401
f 1491 1459 1352
f 1352 1364 1491
f 1444 1445 1418
f 1379 1331 1341
f 1485 1469 1327
f 1327 1435 1485
f 1427 1380 1424
f 1486 1310 1368
f 1369 1409 1456
f 1413 1359 1469
f 1386 1433 1481
f 1469 1485 1413
f 1462 1500 1347
f 1448 1478 1479
f 1461 1500 1462
f 1464 1396 1446
f 1435 1376 1485
f 1390 1481 1433
f 1390 1433 1432
f 1478 1425 1334
f 1397 1418 1445
f 1413 1414 1494
f 1413 1494 1359
f 1370 1422 1501
f 1363 1487 1488
f 1402 1401 1446
f 1375 1392 1388
f 1375 1388 1471
f 1389 1390 1432
f 1428 1388 1392
f 1428 1392 1434
f 1339 1387 1309
f 1385 1386 1482
f 1381 1382 1482
f 1381 1482 1429
f 1378 1483 1338
f 1483 1391 1373
f 1372 1438 1371
f 1369 1370 1501
f 1369 1501 1408
f 1364 1493 1491
f 1364 1444 1365
f 1364 1365 1493
f 1310 1363 1488
f 1310 1488 1368
f 1354 1442 1449
f 1353 1352 1459
f 1349 1350 1401
f 1349 1401 1402
f 1346 1347 1443
f 1418 1365 1444
f 1468 1368 1367
f 1368 1466 1486
f 1498 1450 1322
f 1325 1373 1371
f 1380 1340 1424
f 1335 1334 1425
f 1335 1425 1336
f 1333 1332 998
f 1436 916 1453
f 1331 1330 1340
f 1331 1340 1341
f 1328 709 1329
f 1328 1329 1335
f 1424 1470 1344
f 1470 1327 1469
f 1325 1403 1373
f 1324 1323 1441
f 1324 1441 1404
f 1321 1454 1451
f 1321 1451 1440
f 1402 1490 1461
f 1402 1461 1349
f 1315 1465 1420
f 1312 1402 1444
f 1313 1367 1489
f 1356 1311 1393
f 1421 1310 1486
f 1434 1480 1428
f 1422 1423 1501
f 1440 1323 1416
f 1440 1416 1499
f 1495 1494 1354
f 1490 1489 1488
f 1488 1487 1490
f 1501 1450 1498
f 1501 1498 1408
f 1389 1475 1326
f 1389 1326 1472
f 1337 1338 1483
f 1337 1483 1377
f 1383 1480 815
f 1383 1381 1480
f 1386 1477 1433
f 1474 1339 1473
f 1470 1469 1324
f 1451 1405 1440
f 1465 1398 1400
f 1462 1349 1461
f 1462 1351 1349
f 1492 1460 1419
f 1323 1359 1494
f 1455 1371 1454
f 1455 1454 1502
f 1453 815 1436
f 1449 1443 1410
f 1498 1447 1497
f 1465 1400 1420
f 1419 1460 1315
f 1464 1366 1395
f 1464 1395 1396
f 1400 1443 1449
f 1400 1449 1442
f 1405 1404 1441
f 1405 1441 1440
f 1437 1436 1376
f 1437 1376 1435
f 815 1434 1392
f 815 1392 1436
f 1334 1431 538
f 1429 1481 1390
f 1429 1390 1428
f 1425 1478 1426
f 1471 1472 1423
f 1471 1423 1422
f 1322 1321 1498
f 1420 1399 1419
f 1417 1412 1416
f 1417 1416 1360
f 1412 1411 1416
f 1411 1499 1416
f 1370 1374 1422
f 926 1407 1387
f 926 1387 1406
f 1487 1363 1361
f 1321 1440 1499
f 1492 1419 1399
f 1319 1314 1467
f 1394 1374 1458
f 1439 1344 1404
f 1404 1405 1439
f 1391 1426 1343
f 1386 1406 1387
f 1387 1339 1386
f 1383 700 1382
f 1383 1382 1381
f 1376 1375 1374
f 1376 1374 1357
f 1374 1370 1369
f 1374 1369 1458
f 1368 1489 1367
f 1368 1488 1489
f 1346 1366 1348
f 1348 1366 1463
f 1351 1347 1348
f 1494 1495 1323
f 1323 1360 1416
f 1497 1447 1361
f 1414 1356 1354
f 1393 1458 1457
f 1353 1312 1352
f 1463 1350 1349
f 1463 1349 1351
f 1418 1465 1365
f 1465 1315 1365
f 1345 1320 1421
f 1455 1325 1371
f 1426 1344 1343
f 1426 1424 1344
f 1341 1340 1380
f 1425 1342 1336
f 1333 1358 1332
f 1329 1431 1335
f 1327 1470 1424
f 1325 1455 1403
f 1322 1454 1321
f 1420 1400 1320
f 1319 1318 1317
f 1319 1317 1316
f 1313 1402 1312
f 1313 1312 1367
f 1310 1421 1409
f 1310 1409 1362
f 1413 1357 1311
f 619 620 1309
f 1434 815 1480
f 1405 1451 1438
f 1413 1311 1356
f 1399 1314 1496
f 1492 1415 1316
f 1402 1313 1490
f 1319 1467 1318
f 1323 1324 1359
f 1403 1326 1373
f 1328 684 709
f 1331 916 1436
f 1331 1436 1330
f 1335 1431 1334
f 1474 1338 1337
f 1337 1339 1474
f 1342 1425 1426
f 1472 1326 1403
f 1472 1403 1423
f 1466 1368 1468
f 1348 1347 1346
f 1348 1463 1351
f 1316 1415 1496
f 1316 1496 1319
f 1393 1457 1356
f 1355 1354 1356
f 1355 1356 1457
f 1357 1374 1394
f 1361 1362 1497
f 1452 1358 1333
f 1363 1310 1362
f 1363 1362 1361
f 1444 1364 1312
f 1366 1346 1395
f 1460 1493 1365
f 1460 1365 1315
f 1492 1317 1491
f 1492 1316 1317
f 1320 1355 1421
f 1373 1372 1371
f 1377 1373 1326
f 1377 1483 1373
f 1380 1448 1379
f 1385 1358 1384
f 1384 1386 1385
f 1390 1389 1388
f 1388 1428 1390
f 1436 1392 1375
f 1436 1375 1376
f 1394 1458 1393
f 1320 1400 1442
f 1398 1397 1396
f 1398 1396 1395
f 1346 1400 1398
f 1398 1395 1346
f 1447 1499 1361
f 1447 1321 1499
f 1487 1361 1499
f 1403 1455 1450
f 1362 1409 1408
f 1362 1408 1497
f 1347 1410 1443
f 1414 1413 1356
f 1415 1399 1496
f 1397 1398 1465
f 1397 1465 1418
f 1345 1421 1486
f 1373 1391 1484
f 1424 1340 1327
f 1478 1427 1426
f 1430 998 1332
f 1433 1477 1476
f 1433 1476 1432
f 1339 1309 620
f 1372 1439 1405
f 1372 1405 1438
f 1319 1496 1314
f 1412 1500 1461
f 1412 1461 1411
f 1492 1399 1415
f 1446 1445 1444
f 1446 1444 1402
f 1423 1403 1450
f 1423 1450 1501
f 1452 926 1384
f 1452 1384 1358
f 1421 1457 1456
f 1421 1355 1457
f 1458 1369 1457
f 1420 1419 1315
f 1464 1350 1463
f 1464 1463 1366
f 1468 1467 1314
f 1468 1314 1466
f 1388 1472 1471
f 1388 1389 1472
f 1432 1475 1389
f 1432 1476 1475
f 1479 1478 1334
f 1482 1386 1481
f 1482 1481 1429
f 1343 1484 1391
f 1485 1376 1357
f 1357 1413 1485
f 1466 1345 1486
f 1493 1460 1492
f 1493 1492 1491
f 1498 1497 1408
f 1347 1500 1417
f 1500 1412 1417
f 1322 1502 1454
f 619 1309 1387
f 619 1387 1407
f 1311 1357 1394
f 1438 1451 1454
f 1438 1454 1371
f 1409 1421 1456
f 1314 1399 1320
f 1314 1320 1345
f 1317 1318 1353
f 1317 1353 1459
f 1490 1313 1489
f 1420 1320 1399
f 1318 1467 1312
f 1318 1312 1353
f 684 1328 1474
f 684 1474 1473
f 1330 1436 1437
f 1332 1358 1385
f 1336 1342 1338
f 1336 1338 1474
f 1339 1337 1476
f 1339 1476 1477
f 1341 1380 1379
f 1342 1426 1378
f 1424 1426 1427
f 1343 1344 1439
f 1352 1312 1364
f 1354 1355 1442
f 1414 1354 1494
f 1359 1324 1469
f 1360 1323 1495
f 1347 1351 1462
f 1491 1317 1459
f 1355 1320 1442
f 1372 1373 1484
f 1374 1375 1471
f 1374 1471 1422
f 1377 1326 1475
f 1378 1426 1391
f 1448 1380 1427
f 1448 1427 1478
f 1382 700 1430
f 1382 1430 1332
f 1386 1384 1406
f 1386 1339 1477
f 1404 1344 1470
f 1404 1470 1324
f 1394 1393 1311
f 1396 1397 1445
f 1396 1445 1446
f 1400 1346 1443
f 1401 1350 1464
f 1321 1447 1498
f 1487 1499 1411
f 1450 1455 1502
f 926 1406 1384
f 1408 1409 1369
f 1410 1347 1417
f 1367 1312 1467
f 1367 1467 1468
f 1417 1360 1495
f 1327 1340 1437
f 1327 1437 1435
f 1429 1428 1480
f 1429 1480 1381
f 1334 538 1479
f 1339 620 1473
f 1439 1372 1484
f 1439 1484 1343
f 1440 1441 1323
f 1411 1461 1490
f 1411 1490 1487
f 1449 1410 1495
f 1449 1495 1354
f 1450 1502 1322
f 1456 1457 1369
f 1466 1314 1345
f 1475 1476 1337
f 1475 1337 1377
f 620 684 1473
f 1474 1335 1336
f 1474 1328 1335
f 1437 1340 1330
f 1482 1332 1385
f 1482 1382 1332
f 1378 1338 1342
f 1417 1495 1410
f 1483 1378 1391
