v 0.17 -0.10 -2.30
v 0.14 -0.09 -2.35
v 0.12 -0.01 -2.35
v 0.13 -0.18 -2.36
v 0.15 -0.19 -2.30
v 0.08 -0.26 -2.39
v 0.10 -0.28 -2.30
v 0.04 -0.29 -2.46
v 0.04 -0.30 -2.30
v -0.01 -0.30 -2.46
v -0.03 -0.30 -2.30
v -0.05 -0.29 -2.46
v -0.07 -0.28 -2.30
v -0.10 -0.26 -2.38
v -0.19 -0.15 -2.30
v -0.17 -0.14 -2.36
v -0.22 -0.07 -2.30
v -0.19 -0.07 -2.36
v -0.21 0.01 -2.30
v -0.18 0.01 -2.36
v -0.19 0.07 -2.36
v -0.21 0.09 -2.30
v -0.13 0.18 -2.37
v -0.16 0.19 -2.30
v -0.09 0.24 -2.38
v -0.10 0.26 -2.30
v -0.03 0.30 -2.47
v 0.01 0.30 -2.30
v 0.01 0.29 -2.47
v 0.05 0.28 -2.46
v 0.08 0.29 -2.30
v 0.10 0.25 -2.41
v 0.17 0.17 -2.30
v 0.15 0.17 -2.36
v 0.15 0.06 -2.35
v 0.18 0.04 -2.30
v 0.12 -0.02 -2.35
v 0.17 -0.02 -2.30
v 0.11 0.27 -2.30
v -0.04 0.29 -2.30
v -0.12 -0.24 -2.30
v 0.17 -0.02 -2.29
v 0.17 -0.02 -2.23
v 0.16 -0.10 -2.24
v 0.16 -0.20 -2.24
v 0.11 -0.30 -2.24
v 0.05 -0.32 -2.25
v -0.03 -0.30 -2.24
v -0.08 -0.27 -2.23
v -0.13 -0.23 -2.23
v -0.23 -0.08 -2.23
v -0.22 -0.00 -2.22
v -0.21 0.10 -2.22
v -0.17 0.20 -2.23
v -0.10 0.26 -2.23
v -0.05 0.28 -2.23
v 0.01 0.29 -2.23
v 0.07 0.30 -2.24
v 0.12 0.29 -2.24
v 0.18 0.18 -2.23
v 0.17 0.05 -2.23
v -0.21 -0.15 -2.23
v 0.17 -0.02 -2.18
v 0.16 -0.11 -2.18
v 0.12 -0.32 -2.19
v 0.05 -0.33 -2.18
v -0.03 -0.29 -2.17
v -0.10 -0.24 -2.16
v -0.14 -0.23 -2.16
v -0.23 -0.16 -2.15
v -0.24 -0.09 -2.15
v -0.23 0.01 -2.15
v -0.23 0.11 -2.15
v -0.18 0.21 -2.15
v -0.11 0.27 -2.16
v -0.05 0.28 -2.17
v 0.01 0.29 -2.17
v 0.08 0.31 -2.17
v 0.18 0.19 -2.18
v 0.17 0.06 -2.18
v 0.17 -0.01 -2.18
v 0.12 0.31 -2.17
v 0.15 -0.20 -2.19
v 0.17 -0.01 -2.11
v 0.16 -0.11 -2.11
v 0.15 -0.21 -2.11
v 0.13 -0.32 -2.12
v 0.04 -0.33 -2.11
v -0.03 -0.29 -2.10
v -0.12 -0.27 -2.08
v -0.17 -0.25 -2.07
v -0.22 -0.17 -2.06
v -0.23 -0.10 -2.06
v -0.23 0.01 -2.07
v -0.22 0.11 -2.07
v -0.19 0.22 -2.07
v -0.06 0.29 -2.09
v -0.01 0.29 -2.09
v 0.09 0.32 -2.11
v 0.13 0.31 -2.11
v 0.18 0.20 -2.10
v 0.17 0.06 -2.11
v 0.16 -0.01 -2.11
v 0.17 -0.01 -2.02
v 0.16 -0.12 -2.02
v 0.15 -0.23 -2.01
v 0.13 -0.34 -2.02
v -0.04 -0.30 -2.01
v -0.14 -0.30 -2.00
v -0.19 -0.18 -1.98
v -0.20 -0.10 -1.98
v -0.20 0.01 -1.98
v -0.20 0.12 -1.98
v -0.17 0.22 -1.98
v -0.13 0.31 -1.99
v -0.00 0.29 -2.02
v 0.10 0.34 -2.02
v 0.14 0.33 -2.02
v 0.18 0.21 -2.02
v 0.17 -0.01 -2.01
v 0.17 0.07 -2.01
v -0.10 0.32 -2.00
v -0.17 -0.26 -1.99
v 0.04 -0.35 -2.02
v 0.15 -0.13 -1.93
v 0.14 -0.23 -1.93
v 0.10 -0.34 -1.93
v 0.06 -0.39 -1.94
v -0.03 -0.24 -1.94
v -0.15 -0.31 -1.94
v -0.16 -0.27 -1.94
v -0.16 -0.19 -1.93
v -0.17 -0.10 -1.92
v -0.17 0.01 -1.93
v -0.17 0.12 -1.93
v -0.12 0.31 -1.93
v -0.10 0.34 -1.93
v -0.01 0.24 -1.96
v 0.10 0.35 -1.94
v 0.13 0.34 -1.93
v 0.16 0.21 -1.92
v 0.16 -0.01 -1.93
v 0.17 0.07 -1.92
v -0.14 0.22 -1.94
v 0.16 -0.01 -1.93
v 0.14 -0.01 -1.86
v 0.13 -0.14 -1.87
v 0.12 -0.24 -1.87
v 0.07 -0.36 -1.88
v -0.04 -0.25 -1.89
v -0.14 -0.33 -1.91
v -0.14 -0.29 -1.90
v -0.14 -0.20 -1.90
v -0.14 -0.11 -1.89
v -0.14 0.01 -1.90
v -0.14 0.12 -1.90
v -0.11 0.23 -1.91
v -0.11 0.32 -1.90
v -0.10 0.34 -1.90
v -0.00 0.25 -1.89
v 0.09 0.37 -1.89
v 0.11 0.34 -1.89
v 0.14 0.22 -1.87
v 0.15 0.09 -1.87
v 0.04 -0.39 -1.89
v 0.10 -0.02 -1.82
v 0.09 -0.13 -1.81
v 0.05 -0.24 -1.82
v -0.01 -0.34 -1.84
v -0.05 -0.38 -1.85
v -0.11 -0.31 -1.86
v -0.10 -0.21 -1.86
v -0.13 -0.12 -1.85
v -0.12 0.01 -1.87
v -0.11 0.12 -1.86
v -0.08 0.23 -1.86
v -0.07 0.32 -1.85
v 0.05 0.35 -1.84
v 0.09 0.23 -1.82
v 0.11 0.09 -1.81
v 0.10 -0.01 -1.82
v -0.01 0.39 -1.85
v 0.07 -0.01 -1.80
v 0.06 -0.12 -1.79
v -0.03 -0.24 -1.80
v -0.11 -0.12 -1.83
v -0.11 -0.00 -1.86
v -0.09 0.12 -1.83
v -0.01 0.24 -1.81
v 0.07 0.10 -1.79
v 0.08 -0.01 -1.80
v 0.07 -0.01 -1.79
v -0.03 -0.11 -1.77
v -0.09 0.01 -1.82
v -0.01 0.10 -1.76
v 0.11 0.03 -1.70
v 0.06 0.09 -1.65
v 0.10 0.03 -1.65
v 0.06 0.10 -1.69
v -0.03 0.09 -1.64
v -0.09 0.03 -1.70
v -0.08 0.03 -1.63
v -0.08 -0.06 -1.70
v -0.07 -0.07 -1.63
v -0.00 -0.11 -1.71
v -0.00 -0.10 -1.65
v 0.07 -0.09 -1.71
v 0.07 -0.09 -1.66
v 0.10 -0.04 -1.65
v 0.11 -0.04 -1.70
v 0.11 0.04 -1.69
v -0.03 0.10 -1.70
v 0.09 0.04 -1.77
v -0.02 0.11 -1.78
v -0.08 0.04 -1.78
v -0.07 -0.06 -1.78
v 0.00 -0.11 -1.77
v 0.09 -0.04 -1.77
v 0.09 0.04 -1.77
v 0.06 -0.09 -1.76
v 0.05 0.11 -1.78
v 0.05 0.10 -1.84
v -0.01 0.10 -1.85
v -0.06 0.05 -1.85
v -0.04 -0.05 -1.86
v 0.01 -0.09 -1.85
v 0.06 -0.09 -1.84
v 0.09 -0.03 -1.83
v 0.09 0.04 -1.83
v 0.09 0.05 -1.83
v -0.01 0.33 -2.28
v -0.03 0.38 -2.43
v -0.01 0.35 -2.43
v -0.07 0.38 -2.28
v -0.04 0.37 -2.36
v -0.05 0.40 -2.35
v -0.03 0.47 -2.26
v -0.06 0.45 -2.34
v -0.06 0.46 -2.40
v -0.04 0.49 -2.40
v 0.03 0.47 -2.26
v 0.02 0.47 -2.38
v 0.07 0.38 -2.27
v 0.06 0.40 -2.40
v -0.01 0.35 -2.43
v -0.01 0.31 -2.16
v -0.04 0.45 -2.12
v 0.04 0.45 -2.11
v 0.07 0.37 -2.14
v -0.07 0.35 -2.14
v -0.07 0.33 -2.01
v -0.05 0.42 -1.97
v 0.03 0.44 -1.98
v 0.06 0.35 -2.02
v -0.01 0.30 -2.03
v -0.00 0.27 -1.98
v -0.08 0.29 -1.93
v -0.05 0.38 -1.85
v 0.07 0.34 -1.93
v -0.01 0.27 -1.99
v 0.02 0.40 -1.85
v 0.01 0.23 -1.91
v -0.04 0.25 -1.86
v -0.03 0.29 -1.81
v 0.03 0.30 -1.82
v 0.06 0.28 -1.87
v -0.01 -0.30 -1.99
v -0.00 -0.27 -1.92
v 0.05 -0.29 -1.90
v -0.07 -0.37 -1.93
v -0.04 -0.31 -1.87
v -0.02 -0.43 -1.87
v -0.01 -0.34 -1.83
v 0.06 -0.42 -1.89
v 0.04 -0.31 -1.84
v 0.06 -0.33 -1.97
v 0.06 -0.35 -2.04
v -0.01 -0.33 -2.06
v -0.07 -0.39 -2.02
v -0.03 -0.47 -2.01
v 0.06 -0.45 -2.02
v 0.06 -0.36 -2.04
v -0.01 -0.32 -2.18
v -0.07 -0.40 -2.17
v 0.07 -0.46 -2.17
v 0.07 -0.35 -2.18
v -0.02 -0.48 -2.16
v 0.07 -0.36 -2.31
v -0.01 -0.33 -2.31
v -0.07 -0.41 -2.31
v -0.01 -0.48 -2.30
v 0.06 -0.46 -2.30
v 0.05 -0.36 -2.45
v -0.02 -0.34 -2.46
v -0.04 -0.42 -2.39
v -0.02 -0.49 -2.45
v 0.04 -0.44 -2.45
v -0.19 -0.10 -2.47
v -0.18 -0.11 -2.35
v -0.20 -0.02 -2.36
v -0.14 -0.18 -2.47
v -0.12 -0.16 -2.35
v -0.04 -0.25 -2.46
v -0.04 -0.21 -2.35
v 0.04 -0.21 -2.46
v 0.02 -0.18 -2.36
v 0.07 -0.17 -2.35
v 0.10 -0.23 -2.45
v 0.12 -0.13 -2.34
v 0.15 -0.15 -2.46
v 0.12 -0.07 -2.34
v 0.15 -0.06 -2.46
v 0.10 0.01 -2.34
v 0.12 0.02 -2.45
v 0.10 0.12 -2.32
v 0.11 0.20 -2.45
v 0.07 0.17 -2.34
v 0.04 0.21 -2.35
v 0.05 0.26 -2.44
v -0.04 0.19 -2.37
v -0.02 0.21 -2.46
v -0.12 0.20 -2.35
v -0.11 0.23 -2.44
v -0.17 0.15 -2.35
v -0.18 0.16 -2.45
v -0.21 0.07 -2.36
v -0.20 0.07 -2.46
v -0.20 -0.02 -2.35
v -0.20 -0.02 -2.47
v 0.13 0.11 -2.45
v -0.20 -0.10 -2.55
v -0.14 -0.18 -2.54
v -0.05 -0.27 -2.54
v 0.06 -0.28 -2.53
v 0.12 -0.25 -2.54
v 0.15 -0.15 -2.54
v 0.13 -0.07 -2.54
v 0.12 0.03 -2.54
v 0.11 0.11 -2.53
v 0.06 0.27 -2.53
v -0.04 0.29 -2.52
v -0.12 0.26 -2.53
v -0.17 0.17 -2.54
v -0.22 0.06 -2.55
v -0.21 -0.02 -2.55
v 0.10 0.20 -2.54
v -0.20 -0.02 -2.55
v -0.18 -0.10 -2.63
v -0.14 -0.19 -2.63
v -0.04 -0.28 -2.62
v 0.06 -0.30 -2.61
v 0.13 -0.26 -2.62
v 0.18 -0.17 -2.62
v 0.16 -0.07 -2.62
v 0.13 0.02 -2.63
v 0.13 0.12 -2.63
v 0.13 0.20 -2.62
v 0.08 0.28 -2.63
v -0.03 0.31 -2.62
v -0.10 0.27 -2.62
v -0.18 0.17 -2.62
v -0.21 0.06 -2.63
v -0.20 -0.02 -2.63
v -0.20 -0.03 -2.63
v -0.19 -0.10 -2.73
v -0.14 -0.21 -2.73
v -0.04 -0.30 -2.72
v 0.07 -0.32 -2.72
v 0.14 -0.28 -2.72
v 0.20 -0.17 -2.71
v 0.20 -0.06 -2.73
v 0.17 0.10 -2.73
v 0.16 0.20 -2.72
v 0.10 0.29 -2.72
v -0.02 0.33 -2.71
v -0.12 0.30 -2.73
v -0.19 0.19 -2.73
v -0.21 0.06 -2.73
v -0.20 -0.03 -2.73
v 0.14 0.03 -2.74
v -0.18 -0.10 -2.82
v -0.14 -0.22 -2.81
v -0.03 -0.31 -2.83
v 0.14 -0.28 -2.83
v 0.20 -0.17 -2.82
v 0.21 -0.06 -2.81
v 0.14 0.03 -2.81
v 0.17 0.10 -2.82
v 0.17 0.20 -2.82
v 0.10 0.29 -2.82
v -0.02 0.33 -2.81
v -0.11 0.31 -2.81
v -0.19 0.20 -2.82
v -0.20 0.05 -2.82
v -0.19 -0.03 -2.82
v 0.07 -0.31 -2.83
v -0.19 -0.03 -2.82
v -0.13 -0.01 -2.90
v -0.12 -0.09 -2.90
v -0.08 -0.20 -2.91
v 0.01 -0.27 -2.90
v 0.10 -0.25 -2.90
v 0.17 -0.18 -2.89
v 0.18 -0.05 -2.87
v 0.14 0.03 -2.85
v 0.16 0.10 -2.88
v 0.14 0.20 -2.89
v 0.06 0.26 -2.90
v -0.06 0.27 -2.90
v -0.14 0.20 -2.91
v -0.14 0.05 -2.90
v -0.13 -0.01 -2.89
v -0.01 0.28 -2.90
v 0.06 -0.27 -2.90
v -0.05 -0.00 -2.91
v -0.05 -0.07 -2.94
v 0.04 -0.18 -2.95
v 0.12 -0.05 -2.93
v 0.10 0.03 -2.89
v 0.11 0.08 -2.92
v 0.01 0.20 -2.95
v -0.06 0.07 -2.94
v -0.01 0.01 -2.91
v 0.01 -0.06 -2.94
v 0.06 -0.05 -2.94
v 0.05 0.02 -2.91
v 0.05 0.07 -2.94
v -0.01 0.07 -2.95
v 0.02 0.02 -2.91
v 0.00 0.21 -2.95
v 0.05 0.15 -2.97
v 0.07 0.21 -2.94
v -0.01 0.14 -2.97
v -0.05 0.16 -2.95
v -0.07 0.20 -2.92
v -0.04 0.25 -2.90
v 0.01 0.28 -2.89
v 0.05 0.25 -2.91
v 0.09 0.26 -2.85
v 0.02 0.30 -2.82
v -0.07 0.27 -2.81
v -0.11 0.17 -2.86
v -0.09 0.10 -2.91
v -0.01 0.07 -2.95
v 0.08 0.10 -2.95
v 0.12 0.18 -2.90
v 0.10 0.26 -2.97
v 0.02 0.31 -2.93
v -0.14 0.19 -2.96
v -0.10 0.09 -3.01
v -0.00 0.06 -3.04
v 0.08 0.10 -3.04
v 0.12 0.18 -3.00
v -0.08 0.28 -2.92
v 0.12 0.18 -3.00
v 0.12 0.17 -3.10
v 0.09 0.26 -3.08
v 0.01 0.29 -3.07
v -0.14 0.19 -3.08
v -0.09 0.10 -3.11
v 0.08 0.10 -3.12
v 0.12 0.17 -3.09
v -0.01 0.07 -3.13
v -0.08 0.28 -3.06
v 0.09 0.24 -3.18
v 0.01 0.28 -3.19
v -0.12 0.20 -3.19
v -0.08 0.10 -3.21
v -0.01 0.07 -3.21
v 0.07 0.10 -3.20
v 0.11 0.17 -3.18
v -0.08 0.27 -3.18
v 0.11 0.17 -3.23
v 0.09 0.23 -3.25
v 0.01 0.26 -3.29
v -0.07 0.26 -3.29
v -0.07 0.12 -3.30
v -0.00 0.08 -3.29
v 0.07 0.11 -3.27
v -0.11 0.18 -3.30
v 0.07 0.23 -3.29
v -0.00 0.25 -3.44
v -0.07 0.24 -3.42
v -0.07 0.12 -3.43
v -0.00 0.10 -3.45
v 0.07 0.12 -3.33
v 0.11 0.17 -3.25
v -0.10 0.18 -3.41
v 0.10 0.17 -3.25
v -0.01 -0.18 -2.97
v -0.06 -0.14 -2.95
v -0.07 -0.19 -2.93
v -0.03 -0.11 -2.97
v 0.03 -0.12 -2.98
v 0.07 -0.17 -2.95
v 0.06 -0.22 -2.94
v 0.01 -0.24 -2.92
v -0.04 -0.24 -2.91
v -0.12 -0.18 -2.85
v -0.07 -0.27 -2.83
v 0.03 -0.28 -2.85
v 0.11 -0.23 -2.89
v 0.13 -0.14 -2.91
v 0.05 -0.05 -2.94
v -0.10 -0.10 -2.90
v -0.04 -0.05 -2.94
v -0.13 -0.18 -2.96
v -0.07 -0.28 -2.95
v 0.03 -0.28 -2.96
v 0.10 -0.23 -2.99
v 0.06 -0.05 -3.03
v -0.03 -0.04 -3.04
v -0.10 -0.09 -3.01
v 0.12 -0.14 -3.02
v -0.13 -0.18 -3.08
v -0.07 -0.26 -3.06
v 0.03 -0.27 -3.08
v 0.12 -0.14 -3.10
v 0.06 -0.06 -3.12
v -0.03 -0.04 -3.12
v -0.10 -0.09 -3.11
v 0.09 -0.21 -3.08
v -0.07 -0.24 -3.18
v 0.02 -0.25 -3.18
v 0.09 -0.21 -3.18
v 0.11 -0.14 -3.19
v 0.06 -0.06 -3.20
v -0.02 -0.05 -3.23
v -0.09 -0.09 -3.23
v -0.12 -0.17 -3.20
v -0.07 -0.23 -3.29
v 0.01 -0.23 -3.27
v 0.07 -0.20 -3.27
v 0.09 -0.14 -3.27
v 0.06 -0.06 -3.29
v -0.01 -0.05 -3.32
v -0.09 -0.09 -3.32
v -0.10 -0.16 -3.30
v -0.06 -0.21 -3.42
v 0.01 -0.21 -3.44
v 0.07 -0.19 -3.32
v 0.06 -0.07 -3.34
v -0.01 -0.05 -3.44
v -0.07 -0.09 -3.43
v -0.10 -0.16 -3.40
v 0.08 -0.14 -3.30
v -0.03 0.41 -2.31
v -0.05 0.44 -2.33
v -0.06 0.38 -2.32
v -0.02 0.44 -2.33
v -0.01 0.38 -2.32
v -0.04 0.38 -2.40
v 0.02 0.37 -2.34
v 0.00 0.45 -2.35
v -0.06 0.45 -2.36
v -0.07 0.39 -2.36
v -0.03 0.45 -2.39
v 0.01 0.43 -2.35
v -0.01 0.35 -2.35
v -0.06 0.39 -2.42
v -0.01 0.34 -2.42
v 0.04 0.36 -2.41
v 0.04 0.43 -2.42
v 0.00 0.49 -2.41
v -0.05 0.46 -2.42
v -0.05 0.44 -2.42
v -0.06 0.39 -2.42
v -0.01 0.34 -2.52
v 0.05 0.36 -2.52
v 0.07 0.43 -2.51
v 0.01 0.49 -2.51
v -0.06 0.45 -2.52
v -0.06 0.39 -2.52
v -0.07 0.40 -2.61
v -0.02 0.36 -2.62
v 0.04 0.37 -2.61
v 0.07 0.43 -2.61
v 0.01 0.49 -2.60
v -0.06 0.46 -2.61
v -0.07 0.41 -2.61
v -0.02 0.37 -2.73
v 0.04 0.39 -2.73
v 0.06 0.44 -2.73
v -0.05 0.46 -2.73
v -0.06 0.41 -2.73
v 0.00 0.48 -2.72
v -0.05 0.42 -2.86
v -0.02 0.40 -2.86
v 0.03 0.41 -2.86
v 0.04 0.46 -2.86
v -0.01 0.48 -2.86
v -0.05 0.46 -2.85
v -0.03 -0.40 -2.33
v -0.01 -0.38 -2.34
v -0.06 -0.39 -2.34
v 0.01 -0.43 -2.36
v -0.04 -0.44 -2.35
v -0.04 -0.45 -2.40
v 0.00 -0.47 -2.38
v 0.03 -0.37 -2.38
v -0.04 -0.39 -2.42
v -0.06 -0.39 -2.40
v -0.01 -0.35 -2.41
v 0.03 -0.43 -2.38
v -0.04 -0.45 -2.39
v -0.06 -0.40 -2.40
v -0.05 -0.46 -2.45
v 0.01 -0.49 -2.44
v 0.05 -0.44 -2.45
v 0.04 -0.37 -2.46
v -0.01 -0.34 -2.45
v -0.06 -0.39 -2.45
v -0.05 -0.39 -2.46
v -0.06 -0.39 -2.55
v -0.06 -0.46 -2.55
v 0.01 -0.49 -2.56
v 0.07 -0.45 -2.55
v 0.06 -0.37 -2.56
v -0.01 -0.35 -2.56
v -0.05 -0.45 -2.65
v 0.01 -0.48 -2.65
v 0.07 -0.45 -2.66
v 0.06 -0.38 -2.65
v -0.02 -0.36 -2.66
v -0.05 -0.39 -2.65
v -0.05 -0.40 -2.76
v -0.04 -0.45 -2.75
v 0.01 -0.47 -2.75
v 0.04 -0.39 -2.78
v -0.01 -0.37 -2.77
v -0.05 -0.40 -2.77
v 0.05 -0.45 -2.77
v -0.04 -0.40 -2.88
v -0.05 -0.46 -2.88
v 0.00 -0.47 -2.88
v 0.04 -0.44 -2.88
v 0.02 -0.40 -2.88
v -0.00 -0.39 -2.87
v -0.02 0.18 -3.35
v -0.07 0.23 -3.38
v -0.10 0.18 -3.38
v -0.01 0.24 -3.37
v 0.04 0.22 -3.37
v 0.06 0.17 -3.37
v 0.04 0.13 -3.37
v -0.01 0.12 -3.38
v -0.07 0.13 -3.38
v -0.10 0.17 -3.38
v -0.12 0.18 -3.43
v -0.08 0.12 -3.43
v -0.01 0.11 -3.42
v 0.05 0.12 -3.40
v 0.10 0.18 -3.41
v 0.06 0.23 -3.40
v -0.08 0.24 -3.42
v -0.01 0.23 -3.41
v -0.07 0.12 -3.49
v -0.00 0.09 -3.49
v 0.06 0.12 -3.48
v 0.10 0.17 -3.47
v 0.06 0.23 -3.47
v -0.01 0.26 -3.48
v -0.11 0.19 -3.49
v -0.07 0.25 -3.48
v -0.11 0.19 -3.49
v -0.05 0.13 -3.56
v 0.00 0.10 -3.56
v 0.07 0.11 -3.56
v 0.12 0.17 -3.56
v 0.08 0.25 -3.55
v 0.01 0.27 -3.56
v -0.05 0.25 -3.57
v -0.08 0.20 -3.56
v -0.08 0.19 -3.57
v -0.05 0.13 -3.63
v 0.00 0.09 -3.63
v 0.08 0.10 -3.62
v 0.13 0.16 -3.62
v 0.09 0.25 -3.63
v 0.01 0.27 -3.64
v -0.05 0.25 -3.64
v -0.07 0.20 -3.63
v -0.07 0.20 -3.63
v -0.07 0.19 -3.71
v -0.04 0.13 -3.71
v 0.02 0.08 -3.70
v 0.09 0.10 -3.70
v 0.13 0.16 -3.70
v 0.09 0.25 -3.71
v 0.01 0.27 -3.71
v -0.04 0.25 -3.71
v -0.04 0.13 -3.79
v 0.01 0.09 -3.79
v 0.07 0.10 -3.79
v 0.11 0.15 -3.80
v 0.08 0.23 -3.79
v 0.01 0.25 -3.79
v -0.04 0.23 -3.79
v -0.06 0.18 -3.79
v -0.04 0.14 -3.85
v 0.01 0.10 -3.85
v 0.06 0.11 -3.86
v 0.08 0.22 -3.87
v 0.01 0.24 -3.86
v -0.04 0.22 -3.85
v -0.05 0.17 -3.85
v 0.10 0.18 -3.87
v -0.05 0.17 -3.92
v -0.03 0.13 -3.92
v 0.04 0.11 -3.92
v 0.07 0.15 -3.93
v 0.07 0.20 -3.94
v 0.01 0.23 -3.93
v -0.03 0.22 -3.92
v 0.00 0.12 -3.92
v -0.06 0.17 -3.98
v -0.04 0.14 -3.98
v -0.01 0.12 -3.98
v 0.03 0.12 -3.98
v 0.07 0.15 -3.98
v 0.05 0.19 -3.99
v -0.04 0.21 -3.98
v 0.01 0.22 -3.99
v -0.07 0.17 -4.01
v -0.06 0.13 -4.02
v 0.02 0.12 -4.04
v 0.07 0.14 -4.02
v 0.05 0.18 -4.03
v 0.01 0.22 -4.06
v -0.04 0.20 -4.03
v -0.07 0.18 -4.00
v -0.02 0.12 -4.03
v -0.01 -0.15 -3.34
v -0.06 -0.11 -3.37
v -0.07 -0.16 -3.37
v -0.01 -0.10 -3.36
v 0.03 -0.11 -3.35
v 0.06 -0.14 -3.35
v 0.04 -0.18 -3.36
v 0.01 -0.19 -3.36
v -0.04 -0.19 -3.36
v -0.10 -0.16 -3.40
v 0.01 -0.20 -3.40
v 0.07 -0.19 -3.40
v 0.11 -0.13 -3.40
v 0.06 -0.08 -3.40
v -0.01 -0.07 -3.40
v -0.07 -0.10 -3.41
v -0.10 -0.17 -3.40
v -0.04 -0.21 -3.40
v -0.04 -0.22 -3.47
v 0.03 -0.22 -3.47
v 0.09 -0.19 -3.47
v 0.11 -0.13 -3.47
v 0.07 -0.07 -3.48
v 0.00 -0.05 -3.48
v -0.06 -0.09 -3.47
v -0.09 -0.17 -3.47
v -0.02 -0.22 -3.55
v 0.03 -0.22 -3.55
v 0.10 -0.20 -3.54
v 0.12 -0.12 -3.55
v 0.08 -0.06 -3.56
v 0.00 -0.05 -3.56
v -0.05 -0.10 -3.55
v -0.06 -0.17 -3.55
v -0.06 -0.17 -3.56
v -0.06 -0.16 -3.62
v -0.01 -0.23 -3.62
v 0.04 -0.23 -3.62
v 0.12 -0.20 -3.62
v 0.14 -0.11 -3.62
v 0.09 -0.05 -3.63
v 0.01 -0.05 -3.63
v -0.04 -0.09 -3.63
v -0.01 -0.22 -3.70
v 0.04 -0.22 -3.70
v 0.11 -0.19 -3.70
v 0.14 -0.11 -3.70
v 0.09 -0.04 -3.70
v 0.01 -0.04 -3.70
v -0.03 -0.09 -3.70
v -0.05 -0.16 -3.70
v -0.01 -0.20 -3.77
v 0.04 -0.21 -3.78
v 0.10 -0.18 -3.78
v 0.12 -0.11 -3.78
v 0.01 -0.04 -3.77
v -0.03 -0.09 -3.77
v -0.05 -0.15 -3.77
v 0.08 -0.05 -3.77
v -0.04 -0.15 -3.84
v -0.01 -0.20 -3.85
v 0.04 -0.20 -3.85
v 0.08 -0.17 -3.85
v 0.10 -0.10 -3.85
v 0.06 -0.06 -3.85
v 0.01 -0.06 -3.85
v -0.03 -0.09 -3.84
v -0.04 -0.14 -3.90
v -0.01 -0.19 -3.91
v 0.03 -0.18 -3.92
v 0.07 -0.15 -3.92
v 0.09 -0.10 -3.91
v 0.05 -0.07 -3.91
v 0.00 -0.07 -3.91
v -0.04 -0.10 -3.92
v -0.01 -0.18 -3.98
v 0.03 -0.17 -3.98
v 0.06 -0.14 -3.99
v 0.03 -0.07 -3.98
v -0.01 -0.08 -3.98
v -0.05 -0.14 -3.96
v -0.04 -0.10 -3.96
v 0.07 -0.10 -3.98
v -0.03 -0.17 -4.03
v 0.02 -0.17 -4.04
v 0.05 -0.13 -4.03
v 0.03 -0.08 -4.02
v -0.03 -0.07 -4.03
v -0.06 -0.10 -4.01
v -0.06 -0.14 -4.00
v 0.06 -0.09 -4.01
v -0.38 0.07 -4.14
v -0.37 0.06 -4.14
v -0.38 0.09 -4.13
v -0.37 0.07 -4.15
v -0.37 0.09 -4.15
v -0.33 0.09 -4.13
v -0.34 0.10 -4.15
v -0.34 0.07 -4.17
v -0.33 0.06 -4.13
v -0.29 0.12 -4.14
v -0.28 0.07 -4.16
v -0.29 0.10 -4.13
v -0.28 0.07 -4.13
v -0.38 0.13 -4.12
v -0.38 0.12 -4.12
v -0.38 0.14 -4.12
v -0.37 0.11 -4.13
v -0.37 0.14 -4.13
v -0.38 0.13 -4.12
v -0.34 0.14 -4.13
v -0.34 0.12 -4.13
v -0.34 0.11 -4.12
v -0.34 0.14 -4.12
v -0.30 0.14 -4.12
v -0.30 0.15 -4.13
v -0.30 0.13 -4.14
v -0.29 0.13 -4.12
v -0.30 0.14 -4.12
v -0.37 0.17 -4.13
v -0.37 0.16 -4.12
v -0.37 0.17 -4.12
v -0.36 0.16 -4.13
v -0.36 0.18 -4.13
v -0.36 0.18 -4.12
v -0.33 0.17 -4.11
v -0.32 0.17 -4.13
v -0.33 0.15 -4.13
v -0.34 0.15 -4.11
v -0.29 0.17 -4.12
v -0.30 0.17 -4.13
v -0.29 0.15 -4.12
v -0.30 0.15 -4.13
v -0.34 0.21 -4.12
v -0.34 0.20 -4.12
v -0.34 0.22 -4.12
v -0.34 0.20 -4.13
v -0.33 0.21 -4.12
v -0.34 0.21 -4.12
v -0.30 0.21 -4.11
v -0.31 0.21 -4.13
v -0.30 0.20 -4.13
v -0.31 0.19 -4.11
v -0.29 0.20 -4.13
v -0.29 0.19 -4.13
v -0.28 0.18 -4.13
v -0.27 0.20 -4.12
v -0.31 0.25 -4.13
v -0.31 0.24 -4.13
v -0.31 0.26 -4.13
v -0.31 0.24 -4.14
v -0.30 0.26 -4.14
v -0.27 0.24 -4.12
v -0.28 0.24 -4.14
v -0.28 0.23 -4.13
v -0.28 0.23 -4.12
v -0.27 0.24 -4.12
v -0.26 0.24 -4.14
v -0.26 0.21 -4.13
v -0.25 0.24 -4.12
v -0.27 0.23 -4.12
v -0.26 0.24 -4.12
v 0.06 0.20 -4.03
v 0.10 0.17 -4.13
v 0.10 0.17 -4.09
v 0.09 0.15 -4.10
v 0.07 0.17 -4.03
v 0.06 0.18 -4.00
v 0.07 0.15 -4.03
v 0.09 0.15 -4.13
v 0.09 0.18 -4.14
v 0.09 0.21 -4.14
v 0.07 0.21 -4.09
v -0.01 0.16 -3.98
v -0.01 0.21 -4.04
v -0.01 0.23 -4.10
v -0.00 0.18 -4.16
v 0.01 0.13 -4.15
v -0.01 0.13 -4.04
v 0.00 0.12 -4.11
v -0.00 0.23 -4.15
v -0.10 0.14 -4.03
v -0.07 0.21 -4.06
v -0.06 0.24 -4.11
v -0.06 0.23 -4.14
v -0.06 0.18 -4.15
v -0.06 0.14 -4.14
v -0.06 0.11 -4.12
v -0.07 0.10 -4.05
v -0.17 0.21 -4.09
v -0.16 0.26 -4.13
v -0.15 0.24 -4.15
v -0.14 0.17 -4.15
v -0.14 0.12 -4.15
v -0.14 0.10 -4.13
v -0.17 0.14 -4.08
v -0.16 0.09 -4.10
v -0.23 0.21 -4.12
v -0.22 0.26 -4.14
v -0.23 0.24 -4.16
v -0.23 0.17 -4.16
v -0.23 0.08 -4.17
v -0.24 0.07 -4.12
v -0.24 0.14 -4.11
v -0.23 0.06 -4.15
v -0.29 0.16 -4.12
v -0.26 0.21 -4.13
v -0.26 0.24 -4.14
v -0.30 0.14 -4.14
v -0.29 0.09 -4.16
v -0.29 0.14 -4.12
v -0.28 0.07 -4.16
v -0.29 0.11 -4.15
v -0.27 0.21 -4.13
v -0.26 0.23 -4.12
v -0.26 0.21 -4.12
v -0.27 0.19 -4.12
v 0.00 -0.49 -3.04
v 0.00 -0.49 -3.05
v 0.01 -0.47 -3.06
v -0.04 -0.48 -3.05
v -0.03 -0.48 -3.06
v -0.04 -0.45 -3.05
v -0.01 -0.45 -3.06
v -0.04 -0.44 -3.06
v -0.01 -0.42 -3.07
v -0.05 -0.40 -3.05
v -0.01 -0.38 -3.06
v -0.02 -0.38 -3.05
v -0.02 -0.36 -3.03
v -0.02 -0.35 -3.04
v -0.01 -0.35 -3.03
v 0.00 -0.35 -3.02
v -0.01 -0.38 -3.05
v 0.00 -0.41 -3.04
v -0.01 -0.42 -3.07
v 0.00 -0.44 -3.04
v -0.00 -0.46 -3.07
v 0.01 -0.48 -3.04
v 0.01 -0.37 -3.03
v 0.01 -0.47 -3.05
v 0.01 -0.47 -3.02
v -0.01 -0.49 -3.03
v -0.04 -0.47 -3.01
v -0.04 -0.46 -3.01
v -0.05 -0.41 -3.01
v -0.03 -0.35 -3.01
v 0.01 -0.35 -3.01
v 0.01 -0.38 -3.02
v 0.01 -0.41 -3.03
v 0.01 -0.48 -3.03
v 0.01 -0.44 -3.03
v 0.02 -0.45 -2.98
v -0.01 -0.51 -2.98
v -0.02 -0.51 -2.99
v -0.03 -0.47 -2.98
v -0.04 -0.43 -2.98
v -0.03 -0.36 -2.97
v 0.01 -0.35 -2.97
v 0.02 -0.38 -2.98
v 0.01 -0.40 -2.98
v 0.01 -0.43 -2.98
v -0.05 -0.41 -2.98
v -0.04 -0.46 -2.98
v 0.03 -0.43 -2.94
v -0.00 -0.49 -2.93
v -0.02 -0.48 -2.93
v -0.03 -0.46 -2.93
v -0.04 -0.45 -2.93
v -0.05 -0.42 -2.93
v -0.03 -0.36 -2.93
v 0.00 -0.36 -2.93
v 0.02 -0.38 -2.93
v 0.02 -0.40 -2.93
v 0.02 -0.42 -2.94
v 0.00 -0.47 -2.88
v -0.04 -0.45 -2.90
v -0.04 -0.45 -2.90
v -0.05 -0.42 -2.90
v -0.04 -0.38 -2.90
v -0.01 -0.37 -2.89
v 0.01 -0.38 -2.89
v 0.02 -0.40 -2.90
v 0.02 -0.41 -2.90
v 0.02 -0.44 -2.90
v -0.02 -0.47 -2.89
v 0.01 -0.44 -2.89
v -0.01 -0.41 -2.85
v -0.02 0.47 -3.00
v -0.01 0.51 -3.05
v -0.03 0.49 -3.06
v -0.02 0.50 -3.01
v 0.00 0.47 -3.05
v 0.02 0.48 -3.03
v 0.00 0.44 -3.06
v 0.02 0.44 -3.03
v 0.01 0.40 -3.03
v -0.01 0.37 -3.02
v 0.00 0.37 -3.02
v -0.02 0.39 -3.04
v -0.01 0.37 -3.01
v -0.01 0.41 -3.05
v -0.03 0.39 -3.00
v -0.01 0.44 -3.06
v -0.01 0.42 -3.00
v -0.01 0.46 -3.06
v -0.01 0.45 -3.00
v -0.02 0.48 -3.06
v 0.00 0.51 -3.02
v -0.03 0.45 -2.96
v -0.01 0.53 -2.96
v 0.02 0.48 -2.98
v 0.02 0.44 -2.98
v 0.02 0.41 -2.99
v 0.01 0.38 -2.98
v -0.02 0.37 -2.98
v -0.03 0.39 -2.97
v -0.03 0.43 -2.97
v -0.03 0.45 -2.96
v -0.04 0.45 -2.92
v -0.01 0.51 -2.92
v 0.02 0.45 -2.93
v 0.02 0.41 -2.93
v 0.01 0.39 -2.93
v -0.02 0.38 -2.92
v -0.04 0.40 -2.92
v -0.04 0.43 -2.92
v -0.04 0.42 -2.92
v -0.03 0.47 -2.85
v 0.03 0.44 -2.87
v 0.03 0.42 -2.87
v 0.01 0.40 -2.86
v -0.03 0.40 -2.86
v -0.03 0.41 -2.85
v -0.04 0.43 -2.86
v -0.04 0.44 -2.86
v -0.04 0.46 -2.85
v -0.04 0.42 -2.86
v -0.01 0.48 -2.85
v -0.04 0.46 -2.85
v -0.01 0.43 -2.82
v -0.39 -0.04 -4.14
v -0.38 -0.05 -4.13
v -0.38 -0.03 -4.12
v -0.39 -0.05 -4.14
v -0.38 -0.03 -4.14
v -0.38 -0.04 -4.12
v -0.34 -0.03 -4.15
v -0.35 -0.07 -4.14
v -0.34 -0.06 -4.12
v -0.34 -0.03 -4.13
v -0.29 -0.03 -4.14
v -0.29 -0.04 -4.15
v -0.30 -0.07 -4.14
v -0.30 -0.07 -4.12
v -0.30 -0.04 -4.12
v -0.29 -0.04 -4.12
v -0.39 -0.09 -4.13
v -0.39 -0.11 -4.13
v -0.39 -0.11 -4.12
v -0.38 -0.08 -4.13
v -0.39 -0.09 -4.12
v -0.34 -0.09 -4.12
v -0.34 -0.09 -4.13
v -0.35 -0.11 -4.12
v -0.34 -0.09 -4.12
v -0.34 -0.11 -4.13
v -0.30 -0.10 -4.11
v -0.30 -0.09 -4.13
v -0.32 -0.12 -4.14
v -0.30 -0.11 -4.12
v -0.38 -0.13 -4.13
v -0.37 -0.14 -4.12
v -0.38 -0.13 -4.12
v -0.37 -0.14 -4.14
v -0.37 -0.12 -4.14
v -0.33 -0.12 -4.13
v -0.33 -0.14 -4.14
v -0.34 -0.14 -4.12
v -0.34 -0.12 -4.12
v -0.29 -0.14 -4.13
v -0.31 -0.13 -4.13
v -0.35 -0.17 -4.14
v -0.35 -0.18 -4.14
v -0.35 -0.16 -4.13
v -0.34 -0.18 -4.15
v -0.34 -0.16 -4.15
v -0.32 -0.16 -4.12
v -0.31 -0.17 -4.14
v -0.31 -0.18 -4.12
v -0.32 -0.15 -4.12
v -0.32 -0.15 -4.13
v -0.30 -0.15 -4.13
v -0.29 -0.17 -4.14
v -0.28 -0.17 -4.13
v -0.29 -0.15 -4.12
v -0.33 -0.21 -4.15
v -0.32 -0.22 -4.14
v -0.32 -0.20 -4.14
v -0.32 -0.22 -4.15
v -0.32 -0.20 -4.15
v -0.29 -0.19 -4.14
v -0.29 -0.21 -4.14
v -0.29 -0.21 -4.13
v -0.30 -0.20 -4.13
v -0.27 -0.18 -4.14
v -0.26 -0.21 -4.14
v -0.26 -0.20 -4.13
v -0.27 -0.18 -4.13
v -0.27 -0.18 -4.13
v 0.07 -0.10 -4.02
v 0.09 -0.14 -4.12
v 0.09 -0.14 -4.09
v 0.07 -0.16 -4.09
v 0.08 -0.14 -4.03
v 0.06 -0.15 -4.03
v 0.08 -0.16 -4.13
v 0.08 -0.13 -4.13
v 0.08 -0.10 -4.12
v 0.08 -0.10 -4.09
v 0.06 -0.13 -3.99
v 0.00 -0.12 -3.98
v -0.01 -0.08 -4.09
v -0.01 -0.08 -4.13
v -0.01 -0.12 -4.15
v -0.00 -0.18 -4.13
v -0.01 -0.16 -4.04
v -0.00 -0.18 -4.10
v -0.01 -0.09 -4.03
v -0.09 -0.07 -4.05
v -0.09 -0.07 -4.10
v -0.09 -0.09 -4.13
v -0.09 -0.13 -4.14
v -0.08 -0.19 -4.13
v -0.08 -0.20 -4.11
v -0.09 -0.17 -4.05
v -0.09 -0.11 -4.02
v -0.17 -0.05 -4.08
v -0.17 -0.04 -4.12
v -0.17 -0.05 -4.13
v -0.16 -0.15 -4.14
v -0.15 -0.21 -4.14
v -0.16 -0.21 -4.13
v -0.17 -0.10 -4.07
v -0.17 -0.16 -4.08
v -0.26 -0.10 -4.11
v -0.26 -0.04 -4.11
v -0.24 -0.03 -4.13
v -0.24 -0.03 -4.15
v -0.23 -0.13 -4.16
v -0.21 -0.21 -4.15
v -0.21 -0.22 -4.14
v -0.25 -0.16 -4.12
v -0.29 -0.08 -4.13
v -0.29 -0.03 -4.14
v -0.32 -0.10 -4.14
v -0.28 -0.17 -4.14
v -0.27 -0.17 -4.13
v -0.30 -0.13 -4.12
v -0.28 -0.14 -4.13
v -0.28 -0.16 -4.12
v -0.27 -0.20 -4.15
v -0.29 -0.16 -4.14
v -0.30 -0.14 -4.13
v -0.31 -0.13 -4.14
v -0.32 -0.11 -4.13
v -0.30 -0.08 -4.13
v -0.30 -0.06 -4.15
v -0.23 0.01 -1.71
v -0.17 0.01 -1.72
v -0.17 -0.01 -1.72
v -0.19 0.08 -1.69
v -0.10 0.12 -1.70
v -0.11 0.13 -1.68
v -0.01 0.14 -1.70
v 0.00 0.16 -1.66
v 0.10 0.10 -1.67
v 0.11 0.11 -1.65
v 0.17 -0.02 -1.64
v 0.14 -0.11 -1.64
v 0.12 -0.09 -1.66
v 0.06 -0.17 -1.65
v 0.04 -0.16 -1.71
v -0.12 -0.14 -1.68
v -0.10 -0.12 -1.71
v -0.19 -0.09 -1.70
v -0.16 -0.04 -1.72
v -0.23 -0.05 -1.71
v -0.15 -0.01 -1.72
v -0.23 -0.01 -1.71
v -0.21 -0.07 -1.70
v 0.17 -0.02 -1.64
v -0.21 0.04 -1.70
v -0.23 -0.01 -1.71
v -0.30 -0.01 -1.70
v -0.30 0.02 -1.70
v -0.26 0.06 -1.69
v -0.22 0.11 -1.67
v -0.12 0.15 -1.63
v 0.01 0.15 -1.62
v 0.12 0.12 -1.63
v 0.15 -0.11 -1.63
v 0.07 -0.19 -1.62
v -0.12 -0.17 -1.65
v -0.23 -0.13 -1.67
v -0.26 -0.10 -1.68
v -0.29 -0.07 -1.69
v 0.18 -0.01 -1.63
v -0.32 -0.02 -1.64
v -0.31 0.04 -1.63
v -0.28 0.07 -1.63
v -0.23 0.12 -1.62
v -0.13 0.17 -1.61
v 0.01 0.18 -1.61
v 0.12 0.12 -1.61
v 0.18 -0.01 -1.61
v 0.16 -0.11 -1.61
v 0.07 -0.19 -1.61
v -0.13 -0.19 -1.62
v -0.23 -0.14 -1.63
v -0.27 -0.10 -1.63
v -0.32 -0.01 -1.63
v -0.30 -0.07 -1.64
v -0.33 -0.02 -1.59
v -0.31 0.04 -1.59
v -0.28 0.08 -1.59
v -0.23 0.13 -1.59
v -0.13 0.16 -1.59
v 0.02 0.19 -1.59
v 0.12 0.12 -1.60
v 0.18 -0.01 -1.60
v 0.16 -0.11 -1.60
v 0.08 -0.20 -1.60
v -0.14 -0.20 -1.60
v -0.24 -0.15 -1.60
v -0.28 -0.11 -1.59
v -0.33 -0.03 -1.58
v -0.30 -0.08 -1.58
v -0.23 0.12 -1.59
v -0.36 -0.03 -1.54
v -0.30 0.03 -1.56
v -0.28 0.09 -1.56
v -0.23 0.14 -1.56
v -0.14 0.17 -1.56
v 0.03 0.20 -1.57
v 0.20 -0.01 -1.57
v 0.17 -0.11 -1.57
v 0.09 -0.20 -1.57
v -0.13 -0.20 -1.57
v -0.24 -0.16 -1.56
v -0.28 -0.11 -1.56
v -0.30 -0.07 -1.57
v -0.37 -0.02 -1.55
v 0.14 0.13 -1.57
v -0.27 0.01 -1.50
v -0.27 0.07 -1.51
v -0.22 0.12 -1.51
v -0.13 0.17 -1.52
v 0.04 0.20 -1.53
v 0.15 0.14 -1.54
v 0.22 0.00 -1.54
v 0.19 -0.11 -1.54
v 0.10 -0.22 -1.54
v -0.12 -0.22 -1.54
v -0.22 -0.15 -1.51
v -0.27 -0.12 -1.50
v -0.28 -0.04 -1.51
v -0.30 -0.03 -1.50
v -0.30 -0.02 -1.50
v -0.30 -0.02 -1.47
v -0.27 0.08 -1.47
v -0.21 0.13 -1.48
v 0.04 0.21 -1.49
v 0.17 0.16 -1.50
v 0.25 0.02 -1.50
v 0.21 -0.12 -1.50
v 0.10 -0.23 -1.50
v -0.22 -0.17 -1.48
v -0.28 -0.08 -1.47
v -0.29 -0.02 -1.47
v -0.27 -0.13 -1.47
v -0.09 -0.24 -1.49
v 0.17 0.18 -1.50
v -0.11 0.19 -1.49
v -0.28 0.03 -1.46
v -0.25 0.02 -1.39
v -0.23 0.07 -1.39
v -0.17 0.14 -1.40
v -0.03 0.21 -1.44
v 0.15 0.15 -1.45
v 0.22 0.01 -1.45
v 0.19 -0.13 -1.44
v 0.02 -0.26 -1.44
v -0.18 -0.18 -1.41
v -0.23 -0.13 -1.39
v -0.25 -0.08 -1.39
v -0.25 -0.02 -1.39
v -0.25 -0.02 -1.39
v -0.15 -0.03 -1.33
v -0.14 0.02 -1.32
v -0.11 0.08 -1.33
v -0.06 0.13 -1.34
v 0.02 0.13 -1.35
v 0.15 -0.01 -1.37
v 0.09 -0.16 -1.37
v -0.06 -0.17 -1.35
v -0.12 -0.13 -1.34
v -0.14 -0.08 -1.33
v -0.16 -0.03 -1.33
v 0.00 -0.03 -1.32
v -0.01 0.48 -3.00
v -0.01 0.49 -2.99
v -0.01 0.52 -3.00
v -0.03 0.51 -2.98
v -0.01 0.53 -2.98
v -0.01 0.54 -2.97
v -0.05 0.48 -2.98
v -0.04 0.46 -2.99
v -0.01 0.47 -2.98
v -0.01 0.47 -2.98
v -0.04 0.46 -2.98
v -0.05 0.48 -2.98
v -0.03 0.53 -2.94
v -0.01 0.53 -2.94
v -0.04 0.51 -2.96
v -0.03 0.52 -2.90
v 0.00 0.46 -2.94
v -0.04 0.46 -2.94
v -0.05 0.47 -2.93
v -0.05 0.50 -2.91
v -0.04 0.52 -2.90
v -0.03 0.48 -2.87
v -0.02 0.46 -2.88
v -0.03 0.46 -2.88
v -0.05 0.51 -3.00
v -0.04 0.54 -3.02
v -0.06 0.52 -3.02
v -0.04 0.54 -3.00
v -0.03 0.53 -3.03
v -0.02 0.53 -3.01
v -0.04 0.51 -3.03
v -0.03 0.51 -3.02
v -0.05 0.51 -3.02
v -0.05 0.51 -3.00
v -0.06 0.52 -3.02
v -0.04 0.50 -3.01
v -0.05 0.50 -2.98
v -0.02 0.52 -2.98
v -0.02 0.49 -3.00
v -0.04 0.49 -3.00
v -0.03 0.53 -2.97
v -0.04 0.54 -3.07
v -0.04 0.54 -3.07
v -0.04 0.55 -3.07
v -0.04 0.53 -3.07
v -0.03 0.53 -3.07
v -0.03 0.54 -3.07
v -0.05 0.54 -3.04
v -0.03 0.53 -3.04
v -0.03 0.52 -3.04
v -0.06 0.53 -3.04
v -0.06 0.53 -3.04
v -0.05 0.54 -3.04
v -0.03 0.52 -3.02
v -0.04 0.51 -3.02
v -0.06 0.51 -3.02
v -0.05 0.54 -3.01
v -0.01 0.47 -3.08
v -0.02 0.50 -3.10
v -0.02 0.47 -3.10
v -0.02 0.50 -3.08
v -0.02 0.51 -3.10
v -0.01 0.51 -3.08
v 0.00 0.51 -3.10
v 0.00 0.50 -3.07
v -0.00 0.47 -3.11
v -0.01 0.47 -3.08
v 0.00 0.48 -3.08
v -0.01 0.47 -3.05
v -0.01 0.51 -3.05
v 0.00 0.50 -3.05
v 0.01 0.48 -3.06
v -0.02 0.50 -3.05
v -0.02 0.51 -3.12
v -0.03 0.50 -3.14
v -0.02 0.48 -3.14
v -0.02 0.50 -3.14
v -0.01 0.51 -3.12
v -0.01 0.50 -3.14
v -0.01 0.48 -3.14
v -0.00 0.48 -3.12
v -0.02 0.48 -3.12
v -0.02 0.48 -3.11
v -0.02 0.51 -3.10
v -0.01 0.51 -3.10
v 0.00 0.50 -3.09
v -0.02 0.48 -3.10
v -0.03 0.49 -3.18
v -0.02 0.48 -3.18
v -0.03 0.48 -3.18
v -0.02 0.49 -3.18
v -0.03 0.49 -3.18
v -0.03 0.50 -3.15
v -0.02 0.50 -3.16
v -0.01 0.49 -3.17
v -0.01 0.48 -3.16
v -0.02 0.48 -3.15
v -0.03 0.48 -3.15
v -0.03 0.50 -3.13
v -0.01 0.50 -3.14
v -0.01 0.48 -3.14
v -0.02 0.48 -3.15
v -0.01 0.43 -3.08
v -0.02 0.47 -3.11
v -0.01 0.44 -3.11
v -0.02 0.47 -3.09
v -0.01 0.47 -3.11
v -0.01 0.47 -3.08
v 0.01 0.45 -3.12
v 0.00 0.44 -3.09
v -0.00 0.44 -3.12
v -0.01 0.44 -3.08
v -0.02 0.44 -3.11
v 0.01 0.45 -3.10
v -0.01 0.43 -3.05
v -0.02 0.46 -3.05
v 0.00 0.47 -3.06
v 0.01 0.44 -3.06
v 0.01 0.44 -3.06
v -0.02 0.44 -3.14
v -0.03 0.47 -3.16
v -0.02 0.45 -3.15
v -0.01 0.47 -3.14
v -0.01 0.47 -3.16
v 0.00 0.45 -3.14
v -0.00 0.45 -3.16
v -0.01 0.44 -3.16
v -0.01 0.44 -3.14
v -0.02 0.47 -3.13
v -0.01 0.47 -3.10
v -0.02 0.44 -3.12
v -0.03 0.46 -3.21
v -0.02 0.45 -3.20
v -0.03 0.45 -3.20
v -0.02 0.46 -3.20
v -0.02 0.47 -3.20
v -0.03 0.46 -3.19
v -0.02 0.45 -3.17
v -0.03 0.47 -3.17
v -0.01 0.47 -3.17
v -0.00 0.46 -3.18
v -0.01 0.45 -3.18
v -0.02 0.44 -3.17
v -0.02 0.47 -3.15
v 0.00 0.44 -3.16
v -0.01 0.44 -3.17
v -0.02 0.44 -3.15
v 0.02 0.42 -3.07
v 0.02 0.42 -3.10
v 0.00 0.43 -3.10
v 0.01 0.40 -3.08
v 0.01 0.40 -3.10
v -0.01 0.40 -3.08
v -0.01 0.40 -3.10
v -0.01 0.43 -3.08
v -0.01 0.42 -3.10
v 0.00 0.43 -3.07
v 0.00 0.43 -3.05
v 0.01 0.40 -3.04
v -0.01 0.40 -3.04
v -0.01 0.43 -3.05
v 0.00 0.43 -3.04
v 0.01 0.41 -3.04
v 0.01 0.43 -3.12
v 0.00 0.40 -3.14
v 0.00 0.42 -3.14
v 0.01 0.40 -3.12
v -0.01 0.40 -3.14
v -0.01 0.41 -3.11
v -0.01 0.42 -3.14
v -0.01 0.42 -3.12
v -0.01 0.43 -3.14
v -0.01 0.43 -3.12
v 0.01 0.40 -3.09
v -0.00 0.40 -3.09
v 0.00 0.43 -3.09
v 0.01 0.43 -3.09
v 0.01 0.43 -3.09
v -0.01 0.41 -3.18
v -0.01 0.41 -3.18
v -0.01 0.41 -3.19
v -0.01 0.42 -3.18
v -0.02 0.41 -3.18
v -0.02 0.43 -3.16
v -0.01 0.43 -3.17
v 0.00 0.41 -3.17
v 0.00 0.40 -3.17
v -0.01 0.40 -3.16
v -0.02 0.43 -3.14
v 0.01 0.41 -3.15
v -0.01 0.43 -3.14
v -0.01 0.37 -3.05
v -0.02 0.39 -3.07
v -0.01 0.36 -3.07
v -0.01 0.40 -3.06
v -0.01 0.39 -3.08
v 0.01 0.38 -3.06
v 0.01 0.36 -3.07
v 0.00 0.37 -3.05
v -0.00 0.36 -3.07
v -0.02 0.39 -3.06
v -0.02 0.40 -3.03
v -0.01 0.40 -3.04
v 0.01 0.38 -3.04
v 0.00 0.37 -3.02
v -0.01 0.36 -3.09
v -0.02 0.39 -3.10
v -0.01 0.37 -3.11
v -0.02 0.39 -3.08
v -0.01 0.39 -3.10
v -0.01 0.39 -3.08
v -0.00 0.38 -3.11
v 0.00 0.37 -3.08
v -0.01 0.36 -3.11
v -0.01 0.36 -3.09
v -0.02 0.37 -3.10
v -0.01 0.36 -3.07
v -0.02 0.40 -3.07
v -0.00 0.39 -3.07
v 0.01 0.37 -3.07
v -0.00 0.36 -3.07
v -0.03 0.38 -3.15
v -0.02 0.37 -3.14
v -0.03 0.38 -3.14
v -0.02 0.39 -3.15
v -0.03 0.39 -3.14
v -0.01 0.37 -3.12
v -0.01 0.39 -3.13
v -0.01 0.37 -3.13
v -0.02 0.37 -3.12
v -0.02 0.39 -3.12
v -0.01 0.36 -3.11
v -0.01 0.39 -3.10
v 0.00 0.37 -3.11
v -0.04 -0.49 -2.99
v -0.04 -0.49 -3.01
v -0.05 -0.47 -3.01
v -0.05 -0.52 -2.98
v -0.05 -0.48 -3.01
v -0.06 -0.46 -2.98
v -0.04 -0.45 -2.98
v -0.06 -0.48 -2.99
v -0.03 -0.52 -2.99
v -0.05 -0.45 -2.98
v -0.01 -0.51 -2.98
v -0.03 -0.52 -2.96
v -0.05 -0.52 -2.96
v -0.06 -0.46 -2.96
v -0.04 -0.44 -2.96
v -0.07 -0.48 -2.95
v -0.04 -0.44 -2.92
v -0.02 -0.50 -2.94
v -0.04 -0.51 -2.93
v -0.06 -0.47 -2.92
v -0.05 -0.45 -2.93
v -0.04 -0.44 -2.93
v -0.04 -0.45 -2.90
v -0.02 -0.48 -2.90
v -0.03 -0.47 -2.90
v -0.04 -0.46 -2.90
v -0.05 -0.53 -3.00
v -0.06 -0.52 -3.03
v -0.06 -0.53 -3.03
v -0.06 -0.51 -3.01
v -0.06 -0.50 -3.04
v -0.06 -0.50 -3.01
v -0.04 -0.50 -3.04
v -0.04 -0.50 -3.01
v -0.04 -0.53 -3.04
v -0.04 -0.53 -3.00
v -0.05 -0.52 -2.98
v -0.07 -0.51 -2.97
v -0.05 -0.49 -3.00
v -0.03 -0.50 -3.00
v -0.06 -0.49 -2.99
v -0.05 -0.52 -3.09
v -0.05 -0.52 -3.09
v -0.05 -0.51 -3.09
v -0.06 -0.52 -3.08
v -0.05 -0.53 -3.08
v -0.04 -0.53 -3.08
v -0.04 -0.52 -3.06
v -0.05 -0.53 -3.05
v -0.06 -0.53 -3.05
v -0.06 -0.50 -3.06
v -0.04 -0.50 -3.06
v -0.03 -0.52 -3.03
v -0.04 -0.53 -3.03
v -0.06 -0.52 -3.03
v -0.05 -0.50 -3.03
v -0.01 -0.49 -3.08
v -0.01 -0.49 -3.11
v 0.01 -0.47 -3.11
v -0.02 -0.48 -3.08
v -0.03 -0.48 -3.11
v -0.01 -0.46 -3.08
v -0.01 -0.46 -3.11
v 0.01 -0.47 -3.09
v 0.00 -0.47 -3.11
v 0.01 -0.48 -3.09
v 0.00 -0.48 -3.11
v 0.01 -0.47 -3.05
v -0.01 -0.49 -3.05
v -0.02 -0.48 -3.06
v -0.01 -0.46 -3.06
v 0.01 -0.46 -3.06
v -0.01 -0.49 -3.13
v -0.01 -0.49 -3.15
v 0.00 -0.47 -3.15
v -0.02 -0.48 -3.13
v -0.02 -0.48 -3.15
v -0.01 -0.46 -3.13
v -0.01 -0.46 -3.15
v 0.00 -0.46 -3.13
v 0.00 -0.47 -3.15
v 0.01 -0.47 -3.13
v -0.01 -0.49 -3.11
v -0.02 -0.48 -3.11
v -0.01 -0.46 -3.11
v 0.00 -0.46 -3.11
v -0.00 -0.47 -3.18
v -0.01 -0.48 -3.18
v 0.00 -0.48 -3.18
v -0.01 -0.49 -3.16
v -0.02 -0.48 -3.17
v -0.01 -0.46 -3.17
v 0.00 -0.46 -3.16
v 0.00 -0.47 -3.16
v -0.01 -0.49 -3.14
v -0.02 -0.48 -3.14
v 0.00 -0.47 -3.14
v -0.00 -0.47 -3.14
v -0.02 -0.42 -3.10
v -0.02 -0.42 -3.12
v -0.02 -0.44 -3.12
v -0.01 -0.42 -3.10
v 0.00 -0.42 -3.12
v 0.00 -0.42 -3.09
v 0.01 -0.42 -3.12
v -0.00 -0.45 -3.10
v 0.00 -0.45 -3.12
v -0.02 -0.44 -3.09
v -0.02 -0.44 -3.12
v -0.01 -0.44 -3.10
v -0.02 -0.45 -3.06
v -0.02 -0.42 -3.06
v 0.00 -0.42 -3.06
v -0.00 -0.45 -3.06
v -0.01 -0.45 -3.14
v -0.01 -0.45 -3.17
v 0.01 -0.44 -3.16
v -0.02 -0.43 -3.17
v -0.02 -0.42 -3.14
v -0.00 -0.42 -3.17
v 0.01 -0.42 -3.14
v 0.01 -0.42 -3.17
v 0.01 -0.44 -3.16
v 0.01 -0.44 -3.14
v -0.02 -0.43 -3.14
v 0.01 -0.44 -3.11
v -0.01 -0.45 -3.12
v -0.02 -0.43 -3.11
v -0.02 -0.44 -3.11
v 0.00 -0.43 -3.21
v -0.00 -0.43 -3.21
v 0.01 -0.42 -3.21
v -0.01 -0.43 -3.21
v -0.00 -0.44 -3.21
v 0.00 -0.44 -3.21
v 0.01 -0.44 -3.19
v -0.01 -0.45 -3.18
v -0.01 -0.42 -3.19
v -0.01 -0.42 -3.19
v 0.01 -0.42 -3.19
v 0.01 -0.44 -3.17
v -0.02 -0.42 -3.16
v -0.01 -0.42 -3.17
v 0.00 -0.42 -3.16
v -0.02 -0.39 -3.09
v -0.02 -0.38 -3.11
v -0.01 -0.41 -3.11
v -0.01 -0.38 -3.09
v -0.00 -0.38 -3.12
v 0.01 -0.39 -3.09
v 0.01 -0.39 -3.11
v -0.01 -0.41 -3.09
v -0.00 -0.41 -3.11
v -0.02 -0.41 -3.09
v -0.01 -0.41 -3.06
v -0.01 -0.39 -3.06
v 0.01 -0.40 -3.07
v -0.01 -0.39 -3.06
v -0.02 -0.39 -3.13
v -0.01 -0.38 -3.16
v -0.02 -0.40 -3.16
v -0.01 -0.38 -3.16
v 0.01 -0.39 -3.14
v 0.01 -0.39 -3.16
v -0.00 -0.41 -3.14
v -0.01 -0.41 -3.16
v -0.02 -0.41 -3.13
v -0.00 -0.38 -3.14
v -0.01 -0.41 -3.11
v -0.01 -0.38 -3.10
v -0.00 -0.39 -3.20
v 0.00 -0.39 -3.20
v -0.01 -0.40 -3.20
v 0.00 -0.40 -3.20
v 0.01 -0.41 -3.17
v -0.01 -0.41 -3.17
v -0.02 -0.40 -3.17
v -0.01 -0.38 -3.17
v 0.01 -0.39 -3.17
v 0.01 -0.39 -3.15
v 0.00 -0.41 -3.16
v 0.01 -0.40 -3.15
v -0.02 -0.35 -3.06
v -0.02 -0.35 -3.09
v -0.02 -0.37 -3.09
v 0.00 -0.35 -3.06
v 0.00 -0.35 -3.08
v 0.01 -0.37 -3.07
v 0.01 -0.37 -3.08
v -0.01 -0.38 -3.09
v -0.01 -0.38 -3.07
v -0.02 -0.37 -3.07
v -0.02 -0.37 -3.07
v -0.02 -0.36 -3.04
v -0.01 -0.35 -3.04
v 0.01 -0.35 -3.04
v -0.02 -0.38 -3.04
v -0.00 -0.38 -3.10
v 0.01 -0.36 -3.11
v -0.02 -0.37 -3.11
v -0.02 -0.37 -3.10
v -0.02 -0.36 -3.12
v -0.01 -0.35 -3.09
v 0.00 -0.35 -3.11
v 0.00 -0.35 -3.10
v 0.01 -0.36 -3.09
v -0.02 -0.37 -3.08
v -0.01 -0.35 -3.08
v -0.01 -0.36 -3.15
v -0.01 -0.36 -3.15
v -0.01 -0.36 -3.15
v -0.02 -0.36 -3.13
v -0.02 -0.35 -3.12
v 0.00 -0.35 -3.13
v 0.00 -0.36 -3.13
v -0.01 -0.37 -3.13
v -0.01 -0.35 -3.11
v 0.01 -0.37 -3.12
v -0.01 -0.37 -3.11
v -0.02 -0.35 -3.11
f 1 2 3
f 1 4 2
f 5 6 4
f 7 8 6
f 9 10 8
f 11 12 10
f 13 14 12
f 15 16 14
f 17 18 16
f 19 20 18
f 19 21 20
f 22 23 21
f 24 25 23
f 26 27 25
f 28 29 27
f 28 30 29
f 31 32 30
f 33 34 32
f 33 35 34
f 36 37 35
f 37 36 38
f 35 33 36
f 32 39 33
f 32 31 39
f 30 28 31
f 27 40 28
f 27 26 40
f 25 24 26
f 23 22 24
f 21 19 22
f 18 17 19
f 16 15 17
f 14 41 15
f 14 13 41
f 12 11 13
f 10 9 11
f 8 7 9
f 6 5 7
f 4 1 5
f 3 42 1
f 43 1 42
f 44 5 1
f 45 7 5
f 46 9 7
f 47 11 9
f 48 13 11
f 49 41 13
f 50 15 41
f 51 17 15
f 52 19 17
f 53 22 19
f 54 24 22
f 55 26 24
f 56 40 26
f 57 28 40
f 58 31 28
f 59 39 31
f 60 33 39
f 61 36 33
f 43 38 36
f 36 61 43
f 33 60 61
f 39 59 60
f 31 58 59
f 28 57 58
f 40 56 57
f 26 55 56
f 24 54 55
f 22 53 54
f 19 52 53
f 17 51 52
f 15 62 51
f 15 50 62
f 41 49 50
f 13 48 49
f 11 47 48
f 9 46 47
f 7 45 46
f 5 44 45
f 1 43 44
f 63 44 43
f 64 45 44
f 65 46 45
f 65 47 46
f 66 48 47
f 67 49 48
f 68 50 49
f 69 62 50
f 70 51 62
f 71 52 51
f 72 53 52
f 73 54 53
f 74 55 54
f 75 56 55
f 76 57 56
f 77 58 57
f 78 59 58
f 79 60 59
f 80 61 60
f 81 43 61
f 61 80 81
f 60 79 80
f 59 82 79
f 59 78 82
f 58 77 78
f 57 76 77
f 56 75 76
f 55 74 75
f 54 73 74
f 53 72 73
f 52 71 72
f 51 70 71
f 62 69 70
f 50 68 69
f 49 67 68
f 48 66 67
f 47 65 66
f 45 83 65
f 45 64 83
f 44 63 64
f 84 64 63
f 85 83 64
f 86 65 83
f 87 66 65
f 88 67 66
f 89 68 67
f 90 69 68
f 91 70 69
f 92 71 70
f 93 72 71
f 94 73 72
f 95 74 73
f 96 75 74
f 97 76 75
f 98 77 76
f 98 78 77
f 99 82 78
f 100 79 82
f 101 80 79
f 102 81 80
f 81 102 103
f 80 101 102
f 79 100 101
f 82 99 100
f 78 98 99
f 76 97 98
f 75 96 97
f 74 95 96
f 73 94 95
f 72 93 94
f 71 92 93
f 70 91 92
f 69 90 91
f 68 89 90
f 67 88 89
f 66 87 88
f 65 86 87
f 83 85 86
f 64 84 85
f 104 85 84
f 105 86 85
f 106 87 86
f 107 88 87
f 108 89 88
f 108 90 89
f 109 91 90
f 110 92 91
f 111 93 92
f 112 94 93
f 113 95 94
f 114 96 95
f 115 97 96
f 116 98 97
f 116 99 98
f 117 100 99
f 118 101 100
f 119 102 101
f 120 103 102
f 102 121 120
f 102 119 121
f 101 118 119
f 100 117 118
f 99 116 117
f 97 122 116
f 97 115 122
f 96 114 115
f 95 113 114
f 94 112 113
f 93 111 112
f 92 110 111
f 91 123 110
f 91 109 123
f 90 108 109
f 88 124 108
f 88 107 124
f 87 106 107
f 86 105 106
f 85 104 105
f 125 105 104
f 126 106 105
f 127 107 106
f 128 124 107
f 129 108 124
f 129 109 108
f 130 123 109
f 131 110 123
f 132 111 110
f 133 112 111
f 134 113 112
f 135 114 113
f 136 115 114
f 137 122 115
f 138 116 122
f 138 117 116
f 139 118 117
f 140 119 118
f 141 121 119
f 142 120 121
f 121 143 142
f 121 141 143
f 119 140 141
f 118 139 140
f 117 138 139
f 122 137 138
f 115 136 137
f 114 144 136
f 114 135 144
f 113 134 135
f 112 133 134
f 111 132 133
f 110 131 132
f 123 130 131
f 109 129 130
f 124 128 129
f 107 127 128
f 106 126 127
f 105 125 126
f 104 145 125
f 146 125 145
f 147 126 125
f 148 127 126
f 149 128 127
f 150 129 128
f 151 130 129
f 152 131 130
f 153 132 131
f 154 133 132
f 155 134 133
f 156 135 134
f 157 144 135
f 158 136 144
f 159 137 136
f 160 138 137
f 161 139 138
f 162 140 139
f 163 141 140
f 164 143 141
f 146 142 143
f 143 164 146
f 141 163 164
f 140 162 163
f 139 161 162
f 138 160 161
f 137 159 160
f 136 158 159
f 144 157 158
f 135 156 157
f 134 155 156
f 133 154 155
f 132 153 154
f 131 152 153
f 130 151 152
f 129 150 151
f 128 165 150
f 128 149 165
f 127 148 149
f 126 147 148
f 125 146 147
f 166 147 146
f 167 148 147
f 168 149 148
f 169 165 149
f 170 150 165
f 171 151 150
f 172 152 151
f 172 153 152
f 173 154 153
f 174 155 154
f 175 156 155
f 175 157 156
f 176 158 157
f 177 159 158
f 177 160 159
f 178 161 160
f 179 162 161
f 179 163 162
f 180 164 163
f 181 146 164
f 164 180 181
f 163 179 180
f 161 178 179
f 160 182 178
f 160 177 182
f 158 176 177
f 157 175 176
f 155 174 175
f 154 173 174
f 153 172 173
f 151 171 172
f 150 170 171
f 165 169 170
f 149 168 169
f 148 167 168
f 147 166 167
f 183 167 166
f 184 168 167
f 185 169 168
f 185 170 169
f 185 171 170
f 186 172 171
f 186 173 172
f 187 174 173
f 187 175 174
f 188 176 175
f 188 177 176
f 189 182 177
f 189 178 182
f 189 179 178
f 190 180 179
f 191 181 180
f 180 190 191
f 179 189 190
f 177 188 189
f 175 187 188
f 173 186 187
f 171 185 186
f 168 184 185
f 167 183 184
f 192 184 183
f 193 185 184
f 193 186 185
f 194 187 186
f 194 188 187
f 195 189 188
f 195 190 189
f 192 191 190
f 190 195 192
f 188 194 195
f 186 193 194
f 184 192 193
f 196 197 198
f 199 200 197
f 201 202 200
f 203 204 202
f 205 206 204
f 207 208 206
f 207 209 208
f 210 198 209
f 198 210 211
f 209 207 210
f 206 205 207
f 204 203 205
f 202 201 203
f 200 212 201
f 200 199 212
f 197 196 199
f 213 199 196
f 214 212 199
f 215 201 212
f 216 203 201
f 217 205 203
f 217 207 205
f 218 210 207
f 219 211 210
f 210 218 219
f 207 220 218
f 207 217 220
f 203 216 217
f 201 215 216
f 212 214 215
f 199 221 214
f 199 213 221
f 222 221 213
f 223 214 221
f 224 215 214
f 225 216 215
f 226 217 216
f 227 220 217
f 228 218 220
f 229 219 218
f 218 228 229
f 220 227 228
f 217 226 227
f 216 225 226
f 215 224 225
f 214 223 224
f 221 222 223
f 213 230 222
f 231 232 233
f 234 235 232
f 234 236 235
f 237 238 236
f 237 239 238
f 237 240 239
f 241 242 240
f 243 244 242
f 231 245 244
f 244 243 231
f 242 241 243
f 240 237 241
f 236 234 237
f 232 231 234
f 246 234 231
f 247 237 234
f 247 241 237
f 248 243 241
f 249 231 243
f 231 249 246
f 243 248 249
f 241 247 248
f 234 250 247
f 234 246 250
f 251 250 246
f 252 247 250
f 253 248 247
f 254 249 248
f 255 246 249
f 249 254 255
f 248 253 254
f 247 252 253
f 250 251 252
f 246 255 251
f 256 251 255
f 257 252 251
f 258 253 252
f 259 254 253
f 260 255 254
f 254 259 260
f 253 261 259
f 253 258 261
f 252 257 258
f 251 256 257
f 262 257 256
f 263 258 257
f 264 261 258
f 265 259 261
f 262 260 259
f 259 266 262
f 259 265 266
f 261 264 265
f 258 263 264
f 257 262 263
f 267 268 269
f 270 271 268
f 272 273 271
f 274 275 273
f 276 269 275
f 275 274 276
f 273 272 274
f 271 270 272
f 268 267 270
f 269 276 267
f 277 267 276
f 278 270 267
f 279 272 270
f 280 274 272
f 281 276 274
f 276 281 282
f 274 280 281
f 272 279 280
f 270 278 279
f 267 277 278
f 283 278 277
f 284 279 278
f 284 280 279
f 285 281 280
f 286 282 281
f 281 285 286
f 280 287 285
f 280 284 287
f 278 283 284
f 277 286 283
f 288 283 286
f 289 284 283
f 290 287 284
f 291 285 287
f 292 286 285
f 286 292 288
f 285 291 292
f 287 290 291
f 284 289 290
f 283 288 289
f 293 289 288
f 294 290 289
f 295 291 290
f 296 292 291
f 297 288 292
f 288 297 293
f 292 296 297
f 291 295 296
f 290 294 295
f 289 293 294
f 298 299 300
f 301 302 299
f 303 304 302
f 305 306 304
f 305 307 306
f 308 309 307
f 310 311 309
f 312 313 311
f 314 315 313
f 316 317 315
f 316 318 317
f 319 320 318
f 321 322 320
f 323 324 322
f 325 326 324
f 327 328 326
f 328 327 329
f 326 325 327
f 324 323 325
f 322 321 323
f 320 319 321
f 318 316 319
f 315 330 316
f 315 314 330
f 313 312 314
f 311 310 312
f 309 308 310
f 307 305 308
f 304 303 305
f 302 301 303
f 299 298 301
f 300 329 298
f 331 298 329
f 332 301 298
f 332 303 301
f 333 305 303
f 334 308 305
f 335 310 308
f 336 312 310
f 337 314 312
f 338 330 314
f 339 316 330
f 340 319 316
f 341 321 319
f 342 323 321
f 343 325 323
f 343 327 325
f 344 329 327
f 329 344 345
f 327 343 344
f 323 342 343
f 321 341 342
f 319 340 341
f 316 346 340
f 316 339 346
f 330 338 339
f 314 337 338
f 312 336 337
f 310 335 336
f 308 334 335
f 305 333 334
f 303 332 333
f 298 331 332
f 329 347 331
f 348 331 347
f 349 332 331
f 350 333 332
f 351 334 333
f 352 335 334
f 353 336 335
f 354 337 336
f 355 338 337
f 356 339 338
f 357 346 339
f 358 340 346
f 359 341 340
f 359 342 341
f 360 343 342
f 361 344 343
f 362 345 344
f 345 362 363
f 344 361 362
f 343 360 361
f 342 359 360
f 340 358 359
f 346 357 358
f 339 356 357
f 338 355 356
f 337 354 355
f 336 353 354
f 335 352 353
f 334 351 352
f 333 350 351
f 332 349 350
f 331 348 349
f 347 364 348
f 365 348 364
f 366 349 348
f 367 350 349
f 368 351 350
f 369 352 351
f 370 353 352
f 370 354 353
f 371 355 354
f 372 356 355
f 373 357 356
f 374 358 357
f 375 359 358
f 375 360 359
f 376 361 360
f 377 362 361
f 378 363 362
f 363 378 379
f 362 377 378
f 361 376 377
f 360 375 376
f 358 374 375
f 357 373 374
f 356 372 373
f 355 380 372
f 355 371 380
f 354 370 371
f 352 369 370
f 351 368 369
f 350 367 368
f 349 366 367
f 348 365 366
f 364 379 365
f 381 365 379
f 381 366 365
f 382 367 366
f 383 368 367
f 384 369 368
f 385 370 369
f 386 371 370
f 387 380 371
f 388 372 380
f 389 373 372
f 390 374 373
f 391 375 374
f 392 376 375
f 393 377 376
f 394 378 377
f 394 379 378
f 379 394 395
f 377 393 394
f 376 392 393
f 375 391 392
f 374 390 391
f 373 389 390
f 372 388 389
f 380 387 388
f 371 386 387
f 370 385 386
f 369 384 385
f 368 396 384
f 368 383 396
f 367 382 383
f 366 381 382
f 379 397 381
f 398 381 397
f 399 382 381
f 400 383 382
f 401 396 383
f 402 384 396
f 403 385 384
f 404 386 385
f 405 387 386
f 405 388 387
f 406 389 388
f 407 390 389
f 408 391 390
f 409 392 391
f 410 393 392
f 411 394 393
f 412 395 394
f 394 411 412
f 393 410 411
f 392 409 410
f 391 413 409
f 391 408 413
f 390 407 408
f 389 406 407
f 388 405 406
f 386 404 405
f 385 403 404
f 384 402 403
f 396 414 402
f 396 401 414
f 383 400 401
f 382 399 400
f 381 398 399
f 415 399 398
f 416 400 399
f 417 401 400
f 417 414 401
f 417 402 414
f 417 403 402
f 418 404 403
f 419 405 404
f 419 406 405
f 420 407 406
f 420 408 407
f 421 413 408
f 421 409 413
f 421 410 409
f 422 411 410
f 415 412 411
f 411 422 415
f 410 421 422
f 408 420 421
f 406 419 420
f 404 418 419
f 403 417 418
f 400 416 417
f 399 415 416
f 423 416 415
f 424 417 416
f 425 418 417
f 426 419 418
f 426 420 419
f 427 421 420
f 428 422 421
f 423 415 422
f 422 428 423
f 421 427 428
f 420 426 427
f 418 425 426
f 417 424 425
f 416 423 424
f 429 424 423
f 429 425 424
f 429 426 425
f 429 427 426
f 429 428 427
f 429 423 428
f 430 431 432
f 430 433 431
f 430 434 433
f 430 435 434
f 430 436 435
f 430 437 436
f 430 438 437
f 430 432 438
f 439 438 432
f 440 437 438
f 441 436 437
f 441 435 436
f 442 434 435
f 443 433 434
f 444 431 433
f 445 432 431
f 432 445 446
f 431 444 445
f 433 443 444
f 434 442 443
f 435 441 442
f 437 440 441
f 438 439 440
f 432 446 439
f 447 439 446
f 448 440 439
f 448 441 440
f 449 442 441
f 449 443 442
f 450 444 443
f 451 445 444
f 452 446 445
f 446 452 453
f 445 451 452
f 444 450 451
f 443 449 450
f 441 454 449
f 441 448 454
f 439 447 448
f 446 455 447
f 456 447 455
f 457 448 447
f 458 454 448
f 459 449 454
f 459 450 449
f 460 451 450
f 461 452 451
f 461 453 452
f 453 461 462
f 451 463 461
f 451 460 463
f 450 459 460
f 454 464 459
f 454 458 464
f 448 457 458
f 447 456 457
f 465 457 456
f 465 458 457
f 466 464 458
f 467 459 464
f 468 460 459
f 469 463 460
f 470 461 463
f 471 462 461
f 461 470 471
f 463 469 470
f 460 468 469
f 459 467 468
f 464 472 467
f 464 466 472
f 458 465 466
f 456 471 465
f 473 465 471
f 474 466 465
f 475 472 466
f 476 467 472
f 477 468 467
f 478 469 468
f 479 470 469
f 473 471 470
f 470 479 473
f 469 478 479
f 468 477 478
f 467 480 477
f 467 476 480
f 472 475 476
f 466 474 475
f 465 473 474
f 481 474 473
f 481 475 474
f 482 476 475
f 483 480 476
f 484 477 480
f 485 478 477
f 486 479 478
f 487 473 479
f 479 486 487
f 478 485 486
f 477 484 485
f 480 488 484
f 480 483 488
f 476 482 483
f 475 481 482
f 473 489 481
f 490 491 492
f 490 493 491
f 490 494 493
f 490 495 494
f 490 496 495
f 490 497 496
f 490 498 497
f 490 492 498
f 499 498 492
f 500 497 498
f 501 496 497
f 502 495 496
f 503 494 495
f 504 493 494
f 505 491 493
f 499 492 491
f 491 505 499
f 493 506 505
f 493 504 506
f 494 503 504
f 495 502 503
f 496 501 502
f 497 500 501
f 498 499 500
f 507 500 499
f 508 501 500
f 509 502 501
f 510 503 502
f 511 504 503
f 512 506 504
f 513 505 506
f 507 499 505
f 505 513 507
f 506 512 513
f 504 511 512
f 503 514 511
f 503 510 514
f 502 509 510
f 501 508 509
f 500 507 508
f 515 508 507
f 516 509 508
f 517 510 509
f 518 514 510
f 519 511 514
f 520 512 511
f 521 513 512
f 515 507 513
f 513 521 515
f 512 520 521
f 511 519 520
f 514 518 519
f 510 522 518
f 510 517 522
f 509 516 517
f 508 515 516
f 523 516 515
f 524 517 516
f 525 522 517
f 526 518 522
f 527 519 518
f 528 520 519
f 529 521 520
f 529 515 521
f 515 529 530
f 520 528 529
f 519 527 528
f 518 526 527
f 522 525 526
f 517 524 525
f 516 523 524
f 515 530 523
f 531 523 530
f 532 524 523
f 533 525 524
f 534 526 525
f 535 527 526
f 536 528 527
f 536 529 528
f 537 530 529
f 530 537 538
f 529 536 537
f 527 535 536
f 526 534 535
f 525 533 534
f 524 532 533
f 523 531 532
f 530 538 531
f 539 531 538
f 540 532 531
f 541 533 532
f 541 534 533
f 542 535 534
f 543 536 535
f 543 537 536
f 544 538 537
f 538 544 545
f 537 543 544
f 535 542 543
f 534 546 542
f 534 541 546
f 532 540 541
f 531 539 540
f 538 545 539
f 547 548 549
f 547 550 548
f 547 551 550
f 547 549 551
f 552 551 549
f 553 550 551
f 554 548 550
f 555 549 548
f 549 555 556
f 548 557 555
f 548 554 557
f 550 558 554
f 550 553 558
f 551 559 553
f 551 552 559
f 549 556 552
f 560 552 556
f 561 559 552
f 562 553 559
f 563 558 553
f 563 554 558
f 564 557 554
f 565 555 557
f 566 556 555
f 556 566 567
f 555 565 566
f 557 564 565
f 554 563 564
f 553 562 563
f 559 561 562
f 552 560 561
f 568 561 560
f 569 562 561
f 570 563 562
f 571 564 563
f 571 565 564
f 572 566 565
f 573 567 566
f 566 572 573
f 565 571 572
f 563 570 571
f 562 569 570
f 561 568 569
f 560 573 568
f 574 568 573
f 575 569 568
f 576 570 569
f 577 571 570
f 578 572 571
f 579 573 572
f 573 579 580
f 572 578 579
f 571 577 578
f 570 576 577
f 569 575 576
f 568 574 575
f 581 575 574
f 581 576 575
f 582 577 576
f 583 578 577
f 584 579 578
f 585 580 579
f 579 584 585
f 578 586 584
f 578 583 586
f 577 582 583
f 576 581 582
f 574 585 581
f 587 581 585
f 588 582 581
f 589 583 582
f 590 586 583
f 591 584 586
f 592 585 584
f 585 592 587
f 584 591 592
f 586 590 591
f 583 589 590
f 582 588 589
f 581 587 588
f 593 594 595
f 593 596 594
f 593 597 596
f 593 595 597
f 598 597 595
f 599 596 597
f 600 594 596
f 601 595 594
f 595 601 602
f 594 603 601
f 594 600 603
f 596 604 600
f 596 599 604
f 597 605 599
f 597 598 605
f 595 606 598
f 607 598 606
f 607 605 598
f 607 599 605
f 608 604 599
f 609 600 604
f 610 603 600
f 611 601 603
f 612 602 601
f 601 611 612
f 603 610 611
f 600 609 610
f 604 608 609
f 599 607 608
f 606 613 607
f 614 607 613
f 615 608 607
f 616 609 608
f 617 610 609
f 618 611 610
f 619 612 611
f 612 619 614
f 611 618 619
f 610 617 618
f 609 616 617
f 608 615 616
f 607 614 615
f 620 615 614
f 621 616 615
f 622 617 616
f 623 618 617
f 624 619 618
f 624 614 619
f 614 624 625
f 618 623 624
f 617 622 623
f 616 621 622
f 615 620 621
f 614 625 620
f 626 620 625
f 627 621 620
f 628 622 621
f 629 623 622
f 630 624 623
f 631 625 624
f 624 630 631
f 623 629 630
f 622 632 629
f 622 628 632
f 621 627 628
f 620 626 627
f 633 627 626
f 634 628 627
f 635 632 628
f 636 629 632
f 637 630 629
f 633 631 630
f 630 638 633
f 630 637 638
f 629 636 637
f 632 635 636
f 628 634 635
f 627 633 634
f 639 640 641
f 639 642 640
f 639 643 642
f 639 644 643
f 639 645 644
f 639 646 645
f 639 647 646
f 639 648 647
f 649 647 648
f 650 646 647
f 651 645 646
f 652 644 645
f 653 643 644
f 654 642 643
f 655 640 642
f 649 641 640
f 640 655 649
f 642 656 655
f 642 654 656
f 643 653 654
f 644 652 653
f 645 651 652
f 646 650 651
f 647 649 650
f 657 650 649
f 658 651 650
f 658 652 651
f 659 653 652
f 660 654 653
f 661 656 654
f 662 655 656
f 663 649 655
f 655 664 663
f 655 662 664
f 656 661 662
f 654 660 661
f 653 659 660
f 652 658 659
f 650 657 658
f 649 665 657
f 666 657 665
f 667 658 657
f 668 659 658
f 669 660 659
f 670 661 660
f 670 662 661
f 671 664 662
f 672 663 664
f 663 672 673
f 664 671 672
f 662 670 671
f 660 669 670
f 659 668 669
f 658 667 668
f 657 666 667
f 665 674 666
f 675 666 674
f 676 667 666
f 677 668 667
f 678 669 668
f 678 670 669
f 679 671 670
f 680 672 671
f 681 673 672
f 673 681 682
f 672 680 681
f 671 679 680
f 670 678 679
f 668 677 678
f 667 676 677
f 666 675 676
f 674 683 675
f 684 675 683
f 685 676 675
f 686 677 676
f 687 678 677
f 688 679 678
f 689 680 679
f 690 681 680
f 684 682 681
f 681 691 684
f 681 690 691
f 680 689 690
f 679 688 689
f 678 687 688
f 677 686 687
f 676 685 686
f 675 684 685
f 692 685 684
f 693 686 685
f 694 687 686
f 695 688 687
f 696 689 688
f 697 690 689
f 698 691 690
f 699 684 691
f 691 698 699
f 690 697 698
f 689 696 697
f 688 695 696
f 687 694 695
f 686 693 694
f 685 692 693
f 684 699 692
f 700 692 699
f 701 693 692
f 702 694 693
f 702 695 694
f 703 696 695
f 704 697 696
f 705 698 697
f 706 699 698
f 698 705 706
f 697 704 705
f 696 703 704
f 695 707 703
f 695 702 707
f 693 701 702
f 692 700 701
f 699 706 700
f 708 700 706
f 709 701 700
f 710 702 701
f 711 707 702
f 712 703 707
f 713 704 703
f 714 705 704
f 708 706 705
f 705 714 708
f 704 713 714
f 703 712 713
f 707 711 712
f 702 710 711
f 701 715 710
f 701 709 715
f 700 708 709
f 716 709 708
f 717 715 709
f 718 710 715
f 719 711 710
f 720 712 711
f 721 713 712
f 722 714 713
f 722 708 714
f 708 722 716
f 713 723 722
f 713 721 723
f 712 720 721
f 711 719 720
f 710 718 719
f 715 717 718
f 709 716 717
f 724 717 716
f 725 718 717
f 726 719 718
f 727 720 719
f 728 721 720
f 729 723 721
f 730 722 723
f 730 716 722
f 716 730 731
f 723 729 730
f 721 728 729
f 720 727 728
f 719 726 727
f 718 732 726
f 718 725 732
f 717 724 725
f 733 734 735
f 733 736 734
f 733 737 736
f 733 738 737
f 733 739 738
f 733 740 739
f 733 741 740
f 733 735 741
f 742 741 735
f 743 740 741
f 744 739 740
f 745 738 739
f 746 737 738
f 746 736 737
f 747 734 736
f 748 735 734
f 735 748 749
f 734 747 748
f 736 746 747
f 738 745 746
f 739 744 745
f 740 743 744
f 741 750 743
f 741 742 750
f 751 750 742
f 752 743 750
f 753 744 743
f 754 745 744
f 755 746 745
f 756 747 746
f 757 748 747
f 758 749 748
f 748 757 758
f 747 756 757
f 746 755 756
f 745 754 755
f 744 753 754
f 743 752 753
f 750 751 752
f 742 758 751
f 759 751 758
f 760 752 751
f 761 753 752
f 762 754 753
f 762 755 754
f 763 756 755
f 764 757 756
f 765 758 757
f 758 765 766
f 757 764 765
f 756 763 764
f 755 762 763
f 753 761 762
f 752 760 761
f 751 759 760
f 758 767 759
f 768 759 767
f 769 760 759
f 770 761 760
f 771 762 761
f 772 763 762
f 773 764 763
f 774 765 764
f 775 766 765
f 766 775 768
f 765 774 775
f 764 773 774
f 763 772 773
f 762 771 772
f 761 770 771
f 760 769 770
f 759 768 769
f 776 769 768
f 777 770 769
f 778 771 770
f 779 772 771
f 780 773 772
f 781 774 773
f 782 775 774
f 783 768 775
f 775 782 783
f 774 781 782
f 773 780 781
f 772 779 780
f 771 778 779
f 770 777 778
f 769 776 777
f 768 783 776
f 784 776 783
f 784 777 776
f 785 778 777
f 786 779 778
f 787 780 779
f 788 781 780
f 789 782 781
f 790 783 782
f 782 789 790
f 781 788 789
f 780 791 788
f 780 787 791
f 779 786 787
f 778 785 786
f 777 784 785
f 783 790 784
f 792 784 790
f 793 785 784
f 794 786 785
f 795 787 786
f 796 791 787
f 797 788 791
f 798 789 788
f 799 790 789
f 790 799 792
f 789 798 799
f 788 797 798
f 791 796 797
f 787 795 796
f 786 794 795
f 785 793 794
f 784 792 793
f 800 793 792
f 801 794 793
f 802 795 794
f 803 796 795
f 804 797 796
f 805 798 797
f 806 799 798
f 807 792 799
f 792 807 800
f 799 806 807
f 798 805 806
f 797 804 805
f 796 803 804
f 795 802 803
f 794 801 802
f 793 800 801
f 808 801 800
f 808 802 801
f 809 803 802
f 810 804 803
f 811 805 804
f 811 806 805
f 812 807 806
f 813 800 807
f 807 814 813
f 807 812 814
f 806 811 812
f 804 815 811
f 804 810 815
f 803 809 810
f 802 808 809
f 800 813 808
f 816 808 813
f 817 809 808
f 818 810 809
f 818 815 810
f 819 811 815
f 820 812 811
f 821 814 812
f 822 813 814
f 814 821 822
f 812 820 821
f 811 819 820
f 815 823 819
f 815 818 823
f 809 817 818
f 808 816 817
f 813 822 816
f 824 825 826
f 824 827 825
f 824 828 827
f 824 826 828
f 829 828 826
f 830 827 828
f 831 825 827
f 832 826 825
f 826 832 829
f 825 831 832
f 827 830 831
f 828 829 830
f 833 830 829
f 834 831 830
f 834 832 831
f 835 829 832
f 832 836 835
f 832 834 836
f 830 833 834
f 829 835 833
f 837 838 839
f 837 840 838
f 837 841 840
f 837 842 841
f 843 841 842
f 844 840 841
f 845 838 840
f 846 839 838
f 838 845 846
f 840 844 845
f 841 843 844
f 842 846 843
f 847 843 846
f 848 844 843
f 849 845 844
f 850 846 845
f 846 850 851
f 845 849 850
f 844 848 849
f 843 847 848
f 852 853 854
f 852 855 853
f 852 856 855
f 852 857 856
f 858 856 857
f 859 855 856
f 860 853 855
f 861 854 853
f 854 861 858
f 853 860 861
f 855 859 860
f 856 858 859
f 862 859 858
f 863 860 859
f 864 861 860
f 862 858 861
f 861 864 862
f 860 865 864
f 860 863 865
f 859 862 863
f 866 867 868
f 866 869 867
f 866 870 869
f 866 871 870
f 872 870 871
f 873 869 870
f 874 867 869
f 875 868 867
f 868 875 872
f 867 874 875
f 869 873 874
f 870 872 873
f 876 873 872
f 877 874 873
f 878 875 874
f 879 872 875
f 875 878 879
f 874 877 878
f 873 876 877
f 872 879 876
f 880 881 882
f 880 883 881
f 880 884 883
f 880 882 884
f 885 884 882
f 886 883 884
f 887 881 883
f 888 882 881
f 882 888 889
f 881 887 888
f 883 886 887
f 884 885 886
f 890 886 885
f 891 887 886
f 891 888 887
f 892 889 888
f 888 893 892
f 888 891 893
f 886 890 891
f 885 894 890
f 895 896 897
f 898 897 899
f 899 900 901
f 899 901 898
f 897 898 902
f 897 902 903
f 897 903 904
f 897 904 905
f 897 905 895
f 896 895 900
f 906 900 895
f 907 895 905
f 908 905 904
f 909 904 903
f 909 903 902
f 910 902 898
f 911 898 901
f 906 901 900
f 901 906 911
f 898 911 912
f 898 912 910
f 902 910 909
f 904 909 913
f 904 913 908
f 905 908 907
f 895 907 906
f 914 906 907
f 915 907 908
f 916 908 913
f 917 913 909
f 918 909 910
f 919 910 912
f 920 912 911
f 921 911 906
f 906 914 921
f 911 921 920
f 912 920 919
f 910 919 918
f 909 918 917
f 913 917 916
f 908 916 915
f 907 915 914
f 922 914 915
f 923 915 916
f 924 916 917
f 924 917 918
f 925 918 919
f 926 919 920
f 927 920 921
f 928 921 914
f 921 928 929
f 921 929 927
f 920 927 926
f 919 926 925
f 918 925 924
f 916 924 923
f 915 923 922
f 914 922 928
f 930 928 922
f 931 922 923
f 932 923 924
f 933 924 925
f 934 925 926
f 934 926 927
f 935 927 929
f 936 929 928
f 929 936 935
f 927 935 937
f 927 937 934
f 925 934 933
f 924 933 932
f 923 932 931
f 922 931 930
f 928 930 936
f 938 936 930
f 939 930 931
f 940 931 932
f 876 932 933
f 941 933 934
f 942 934 937
f 836 937 935
f 833 935 936
f 936 943 833
f 935 833 835
f 935 835 836
f 937 836 944
f 937 944 942
f 934 942 945
f 934 945 941
f 933 941 865
f 933 865 863
f 933 863 877
f 933 877 876
f 932 876 946
f 932 946 940
f 931 940 947
f 931 947 948
f 931 948 939
f 930 939 949
f 930 949 878
f 930 878 938
f 936 938 864
f 936 864 847
f 950 951 952
f 953 954 951
f 955 956 954
f 957 958 956
f 959 960 958
f 959 961 960
f 962 963 961
f 962 964 963
f 965 966 964
f 967 968 966
f 969 970 968
f 971 952 970
f 970 969 971
f 968 967 969
f 966 972 967
f 966 965 972
f 964 962 965
f 961 959 962
f 958 957 959
f 956 955 957
f 954 953 955
f 951 950 953
f 952 973 950
f 974 950 973
f 975 953 950
f 976 955 953
f 977 957 955
f 978 959 957
f 979 962 959
f 980 965 962
f 980 972 965
f 981 967 972
f 982 969 967
f 983 971 969
f 969 984 983
f 969 982 984
f 967 981 982
f 972 980 981
f 962 979 980
f 959 978 979
f 957 977 978
f 955 976 977
f 953 975 976
f 950 974 975
f 985 975 974
f 986 976 975
f 987 977 976
f 988 978 977
f 989 979 978
f 990 980 979
f 991 981 980
f 992 982 981
f 993 984 982
f 994 983 984
f 983 994 985
f 984 993 994
f 982 992 993
f 981 991 992
f 980 990 991
f 979 995 990
f 979 989 995
f 978 996 989
f 978 988 996
f 977 987 988
f 976 986 987
f 975 985 986
f 997 986 985
f 998 987 986
f 999 988 987
f 1000 996 988
f 1001 989 996
f 1002 995 989
f 1002 990 995
f 1003 991 990
f 1004 992 991
f 1005 993 992
f 1006 994 993
f 1007 985 994
f 985 1007 997
f 994 1006 1007
f 993 1005 1006
f 992 1004 1005
f 991 1003 1004
f 990 1002 1003
f 989 1001 1002
f 996 1000 1001
f 988 999 1000
f 987 998 999
f 986 997 998
f 1008 998 997
f 1009 999 998
f 1010 1000 999
f 1011 1001 1000
f 1011 1002 1001
f 1012 1003 1002
f 1013 1004 1003
f 1014 1005 1004
f 1015 1006 1005
f 1016 1007 1006
f 1017 997 1007
f 1007 1016 1017
f 1006 1015 1016
f 1005 1014 1015
f 1004 1013 1014
f 1003 1012 1013
f 1002 1011 1012
f 1000 1010 1011
f 999 1009 1010
f 998 1018 1009
f 998 1008 1018
f 997 1019 1008
f 1020 1008 1019
f 1020 1018 1008
f 1020 1009 1018
f 1020 1010 1009
f 1020 1011 1010
f 1020 1012 1011
f 1020 1013 1012
f 1020 1014 1013
f 1020 1015 1014
f 1020 1016 1015
f 1020 1017 1016
f 1021 1022 1023
f 1024 1025 1022
f 1026 1027 1025
f 1028 1029 1027
f 1029 1030 1029
f 1031 1032 1030
f 1033 1034 1032
f 1035 1036 1034
f 1037 1038 1036
f 1039 1040 1038
f 1039 1023 1040
f 1023 1039 1021
f 1038 1037 1039
f 1036 1035 1037
f 1034 1033 1035
f 1032 1031 1033
f 1030 1029 1031
f 1029 1028 1029
f 1027 1026 1028
f 1025 1041 1026
f 1025 1024 1041
f 1022 1021 1024
f 1042 1024 1021
f 1043 1041 1024
f 1043 1026 1041
f 1044 1028 1026
f 1045 1029 1028
f 1046 1031 1029
f 1047 1033 1031
f 1048 1035 1033
f 1049 1037 1035
f 1050 1039 1037
f 1051 1021 1039
f 1021 1051 1042
f 1039 1050 1051
f 1037 1049 1050
f 1035 1048 1049
f 1033 1047 1048
f 1031 1046 1047
f 1029 1045 1046
f 1028 1044 1045
f 1026 1043 1044
f 1024 1042 1043
f 1052 1043 1042
f 1053 1044 1043
f 1054 1045 1044
f 1055 1046 1045
f 1056 1047 1046
f 1057 1048 1047
f 1057 1049 1048
f 1058 1050 1049
f 1059 1051 1050
f 1052 1042 1051
f 1051 1059 1052
f 1050 1060 1059
f 1050 1058 1060
f 1049 1057 1058
f 1047 1056 1057
f 1046 1055 1056
f 1045 1054 1055
f 1044 1053 1054
f 1043 1052 1053
f 1061 1053 1052
f 1062 1054 1053
f 1063 1055 1054
f 1064 1056 1055
f 1065 1057 1056
f 1066 1058 1057
f 1067 1060 1058
f 1068 1059 1060
f 1069 1052 1059
f 1059 1068 1069
f 1060 1067 1068
f 1058 1070 1067
f 1058 1066 1070
f 1057 1065 1066
f 1056 1064 1065
f 1055 1063 1064
f 1054 1062 1063
f 1053 1071 1062
f 1053 1061 1071
f 1052 1072 1061
f 1073 1061 1072
f 1073 1071 1061
f 1073 1062 1071
f 1073 1063 1062
f 1073 1064 1063
f 1073 1065 1064
f 1073 1066 1065
f 1073 1070 1066
f 1073 1067 1070
f 1073 1068 1067
f 1073 1069 1068
f 1074 1075 1076
f 1074 1077 1075
f 1074 1078 1077
f 1074 1079 1078
f 1080 1078 1079
f 1080 1077 1078
f 1081 1075 1077
f 1082 1076 1075
f 1076 1082 1083
f 1075 1081 1082
f 1077 1080 1081
f 1079 1083 1080
f 1084 1080 1083
f 1085 1081 1080
f 1086 1082 1081
f 1087 1083 1082
f 1083 1087 1088
f 1082 1086 1087
f 1081 1085 1086
f 1080 1084 1085
f 1083 1089 1084
f 1090 1091 1092
f 1090 1093 1091
f 1090 1094 1093
f 1090 1092 1094
f 1095 1094 1092
f 1096 1093 1094
f 1097 1091 1093
f 1098 1092 1091
f 1091 1097 1098
f 1093 1099 1097
f 1093 1096 1099
f 1094 1095 1096
f 1100 1096 1095
f 1101 1099 1096
f 1102 1097 1099
f 1103 1098 1097
f 1098 1103 1100
f 1097 1102 1103
f 1099 1101 1102
f 1096 1100 1101
f 1104 1105 1106
f 1104 1107 1105
f 1104 1108 1107
f 1104 1106 1108
f 1109 1108 1106
f 1110 1107 1108
f 1111 1105 1107
f 1112 1106 1105
f 1105 1111 1112
f 1107 1110 1111
f 1108 1109 1110
f 1106 1112 1109
f 1103 1109 1112
f 1102 1110 1109
f 1113 1111 1110
f 1103 1112 1111
f 1111 1113 1103
f 1110 1114 1113
f 1110 1102 1114
f 1109 1103 1102
f 1115 1116 1117
f 1115 1118 1116
f 1115 1119 1118
f 1115 1117 1119
f 1120 1119 1117
f 1121 1118 1119
f 1122 1116 1118
f 1123 1117 1116
f 1116 1122 1123
f 1118 1121 1122
f 1119 1124 1121
f 1119 1120 1124
f 1125 1124 1120
f 1126 1121 1124
f 1126 1122 1121
f 1127 1123 1122
f 1123 1127 1128
f 1122 1126 1127
f 1124 1125 1126
f 1120 1128 1125
f 1129 1130 1131
f 1129 1132 1130
f 1129 1133 1132
f 1129 1131 1133
f 1134 1133 1131
f 1135 1132 1133
f 1136 1130 1132
f 1131 1136 1137
f 1132 1135 1136
f 1133 1134 1135
f 1131 1137 1134
f 1138 1134 1137
f 1139 1135 1134
f 1140 1136 1135
f 1141 1137 1136
f 1136 1140 1141
f 1135 1139 1140
f 1134 1138 1139
f 1137 1142 1138
f 1143 1144 1145
f 1146 1145 1147
f 1147 810 1148
f 1147 1148 1146
f 1145 1146 1149
f 1145 1149 1150
f 1145 1150 1151
f 1145 1151 1152
f 1145 1152 1143
f 1144 1143 1153
f 1154 1153 1143
f 1155 1143 1152
f 1156 1152 1151
f 1157 1151 1150
f 1157 1150 1149
f 1158 1149 1146
f 1159 1146 1148
f 1154 1148 810
f 1148 1154 1159
f 1148 1159 1159
f 1146 1159 1160
f 1146 1160 1158
f 1149 1158 1157
f 1151 1157 1156
f 1152 1156 1155
f 1143 1155 1161
f 1143 1161 1154
f 1162 1154 1161
f 1163 1161 1155
f 1164 1155 1156
f 1165 1156 1157
f 1166 1157 1158
f 1167 1158 1160
f 1167 1160 1159
f 1168 1159 1159
f 1168 1159 1154
f 1154 1169 1168
f 1159 1168 1167
f 1158 1167 1166
f 1157 1166 1165
f 1156 1165 1164
f 1155 1164 1163
f 1161 1163 1162
f 1154 1162 1169
f 1170 1169 1162
f 1171 1162 1163
f 1172 1163 1164
f 1173 1164 1165
f 1173 1165 1166
f 1174 1166 1167
f 1175 1167 1168
f 1176 1168 1169
f 1168 1176 1177
f 1168 1177 1175
f 1167 1175 1174
f 1166 1174 1173
f 1164 1173 1172
f 1163 1172 1171
f 1162 1171 1170
f 1169 1170 1176
f 1178 1176 1170
f 1179 1170 1171
f 1180 1171 1172
f 1181 1172 1173
f 1182 1173 1174
f 1183 1174 1175
f 1184 1175 1177
f 1185 1177 1176
f 1176 1178 1185
f 1177 1185 1184
f 1175 1184 1183
f 1174 1183 1182
f 1173 1182 1181
f 1172 1181 1180
f 1171 1180 1179
f 1170 1179 1178
f 1186 1178 1179
f 1187 1179 1180
f 1085 1180 1181
f 1188 1181 1182
f 1189 1182 1183
f 1139 1183 1184
f 1190 1184 1185
f 1191 1185 1178
f 1178 1100 1103
f 1178 1103 1191
f 1185 1191 1192
f 1185 1192 1193
f 1185 1193 1190
f 1184 1190 1142
f 1184 1142 1140
f 1184 1140 1139
f 1183 1139 1194
f 1183 1194 1189
f 1182 1189 1195
f 1182 1195 1196
f 1182 1196 1197
f 1182 1197 1198
f 1182 1198 1188
f 1181 1188 1199
f 1181 1199 1200
f 1181 1200 1085
f 1180 1085 1187
f 1179 1187 1088
f 1179 1088 1186
f 1178 1186 1100
f 1201 1202 1203
f 1204 1205 1202
f 1206 1207 1205
f 1208 1209 1207
f 1210 1211 1209
f 1212 1213 1211
f 1214 1215 1213
f 1216 1217 1215
f 1218 1219 1217
f 1220 1221 1219
f 1221 1220 1222
f 1219 1223 1220
f 1219 1218 1223
f 1217 1216 1218
f 1215 1214 1216
f 1213 1212 1214
f 1211 1224 1212
f 1211 1210 1224
f 1209 1208 1210
f 1207 1206 1208
f 1205 1204 1206
f 1202 1225 1204
f 1202 1201 1225
f 1203 1226 1201
f 1227 1201 1226
f 1228 1225 1201
f 1229 1204 1225
f 1230 1206 1204
f 1231 1208 1206
f 1232 1210 1208
f 1233 1224 1210
f 1234 1212 1224
f 1235 1214 1212
f 1236 1216 1214
f 1237 1218 1216
f 1238 1223 1218
f 1239 1220 1223
f 1227 1222 1220
f 1220 1239 1227
f 1223 1238 1239
f 1218 1237 1238
f 1216 1236 1237
f 1214 1235 1236
f 1212 1234 1235
f 1224 1240 1234
f 1224 1233 1240
f 1210 1232 1233
f 1208 1231 1232
f 1206 1230 1231
f 1204 1229 1230
f 1225 1228 1229
f 1201 1227 1228
f 1241 1228 1227
f 1242 1229 1228
f 1243 1230 1229
f 1244 1231 1230
f 1245 1232 1231
f 1246 1233 1232
f 1247 1240 1233
f 1248 1234 1240
f 1249 1235 1234
f 1250 1236 1235
f 1251 1237 1236
f 1252 1238 1237
f 1253 1239 1238
f 1254 1227 1239
f 1239 1255 1254
f 1239 1253 1255
f 1238 1252 1253
f 1237 1251 1252
f 1236 1250 1251
f 1235 1249 1250
f 1234 1248 1249
f 1240 1247 1248
f 1233 1246 1247
f 1232 1245 1246
f 1231 1244 1245
f 1230 1243 1244
f 1229 1242 1243
f 1228 1241 1242
f 1256 1242 1241
f 1257 1243 1242
f 1258 1244 1243
f 1259 1245 1244
f 1260 1246 1245
f 1261 1247 1246
f 1262 1248 1247
f 1263 1249 1248
f 1264 1250 1249
f 1265 1251 1250
f 1266 1252 1251
f 1267 1253 1252
f 1268 1255 1253
f 1269 1254 1255
f 1255 1270 1269
f 1255 1268 1270
f 1253 1267 1268
f 1252 1266 1267
f 1251 1265 1266
f 1250 1264 1265
f 1249 1263 1264
f 1248 1262 1263
f 1247 1261 1262
f 1246 1260 1261
f 1245 1259 1260
f 1244 1271 1259
f 1244 1258 1271
f 1243 1257 1258
f 1242 1256 1257
f 1272 1257 1256
f 1273 1258 1257
f 1274 1271 1258
f 1275 1259 1271
f 1275 1260 1259
f 1276 1261 1260
f 1277 1262 1261
f 1278 1263 1262
f 1279 1264 1263
f 1280 1265 1264
f 1281 1266 1265
f 1282 1267 1266
f 1283 1268 1267
f 1284 1270 1268
f 1285 1269 1270
f 1270 1284 1285
f 1268 1283 1284
f 1267 1282 1283
f 1266 1281 1282
f 1265 1280 1281
f 1264 1279 1280
f 1263 1278 1279
f 1262 1286 1278
f 1262 1277 1286
f 1261 1276 1277
f 1260 1275 1276
f 1271 1274 1275
f 1258 1273 1274
f 1257 1272 1273
f 1287 1273 1272
f 1288 1274 1273
f 1289 1275 1274
f 1290 1276 1275
f 1291 1277 1276
f 1292 1286 1277
f 1293 1278 1286
f 1294 1279 1278
f 1294 1280 1279
f 1295 1281 1280
f 1296 1282 1281
f 1297 1283 1282
f 1298 1284 1283
f 1299 1285 1284
f 1285 1299 1300
f 1284 1298 1299
f 1283 1297 1298
f 1282 1296 1297
f 1281 1295 1296
f 1280 1294 1295
f 1278 1293 1294
f 1286 1292 1293
f 1277 1291 1292
f 1276 1290 1291
f 1275 1289 1290
f 1274 1288 1289
f 1273 1287 1288
f 1272 1301 1287
f 1302 1287 1301
f 1303 1288 1287
f 1304 1289 1288
f 1304 1290 1289
f 1305 1291 1290
f 1306 1292 1291
f 1307 1293 1292
f 1307 1294 1293
f 1308 1295 1294
f 1309 1296 1295
f 1310 1297 1296
f 1310 1298 1297
f 1311 1299 1298
f 1312 1300 1299
f 1299 1311 1312
f 1298 1313 1311
f 1298 1310 1313
f 1296 1314 1310
f 1296 1309 1314
f 1295 1308 1309
f 1294 1307 1308
f 1292 1315 1307
f 1292 1306 1315
f 1291 1305 1306
f 1290 1316 1305
f 1290 1304 1316
f 1288 1303 1304
f 1287 1317 1303
f 1287 1302 1317
f 1318 1317 1302
f 1319 1303 1317
f 1319 1304 1303
f 1320 1316 1304
f 1321 1305 1316
f 1322 1306 1305
f 1322 1315 1306
f 1323 1307 1315
f 1324 1308 1307
f 1324 1309 1308
f 1325 1314 1309
f 1326 1310 1314
f 1327 1313 1310
f 1328 1311 1313
f 1329 1312 1311
f 1311 1328 1329
f 1313 1327 1328
f 1310 1326 1327
f 1314 1325 1326
f 1309 1324 1325
f 1307 1323 1324
f 1315 1322 1323
f 1305 1321 1322
f 1316 1320 1321
f 1304 1319 1320
f 1317 1318 1319
f 1302 1330 1318
f 1331 1318 1330
f 1332 1319 1318
f 1333 1320 1319
f 1334 1321 1320
f 1335 1322 1321
f 1336 1323 1322
f 1336 1324 1323
f 1337 1325 1324
f 1338 1326 1325
f 1339 1327 1326
f 1340 1328 1327
f 1341 1329 1328
f 1328 1340 1341
f 1327 1339 1340
f 1326 1338 1339
f 1325 1337 1338
f 1324 1336 1337
f 1322 1335 1336
f 1321 1334 1335
f 1320 1333 1334
f 1319 1332 1333
f 1318 1331 1332
f 1342 1332 1331
f 1342 1333 1332
f 1342 1334 1333
f 1342 1335 1334
f 1342 1336 1335
f 1342 1337 1336
f 1342 1338 1337
f 1342 1339 1338
f 1342 1340 1339
f 1342 1341 1340
f 1343 1344 1345
f 1346 1345 1344
f 1345 1347 1348
f 1345 1346 1347
f 1344 1349 1346
f 1344 1350 1349
f 1344 1343 1350
f 1345 1348 1343
f 1351 1343 1348
f 1352 1350 1343
f 1353 1349 1350
f 1354 1346 1349
f 1355 1347 1346
f 1356 1348 1347
f 1347 1355 1356
f 1346 1357 1355
f 1346 1354 1357
f 1349 1353 1354
f 1350 1352 1353
f 1343 1351 1352
f 1348 1356 1351
f 1358 1351 1356
f 1359 1352 1351
f 1359 1353 1352
f 1360 1354 1353
f 1361 1357 1354
f 1362 1355 1357
f 1363 1356 1355
f 1356 1363 1358
f 1355 1362 1363
f 1357 1361 1362
f 1354 1360 1361
f 1353 1359 1360
f 1364 1359 1358
f 1365 1360 1359
f 1366 1361 1360
f 1366 1362 1361
f 1364 1363 1362
f 1364 1358 1363
f 1362 1366 1364
f 1360 1365 1366
f 1359 1364 1365
f 1367 1368 1369
f 1370 1371 1368
f 1372 1373 1371
f 1374 1375 1373
f 1376 1377 1375
f 1375 1378 1376
f 1375 1374 1378
f 1373 1372 1374
f 1371 1370 1372
f 1368 1367 1370
f 1379 1370 1367
f 1380 1372 1370
f 1381 1374 1372
f 1382 1378 1374
f 1382 1376 1378
f 1376 1382 1379
f 1374 1381 1382
f 1372 1380 1381
f 1370 1383 1380
f 1370 1379 1383
f 1384 1385 1386
f 1384 1387 1385
f 1384 1388 1387
f 1384 1389 1388
f 1384 1386 1389
f 1390 1389 1386
f 1391 1388 1389
f 1392 1387 1388
f 1393 1385 1387
f 1394 1386 1385
f 1386 1394 1395
f 1385 1393 1394
f 1387 1392 1393
f 1388 1391 1392
f 1389 1390 1391
f 1396 1391 1390
f 1397 1392 1391
f 1398 1393 1392
f 1369 1394 1393
f 1399 1395 1394
f 1394 1369 1399
f 1393 1398 1369
f 1392 1397 1398
f 1391 1396 1397
f 1390 1368 1396
f 1400 1401 1402
f 1403 1404 1401
f 1405 1406 1404
f 1407 1408 1406
f 1409 1402 1408
f 1408 1410 1409
f 1408 1407 1410
f 1406 1405 1407
f 1404 1403 1405
f 1401 1400 1403
f 1411 1403 1400
f 1412 1405 1403
f 1413 1407 1405
f 1414 1410 1407
f 1411 1409 1410
f 1410 1414 1411
f 1407 1413 1414
f 1405 1412 1413
f 1403 1415 1412
f 1403 1411 1415
f 1416 1417 1418
f 1416 1419 1417
f 1420 1421 1419
f 1420 1422 1421
f 1423 1418 1422
f 1418 1423 1424
f 1422 1420 1423
f 1421 1420 1420
f 1419 1416 1420
f 1418 1425 1416
f 1426 1416 1425
f 1427 1420 1416
f 1427 1420 1420
f 1428 1423 1420
f 1408 1424 1423
f 1424 1408 1429
f 1423 1428 1408
f 1420 1427 1428
f 1416 1426 1427
f 1425 1429 1426
f 1430 1431 1432
f 1430 1430 1431
f 1430 1433 1430
f 1430 1434 1433
f 1430 1432 1434
f 1435 1434 1432
f 1436 1433 1434
f 1437 1430 1433
f 1437 1431 1430
f 1438 1432 1431
f 1432 1438 1439
f 1431 1437 1438
f 1433 1436 1437
f 1434 1435 1436
f 1432 1440 1435
f 1418 1435 1440
f 1441 1436 1435
f 1442 1437 1436
f 1443 1438 1437
f 1422 1439 1438
f 1439 1422 1444
f 1438 1443 1422
f 1437 1442 1443
f 1436 1441 1442
f 1435 1418 1441
f 1445 1446 1447
f 1448 1449 1446
f 1450 1451 1449
f 1452 1453 1451
f 1454 1455 1453
f 1453 1452 1454
f 1451 1456 1452
f 1451 1450 1456
f 1449 1448 1450
f 1446 1445 1448
f 1457 1448 1445
f 1458 1450 1448
f 1459 1456 1450
f 1460 1452 1456
f 1461 1454 1452
f 1454 1461 1457
f 1452 1460 1461
f 1456 1459 1460
f 1450 1458 1459
f 1448 1457 1458
f 1462 1463 1464
f 1465 1466 1463
f 1467 1468 1466
f 1467 1469 1468
f 1470 1464 1469
f 1464 1470 1462
f 1469 1467 1470
f 1466 1465 1467
f 1463 1471 1465
f 1463 1462 1471
f 1455 1471 1462
f 1472 1465 1471
f 1449 1467 1465
f 1453 1470 1467
f 1473 1462 1470
f 1470 1453 1473
f 1467 1451 1453
f 1467 1449 1451
f 1465 1472 1449
f 1471 1455 1472
f 1474 1475 1476
f 1474 1477 1475
f 1474 1478 1477
f 1474 1479 1478
f 1474 1476 1479
f 1480 1479 1476
f 1481 1478 1479
f 1482 1477 1478
f 1483 1475 1477
f 1484 1476 1475
f 1476 1484 1485
f 1475 1483 1484
f 1477 1482 1483
f 1478 1481 1482
f 1479 1480 1481
f 1486 1481 1480
f 1466 1482 1481
f 1466 1483 1482
f 1487 1484 1483
f 1469 1485 1484
f 1485 1469 1488
f 1484 1487 1469
f 1483 1466 1487
f 1481 1486 1466
f 1480 1489 1486
f 1490 1491 1492
f 1493 1494 1491
f 1495 1496 1494
f 1497 1498 1496
f 1497 1492 1498
f 1492 1497 1499
f 1496 1495 1497
f 1494 1493 1495
f 1491 1490 1493
f 1492 1499 1490
f 1500 1490 1499
f 1501 1493 1490
f 1502 1495 1493
f 1503 1497 1495
f 1504 1499 1497
f 1497 1503 1504
f 1495 1502 1503
f 1493 1501 1502
f 1490 1505 1501
f 1490 1500 1505
f 1506 1507 1508
f 1509 1510 1507
f 1511 1512 1510
f 1513 1514 1512
f 1515 1508 1514
f 1508 1515 1506
f 1514 1513 1515
f 1512 1511 1513
f 1510 1509 1511
f 1507 1506 1509
f 1516 1509 1506
f 1517 1511 1509
f 1498 1513 1511
f 1518 1515 1513
f 1518 1506 1515
f 1506 1518 1519
f 1513 1498 1518
f 1511 1517 1498
f 1509 1516 1517
f 1506 1520 1516
f 1521 1522 1521
f 1521 1523 1522
f 1521 1524 1523
f 1521 1525 1524
f 1521 1521 1525
f 1526 1525 1521
f 1527 1524 1525
f 1528 1523 1524
f 1528 1522 1523
f 1529 1521 1522
f 1521 1529 1530
f 1522 1528 1529
f 1524 1527 1528
f 1525 1526 1527
f 1521 1530 1526
f 1510 1526 1530
f 1531 1527 1526
f 1532 1528 1527
f 1507 1529 1528
f 1510 1530 1529
f 1529 1507 1510
f 1528 1532 1507
f 1527 1533 1532
f 1527 1531 1533
f 1526 1510 1531
f 1534 1535 1536
f 1537 1538 1535
f 1539 1540 1538
f 1541 1542 1540
f 1534 1536 1542
f 1542 1541 1534
f 1540 1539 1541
f 1538 1537 1539
f 1535 1543 1537
f 1535 1534 1543
f 1544 1543 1534
f 1544 1537 1543
f 1545 1539 1537
f 1546 1541 1539
f 1547 1534 1541
f 1534 1547 1030
f 1541 1546 1547
f 1539 1545 1546
f 1537 1544 1545
f 1534 1030 1544
f 1548 1549 1550
f 1551 1552 1549
f 1553 1554 1552
f 1555 1556 1554
f 1557 1558 1556
f 1558 1557 1548
f 1556 1555 1557
f 1554 1553 1555
f 1552 1551 1553
f 1549 1548 1551
f 1559 1551 1548
f 1560 1553 1551
f 1561 1555 1553
f 1562 1557 1555
f 1563 1548 1557
f 1548 1563 1536
f 1557 1562 1563
f 1555 1561 1562
f 1553 1560 1561
f 1551 1559 1560
f 1564 1565 1566
f 1564 1565 1565
f 1564 1567 1565
f 1564 1568 1567
f 1564 1566 1568
f 1569 1568 1566
f 1570 1567 1568
f 1571 1565 1567
f 1571 1565 1565
f 1569 1566 1565
f 1566 1569 1572
f 1565 1571 1569
f 1567 1570 1571
f 1568 1573 1570
f 1568 1569 1573
f 1574 1573 1569
f 1575 1570 1573
f 1576 1571 1570
f 1556 1569 1571
f 1574 1572 1569
f 1569 1556 1574
f 1571 1576 1556
f 1570 1552 1576
f 1570 1575 1552
f 1573 1574 1575
f 1577 1578 1579
f 1580 1581 1578
f 1582 1579 1581
f 1579 1582 1583
f 1581 1584 1582
f 1581 1580 1584
f 1578 1585 1580
f 1578 1577 1585
f 1579 1586 1577
f 989 1577 1586
f 1587 1585 1577
f 1588 1580 1585
f 1589 1584 1580
f 1590 1582 1584
f 1591 1583 1582
f 1582 1590 1591
f 1584 1592 1590
f 1584 1589 1592
f 1580 1588 1589
f 1585 1587 1588
f 1577 989 1587
f 1593 1587 989
f 1594 1588 1587
f 1595 1589 1588
f 1596 1592 1589
f 1597 1590 1592
f 1598 1591 1590
f 1590 1597 1598
f 1592 1596 1597
f 1589 1595 1596
f 1588 1594 1595
f 1587 1593 1594
f 1599 1594 1593
f 1600 1595 1594
f 1601 1596 1595
f 1601 1597 1596
f 1602 1598 1597
f 1597 1601 1602
f 1595 1600 1601
f 1594 1599 1600
f 1603 1604 1605
f 1606 1607 1604
f 1608 1609 1607
f 1610 1611 1609
f 1612 1605 1611
f 1605 1612 1603
f 1611 1610 1612
f 1609 1608 1610
f 1607 1606 1608
f 1604 1603 1606
f 1613 1606 1603
f 1614 1608 1606
f 1615 1610 1608
f 1616 1612 1610
f 1580 1603 1612
f 1612 1616 1580
f 1610 1615 1616
f 1608 1617 1615
f 1608 1614 1617
f 1606 1613 1614
f 1618 1619 1620
f 1618 1621 1619
f 1618 1622 1621
f 1618 1623 1622
f 1618 1618 1623
f 1624 1623 1618
f 1625 1622 1623
f 1626 1621 1622
f 1627 1619 1621
f 1628 1620 1619
f 1619 1627 1628
f 1621 1626 1627
f 1622 1625 1626
f 1623 1624 1625
f 1618 1628 1624
f 1609 1624 1628
f 1629 1625 1624
f 1630 1626 1625
f 1631 1627 1626
f 1632 1628 1627
f 1628 1632 1609
f 1627 1631 1632
f 1626 1630 1631
f 1625 1629 1630
f 1624 1609 1629
f 1633 1634 1635
f 1636 1637 1634
f 1638 1639 1637
f 1640 1641 1639
f 1642 1643 1641
f 1641 1640 1642
f 1639 1638 1640
f 1637 1636 1638
f 1634 1633 1636
f 1635 1642 1633
f 1644 1633 1642
f 1645 1636 1633
f 1646 1638 1636
f 1647 1640 1638
f 1648 1642 1640
f 1642 1648 952
f 1640 1647 1648
f 1638 1646 1647
f 1636 1645 1646
f 1633 1644 1645
f 1649 1650 1651
f 1652 1653 1650
f 1654 1655 1653
f 1656 1657 1655
f 1658 1651 1657
f 1657 1656 1658
f 1655 1654 1656
f 1653 1652 1654
f 1650 1649 1652
f 1651 1658 1649
f 1635 1649 1658
f 1659 1652 1649
f 1660 1654 1652
f 1661 1656 1654
f 1635 1658 1656
f 1656 1662 1635
f 1656 1661 1662
f 1654 1660 1661
f 1652 1659 1660
f 1649 1635 1659
f 1663 1663 1663
f 1663 1663 1663
f 1663 1664 1663
f 1663 1665 1664
f 1663 1663 1665
f 1666 1665 1663
f 1667 1664 1665
f 1668 1663 1664
f 1669 1663 1663
f 1669 1663 1663
f 1663 1669 1670
f 1663 1668 1669
f 1664 1667 1668
f 1665 1666 1667
f 1663 1670 1666
f 1671 1666 1670
f 1672 1667 1666
f 1655 1668 1667
f 1657 1669 1668
f 1673 1670 1669
f 1669 1657 1673
f 1668 1655 1657
f 1667 1672 1655
f 1666 1671 1672
f 1670 1674 1671
f 1675 1676 1677
f 1678 1679 1676
f 1680 1681 1679
f 1682 1683 1681
f 1684 1685 1683
f 1683 1682 1684
f 1681 1680 1682
f 1679 1678 1680
f 1676 1675 1678
f 1677 1686 1675
f 1687 1675 1686
f 1688 1678 1675
f 968 1680 1678
f 1689 1682 1680
f 1690 1684 1682
f 1684 1690 1687
f 1682 1689 1690
f 1680 968 1689
f 1678 1688 968
f 1675 1687 1688
f 1691 1692 1693
f 1691 1694 1692
f 1695 1696 1694
f 1697 1698 1696
f 1697 1699 1698
f 1699 1697 1700
f 1696 1695 1697
f 1694 1701 1695
f 1694 1691 1701
f 1693 1700 1691
f 1702 1691 1700
f 1703 1701 1691
f 1704 1695 1701
f 1681 1697 1695
f 1702 1700 1697
f 1697 1681 1702
f 1695 1704 1681
f 1701 1705 1704
f 1701 1703 1705
f 1691 1702 1703
f 1706 1707 1708
f 1706 1709 1707
f 1706 1710 1709
f 1706 1711 1710
f 1706 1708 1711
f 1712 1711 1708
f 1713 1710 1711
f 1713 1709 1710
f 1714 1707 1709
f 1715 1708 1707
f 1708 1715 1716
f 1707 1714 1715
f 1709 1713 1714
f 1711 1712 1713
f 1708 1716 1712
f 1717 1712 1716
f 1692 1713 1712
f 1718 1714 1713
f 1719 1715 1714
f 1698 1716 1715
f 1715 1719 1698
f 1714 1718 1719
f 1713 1692 1718
f 1712 1717 1692
f 1716 1720 1717
f 1721 1722 1723
f 1724 1725 1722
f 1726 1727 1725
f 1728 1729 1727
f 1728 1723 1729
f 1723 1728 1730
f 1727 1726 1728
f 1725 1724 1726
f 1722 1721 1724
f 1723 1730 1721
f 1731 1721 1730
f 1732 1724 1721
f 1733 1726 1724
f 968 1728 1726
f 1731 1730 1728
f 1728 968 1731
f 1726 1733 968
f 1724 1732 1733
f 1721 1734 1732
f 1721 1731 1734
f 1735 1736 1737
f 1735 1738 1736
f 1739 1740 1738
f 1741 1742 1740
f 1743 1737 1742
f 1742 1741 1743
f 1740 1739 1741
f 1738 1744 1739
f 1738 1735 1744
f 1737 1743 1735
f 1745 1735 1743
f 1746 1744 1735
f 1725 1739 1744
f 1727 1741 1739
f 1729 1743 1741
f 1743 1729 1723
f 1741 1727 1729
f 1739 1725 1727
f 1744 1746 1725
f 1735 1745 1746
f 1747 1747 1748
f 1747 1747 1747
f 1747 1749 1747
f 1747 1750 1749
f 1747 1748 1750
f 1751 1750 1748
f 1752 1749 1750
f 1753 1747 1749
f 1754 1747 1747
f 1755 1748 1747
f 1747 1754 1755
f 1747 1753 1754
f 1749 1752 1753
f 1750 1751 1752
f 1748 1755 1751
f 1756 1751 1755
f 1757 1752 1751
f 1742 1753 1752
f 1737 1754 1753
f 1738 1755 1754
f 1755 1738 1758
f 1754 1737 1738
f 1753 1742 1737
f 1752 1757 1742
f 1751 1756 1757
f 1759 1760 1761
f 1762 1763 1760
f 1764 1765 1763
f 1764 1766 1765
f 1767 1761 1766
f 1761 1767 1768
f 1766 1764 1767
f 1763 1762 1764
f 1760 1759 1762
f 1761 1769 1759
f 1770 1759 1769
f 1771 1762 1759
f 1772 1764 1762
f 966 1767 1764
f 1773 1768 1767
f 1767 966 1773
f 1764 1772 966
f 1762 1771 1772
f 1759 1770 1771
f 1769 1773 1770
f 1774 1725 1775
f 1774 1776 1725
f 1777 1778 1776
f 1779 1780 1778
f 1781 1775 1780
f 1775 1781 1782
f 1780 1779 1781
f 1778 1777 1779
f 1776 1774 1777
f 1775 1782 1774
f 1765 1774 1782
f 1783 1777 1774
f 1784 1779 1777
f 1763 1781 1779
f 1765 1782 1781
f 1781 1763 1765
f 1779 1784 1763
f 1777 1783 1784
f 1774 1766 1783
f 1774 1765 1766
f 1785 1785 1785
f 1785 1785 1785
f 1785 1785 1785
f 1785 1786 1785
f 1785 1787 1786
f 1788 1786 1787
f 1789 1785 1786
f 1790 1785 1785
f 1790 1785 1785
f 1791 1785 1785
f 1785 1791 1792
f 1785 1790 1791
f 1785 1789 1790
f 1786 1788 1789
f 1787 1792 1788
f 1725 1788 1792
f 1776 1789 1788
f 1793 1790 1789
f 1794 1791 1790
f 1795 1792 1791
f 1791 1794 1795
f 1790 1793 1794
f 1789 1796 1793
f 1789 1776 1796
f 1788 1725 1776
