v -3.68 1.47 0.06
v -3.60 1.29 0.00
v -3.68 1.47 -0.06
v -3.71 1.47 0.11
v -3.73 1.59 0.30
v -3.52 1.69 0.32
v -3.66 1.47 0.00
v -3.56 1.72 0.12
v -3.41 1.87 0.14
v -3.01 -1.76 0.66
v 4.15 2.39 1.38
v 1.73 -2.97 0.99
v 4.09 1.89 0.58
v 4.23 1.90 0.53
v 3.76 2.21 0.32
v 3.81 1.97 0.44
v 3.82 2.14 0.43
v 3.92 1.97 0.48
v 4.32 0.73 0.29
v 4.09 1.29 0.54
v 4.04 1.04 0.50
v 3.89 1.55 0.50
v 4.36 0.70 0.17
v 4.12 0.63 0.19
v 4.08 2.18 1.45
v 4.10 2.04 1.36
v 4.15 1.87 1.22
v 4.13 1.83 1.09
v 4.15 1.82 0.92
v 4.16 1.95 0.92
v 4.05 2.34 1.45
v 4.79 2.03 0.61
v 4.84 2.02 0.64
v 4.57 1.15 0.64
v 6.00 1.23 0.11
v 4.28 2.06 0.79
v 4.28 1.98 0.54
v 4.35 2.10 0.80
v 4.15 2.08 0.80
v 4.24 1.77 0.58
v 4.15 1.76 0.57
v 4.12 2.06 1.05
v 4.38 2.21 0.84
v 4.37 2.30 0.92
v 4.25 2.38 1.14
v 4.17 2.46 1.24
v 4.31 2.37 0.88
v 4.27 2.42 1.05
v 4.27 2.22 0.68
v 4.30 2.26 0.53
v 4.21 2.28 0.63
v 4.09 2.43 1.38
v 4.34 2.11 0.52
v 4.03 1.97 0.92
v 4.02 2.00 0.73
v 4.02 2.12 0.90
v 4.02 2.11 1.21
v 4.06 2.29 1.34
v 4.22 2.35 0.89
v 4.10 2.30 0.92
v 4.04 2.25 0.74
v 4.11 2.33 0.53
v 3.93 2.22 0.62
v 3.97 2.28 0.54
v 4.00 2.42 0.31
v 4.06 2.51 0.34
v 4.03 2.52 0.25
v 4.02 2.53 -0.00
v 4.58 2.39 0.26
v 4.44 2.51 0.27
v 4.33 2.56 0.34
v 4.21 2.60 0.34
v 4.34 2.58 0.14
v 4.25 1.38 0.65
v 4.30 1.80 0.61
v 4.33 1.46 0.66
v 4.28 1.08 0.55
v 4.37 1.13 0.63
v 4.50 1.02 0.58
v 4.40 0.85 0.39
v 4.71 0.77 0.33
v 5.22 0.97 0.36
v 5.36 0.85 0.14
v 5.70 0.85 0.13
v 5.85 0.93 0.11
v 5.25 1.12 0.39
v 5.48 0.94 0.32
v 5.48 1.11 0.36
v 5.69 1.09 0.37
v 5.78 1.34 0.28
v 5.77 1.23 0.32
v 5.92 1.03 0.15
v 5.76 1.00 0.31
v 5.93 1.23 0.22
v 5.98 1.33 0.13
v 5.92 1.38 0.14
v 5.60 1.55 0.11
v 5.33 1.40 0.33
v 5.23 1.44 0.36
v 5.22 1.80 0.20
v 4.47 2.33 0.44
v 4.55 1.84 0.58
v 5.16 1.94 0.12
v 4.86 1.68 0.57
v 4.94 2.18 0.49
v 5.03 2.10 0.43
v 4.88 2.19 0.53
v 4.73 2.04 0.61
v 4.94 1.74 0.56
v 5.08 1.90 0.44
v 4.98 1.81 0.51
v -3.08 1.87 0.22
v -3.23 1.96 0.13
v -3.81 0.50 -0.09
v -3.77 0.51 -0.11
v -3.66 0.17 0.00
v -3.70 1.02 0.00
v -3.75 1.02 0.10
v -3.77 0.51 0.11
v -3.82 1.48 0.11
v -3.66 1.77 0.12
v -3.47 1.96 0.07
v -3.89 1.00 0.06
v -3.84 0.50 0.05
v -3.24 2.02 0.00
v -3.88 1.48 0.00
v -3.71 1.79 0.00
v -3.85 -0.19 0.02
v -3.70 1.27 0.27
v -3.42 -0.31 0.67
v -3.52 0.15 0.43
v -3.66 0.93 0.37
v -3.58 0.84 0.29
v -3.24 -0.98 0.96
v -3.28 -1.16 0.78
v -3.34 -1.37 0.72
v -3.32 -1.37 0.89
v -3.14 -2.78 0.84
v -3.30 -2.55 0.86
v -3.05 -2.76 1.04
v -3.02 -2.77 0.97
v -3.25 -2.56 1.02
v -3.26 -2.82 1.09
v -3.34 -2.85 0.97
v -3.37 -2.57 0.90
v -3.17 -3.00 0.81
v -3.26 -3.03 0.85
v -3.01 -3.09 0.86
v -3.12 -3.18 0.87
v -3.29 -3.17 0.84
v -2.88 -3.06 0.99
v -3.30 -3.07 1.11
v -3.12 -3.12 1.14
v -3.18 -2.98 1.14
v -3.22 -3.23 0.98
v -3.22 -3.19 1.08
v -3.32 -3.17 1.12
v -3.33 -3.19 0.95
v -2.99 -2.93 1.09
v -3.14 -2.79 1.03
v -3.03 -2.31 0.88
v -2.96 -1.98 0.78
v -2.81 -1.80 0.71
v -2.73 -1.72 0.75
v -2.89 -1.95 0.88
v -3.06 -1.44 1.09
v -3.23 -1.83 1.09
v -2.59 -1.51 0.89
v -2.46 -1.31 0.97
v -2.77 -1.56 1.08
v -3.40 1.73 0.55
v -3.09 1.66 0.78
v -3.11 1.79 0.57
v -3.28 1.43 0.85
v -2.93 1.10 1.13
v -3.03 1.46 0.94
v -2.97 0.03 1.22
v -2.79 0.26 1.24
v -2.90 -0.62 1.28
v -2.98 -1.26 1.13
v -3.50 0.41 0.85
v -3.66 1.19 0.57
v -3.70 1.47 0.43
v -3.23 -0.68 1.02
v -3.38 0.77 0.89
v -3.53 1.58 0.51
v -2.38 -0.42 1.38
v -2.43 0.08 1.37
v -2.68 1.26 1.11
v -2.57 0.84 1.25
v -2.67 1.91 0.07
v -2.28 -0.69 1.27
v -2.06 0.02 1.41
v -2.19 -0.38 1.41
v -2.30 -1.03 1.04
v -2.03 -0.91 0.96
v -2.31 -1.12 0.96
v -2.03 -0.53 1.28
v -2.05 -0.76 1.11
v -1.95 -0.28 1.38
v -2.03 0.55 1.19
v -2.00 1.39 1.06
v -1.98 1.13 1.14
v -1.93 1.62 0.81
v -1.78 -1.02 0.94
v -1.46 -1.30 0.89
v -1.76 -0.95 1.08
v -1.84 -0.54 1.30
v -1.80 0.03 1.37
v -1.80 -0.28 1.40
v -1.72 1.39 1.11
v -1.58 1.57 0.98
v -1.47 1.66 0.72
v -1.40 -1.13 1.31
v -1.40 -0.70 1.55
v -1.49 -0.02 1.51
v -1.45 0.88 1.24
v -1.55 1.13 1.15
v 2.66 -1.44 0.48
v -0.95 -1.55 0.90
v -0.54 -1.62 0.92
v -0.49 -1.19 1.50
v -1.06 -1.14 1.50
v -1.00 -1.34 1.35
v -0.52 -1.40 1.31
v -0.53 -0.58 1.70
v -1.05 -0.34 1.69
v -1.08 -0.87 1.63
v -0.51 -0.91 1.65
v -1.08 0.17 1.55
v -0.54 -0.14 1.68
v -1.20 0.98 1.10
v -1.15 0.81 1.25
v -0.75 0.44 1.47
v -0.67 1.33 0.76
v -0.91 1.20 0.84
v -1.28 1.19 0.95
v -1.05 1.51 0.76
v -0.89 1.71 0.15
v -0.08 -1.69 0.80
v 0.49 -1.52 0.67
v -0.06 -1.58 0.87
v -0.04 -1.14 1.40
v -0.07 -1.35 1.24
v 0.55 -0.39 1.36
v 0.01 -0.50 1.58
v 0.02 -0.83 1.51
v 0.01 0.16 1.47
v -0.12 0.46 1.35
v -0.18 1.47 0.54
v 0.31 1.30 0.63
v 0.73 1.74 -0.00
v 1.46 1.75 0.22
v 0.74 1.60 0.28
v 0.73 1.48 0.46
v 1.57 0.94 0.99
v 1.52 1.33 0.74
v 0.86 0.99 0.87
v 0.92 0.76 1.00
v 0.94 0.38 1.19
v 0.93 0.20 1.23
v 1.63 0.42 1.17
v 0.94 -0.10 1.27
v 0.96 -0.31 1.24
v 1.37 -0.56 1.11
v 1.68 -0.41 1.29
v 0.97 -0.53 1.14
v 0.94 -0.89 1.02
v 0.93 -1.22 0.83
v 1.22 -1.22 0.82
v 0.91 -1.46 0.58
v 1.21 -1.46 0.58
v 0.93 -1.56 -0.00
v 1.22 -1.53 0.43
v 1.54 -0.99 1.19
v 1.31 -1.14 0.91
v 1.34 -0.95 1.02
v 1.60 -1.60 0.62
v 1.96 -1.59 0.61
v 1.45 -1.58 0.70
v 1.33 -1.35 0.76
v 2.01 -0.66 1.19
v 2.16 -0.96 1.11
v 2.14 -0.06 1.30
v 2.08 0.28 1.26
v 1.96 1.13 0.86
v 1.86 1.45 0.63
v 2.10 1.68 0.33
v 2.40 0.78 0.92
v 2.50 -0.04 1.17
v 2.50 0.25 1.13
v 2.44 -0.40 1.13
v 1.79 1.79 -0.00
v 2.25 -0.86 1.00
v 2.59 -0.42 0.98
v 2.67 0.21 1.01
v 2.57 0.74 0.83
v 2.30 1.40 0.55
v 2.29 -0.87 0.88
v 2.41 1.65 0.34
v 2.36 1.77 0.20
v 2.64 1.02 0.58
v 2.79 0.04 0.72
v 2.75 0.40 0.71
v 2.60 0.73 0.77
v 2.74 -0.35 0.66
v 2.54 -0.73 0.75
v 2.99 -0.41 0.43
v 3.48 1.98 0.32
v 3.75 1.18 0.52
v 3.65 1.46 0.48
v 3.56 0.71 0.45
v 3.82 0.85 0.46
v 3.64 0.41 0.36
v 3.86 0.56 0.31
v 3.74 0.18 0.18
v 3.06 0.40 0.57
v 3.14 0.17 0.54
v 3.19 0.91 0.50
v 2.85 1.09 0.49
v 2.95 0.78 0.51
v 2.82 1.38 0.41
v 3.06 1.77 0.30
v 2.72 1.83 0.17
v 2.74 1.69 0.29
v 2.72 1.90 -0.00
v 3.23 2.06 0.07
v 3.46 2.15 0.10
v 1.44 -1.15 1.10
v 1.84 -1.09 1.20
v 2.02 -1.07 1.17
v 2.06 -1.56 0.86
v 1.80 -1.58 1.09
v 2.08 -1.47 0.65
v 1.43 -1.30 1.02
v 2.13 -1.33 0.72
v 1.92 -2.16 0.69
v 2.02 -2.20 0.81
v 1.99 -1.75 0.65
v 1.99 -2.71 0.82
v 1.75 -2.07 0.64
v 1.60 -1.72 0.68
v 1.80 -2.48 0.94
v 1.92 -2.08 1.00
v 1.94 -1.76 1.00
v 1.72 -1.81 1.00
v 1.88 -2.73 0.89
v 2.01 -2.05 0.91
v 2.02 -1.76 0.91
v 1.93 -2.46 0.89
v 1.96 -2.71 0.90
v 1.47 -1.82 0.80
v 1.53 -2.09 0.89
v 1.57 -1.83 0.99
v 1.77 -2.77 0.95
v 1.68 -2.51 0.89
v 1.95 -2.46 0.83
v -3.49 -1.76 0.90
v -3.50 -1.76 0.76
v -3.39 -2.31 0.95
v -3.24 -2.34 0.82
v -3.38 -1.83 0.70
v -3.39 -1.49 0.67
v -3.30 -1.58 0.64
v -3.01 -2.27 0.98
v -2.97 -2.10 0.98
v -3.05 -2.11 1.06
v -3.07 -2.26 1.04
v -3.18 -2.28 1.05
v -2.86 -1.55 1.12
v 1.86 -2.95 0.67
v 1.78 -2.98 0.71
v 1.88 -2.72 0.70
v 2.00 -3.04 0.72
v 1.90 -3.13 0.73
v 1.74 -3.11 0.70
v 2.11 -3.01 0.85
v 1.81 -3.14 0.93
v 1.90 -3.07 0.99
v 2.02 -2.88 0.95
v 1.71 -3.13 0.81
v 1.81 -3.17 0.83
v 1.72 -3.12 0.98
v 1.81 -2.95 0.98
v -0.97 -1.77 0.77
v -0.96 -1.83 0.00
v -0.52 -1.85 0.39
v -0.11 -1.81 0.38
v -1.23 -1.66 0.69
v -1.38 -1.66 0.72
v -1.11 -1.77 0.47
v -0.56 -1.79 0.80
v -1.20 -1.58 0.80
v 3.05 -0.77 0.26
v 2.65 -0.61 0.67
v 2.96 -0.94 0.28
v 2.17 -1.60 -0.00
v 2.24 -1.58 0.43
v 2.53 -1.62 -0.00
v 2.55 -1.59 0.39
v 2.72 -1.52 0.36
v 2.89 -1.30 0.33
v 2.46 -1.40 0.54
v 2.67 -1.11 0.54
v 2.49 -1.27 0.63
v 2.52 -0.95 0.74
v -2.81 -1.80 -0.71
v -3.01 -1.76 -0.66
v -2.96 -1.98 -0.78
v 1.72 -2.78 -0.92
v 1.68 -2.51 -0.89
v 3.82 2.14 -0.43
v 3.76 2.21 -0.32
v 3.92 1.97 -0.48
v 3.81 1.97 -0.44
v 4.06 1.86 -0.47
v 4.12 0.63 -0.19
v 4.32 0.73 -0.29
v 4.36 0.70 -0.17
v 4.14 1.01 -0.50
v 3.89 1.55 -0.50
v 4.09 1.29 -0.54
v 4.15 1.76 -0.57
v 4.09 1.89 -0.58
v 4.11 2.20 -1.37
v 4.08 2.18 -1.45
v 4.12 2.09 -1.30
v 4.15 1.87 -1.23
v 4.10 2.04 -1.36
v 4.14 1.94 -1.06
v 4.16 1.95 -0.92
v 4.15 1.82 -0.92
v 4.13 1.83 -1.09
v 5.24 1.04 -0.38
v 5.68 1.05 -0.36
v 4.28 1.98 -0.54
v 4.23 1.90 -0.53
v 4.15 2.08 -0.80
v 4.28 2.06 -0.79
v 4.35 2.10 -0.80
v 4.24 1.77 -0.58
v 4.27 2.12 -0.62
v 4.37 2.30 -0.92
v 4.20 2.39 -1.25
v 4.27 2.42 -1.05
v 4.31 2.37 -0.88
v 4.27 2.22 -0.68
v 4.38 2.21 -0.84
v 4.30 2.26 -0.53
v 4.21 2.28 -0.63
v 4.15 2.39 -1.38
v 4.05 2.34 -1.45
v 4.09 2.43 -1.38
v 4.34 2.11 -0.52
v 4.47 2.33 -0.44
v 4.02 2.00 -0.73
v 3.99 2.12 -0.77
v 4.04 1.99 -1.07
v 4.02 2.11 -1.21
v 4.06 2.29 -1.34
v 4.17 2.46 -1.24
v 4.08 2.26 -0.85
v 4.17 2.30 -0.78
v 4.11 2.33 -0.53
v 3.97 2.28 -0.54
v 4.00 2.42 -0.31
v 4.08 2.57 -0.22
v 4.04 2.40 -0.34
v 4.58 2.39 -0.26
v 4.44 2.51 -0.27
v 4.63 2.37 -0.14
v 4.33 2.59 -0.20
v 4.18 1.35 -0.61
v 4.31 1.68 -0.64
v 4.33 1.46 -0.66
v 4.37 1.13 -0.63
v 4.50 1.02 -0.58
v 4.57 1.15 -0.64
v 4.71 0.77 -0.33
v 4.74 1.06 -0.56
v 5.25 0.85 -0.11
v 5.70 0.85 -0.13
v 5.85 0.93 -0.11
v 5.37 0.98 -0.34
v 5.37 0.89 -0.21
v 5.48 0.94 -0.32
v 5.60 1.09 -0.39
v 5.78 1.34 -0.28
v 5.77 1.23 -0.32
v 5.86 1.00 -0.24
v 6.00 1.23 -0.11
v 5.98 1.33 -0.13
v 5.96 1.31 0.00
v 5.93 1.23 -0.22
v 5.92 1.38 -0.14
v 5.43 1.26 -0.33
v 5.57 1.50 -0.19
v 5.60 1.55 -0.11
v 5.33 1.40 -0.33
v 5.23 1.44 -0.36
v 5.32 1.80 -0.12
v 5.16 1.94 -0.12
v 4.53 1.99 -0.58
v 4.62 1.64 -0.58
v 5.15 1.83 -0.29
v 4.86 1.68 -0.57
v 5.03 2.10 -0.43
v 4.88 2.19 -0.53
v 4.75 2.04 -0.63
v 4.80 2.12 -0.59
v 4.99 1.76 -0.51
v -3.08 1.87 -0.22
v -3.41 1.87 -0.14
v -3.24 2.01 -0.08
v -3.75 1.02 -0.10
v -3.71 1.47 -0.11
v -3.66 1.77 -0.12
v -3.82 1.48 -0.11
v -3.47 1.96 -0.07
v -3.89 1.00 -0.06
v -3.62 0.91 0.00
v -3.66 0.93 -0.37
v -3.70 1.27 -0.27
v -3.58 0.84 -0.29
v -3.60 0.80 0.00
v -3.46 -0.13 -0.73
v -3.54 0.44 -0.32
v -3.42 -0.31 -0.67
v -3.25 -0.95 -0.82
v -3.24 -0.98 -0.96
v -3.02 -2.77 -0.97
v -3.14 -2.78 -0.84
v -3.30 -2.55 -0.86
v -3.34 -2.85 -0.97
v -3.20 -2.79 -1.05
v -3.35 -2.57 -0.96
v -3.25 -2.56 -1.02
v -3.05 -2.76 -1.04
v -3.01 -3.09 -0.86
v -3.29 -3.17 -0.84
v -3.17 -3.00 -0.81
v -3.26 -3.03 -0.85
v -3.30 -3.02 -1.13
v -3.22 -3.19 -1.08
v -3.03 -3.10 -1.11
v -3.12 -3.12 -1.14
v -3.18 -2.98 -1.14
v -2.91 -3.08 -1.09
v -3.33 -3.19 -0.95
v -3.22 -3.23 -0.98
v -3.12 -3.18 -0.87
v -3.32 -3.17 -1.12
v -2.89 -1.95 -0.88
v -2.73 -1.72 -0.75
v -3.06 -1.44 -1.09
v -2.98 -1.26 -1.13
v -2.86 -1.55 -1.12
v 1.92 -2.16 -0.69
v 1.95 -2.02 -0.67
v 1.75 -2.07 -0.64
v -2.31 -1.12 -0.96
v -2.46 -1.31 -0.97
v -3.11 1.79 -0.57
v -3.40 1.73 -0.55
v -3.09 1.66 -0.78
v -3.03 1.46 -0.94
v -3.28 1.43 -0.85
v -2.93 1.10 -1.13
v -3.11 0.46 -1.08
v -2.79 0.26 -1.24
v -2.97 0.03 -1.22
v -2.90 -0.62 -1.28
v -3.29 -0.42 -0.98
v -3.50 0.41 -0.85
v -3.68 1.35 -0.50
v -3.32 -1.37 -0.89
v -3.53 1.58 -0.51
v -3.73 1.59 -0.30
v -3.52 1.69 -0.32
v -2.77 -1.56 -1.08
v -2.38 -0.42 -1.37
v -2.43 0.08 -1.37
v -2.57 0.84 -1.25
v -2.68 1.26 -1.11
v -2.67 1.91 -0.07
v -2.29 -0.93 -1.13
v -2.19 -0.38 -1.41
v -2.28 -0.69 -1.27
v -2.06 0.02 -1.41
v -2.16 0.38 -1.27
v -2.06 1.84 0.00
v -2.05 -0.76 -1.11
v -2.03 -0.53 -1.28
v -1.95 -0.28 -1.38
v -2.03 0.55 -1.19
v -1.98 1.13 -1.14
v -2.00 1.39 -1.06
v -1.93 1.62 -0.81
v -1.46 -1.30 -0.89
v -0.95 -1.55 -0.90
v -1.76 -0.95 -1.08
v -1.84 -0.54 -1.30
v -1.80 -0.28 -1.40
v -1.80 0.03 -1.37
v -1.81 0.66 -1.21
v -1.73 1.08 -1.18
v -1.72 1.39 -1.11
v -1.58 1.57 -0.98
v -1.47 1.66 -0.72
v -1.40 -1.13 -1.31
v -1.40 -0.70 -1.55
v -1.49 -0.02 -1.51
v -1.55 1.13 -1.15
v -1.45 0.88 -1.24
v 1.37 -0.56 -1.11
v 1.34 -0.95 -1.02
v 2.74 -0.35 -0.66
v -1.00 -1.34 -1.35
v -0.52 -1.40 -1.31
v -0.49 -1.19 -1.50
v -1.06 -1.14 -1.50
v -1.08 -0.87 -1.63
v -0.51 -0.91 -1.65
v -1.05 -0.34 -1.69
v -0.54 -0.14 -1.68
v -0.53 -0.58 -1.70
v -1.12 0.42 -1.46
v -0.75 0.44 -1.47
v -1.20 0.98 -1.10
v -1.28 1.19 -0.95
v -0.91 1.20 -0.84
v -0.67 1.33 -0.76
v -1.05 1.51 -0.76
v -0.89 1.71 -0.15
v 0.49 -1.52 -0.67
v -0.08 -1.69 -0.80
v -0.06 -1.58 -0.87
v -0.07 -1.35 -1.24
v -0.04 -1.14 -1.40
v 0.02 -0.83 -1.51
v 0.01 -0.50 -1.58
v 0.54 -0.19 -1.37
v 0.02 0.00 -1.52
v -0.12 0.46 -1.35
v 0.54 0.35 -1.25
v 0.24 1.13 -0.82
v -0.19 1.31 -0.70
v -0.18 1.47 -0.54
v 0.29 1.50 -0.43
v -0.23 1.73 0.00
v 0.73 1.48 -0.46
v 1.52 1.33 -0.74
v 0.76 1.21 -0.70
v 1.58 0.77 -1.07
v 0.94 0.38 -1.19
v 0.92 0.76 -1.00
v 1.65 0.22 -1.21
v 1.66 -0.19 -1.27
v 0.96 -0.31 -1.24
v 0.94 -0.10 -1.27
v 1.68 -0.41 -1.29
v 0.97 -0.53 -1.14
v 0.94 -0.89 -1.02
v 1.22 -1.22 -0.82
v 0.93 -1.22 -0.83
v 1.21 -1.46 -0.58
v 1.22 -1.53 -0.43
v 0.91 -1.46 -0.58
v 1.46 1.75 -0.22
v 1.35 -1.28 -0.85
v 1.33 -1.35 -0.76
v 1.60 -1.60 -0.62
v 1.45 -1.58 -0.70
v 1.96 -1.59 -0.61
v 2.01 -0.66 -1.19
v 2.25 -0.86 -1.00
v 2.14 -0.06 -1.30
v 2.08 0.28 -1.26
v 1.98 0.83 -1.02
v 1.86 1.45 -0.63
v 1.96 1.13 -0.86
v 2.10 1.68 -0.33
v 2.45 0.53 -1.04
v 2.50 0.25 -1.13
v 2.50 -0.04 -1.17
v 2.44 -0.40 -1.13
v 2.35 -0.75 -1.01
v 2.59 -0.42 -0.98
v 2.67 0.21 -1.01
v 2.57 0.74 -0.83
v 2.40 1.24 -0.60
v 2.64 1.02 -0.58
v 2.52 1.49 -0.42
v 2.34 1.81 -0.00
v 2.79 0.04 -0.72
v 2.75 0.40 -0.71
v 2.51 0.99 -0.67
v 2.75 0.71 -0.62
v 3.46 2.15 -0.10
v 3.28 1.86 -0.29
v 3.56 0.71 -0.45
v 3.85 0.66 -0.39
v 3.86 0.56 -0.31
v 3.36 0.17 -0.41
v 3.19 0.91 -0.50
v 3.28 0.51 -0.50
v 3.06 0.40 -0.57
v 2.85 1.09 -0.49
v 3.16 1.21 -0.46
v 2.74 1.69 -0.30
v 2.72 1.83 -0.17
v 3.04 1.91 -0.17
v 3.51 -0.12 -0.19
v 1.65 -1.09 -1.17
v 1.52 -1.13 -1.14
v 1.48 -1.64 -0.95
v 2.16 -0.96 -1.11
v 1.84 -1.09 -1.20
v 2.06 -1.56 -0.86
v 2.08 -1.47 -0.66
v 1.44 -1.15 -1.10
v 1.81 -1.27 -1.17
v 1.97 -1.23 -1.15
v 1.95 -2.46 -0.83
v 2.05 -2.05 -0.81
v 1.99 -1.75 -0.65
v 1.74 -1.68 -0.66
v 1.99 -2.71 -0.82
v 1.88 -2.72 -0.70
v 1.66 -2.49 -0.79
v 1.60 -1.72 -0.68
v 1.91 -2.28 -0.96
v 1.82 -1.76 -1.02
v 1.94 -1.76 -1.00
v 1.77 -2.77 -0.95
v 1.93 -2.46 -0.89
v 1.86 -2.47 -0.94
v 2.02 -1.76 -0.91
v 1.96 -2.71 -0.90
v 1.47 -1.82 -0.80
v 1.59 -2.27 -0.88
v 1.57 -1.83 -0.99
v 2.01 -2.05 -0.91
v -3.49 -1.76 -0.90
v -3.50 -1.76 -0.76
v -3.38 -1.83 -0.70
v -3.30 -1.58 -0.64
v -3.14 -2.33 -0.83
v -3.03 -2.31 -0.88
v -2.97 -2.10 -0.98
v -3.01 -2.27 -0.98
v -3.07 -2.26 -1.03
v -3.18 -2.28 -1.05
v -3.23 -1.83 -1.09
v -3.01 -1.88 -1.08
v -3.39 -1.49 -0.67
v 2.00 -3.04 -0.72
v 1.74 -3.11 -0.70
v 1.86 -2.95 -0.67
v 1.78 -2.98 -0.71
v 1.85 -2.93 -1.00
v 1.90 -3.07 -0.99
v 1.71 -3.01 -0.83
v 1.72 -3.12 -0.98
v 1.81 -3.14 -0.93
v 1.81 -3.17 -0.83
v 1.71 -3.13 -0.81
v 2.11 -3.01 -0.85
v 2.09 -3.03 -0.95
v 1.73 -2.97 -0.99
v -0.97 -1.77 -0.77
v -0.52 -1.85 -0.39
v -0.11 -1.81 -0.38
v -1.39 -1.72 -0.35
v -1.38 -1.66 -0.72
v -1.23 -1.66 -0.69
v -0.56 -1.79 -0.80
v -0.54 -1.62 -0.92
v -1.20 -1.58 -0.80
v 2.65 -0.61 -0.67
v 2.86 -0.93 -0.39
v 2.96 -0.94 -0.28
v 3.05 -0.77 -0.26
v 2.24 -1.58 -0.43
v 2.72 -1.52 -0.36
v 2.55 -1.59 -0.39
v 2.89 -1.30 -0.33
v 2.66 -1.44 -0.48
v 2.46 -1.40 -0.54
v 2.76 -1.10 -0.47
v 2.49 -1.27 -0.63
v 2.32 -1.29 -0.67
v 2.18 -1.13 -0.82
v 2.52 -0.95 -0.74
v 2.41 -0.78 -0.84
v 1.88 -2.73 -0.89
v 1.90 -3.13 -0.73
v 1.98 -3.04 -0.96
v -2.59 -1.51 -0.89
v -3.34 -1.37 -0.72
v -1.78 -1.02 -0.94
v -2.03 -0.91 -0.96
v -2.88 -3.06 -0.99
v 4.86 2.00 -0.62
v 5.93 1.05 -0.08
v 5.91 1.12 -0.25
v 5.96 1.16 -0.19
v 1.66 -2.52 0.84
v 1.66 -2.49 0.79
v -3.28 -0.73 0.79
v -3.70 -0.19 0.05
v -3.66 -0.19 0.02
v -3.64 -0.20 -0.02
v -3.66 -0.19 -0.07
v -3.81 -0.19 -0.10
v -3.85 -0.19 -0.07
v 5.91 1.12 0.25
v 4.06 1.86 0.47
v -2.60 -2.18 0.51
v -2.51 -2.13 0.50
v -2.63 -2.14 0.44
v -2.70 -2.12 0.51
v -2.65 -2.10 0.57
v -2.53 -2.11 0.55
v -2.05 -2.17 0.45
v -2.07 -2.12 0.37
v -2.14 -2.12 0.46
v -2.12 -2.14 0.41
v -2.04 -2.08 0.54
v -1.94 -2.09 0.43
v -2.06 -2.03 0.37
v -2.45 -1.89 0.49
v -2.50 -1.91 0.43
v -2.61 -1.91 0.40
v -2.68 -1.89 0.45
v -2.70 -1.85 0.57
v -2.55 -1.83 0.61
v -2.47 -1.86 0.57
v -1.95 -1.87 0.34
v -2.06 -1.88 0.31
v -2.15 -1.90 0.36
v -2.18 -1.87 0.45
v -2.03 -1.81 0.56
v -1.88 -1.83 0.40
v -3.49 -1.18 0.69
v -3.57 -0.73 0.65
v -3.53 -1.33 0.57
v -3.63 -1.16 0.51
v -3.67 -0.96 0.46
v -3.67 -0.73 0.45
v -3.60 -0.35 0.43
v -3.53 -0.07 0.44
v -3.64 -0.36 0.00
v -3.62 -0.35 0.34
v -3.57 -0.06 0.34
v -3.58 -0.05 0.00
v -3.44 -1.48 0.41
v -3.56 -1.33 0.38
v -3.52 -1.37 0.00
v -3.65 -1.14 0.00
v -3.64 -1.14 0.33
v -3.69 -0.96 0.32
v -3.68 -0.93 0.00
v -3.67 -0.72 0.00
v -3.68 -0.73 0.33
v -3.54 0.19 0.34
v -1.80 -1.75 0.00
v -2.35 -1.87 0.00
v -2.66 -1.85 0.00
v -2.42 -1.55 0.89
v -1.60 -1.59 0.61
v -1.78 -1.55 0.78
v -1.58 -1.70 0.36
v -1.55 -1.56 0.74
v -2.70 -1.85 -0.57
v -2.51 -2.13 -0.50
v -2.60 -2.18 -0.51
v -2.63 -2.14 -0.44
v -2.70 -2.12 -0.51
v -2.65 -2.10 -0.57
v -2.53 -2.11 -0.55
v -2.07 -2.12 -0.37
v -2.05 -2.17 -0.45
v -2.12 -2.14 -0.41
v -2.14 -2.12 -0.46
v -2.04 -2.08 -0.54
v -1.94 -2.09 -0.43
v -2.06 -2.03 -0.37
v -2.50 -1.91 -0.43
v -2.45 -1.89 -0.49
v -2.68 -1.89 -0.45
v -2.61 -1.91 -0.40
v -2.55 -1.83 -0.61
v -2.47 -1.86 -0.57
v -2.06 -1.88 -0.31
v -1.95 -1.87 -0.34
v -2.18 -1.87 -0.45
v -2.15 -1.90 -0.36
v -2.03 -1.81 -0.56
v -1.88 -1.83 -0.40
v -3.49 -1.18 -0.69
v -3.57 -0.73 -0.65
v -3.53 -1.33 -0.57
v -3.63 -1.16 -0.51
v -3.67 -0.73 -0.45
v -3.67 -0.96 -0.46
v -3.57 -0.06 -0.34
v -3.62 -0.35 -0.34
v -3.56 -1.33 -0.38
v -3.44 -1.48 -0.41
v -3.69 -0.96 -0.32
v -3.64 -1.14 -0.33
v -3.68 -0.73 -0.33
v -3.54 0.19 -0.34
v -2.42 -1.55 -0.89
v -1.78 -1.55 -0.78
v -1.60 -1.59 -0.61
v -1.58 -1.70 -0.36
v -1.55 -1.56 -0.74
v -2.82 -3.19 1.12
v -2.74 -3.60 0.88
v -2.59 -3.54 0.94
v -2.52 -3.56 1.16
v -3.01 -3.58 0.83
v -2.94 -3.28 0.82
v -3.09 -3.35 0.83
v -2.63 -3.56 1.34
v -2.58 -3.51 1.28
v -2.89 -3.20 1.21
v -2.92 -3.64 1.06
v -3.08 -3.60 1.05
v -3.19 -3.46 1.03
v -3.10 -3.54 1.25
v -2.98 -3.61 1.35
v -3.09 -3.34 1.24
v -2.85 -3.27 1.22
v -2.86 -3.45 1.36
v -2.73 -3.60 1.38
v 2.44 -3.51 1.02
v 2.39 -3.46 1.14
v 2.34 -3.51 1.20
v 2.25 -3.55 1.24
v 2.24 -3.55 0.73
v 2.38 -3.48 0.80
v 2.00 -3.52 0.69
v 2.06 -3.23 0.67
v 1.93 -3.30 0.69
v 2.08 -3.58 0.92
v 1.93 -3.55 0.91
v 1.84 -3.41 0.88
v 2.11 -3.15 1.07
v 2.17 -3.13 0.98
v 1.93 -3.29 1.09
v 1.92 -3.49 1.11
v 2.15 -3.22 1.08
v 2.14 -3.40 1.21
v -2.63 -3.56 -1.34
v -2.58 -3.51 -1.28
v -2.52 -3.56 -1.16
v -2.73 -3.60 -1.38
v -2.92 -3.64 -1.06
v -2.98 -3.61 -1.35
v -2.59 -3.54 -0.94
v -2.74 -3.60 -0.87
v -3.01 -3.58 -0.83
v -2.94 -3.28 -0.82
v -2.82 -3.19 -1.12
v -3.08 -3.60 -1.05
v -3.19 -3.46 -1.03
v -3.09 -3.35 -0.83
v -2.89 -3.20 -1.21
v -3.10 -3.54 -1.25
v -3.09 -3.34 -1.24
v -2.85 -3.27 -1.22
v -2.86 -3.45 -1.36
v 2.17 -3.13 -0.98
v 2.03 -3.56 -1.20
v 2.25 -3.55 -1.24
v 2.20 -3.58 -0.94
v 2.38 -3.48 -0.80
v 2.24 -3.55 -0.73
v 2.00 -3.52 -0.69
v 2.06 -3.23 -0.67
v 2.44 -3.51 -1.02
v 2.39 -3.46 -1.14
v 2.11 -3.15 -1.07
v 1.84 -3.41 -0.88
v 1.93 -3.55 -0.91
v 1.93 -3.30 -0.69
v 1.92 -3.49 -1.11
v 1.93 -3.29 -1.09
v 2.03 -3.26 -1.11
v 2.14 -3.40 -1.21
v 2.34 -3.51 -1.20
v 2.03 -3.56 1.20
v 4.97 1.92 0.59
v 4.95 1.95 -0.59
v 5.57 0.95 0.24
v 5.57 0.95 -0.24
v 5.76 0.96 -0.21
v 5.88 0.99 -0.13
v 5.87 1.02 0.00
v 5.90 1.18 0.16
v 5.80 1.26 0.21
v 5.90 1.18 -0.16
v 5.80 1.26 -0.21
v 5.10 2.76 0.77
v 4.86 2.72 0.94
v 4.62 2.71 0.99
v 4.62 2.75 0.94
v 4.72 2.75 0.87
v 4.34 2.66 0.90
v 4.24 2.64 0.80
v 4.18 2.64 0.62
v 4.27 2.69 0.75
v 4.14 2.47 0.64
v 4.26 2.49 0.82
v 4.50 2.55 0.94
v 4.66 2.56 0.94
v 4.86 2.59 0.87
v 4.88 2.61 0.89
v 4.32 2.39 0.68
v 4.74 2.56 0.83
v 4.54 2.51 0.78
v 4.47 2.47 0.75
v 4.44 2.40 0.63
v 4.44 2.45 0.50
v 4.66 2.68 0.80
v 4.55 2.71 0.80
v 4.52 2.64 0.75
v 4.42 2.56 0.60
v 4.36 2.62 0.60
v 4.86 2.59 -0.87
v 5.10 2.76 -0.77
v 4.74 2.75 -0.94
v 4.62 2.71 -0.99
v 4.75 2.70 -0.97
v 4.24 2.64 -0.80
v 4.15 2.58 -0.49
v 4.18 2.64 -0.62
v 4.46 2.73 -0.88
v 4.14 2.47 -0.64
v 4.34 2.59 -0.89
v 4.46 2.70 -0.95
v 4.88 2.61 -0.89
v 4.26 2.49 -0.82
v 4.35 2.52 -0.89
v 4.62 2.63 -0.98
v 4.76 2.59 -0.93
v 4.31 2.33 -0.58
v 4.44 2.48 -0.86
v 4.74 2.56 -0.83
v 4.54 2.51 -0.78
v 4.47 2.47 -0.75
v 4.44 2.34 -0.53
v 4.44 2.45 -0.50
v 4.65 2.73 -0.82
v 4.59 2.57 -0.79
v 4.48 2.61 -0.69
v 4.41 2.53 -0.49
v 4.41 2.66 -0.71
v 4.34 2.59 -0.47
v 4.28 2.65 -0.59
v -4.39 -1.97 0.05
v -4.35 -1.95 0.03
v -4.30 -1.89 0.18
v -4.19 -1.95 0.02
v -4.08 -1.90 -0.04
v -4.21 -1.92 0.16
v -3.98 -1.75 -0.18
v -3.82 -1.24 -0.27
v -3.89 -1.75 0.02
v -3.83 -1.79 -0.11
v -4.00 -1.57 -0.28
v -3.78 -1.05 -0.24
v -3.74 -0.73 -0.15
v -3.58 -1.41 -0.10
v -3.57 -0.76 -0.04
v -3.64 -1.24 0.06
v -3.68 -0.55 0.08
v -3.67 -1.14 0.08
v -3.70 -0.95 0.10
v -3.98 -0.55 -0.01
v -3.92 -1.08 -0.29
v -4.20 -1.67 -0.21
v -4.11 -1.33 -0.27
v -4.33 -1.69 -0.04
v -4.22 -1.16 -0.10
v -4.04 -0.88 -0.17
v -4.42 -1.83 0.13
v -4.45 -2.02 0.19
v -4.33 -1.55 0.06
v -4.31 -1.74 0.15
v -4.41 -1.92 0.19
v -4.23 -1.47 0.11
v -4.23 -1.23 0.07
v -4.07 -0.95 0.11
v -4.18 -1.60 0.15
v -4.13 -1.23 0.12
v -4.03 -1.04 0.14
v -3.98 -0.82 0.10
v -4.15 -1.68 0.17
v -4.02 -1.41 0.15
v -3.97 -1.17 0.16
v -3.95 -0.96 0.14
v -3.88 -1.26 0.15
v -3.82 -1.56 0.08
v -3.74 -1.37 0.10
v -3.73 -1.14 0.11
v -3.70 -0.76 0.09
v -3.74 -0.56 0.09
f 129 5 4
f 578 577 575
f 4 5 6
f 1 7 2
f 8 4 6
f 10 163 162
f 381 383 12
f 372 376 381
f 13 36 30
f 15 16 17
f 699 327 328
f 21 80 77
f 80 79 77
f 22 818 18
f 23 419 479
f 29 13 30
f 11 25 26
f 89 91 88
f 35 1003 817
f 40 14 13
f 13 41 40
f 37 14 75
f 42 27 28
f 26 27 42
f 36 38 43
f 45 46 11
f 11 26 42
f 44 47 48
f 45 39 43
f 38 49 43
f 38 37 49
f 11 46 52
f 29 28 54
f 29 54 55
f 63 61 64
f 57 27 26
f 57 54 28
f 25 31 58
f 31 52 58
f 48 46 45
f 48 59 46
f 48 47 59
f 58 52 46
f 61 56 60
f 47 60 59
f 50 51 49
f 61 60 51
f 18 55 17
f 328 65 68
f 1014 66 1016
f 1014 72 66
f 67 65 66
f 67 66 72
f 65 64 62
f 73 72 71
f 68 72 467
f 70 69 471
f 97 98 90
f 20 77 74
f 76 41 74
f 77 78 74
f 80 81 79
f 77 20 21
f 78 79 34
f 313 19 80
f 79 78 77
f 86 99 104
f 34 82 86
f 19 23 81
f 82 81 83
f 86 82 88
f 88 87 89
f 805 807 491
f 96 90 94
f 95 96 94
f 88 98 86
f 104 102 75
f 97 99 98
f 37 75 53
f 110 103 106
f 105 106 471
f 107 69 101
f 107 101 108
f 105 107 32
f 111 99 100
f 105 32 33
f 33 109 996
f 33 104 109
f 33 32 108
f 171 9 6
f 9 112 113
f 520 124 123
f 114 128 124
f 814 515 116
f 117 116 515
f 118 117 1
f 118 1 4
f 8 9 121
f 120 123 119
f 9 113 122
f 123 124 119
f 119 118 4
f 122 127 121
f 4 120 119
f 123 120 126
f 520 123 126
f 128 119 124
f 132 182 129
f 1 2 129
f 181 185 182
f 135 136 137
f 137 180 134
f 134 135 137
f 134 810 135
f 365 141 161
f 145 143 142
f 147 139 138
f 148 138 141
f 145 144 152
f 146 148 149
f 146 149 150
f 140 159 141
f 143 145 152
f 152 157 156
f 154 152 153
f 146 147 138
f 147 144 139
f 155 156 157
f 157 158 155
f 154 143 152
f 151 923 922
f 144 158 152
f 160 143 154
f 160 154 159
f 161 138 361
f 162 163 164
f 162 164 165
f 137 363 358
f 137 166 180
f 167 137 358
f 168 169 170
f 199 198 192
f 170 366 165
f 171 172 173
f 174 175 176
f 177 178 185
f 1 129 4
f 5 129 183
f 130 810 184
f 130 132 131
f 185 181 177
f 181 182 132
f 171 186 174
f 137 136 363
f 180 179 184
f 134 180 184
f 185 175 174
f 186 182 174
f 9 171 173
f 188 178 177
f 189 175 190
f 189 176 175
f 125 112 191
f 192 370 170
f 188 179 187
f 188 177 179
f 188 190 178
f 190 175 178
f 176 189 172
f 199 192 195
f 195 197 196
f 169 195 192
f 193 200 209
f 203 202 189
f 201 203 190
f 172 202 204
f 214 207 206
f 196 207 199
f 207 196 205
f 208 198 199
f 193 194 200
f 209 200 210
f 217 203 201
f 202 203 211
f 211 212 202
f 213 591 204
f 208 199 207
f 215 210 208
f 208 207 214
f 193 209 201
f 238 213 212
f 591 213 239
f 221 225 220
f 225 224 220
f 222 223 224
f 222 224 225
f 226 227 228
f 226 228 229
f 231 248 234
f 236 232 258
f 232 233 234
f 236 235 238
f 236 238 237
f 244 241 269
f 244 242 241
f 245 246 247
f 243 269 268
f 231 261 248
f 245 263 261
f 232 249 258
f 251 254 250
f 239 250 650
f 255 256 257
f 256 259 262
f 262 261 263
f 264 265 266
f 264 267 265
f 271 269 241
f 277 268 270
f 276 277 270
f 339 341 342
f 280 281 272
f 269 271 272
f 266 275 282
f 260 261 262
f 262 266 284
f 256 262 285
f 286 256 285
f 253 254 257
f 266 265 275
f 223 215 214
f 223 214 224
f 227 215 228
f 227 216 215
f 233 217 230
f 232 217 233
f 232 218 217
f 218 237 212
f 239 213 238
f 243 222 225
f 243 225 244
f 246 226 229
f 246 229 247
f 234 233 230
f 249 234 248
f 235 236 258
f 232 234 249
f 235 250 238
f 271 273 274
f 244 225 221
f 264 245 267
f 249 248 261
f 260 259 258
f 254 650 250
f 239 238 250
f 252 651 649
f 286 257 256
f 285 284 290
f 285 290 291
f 284 282 292
f 294 295 292
f 282 294 292
f 290 284 292
f 296 292 295
f 298 300 288
f 299 406 307
f 289 305 302
f 694 288 301
f 293 253 288
f 304 317 321
f 303 296 295
f 304 297 296
f 297 289 291
f 296 290 292
f 303 295 306
f 299 307 294
f 322 310 323
f 318 394 316
f 316 314 318
f 319 320 321
f 310 311 323
f 322 320 319
f 323 324 325
f 304 318 317
f 321 320 302
f 300 298 322
f 320 322 302
f 325 324 301
f 325 301 300
f 15 328 309
f 328 68 699
f 18 311 22
f 18 309 311
f 310 21 20
f 22 311 310
f 24 23 19
f 315 314 316
f 23 417 419
f 23 24 417
f 315 316 24
f 314 313 312
f 312 310 319
f 321 317 312
f 311 309 323
f 324 323 327
f 277 329 265
f 329 275 265
f 345 349 331
f 283 282 330
f 282 283 294
f 349 283 331
f 398 279 278
f 334 332 279
f 330 333 331
f 335 275 329
f 332 336 294
f 332 334 336
f 339 279 332
f 332 338 339
f 278 279 342
f 279 339 342
f 337 357 340
f 340 380 377
f 374 373 340
f 343 347 350
f 346 333 354
f 343 350 344
f 354 356 344
f 348 349 345
f 348 345 344
f 347 351 350
f 342 352 280
f 342 280 278
f 281 280 335
f 354 275 335
f 333 275 354
f 808 353 809
f 346 354 344
f 808 381 12
f 384 355 12
f 332 349 338
f 338 344 350
f 338 350 357
f 139 361 138
f 362 359 363
f 362 363 364
f 361 139 362
f 10 162 361
f 161 141 138
f 366 365 161
f 165 366 161
f 140 365 368
f 167 358 360
f 167 166 137
f 167 360 369
f 367 369 368
f 164 168 170
f 809 372 808
f 372 381 808
f 341 337 373
f 341 373 809
f 371 374 375
f 371 375 376
f 380 347 355
f 951 952 379
f 375 382 376
f 382 381 376
f 340 351 380
f 355 343 356
f 386 385 391
f 388 773 273
f 386 387 385
f 391 389 873
f 240 242 221
f 392 387 240
f 220 385 392
f 385 387 392
f 220 393 389
f 406 405 404
f 395 404 396
f 398 278 397
f 399 401 400
f 402 401 787
f 398 334 279
f 401 219 400
f 219 401 402
f 402 404 219
f 398 400 336
f 334 398 336
f 308 395 396
f 404 405 403
f 400 405 336
f 395 406 404
f 299 336 405
f 407 408 409
f 730 741 411
f 412 414 415
f 15 64 65
f 417 418 419
f 705 709 420
f 416 424 423
f 426 452 451
f 427 428 429
f 430 431 432
f 430 432 433
f 425 426 451
f 997 507 505
f 437 424 439
f 424 431 439
f 438 439 431
f 436 437 440
f 503 436 454
f 438 431 430
f 448 440 439
f 436 440 442
f 443 438 444
f 446 447 448
f 446 448 443
f 461 460 463
f 447 449 454
f 452 453 451
f 456 432 424
f 424 414 456
f 414 424 416
f 462 457 412
f 458 428 433
f 459 460 426
f 426 429 459
f 459 458 457
f 458 433 456
f 460 459 462
f 445 444 461
f 445 461 463
f 450 449 447
f 449 450 464
f 462 450 463
f 68 466 699
f 457 414 412
f 466 413 699
f 68 67 72
f 72 472 467
f 468 464 465
f 470 455 1056
f 70 471 472
f 73 70 472
f 467 1062 1063
f 474 475 423
f 474 441 436
f 475 473 422
f 478 477 476
f 479 419 418
f 479 477 480
f 477 478 480
f 84 482 483
f 485 481 479
f 83 481 482
f 488 1006 489
f 435 489 806
f 490 435 806
f 488 499 497
f 493 35 1002
f 492 493 491
f 35 92 1002
f 493 495 96
f 493 492 495
f 497 499 500
f 488 487 496
f 435 487 489
f 486 484 487
f 97 498 501
f 503 474 436
f 475 474 504
f 499 496 434
f 497 500 501
f 504 506 478
f 103 502 507
f 508 471 507
f 480 478 434
f 508 455 469
f 503 454 455
f 510 503 455
f 434 511 500
f 478 506 511
f 505 501 511
f 510 997 804
f 510 508 997
f 507 502 505
f 997 508 507
f 125 585 512
f 519 513 517
f 517 518 127
f 126 127 518
f 519 127 122
f 520 126 518
f 520 114 124
f 523 575 522
f 522 524 525
f 525 521 522
f 522 574 526
f 529 902 528
f 752 538 753
f 748 532 531
f 748 531 749
f 533 534 542
f 547 546 543
f 803 538 531
f 540 541 542
f 549 534 543
f 545 546 547
f 548 545 538
f 552 549 543
f 549 542 534
f 540 550 551
f 540 549 550
f 549 540 542
f 532 539 531
f 545 547 535
f 537 543 536
f 546 552 543
f 555 556 557
f 557 755 754
f 558 559 560
f 586 561 562
f 563 564 512
f 579 516 513
f 565 566 567
f 577 564 575
f 570 569 568
f 583 582 570
f 526 573 528
f 526 914 527
f 523 522 521
f 530 529 573
f 569 571 574
f 575 574 522
f 567 568 574
f 577 578 579
f 578 575 523
f 556 555 576
f 572 556 530
f 571 582 572
f 572 573 574
f 568 569 574
f 582 581 572
f 583 590 582
f 584 566 565
f 564 513 512
f 562 799 580
f 587 588 581
f 568 583 570
f 584 565 597
f 584 597 596
f 585 563 512
f 598 597 565
f 191 591 585
f 802 561 586
f 593 588 587
f 593 587 594
f 596 595 583
f 779 919 599
f 592 802 586
f 602 593 594
f 602 594 603
f 614 627 612
f 606 596 607
f 606 605 596
f 608 598 609
f 608 597 598
f 609 598 591
f 593 602 592
f 611 603 604
f 611 604 612
f 595 604 590
f 605 606 613
f 613 614 605
f 608 609 633
f 608 633 630
f 618 600 599
f 637 638 635
f 620 621 622
f 620 622 623
f 625 624 627
f 625 626 624
f 631 644 628
f 629 631 628
f 631 630 633
f 634 633 609
f 650 634 591
f 650 591 239
f 639 665 638
f 665 664 666
f 663 639 640
f 642 662 640
f 644 643 625
f 646 647 648
f 648 653 656
f 648 633 634
f 654 655 656
f 655 657 660
f 658 659 660
f 658 661 659
f 615 663 662
f 635 665 668
f 666 667 668
f 669 252 293
f 674 720 784
f 274 273 667
f 667 666 673
f 673 672 667
f 721 615 661
f 655 660 645
f 681 679 654
f 652 680 681
f 252 253 293
f 293 682 669
f 611 610 602
f 621 611 622
f 605 614 604
f 630 629 613
f 613 607 608
f 637 778 638
f 639 620 623
f 639 623 640
f 641 626 625
f 643 642 641
f 627 628 625
f 650 648 634
f 668 667 273
f 665 666 668
f 665 635 638
f 662 663 640
f 657 658 660
f 660 659 642
f 656 655 645
f 656 645 644
f 680 652 682
f 683 684 678
f 657 654 679
f 677 675 661
f 677 686 675
f 687 675 686
f 683 681 691
f 680 682 693
f 694 711 682
f 691 692 697
f 680 693 681
f 693 691 681
f 694 682 293
f 686 685 689
f 686 689 688
f 697 683 691
f 696 695 689
f 695 617 688
f 697 690 683
f 692 698 697
f 709 422 420
f 701 704 707
f 417 24 316
f 316 394 713
f 704 713 695
f 706 707 698
f 710 709 708
f 691 710 708
f 691 693 710
f 326 699 712
f 711 326 712
f 698 707 696
f 694 326 711
f 423 422 421
f 414 421 415
f 702 701 420
f 699 700 712
f 702 703 704
f 701 702 704
f 703 417 713
f 417 316 713
f 709 421 422
f 700 421 709
f 700 415 421
f 721 661 715
f 671 716 673
f 723 722 718
f 661 714 715
f 719 717 676
f 719 726 725
f 670 664 616
f 715 714 722
f 717 738 723
f 721 716 671
f 722 723 734
f 719 738 717
f 558 725 559
f 725 726 559
f 559 726 727
f 559 727 560
f 560 727 731
f 763 760 730
f 737 796 735
f 732 736 737
f 736 724 728
f 736 728 739
f 740 730 560
f 740 560 731
f 760 759 729
f 410 763 730
f 716 742 741
f 411 741 742
f 742 733 732
f 411 737 735
f 558 724 725
f 724 736 732
f 534 745 536
f 533 542 532
f 409 408 748
f 750 749 751
f 580 553 750
f 755 752 753
f 755 753 754
f 750 751 752
f 538 535 537
f 744 576 754
f 744 756 576
f 729 759 757
f 768 739 728
f 758 759 760
f 770 761 762
f 735 761 410
f 762 765 764
f 770 410 761
f 411 410 730
f 764 765 766
f 766 767 764
f 729 757 728
f 771 772 386
f 772 387 386
f 273 271 388
f 773 668 273
f 771 600 777
f 772 771 777
f 778 637 636
f 777 773 772
f 600 778 777
f 779 600 776
f 600 771 776
f 695 713 783
f 794 781 790
f 695 783 781
f 784 399 397
f 401 785 787
f 785 399 786
f 399 785 401
f 396 402 787
f 788 785 786
f 792 789 786
f 788 786 789
f 785 788 787
f 792 791 789
f 792 786 784
f 793 795 794
f 793 676 795
f 791 793 794
f 790 789 791
f 795 780 794
f 687 795 676
f 780 617 781
f 794 780 781
f 791 792 793
f 792 784 720
f 790 788 789
f 794 790 791
f 782 787 790
f 720 793 792
f 781 782 790
f 788 790 787
f 784 786 399
f 399 400 398
f 397 399 398
f 617 695 781
f 780 795 688
f 782 781 783
f 779 776 775
f 777 778 636
f 777 636 773
f 776 771 774
f 636 635 773
f 773 635 668
f 771 386 774
f 762 761 796
f 762 796 739
f 763 770 764
f 764 767 763
f 758 766 797
f 758 767 766
f 763 758 760
f 763 767 758
f 762 769 798
f 762 739 769
f 761 735 796
f 770 762 764
f 757 768 728
f 768 769 739
f 758 797 759
f 797 757 759
f 729 558 560
f 730 729 560
f 554 580 799
f 755 557 580
f 755 580 750
f 555 557 754
f 756 800 576
f 744 745 756
f 750 752 755
f 752 751 538
f 536 745 744
f 537 536 753
f 580 554 553
f 750 553 749
f 553 409 749
f 409 748 749
f 533 748 746
f 747 756 745
f 747 745 746
f 746 745 533
f 745 534 533
f 536 754 753
f 725 732 743
f 725 724 732
f 725 743 738
f 411 742 732
f 411 735 410
f 722 734 733
f 741 730 740
f 670 721 671
f 673 716 740
f 716 741 740
f 672 673 740
f 672 740 731
f 736 739 796
f 796 737 736
f 734 738 743
f 734 743 732
f 734 732 733
f 411 732 737
f 727 672 731
f 672 727 674
f 728 724 558
f 729 728 558
f 672 674 784
f 727 726 674
f 719 674 726
f 719 725 738
f 738 734 723
f 721 742 716
f 720 719 793
f 675 717 723
f 722 733 742
f 721 715 742
f 714 718 722
f 715 722 742
f 674 719 720
f 675 676 717
f 718 714 675
f 719 676 793
f 721 670 616
f 721 616 615
f 701 706 705
f 705 420 701
f 704 695 707
f 702 420 418
f 703 702 418
f 711 693 682
f 711 710 693
f 698 692 708
f 708 709 705
f 326 327 699
f 710 711 712
f 712 700 710
f 710 700 709
f 708 692 691
f 708 706 698
f 708 705 706
f 695 696 707
f 703 713 704
f 415 700 413
f 413 700 699
f 701 707 706
f 795 686 688
f 780 688 617
f 689 695 688
f 689 684 683
f 689 683 690
f 689 690 696
f 698 696 690
f 698 690 697
f 683 679 681
f 685 684 689
f 795 687 686
f 687 676 675
f 658 677 661
f 684 685 677
f 684 677 678
f 678 657 679
f 683 678 679
f 652 669 682
f 252 650 254
f 252 649 648
f 651 653 649
f 648 649 653
f 646 644 647
f 660 642 645
f 643 644 645
f 662 642 659
f 642 640 641
f 663 616 664
f 663 665 639
f 388 387 772
f 632 633 648
f 631 632 647
f 647 644 631
f 644 625 628
f 625 643 641
f 640 623 626
f 640 626 641
f 638 619 620
f 638 620 639
f 619 778 600
f 619 600 618
f 614 613 629
f 628 627 614
f 614 612 604
f 622 611 612
f 622 612 624
f 603 611 602
f 652 651 669
f 652 656 653
f 652 681 654
f 657 655 654
f 677 658 657
f 677 685 686
f 718 675 723
f 670 671 664
f 666 671 673
f 397 278 667
f 278 274 667
f 615 616 663
f 663 664 665
f 661 675 714
f 672 784 397
f 671 666 664
f 661 615 659
f 615 662 659
f 678 677 657
f 652 654 656
f 652 653 651
f 651 252 669
f 650 252 648
f 646 648 656
f 646 656 644
f 642 643 645
f 635 636 637
f 778 619 638
f 632 648 647
f 632 631 633
f 629 628 614
f 629 630 631
f 624 612 627
f 623 622 624
f 623 624 626
f 619 618 621
f 619 621 620
f 610 618 599
f 613 608 630
f 613 606 607
f 595 605 604
f 611 621 610
f 621 618 610
f 591 634 609
f 607 597 608
f 607 596 597
f 605 595 596
f 604 589 590
f 604 603 594
f 604 594 589
f 602 601 592
f 602 610 601
f 601 801 802
f 592 601 802
f 599 801 601
f 599 601 610
f 591 598 585
f 563 598 565
f 583 584 596
f 595 590 583
f 594 587 589
f 592 586 588
f 592 588 593
f 585 598 563
f 590 589 582
f 582 587 581
f 587 582 589
f 588 557 581
f 588 586 580
f 125 113 112
f 568 566 584
f 584 583 568
f 556 572 581
f 564 577 579
f 564 579 513
f 565 567 564
f 567 574 575
f 571 569 570
f 571 570 582
f 557 556 581
f 516 578 523
f 574 573 526
f 573 572 530
f 556 576 530
f 3 516 523
f 2 523 521
f 522 526 527
f 573 529 528
f 571 572 574
f 567 566 568
f 564 563 565
f 586 562 580
f 588 580 557
f 576 555 754
f 553 554 407
f 553 407 409
f 751 749 531
f 545 535 538
f 535 547 543
f 543 534 536
f 552 544 550
f 550 549 552
f 542 541 532
f 973 971 974
f 537 535 543
f 539 803 531
f 803 548 538
f 540 551 541
f 551 539 541
f 536 744 754
f 751 531 538
f 538 537 753
f 533 532 748
f 748 408 746
f 532 541 539
f 521 129 2
f 521 132 129
f 125 514 519
f 519 122 125
f 114 520 115
f 518 515 115
f 519 514 513
f 517 127 519
f 520 518 115
f 512 513 514
f 518 517 516
f 515 518 516
f 516 3 515
f 3 117 515
f 3 7 117
f 514 125 512
f 585 125 191
f 506 804 997
f 510 804 509
f 511 997 505
f 511 506 997
f 501 500 511
f 510 509 503
f 510 455 508
f 471 103 507
f 500 499 434
f 434 478 511
f 504 474 503
f 505 502 501
f 508 469 471
f 455 454 449
f 475 504 478
f 97 501 103
f 488 496 499
f 495 492 494
f 495 494 488
f 494 492 491
f 1006 488 494
f 805 490 807
f 805 493 1002
f 805 491 493
f 486 487 435
f 484 434 496
f 486 485 484
f 83 482 84
f 999 486 1000
f 484 485 479
f 479 480 434
f 84 483 85
f 483 1002 85
f 482 481 486
f 434 484 479
f 481 83 479
f 478 476 475
f 477 418 420
f 476 477 420
f 477 479 418
f 422 473 420
f 420 473 476
f 476 473 475
f 441 437 436
f 423 441 474
f 475 422 423
f 416 423 421
f 502 103 501
f 95 493 96
f 497 498 488
f 469 470 471
f 470 469 455
f 471 470 472
f 466 68 467
f 67 68 65
f 464 450 465
f 463 450 446
f 462 465 450
f 446 445 463
f 460 462 463
f 461 453 460
f 460 453 452
f 459 457 462
f 458 456 457
f 460 452 426
f 459 429 428
f 459 428 458
f 457 456 414
f 456 433 432
f 447 454 442
f 453 461 451
f 461 444 451
f 448 442 440
f 448 447 442
f 450 447 446
f 445 446 443
f 443 448 438
f 438 427 444
f 425 451 444
f 448 439 438
f 445 443 444
f 427 425 444
f 438 430 427
f 430 428 427
f 436 442 454
f 424 437 441
f 441 423 424
f 488 498 495
f 504 503 509
f 506 504 509
f 431 424 432
f 430 433 428
f 425 427 429
f 425 429 426
f 414 416 421
f 703 418 417
f 465 462 412
f 465 412 413
f 466 465 413
f 412 415 413
f 440 437 439
f 410 770 763
f 760 729 730
f 395 306 295
f 307 295 294
f 299 405 406
f 400 403 405
f 402 396 404
f 404 403 219
f 396 787 782
f 219 403 400
f 396 782 783
f 306 395 308
f 394 308 396
f 307 395 295
f 396 713 394
f 396 783 713
f 395 307 406
f 390 389 393
f 220 389 385
f 221 220 392
f 387 388 240
f 221 392 240
f 873 774 386
f 385 389 391
f 271 241 388
f 388 772 773
f 380 351 347
f 384 380 355
f 378 379 12
f 343 355 347
f 382 378 383
f 383 381 382
f 379 384 12
f 372 371 376
f 373 337 340
f 370 167 367
f 367 167 369
f 363 359 358
f 140 368 369
f 367 366 370
f 366 170 370
f 142 360 145
f 142 369 360
f 366 367 368
f 366 368 365
f 165 161 162
f 161 361 162
f 139 145 359
f 362 139 359
f 145 360 358
f 145 358 359
f 338 337 339
f 349 348 338
f 356 353 808
f 354 353 356
f 356 343 344
f 352 353 335
f 352 341 809
f 352 809 353
f 352 342 341
f 351 340 357
f 351 357 350
f 283 332 294
f 808 355 356
f 346 345 333
f 346 344 345
f 373 371 372
f 373 372 809
f 341 339 337
f 338 348 344
f 337 338 357
f 333 330 275
f 333 345 331
f 281 276 270
f 276 281 335
f 335 329 276
f 336 299 294
f 283 349 332
f 331 283 330
f 353 354 335
f 275 330 282
f 326 324 327
f 310 322 319
f 319 321 312
f 318 303 394
f 328 327 309
f 315 19 313
f 310 313 21
f 309 16 15
f 324 694 301
f 324 326 694
f 300 322 325
f 322 298 302
f 302 305 304
f 303 308 394
f 325 322 323
f 317 318 314
f 317 314 312
f 314 315 313
f 312 313 310
f 327 323 309
f 302 304 321
f 304 303 318
f 303 306 308
f 296 291 290
f 297 291 296
f 298 286 289
f 304 305 297
f 303 304 296
f 694 293 288
f 300 301 288
f 302 298 289
f 298 287 286
f 289 297 305
f 291 289 285
f 284 266 282
f 289 286 285
f 298 288 287
f 288 253 257
f 251 255 254
f 251 258 255
f 258 256 255
f 267 245 247
f 267 247 268
f 269 243 244
f 241 240 388
f 235 258 250
f 230 231 234
f 217 216 230
f 231 246 261
f 246 245 261
f 247 229 222
f 247 222 243
f 244 221 242
f 211 218 212
f 237 218 232
f 217 209 216
f 230 216 227
f 215 208 214
f 223 228 215
f 206 874 393
f 874 390 393
f 288 257 287
f 253 252 254
f 257 286 287
f 285 262 284
f 672 397 667
f 280 272 274
f 274 278 280
f 280 352 335
f 270 269 272
f 265 267 268
f 268 269 270
f 271 274 272
f 281 270 272
f 277 265 268
f 263 264 266
f 262 263 266
f 256 258 259
f 259 260 262
f 254 255 257
f 258 251 250
f 249 260 258
f 231 226 246
f 260 249 261
f 245 264 263
f 247 243 268
f 242 240 241
f 236 237 232
f 231 227 226
f 231 230 227
f 229 228 223
f 229 223 222
f 277 276 329
f 237 238 212
f 217 218 203
f 218 211 203
f 209 217 201
f 216 209 210
f 216 210 215
f 213 204 212
f 204 202 212
f 188 193 201
f 210 200 198
f 210 198 208
f 196 199 195
f 220 206 393
f 207 205 206
f 204 591 191
f 172 204 173
f 204 191 173
f 202 172 189
f 188 201 190
f 200 194 192
f 200 192 198
f 169 192 170
f 191 112 173
f 190 203 189
f 194 187 192
f 194 193 188
f 370 187 180
f 192 187 370
f 175 185 178
f 186 183 182
f 174 176 172
f 194 188 187
f 184 181 130
f 6 5 186
f 5 183 186
f 184 179 181
f 182 183 129
f 185 174 182
f 179 177 181
f 174 172 171
f 112 9 173
f 9 8 6
f 169 197 195
f 187 179 180
f 166 370 180
f 166 167 370
f 164 170 165
f 158 157 152
f 159 151 141
f 140 369 142
f 142 143 160
f 147 158 144
f 147 150 158
f 149 155 150
f 155 158 150
f 920 151 159
f 140 160 159
f 147 146 150
f 160 140 142
f 140 141 365
f 144 145 139
f 134 184 810
f 866 131 133
f 133 132 521
f 521 525 133
f 120 127 126
f 120 121 127
f 119 811 812
f 1083 1089 1088
f 119 128 811
f 9 122 121
f 121 120 4
f 812 118 119
f 812 116 118
f 117 118 116
f 8 121 4
f 812 813 116
f 117 7 1
f 814 115 515
f 815 115 814
f 816 1083 128
f 125 122 113
f 186 171 6
f 105 33 996
f 109 111 996
f 108 32 107
f 106 105 996
f 111 109 99
f 110 100 103
f 109 104 99
f 106 103 471
f 34 86 104
f 76 34 75
f 108 53 102
f 69 105 471
f 34 104 75
f 69 107 105
f 75 102 53
f 97 103 100
f 501 498 497
f 98 99 86
f 97 100 99
f 98 91 90
f 91 98 88
f 498 97 96
f 495 498 96
f 95 94 35
f 95 35 493
f 35 817 92
f 817 91 89
f 87 93 89
f 82 87 88
f 82 83 87
f 481 485 486
f 83 81 479
f 23 479 81
f 82 79 81
f 82 34 79
f 19 81 80
f 20 74 41
f 76 78 34
f 78 76 74
f 76 75 41
f 75 40 41
f 97 90 96
f 73 71 70
f 71 1027 70
f 66 65 62
f 72 73 472
f 15 65 328
f 17 63 64
f 61 51 64
f 56 63 17
f 60 47 51
f 51 62 64
f 59 60 46
f 47 49 51
f 60 56 57
f 58 60 57
f 56 54 57
f 60 58 46
f 25 58 57
f 57 26 25
f 57 28 27
f 18 818 13
f 55 18 13
f 55 56 17
f 55 54 56
f 56 61 63
f 13 29 55
f 101 50 53
f 53 50 49
f 31 25 11
f 39 36 43
f 50 62 51
f 44 43 49
f 44 49 47
f 48 45 44
f 45 42 39
f 45 43 44
f 37 53 49
f 42 30 39
f 42 45 11
f 75 14 40
f 14 37 38
f 30 36 39
f 14 38 36
f 13 14 36
f 93 87 998
f 108 101 53
f 111 110 106
f 52 31 11
f 28 29 30
f 30 42 28
f 818 22 41
f 41 13 818
f 18 16 309
f 20 41 22
f 22 310 20
f 21 313 80
f 315 24 19
f 16 18 17
f 15 17 64
f 355 808 12
f 10 361 362
f 516 517 513
f 2 3 523
f 579 578 516
f 7 3 2
f 564 567 575
f 819 820 824
f 830 843 829
f 825 827 828
f 825 829 827
f 825 830 829
f 822 835 834
f 831 839 830
f 829 842 827
f 831 826 828
f 827 842 841
f 834 833 821
f 363 857 364
f 836 835 822
f 837 836 823
f 832 824 833
f 826 831 830
f 839 831 840
f 133 525 527
f 846 852 851
f 130 846 810
f 847 136 845
f 845 848 847
f 849 848 845
f 849 846 850
f 130 181 132
f 853 854 855
f 853 855 856
f 364 859 747
f 869 835 10
f 857 858 859
f 10 364 747
f 860 861 862
f 860 862 863
f 864 865 854
f 864 854 853
f 525 524 527
f 131 855 852
f 131 866 855
f 851 854 865
f 851 865 850
f 849 862 861
f 849 861 848
f 847 858 857
f 847 857 363
f 364 10 362
f 867 839 840
f 832 833 842
f 868 833 834
f 868 834 869
f 837 163 836
f 164 838 870
f 838 842 843
f 838 832 842
f 871 843 844
f 870 168 164
f 839 873 844
f 391 873 386
f 390 874 871
f 390 871 873
f 874 872 871
f 870 843 872
f 169 870 206
f 206 872 874
f 843 871 872
f 870 872 206
f 870 169 168
f 169 206 196
f 892 408 891
f 877 879 880
f 881 876 877
f 884 885 883
f 877 880 881
f 893 881 880
f 877 878 879
f 878 877 876
f 896 895 888
f 885 886 883
f 888 898 885
f 898 897 885
f 881 889 876
f 891 875 879
f 892 891 879
f 881 894 890
f 882 885 884
f 524 522 527
f 529 530 576
f 906 902 901
f 800 529 576
f 901 800 903
f 903 904 901
f 906 905 902
f 529 800 901
f 856 907 908
f 856 908 853
f 859 909 910
f 863 911 912
f 863 912 860
f 853 908 913
f 853 913 864
f 914 907 856
f 866 133 527
f 905 913 908
f 908 914 902
f 904 912 911
f 904 911 906
f 756 910 909
f 756 909 903
f 747 746 408
f 841 868 840
f 894 893 915
f 869 892 889
f 869 889 868
f 875 891 407
f 892 869 408
f 407 554 893
f 898 868 890
f 898 890 897
f 886 885 897
f 899 886 897
f 899 897 894
f 554 799 915
f 900 899 916
f 918 867 900
f 918 774 873
f 919 775 917
f 775 774 917
f 774 918 917
f 600 779 599
f 599 562 802
f 599 916 915
f 599 802 801
f 799 562 915
f 562 561 802
f 899 915 916
f 599 915 562
f 599 919 916
f 919 917 916
f 779 775 919
f 775 776 774
f 918 873 867
f 918 900 917
f 915 893 554
f 899 894 915
f 900 887 899
f 887 886 899
f 897 890 894
f 407 893 875
f 869 10 408
f 868 889 890
f 868 898 895
f 868 867 840
f 867 896 900
f 900 916 917
f 747 910 756
f 903 909 912
f 903 912 904
f 906 911 913
f 906 913 905
f 914 528 902
f 908 907 914
f 856 866 527
f 914 856 527
f 864 913 911
f 864 911 863
f 860 912 909
f 860 909 859
f 859 910 747
f 905 908 902
f 902 529 901
f 903 800 756
f 526 528 914
f 904 906 901
f 882 888 885
f 898 888 895
f 882 887 888
f 900 896 887
f 881 890 889
f 893 894 881
f 875 880 879
f 892 879 878
f 896 888 887
f 889 892 878
f 875 893 880
f 889 878 876
f 886 887 883
f 882 884 883
f 882 883 887
f 169 196 197
f 870 838 843
f 206 205 196
f 224 214 206
f 220 224 206
f 389 390 873
f 871 844 873
f 164 837 838
f 837 164 163
f 869 834 835
f 408 407 891
f 833 868 842
f 868 841 842
f 868 895 867
f 895 896 867
f 839 867 873
f 848 861 858
f 848 858 847
f 850 865 862
f 850 862 849
f 852 854 851
f 852 855 854
f 856 855 866
f 863 862 865
f 863 865 864
f 859 858 861
f 859 861 860
f 364 857 859
f 10 747 408
f 846 130 852
f 850 846 851
f 846 845 810
f 845 135 810
f 363 136 847
f 852 130 131
f 846 849 845
f 136 135 845
f 131 132 133
f 831 828 827
f 831 827 841
f 832 838 824
f 838 837 824
f 823 836 822
f 820 821 833
f 822 834 821
f 825 826 830
f 839 844 830
f 840 831 841
f 829 843 842
f 830 844 843
f 821 820 819
f 822 821 819
f 823 822 819
f 824 823 819
f 824 820 833
f 837 823 824
f 825 828 826
f 835 836 10
f 836 163 10
f 923 938 930
f 938 934 930
f 930 931 924
f 921 930 924
f 925 151 922
f 148 925 926
f 148 926 149
f 928 923 936
f 156 153 152
f 159 154 153
f 920 159 153
f 924 931 932
f 932 926 924
f 155 149 926
f 931 933 932
f 933 156 932
f 934 933 931
f 931 930 934
f 936 929 935
f 935 153 156
f 920 929 936
f 929 153 935
f 933 934 935
f 937 934 938
f 934 937 935
f 937 938 928
f 939 940 941
f 941 942 939
f 939 942 948
f 948 949 945
f 943 948 945
f 374 946 947
f 374 947 375
f 940 939 955
f 947 946 945
f 379 378 953
f 382 947 950
f 380 384 379
f 953 995 956
f 952 955 939
f 377 380 952
f 942 941 956
f 956 941 940
f 378 950 954
f 957 958 959
f 959 960 957
f 961 962 960
f 966 964 963
f 803 966 963
f 803 539 966
f 959 803 963
f 967 803 974
f 546 544 552
f 965 968 961
f 961 964 965
f 969 968 965
f 969 965 970
f 545 967 971
f 972 969 544
f 967 548 803
f 958 975 974
f 975 960 962
f 973 974 975
f 975 957 960
f 798 769 976
f 981 983 982
f 988 979 982
f 768 983 980
f 768 757 983
f 984 976 980
f 976 768 980
f 762 798 986
f 986 992 762
f 977 979 988
f 981 980 983
f 982 983 989
f 987 766 765
f 989 797 766
f 987 990 988
f 765 762 991
f 988 990 977
f 977 993 978
f 984 986 976
f 993 994 978
f 984 985 986
f 977 990 991
f 993 991 992
f 985 993 992
f 976 769 768
f 977 991 993
f 990 987 765
f 798 976 986
f 990 765 991
f 987 989 766
f 987 988 982
f 987 982 989
f 977 978 979
f 985 992 986
f 985 994 993
f 797 989 983
f 797 983 757
f 762 992 991
f 979 981 982
f 984 980 981
f 984 981 979
f 994 985 984
f 984 978 994
f 984 979 978
f 958 974 959
f 962 972 973
f 975 962 973
f 973 546 971
f 971 967 974
f 803 959 974
f 544 546 973
f 544 969 550
f 968 972 962
f 962 961 968
f 969 972 968
f 972 544 973
f 550 969 970
f 970 551 550
f 965 966 970
f 964 966 965
f 964 961 959
f 546 545 971
f 958 957 975
f 551 970 966
f 551 966 539
f 959 963 964
f 961 960 959
f 545 548 967
f 955 951 953
f 956 940 955
f 956 955 953
f 956 995 942
f 378 382 950
f 951 379 953
f 952 951 955
f 953 954 995
f 995 954 949
f 949 948 995
f 950 949 954
f 378 954 953
f 382 375 947
f 945 949 950
f 950 947 945
f 939 943 944
f 952 380 379
f 378 12 383
f 943 946 944
f 946 374 377
f 944 952 939
f 374 340 377
f 374 371 373
f 946 943 945
f 944 377 952
f 946 377 944
f 942 995 948
f 939 948 943
f 937 928 936
f 938 927 928
f 937 936 935
f 929 920 153
f 933 935 156
f 155 926 932
f 926 925 924
f 155 932 156
f 151 920 936
f 921 925 922
f 925 148 151
f 151 148 141
f 148 146 138
f 151 936 923
f 925 921 924
f 921 922 923
f 923 928 927
f 927 938 923
f 921 923 930
f 110 111 100
f 506 509 804
f 106 996 111
f 108 102 33
f 102 104 33
f 93 998 84
f 488 489 487
f 490 1000 435
f 1000 486 435
f 1001 1002 483
f 805 1001 490
f 1001 1000 490
f 490 806 807
f 484 496 487
f 92 93 84
f 92 84 85
f 87 84 998
f 1001 805 1002
f 1000 1001 483
f 1000 483 482
f 1000 482 999
f 999 482 486
f 1002 92 85
f 87 83 84
f 1003 35 94
f 1004 91 817
f 817 89 93
f 1004 1003 94
f 491 807 1005
f 1006 1005 806
f 1005 807 806
f 1006 806 489
f 494 491 1005
f 1006 494 1005
f 1004 90 91
f 1004 817 1003
f 90 1004 94
f 817 93 92
f 1007 1023 1028
f 1011 1010 1009
f 66 62 1016
f 1013 1015 1014
f 1032 1029 1030
f 1018 1022 1025
f 1013 1014 1016
f 1017 1016 62
f 1012 1018 1009
f 1010 1012 1009
f 1020 1007 1021
f 1022 62 50
f 1018 1012 1017
f 1020 1008 1019
f 1020 1021 1008
f 1023 1020 1019
f 1019 1025 1024
f 1024 1030 1028
f 101 1022 50
f 1027 101 70
f 1027 1026 101
f 1007 1028 1011
f 1030 1029 1028
f 1031 1026 1027
f 1031 1025 1026
f 1010 1029 1015
f 72 1032 71
f 1032 1031 1027
f 1032 1027 71
f 1015 72 1014
f 1035 1036 1041
f 1035 1037 1036
f 1040 1061 1041
f 468 1039 1040
f 1045 1049 1037
f 468 465 466
f 468 1046 464
f 1044 1043 1038
f 468 466 467
f 1034 1045 1037
f 1046 1038 1043
f 1046 1043 1047
f 464 1050 449
f 1058 1053 1052
f 1045 1033 1049
f 1053 1049 1052
f 1053 1054 1051
f 1047 1051 1046
f 1050 1046 1051
f 1055 1050 1054
f 1050 1051 1054
f 1057 1061 1058
f 1060 1054 1059
f 1056 1060 1062
f 1057 1041 1061
f 1060 1055 1054
f 1063 1060 1059
f 1060 1056 1055
f 467 1063 1039
f 1056 472 470
f 467 472 1062
f 1063 1062 1060
f 1061 1063 1059
f 1061 1059 1058
f 1054 1058 1059
f 1052 1034 1058
f 1034 1057 1058
f 1057 1034 1035
f 1035 1041 1057
f 1055 1056 455
f 1056 1062 472
f 1050 455 449
f 1050 1055 455
f 1054 1053 1058
f 1053 1051 1049
f 1048 1051 1047
f 1043 1044 1047
f 1033 1052 1049
f 1045 1034 1033
f 1049 1051 1048
f 1049 1048 1037
f 1044 1048 1047
f 1036 1048 1044
f 1046 1042 1038
f 464 1046 1050
f 1044 1038 1041
f 1042 468 1040
f 468 1042 1046
f 1036 1037 1048
f 1039 468 467
f 1040 1039 1063
f 1040 1063 1061
f 1038 1042 1040
f 1041 1038 1040
f 1036 1044 1041
f 1035 1034 1037
f 1052 1033 1034
f 72 1015 1032
f 1032 1015 1029
f 1031 1032 1030
f 1025 1030 1024
f 101 69 70
f 1025 1031 1030
f 1023 1024 1028
f 1007 1011 1008
f 1007 1020 1023
f 1026 1022 101
f 1022 1026 1025
f 1018 1017 1022
f 1019 1018 1025
f 1008 1009 1019
f 1019 1024 1023
f 1012 1013 1017
f 1022 1017 62
f 1007 1008 1021
f 1016 1017 1013
f 1018 1019 1009
f 1011 1028 1029
f 1015 1012 1010
f 1012 1015 1013
f 1011 1029 1010
f 1011 1009 1008
f 115 816 128
f 1064 1065 1066
f 1067 1068 1069
f 1070 1071 1072
f 1070 1074 1071
f 1075 1076 1077
f 1078 1079 1077
f 1078 1080 1081
f 1080 1082 1081
f 812 1080 1078
f 1076 814 813
f 815 1076 1084
f 813 814 116
f 1070 1085 1074
f 1075 1074 1084
f 1076 1075 1084
f 1065 1067 1066
f 1085 1086 1074
f 1089 1083 815
f 1087 1065 1064
f 1089 1086 1088
f 1090 1064 1091
f 1092 1087 1090
f 1083 1088 1096
f 1093 1091 1094
f 1095 1090 1093
f 1096 1092 1095
f 1098 1094 1066
f 1099 1093 1098
f 1100 1095 1099
f 1101 1096 1100
f 1102 1066 1069
f 1103 1098 1102
f 1104 1099 1103
f 1105 1100 1104
f 1108 1072 1107
f 1106 1104 1103
f 1100 1105 1101
f 1108 1106 1103
f 1109 1106 1108
f 1106 1109 1104
f 1111 811 128
f 1077 1107 1072
f 1079 1108 1107
f 1081 1109 1108
f 1082 1111 1101
f 1082 1110 1111
f 1082 1105 1109
f 1110 1080 1111
f 1082 1109 1081
f 1081 1108 1079
f 1079 1107 1077
f 1077 1072 1073
f 1097 1101 1083
f 1108 1102 1072
f 1102 1069 1072
f 1082 1101 1105
f 1109 1105 1104
f 1108 1103 1102
f 1104 1100 1099
f 1103 1099 1098
f 1102 1098 1066
f 1101 1097 1096
f 1100 1096 1095
f 1099 1095 1093
f 1098 1093 1094
f 1101 1111 128
f 1096 1088 1092
f 1095 1092 1090
f 1093 1090 1091
f 1083 1096 1097
f 1092 1088 1087
f 1088 1085 1087
f 1090 1087 1064
f 1089 815 1084
f 1088 1086 1085
f 1065 1087 1085
f 1086 1089 1084
f 1070 1065 1085
f 1074 1086 1084
f 1075 1071 1074
f 1070 1068 1065
f 1065 1068 1067
f 812 1111 1080
f 812 811 1111
f 1101 128 1083
f 815 814 1076
f 1083 816 815
f 115 128 114
f 815 816 115
f 1078 1076 813
f 1071 1075 1077
f 1078 1081 1079
f 1076 1078 1077
f 1070 1072 1068
f 1077 1073 1071
f 1071 1073 1072
f 1072 1069 1068
f 1094 1064 1066
f 1067 1069 1066
f 1094 1091 1064
f 1078 813 812
f 1082 1080 1110
