v 2.46 4.04 0.25
v 1.73 4.05 0.17
v 0.06 1.85 -0.00
v -0.95 1.19 0.00
v -2.13 0.06 -0.13
v -1.93 -0.23 -0.92
v -1.20 -0.02 -1.27
v -2.06 -0.07 -0.58
v -8.52 -5.33 0.01
v -5.53 -5.36 -0.01
v -4.31 -4.38 0.00
v -3.14 -5.35 0.00
v -1.73 -4.40 0.00
v -0.47 -1.53 -1.35
v -0.96 -1.35 -1.49
v 0.09 -2.55 -0.33
v 0.09 -2.70 -0.01
v 0.38 -2.45 0.00
v 1.93 -1.37 0.00
v 2.47 0.34 -0.01
v 2.72 0.99 0.01
v 2.95 2.31 0.00
v 3.97 3.23 -0.09
v -2.41 -4.85 -0.43
v -3.57 -5.24 -0.51
v -1.82 -4.34 -0.53
v -1.28 -3.74 -0.44
v -1.37 -3.62 -0.70
v -2.12 -4.88 -0.94
v -2.90 -5.17 -0.73
v -2.98 -5.12 -0.93
v -2.20 -5.00 -1.40
v -3.46 -5.31 -0.71
v -3.22 -5.26 -0.91
v -2.97 -2.16 -1.14
v -2.61 -2.28 -1.25
v -3.79 -2.84 -1.39
v -2.92 -2.49 -1.69
v -4.40 -4.33 -0.23
v -4.13 -4.94 -0.37
v -4.52 -3.64 -0.52
v -4.33 -3.23 -0.67
v -4.44 -3.62 -0.61
v -4.37 -3.84 -0.36
v -4.41 -4.73 -0.51
v -4.23 -5.20 -0.61
v -2.77 -3.88 -1.86
v -3.91 -4.94 -1.27
v -2.69 -4.85 -1.55
v -1.65 -3.74 -1.84
v -1.39 -3.33 -1.74
v -1.40 -4.04 -1.54
v -1.81 -4.53 -1.57
v -4.73 -4.14 -0.33
v -8.83 -5.25 0.01
v -8.21 -5.12 -0.04
v -8.29 -4.93 0.01
v -5.69 -5.30 -0.08
v -6.01 -5.11 -0.10
v -5.56 -4.98 -0.17
v -1.38 -3.31 -0.99
v -3.83 -2.19 -0.50
v -4.66 -3.52 -0.26
v -4.22 -5.12 -0.98
v -3.94 -5.38 -0.70
v -8.57 -5.05 0.04
v -2.16 -2.53 -1.31
v -2.02 -4.76 -1.49
v -1.79 -5.08 -1.75
v -1.80 -5.26 -1.78
v -1.68 -5.12 -1.35
v -1.68 -5.40 -1.28
v -0.97 -5.40 -1.32
v -1.25 -5.41 -1.26
v -0.71 -5.40 -1.78
v -0.69 -5.25 -1.81
v -0.74 -5.26 -1.69
v -1.23 -5.25 -2.25
v -1.17 -5.25 -2.17
v -1.18 -5.40 -2.17
v -0.93 -5.08 -1.99
v -0.99 -5.08 -2.07
v -0.81 -5.26 -2.05
v -0.82 -5.40 -2.03
v -1.23 -5.11 -2.11
v -1.34 -5.09 -2.18
v -1.37 -5.11 -1.91
v -1.01 -5.19 -1.30
v -1.25 -5.27 -1.25
v -0.87 -5.40 -1.93
v -0.85 -5.26 -1.94
v -0.74 -5.25 -1.92
v -0.76 -5.40 -1.92
v -0.95 -5.13 -1.61
v -0.81 -5.08 -1.76
v -0.85 -5.25 -1.44
v -0.96 -5.11 -1.40
v -0.86 -5.40 -1.44
v -0.96 -5.40 -1.57
v -0.90 -5.25 -1.55
v -0.97 -5.11 -1.52
v -1.00 -5.20 -1.56
v -1.33 -5.10 -1.50
v -1.39 -5.21 -2.23
v -1.27 -5.40 -2.25
v -1.20 -5.40 -2.06
v -1.21 -5.20 -2.09
v -0.90 -5.26 -2.17
v -0.90 -5.40 -2.14
v -1.33 -5.00 -1.56
v -1.05 -5.11 -1.83
v -0.86 -5.08 -1.83
v -1.28 -5.09 -1.35
v -1.36 -4.99 -1.65
v -1.37 -4.99 -1.82
v -1.69 -5.00 -1.58
v -1.51 -5.40 -2.12
v -1.76 -5.43 -1.68
v -3.39 -5.41 -1.02
v 0.40 -2.29 -0.31
v 0.92 -2.11 -0.16
v 0.68 -2.19 -0.31
v 1.13 -4.49 -1.15
v 0.62 -3.41 -0.95
v 0.49 -2.31 -0.78
v 1.22 -2.15 -0.49
v 0.69 -2.74 -0.64
v 1.08 -3.74 -0.63
v 0.87 -2.19 -0.48
v 0.92 -4.43 -0.56
v 0.76 -3.89 -1.00
v 0.84 -4.25 -0.98
v 0.91 -4.25 -1.11
v 1.00 -3.69 -1.12
v 1.22 -3.97 -0.78
v 1.16 -3.76 -0.73
v 1.17 -4.20 -0.65
v 1.18 -4.41 -0.57
v 0.87 -1.18 -1.62
v 1.33 -1.33 -1.46
v 1.33 -0.85 -1.49
v 1.56 -1.37 -1.16
v 1.73 -0.72 -1.24
v 3.04 3.72 -0.22
v 3.15 3.45 -0.20
v 2.47 2.35 -0.97
v 2.73 2.74 -0.81
v 2.85 2.16 -0.62
v 1.57 -1.64 -1.01
v 2.03 -0.78 -0.89
v 1.72 -0.10 -1.25
v 1.76 -0.07 -1.11
v 1.64 -1.88 -0.55
v 1.94 -1.42 -0.75
v 2.18 -0.23 -0.72
v 2.31 0.35 -0.38
v 2.43 -0.27 -0.28
v 2.70 1.67 -0.74
v 2.80 1.89 -0.64
v 2.75 1.58 -0.52
v 2.69 0.86 -0.20
v 2.65 1.12 -0.15
v 2.58 2.07 -0.84
v 2.56 1.76 -0.79
v 2.89 2.20 -0.70
v 2.72 1.86 -0.44
v 2.63 2.38 -0.85
v 2.93 2.89 -0.74
v 3.00 2.60 -0.69
v 3.05 2.86 -0.60
v 3.22 3.26 -0.41
v 3.23 3.38 -0.22
v 2.93 3.79 0.16
v 2.86 3.88 0.19
v -1.26 0.62 -0.68
v -1.35 0.27 -1.00
v -0.85 -0.25 -1.52
v -0.51 -0.74 -1.57
v 0.00 -2.28 -0.75
v -0.22 -2.05 -1.06
v 1.32 0.60 -1.30
v 1.40 0.61 -1.18
v 0.81 1.04 -1.26
v 0.86 1.03 -1.16
v 0.26 1.22 -1.18
v 0.32 1.21 -1.10
v 0.04 1.42 -0.92
v 0.12 1.45 -0.83
v -0.19 1.46 -0.62
v 0.50 -2.01 -0.51
v 0.17 -1.61 -0.92
v 0.28 -2.12 -0.80
v 1.44 -1.68 -1.18
v 1.37 -1.86 -1.22
v 1.57 -1.93 -0.85
v 1.31 -2.24 -0.74
v 1.28 -2.52 -0.79
v 1.28 -2.52 -0.64
v 1.29 -2.03 -0.36
v 0.73 -4.27 -0.93
v 0.96 -4.61 -0.55
v 0.94 -4.58 -1.15
v 0.85 -4.55 -0.70
v 0.94 -4.71 -0.74
v 0.74 -4.55 -0.74
v 0.85 -4.55 -0.99
v 0.73 -4.56 -0.94
v 0.73 -4.22 -0.78
v 1.07 -4.79 -1.09
v 0.92 -4.68 -0.94
v 1.07 -4.77 -0.61
v 1.24 -4.70 -0.61
v 1.33 -4.71 -0.66
v 1.40 -4.69 -0.84
v 1.34 -4.70 -1.02
v 1.22 -4.74 -1.11
v 1.57 -4.95 -0.87
v 1.18 -5.05 -1.08
v 1.18 -5.04 -0.61
v 1.21 -5.32 -0.67
v 1.13 -5.14 -0.98
v 1.17 -4.08 -1.04
v 0.83 -3.81 -1.11
v 0.88 -3.83 -0.61
v 1.27 -3.21 -0.84
v 1.18 -3.19 -1.06
v 0.83 -4.22 -0.71
v 0.67 -3.42 -1.06
v 0.58 -2.59 -1.10
v 1.02 -2.31 -1.30
v 0.44 -2.26 -1.01
v 0.27 -2.10 -1.03
v 0.64 -2.04 -1.29
v 0.62 -2.18 -0.63
v 0.97 -2.06 -1.28
v 0.69 -1.89 -1.41
v 0.66 -2.36 -1.26
v 0.72 -2.54 -1.23
v 1.27 -2.29 -1.19
v 1.36 -2.25 -0.80
v 0.91 -2.07 -0.36
v 1.41 -2.09 -0.88
v 1.25 -2.04 -1.15
v 3.05 2.54 -0.62
v 2.90 2.46 -0.73
v 2.91 2.47 -0.79
v 2.88 2.17 -0.76
v 4.04 3.16 -0.00
v 2.72 1.51 -0.31
v 3.02 3.55 -0.37
v 3.04 3.56 -0.40
v 3.01 3.53 -0.48
v 2.97 3.40 -0.54
v 3.01 3.37 -0.46
v 3.10 3.45 -0.32
v 3.05 3.44 -0.29
v 1.67 3.96 -0.49
v 1.80 3.92 -0.58
v 1.62 3.61 -0.63
v 2.42 4.01 -0.60
v 1.94 4.09 -0.45
v 1.73 4.02 -0.39
v 1.66 4.05 -0.53
v 2.02 4.04 -0.36
v 3.84 3.24 -0.12
v 3.65 3.31 -0.08
v 2.94 3.82 -0.38
v 2.64 1.35 -0.58
v 2.37 1.48 -0.86
v 2.25 1.85 -0.95
v 2.45 1.86 -0.98
v 2.87 2.40 -0.73
v 2.84 2.44 -0.85
v 1.32 -4.33 -0.84
v 1.26 -4.37 -1.06
v 0.26 -2.21 -0.51
v 1.27 -2.05 -0.05
v 1.64 -1.86 -0.27
v 3.21 2.34 -0.45
v 3.27 2.30 -0.45
v 3.48 2.28 -0.29
v 3.63 2.25 -0.27
v 3.76 2.30 0.03
v 3.80 2.27 -0.05
v 3.27 2.08 -0.16
v 3.63 2.08 -0.12
v 3.68 2.14 -0.19
v 3.39 2.20 -0.38
v 3.34 2.15 -0.36
v 2.95 2.00 -0.24
v 2.87 1.81 -0.17
v 2.69 1.32 -0.17
v 2.56 0.95 -0.42
v 2.47 0.59 -0.30
v 2.13 0.43 -0.68
v 2.26 -0.82 -0.45
v 2.04 -1.46 -0.37
v 1.99 -1.42 -0.18
v 2.90 2.46 -0.63
v 3.12 2.40 -0.56
v 3.01 2.45 -0.63
v 3.42 2.35 -0.48
v 3.66 2.37 -0.37
v 3.86 2.51 -0.11
v 3.76 2.41 -0.25
v 3.21 2.70 -0.55
v 3.77 2.47 -0.32
v 3.60 2.65 -0.43
v 3.94 2.79 -0.08
v 3.84 2.74 -0.26
v 3.83 2.86 -0.22
v 3.72 2.94 -0.33
v 3.62 3.06 -0.36
v 3.66 3.26 -0.22
v 3.81 3.16 -0.23
v 1.74 -5.11 -0.60
v 1.64 -5.06 -1.07
v 1.51 -4.94 -1.01
v 2.12 -5.39 -0.78
v 2.01 -5.39 -0.85
v 2.14 -5.24 -0.77
v 1.21 -5.33 -0.99
v 1.77 -5.21 -0.33
v 1.28 -5.23 -0.51
v 1.73 -5.20 -1.35
v 1.37 -5.01 -1.16
v 1.50 -5.23 -1.29
v 1.60 -5.01 -1.12
v 1.99 -5.07 -1.04
v 2.14 -5.24 -0.92
v 2.12 -5.39 -0.91
v 2.13 -5.24 -1.04
v 2.11 -5.39 -1.04
v 2.02 -5.09 -0.94
v 1.59 -5.03 -1.22
v 1.85 -5.39 -1.32
v 1.89 -5.25 -1.31
v 1.91 -5.24 -1.19
v 1.61 -5.00 -0.58
v 1.37 -5.41 -0.50
v 1.36 -5.02 -0.55
v 1.51 -4.94 -0.67
v 2.01 -5.08 -0.66
v 2.11 -5.39 -0.65
v 2.11 -5.24 -0.62
v 2.03 -5.10 -0.76
v 1.64 -5.03 -0.50
v 1.96 -5.24 -0.51
v 1.94 -5.25 -0.39
v 1.93 -5.39 -0.40
v 1.92 -5.39 -0.55
v 1.69 -4.99 -0.78
v 1.89 -5.39 -1.15
v 1.79 -5.10 -1.27
v 1.82 -5.10 -1.18
v 1.63 -5.04 -0.85
v 2.01 -5.23 -1.12
v 1.54 -5.40 -1.31
v 1.26 -5.24 -1.15
v 1.90 -5.22 -0.56
v 1.86 -5.11 -0.52
v 1.83 -5.11 -0.43
v 1.81 -5.39 -0.34
v 1.54 -5.39 -0.37
v 2.02 -5.21 -0.85
v 1.34 -5.41 -1.17
v 1.82 -5.24 -1.13
v 2.76 3.09 -0.78
v 2.87 3.29 -0.71
v 2.24 2.39 -0.92
v 2.00 2.37 -0.99
v 2.39 3.88 -0.64
v 1.88 3.92 -0.49
v 1.48 3.84 -0.62
v 1.37 3.63 -0.72
v 1.50 3.85 -0.75
v 1.38 3.38 -1.13
v 1.47 3.46 -1.13
v 1.59 3.27 -1.30
v 1.69 3.03 -1.40
v 1.75 2.72 -1.31
v 1.67 2.77 -1.30
v 1.77 2.41 -1.18
v 2.17 3.80 -0.76
v 2.37 3.72 -0.79
v 2.22 3.19 -0.97
v 2.34 3.06 -0.97
v 2.27 2.59 -1.07
v 2.20 2.39 -1.05
v 2.11 2.48 -1.10
v 1.38 3.34 -1.08
v 1.60 2.99 -1.31
v 1.65 2.79 -1.20
v 1.71 2.46 -1.14
v 2.18 2.38 -0.99
v 2.25 2.57 -1.00
v 2.32 3.00 -0.92
v 2.34 3.25 -0.86
v 2.36 3.81 -0.70
v 1.85 2.35 -1.08
v 0.50 2.35 -0.24
v 0.51 2.16 -0.54
v 2.83 3.67 -0.52
v 3.90 3.06 -0.14
v 3.90 2.94 -0.11
v 3.89 3.08 -0.26
v 3.79 2.99 -0.27
v 1.16 3.40 -0.29
v 1.10 3.40 -0.15
v 1.29 3.69 -0.17
v 0.71 2.51 -0.51
v 1.46 3.89 -0.17
v 1.52 3.78 -0.50
v 1.36 3.45 -0.52
v 1.11 3.03 -0.43
v 0.89 2.41 -0.72
v 0.67 1.99 -0.91
v 0.91 1.81 -1.10
v 1.27 2.38 -0.88
v 1.47 2.13 -0.94
v 1.67 2.87 -0.77
v 1.56 3.26 -0.70
v 2.10 3.87 -0.60
v 2.21 3.32 -0.77
v 2.07 2.67 -0.87
v 1.58 2.54 -0.83
v 1.39 1.83 -0.98
v 1.90 1.93 -1.14
v 1.78 1.34 -1.23
v 1.42 1.44 -1.14
v 2.07 1.27 -0.96
v 2.16 1.57 -1.00
v 2.31 1.20 -0.92
v 2.46 4.03 -0.40
v 2.50 3.54 -0.68
v 2.55 3.34 -0.75
v 2.50 3.18 -0.76
v 2.86 3.88 -0.17
v 2.58 2.81 -0.93
v 2.61 3.17 -0.79
v 2.62 3.43 -0.75
v 2.71 3.67 -0.60
v 2.79 3.43 -0.66
v 2.67 3.72 -0.58
v 2.66 3.91 -0.44
v 2.94 3.56 -0.56
v 2.92 3.45 -0.65
v 3.07 3.13 -0.54
v 3.08 3.57 -0.37
v 3.00 3.40 -0.55
v 3.08 3.39 -0.49
v 3.11 3.33 -0.53
v 3.16 3.41 -0.27
v 2.98 3.42 -0.62
v 3.02 3.34 -0.60
v 3.81 2.93 -0.24
v 3.89 2.99 -0.25
v 4.04 3.15 -0.09
v 3.99 3.06 -0.13
v 3.98 2.80 -0.02
v 0.20 -1.17 -1.19
v 0.45 -0.66 -1.59
v 0.51 -1.16 -1.62
v 0.13 0.65 -1.58
v -0.02 1.05 -1.34
v 0.63 0.94 -1.42
v -0.70 0.48 -1.25
v 0.22 1.80 -0.50
v 0.47 1.65 -0.90
v 0.34 1.57 -0.95
v 0.54 -2.77 -0.97
v -0.85 1.17 -0.46
v -0.21 1.24 -1.04
v 0.51 0.13 -1.70
v 0.92 -0.59 -1.59
v 0.15 -0.24 -1.69
v -0.19 0.24 -1.66
v -0.24 1.53 -0.35
v 0.25 -1.59 -1.19
v 0.45 1.36 -1.12
v 0.72 1.35 -1.12
v 1.11 1.27 -1.21
v 0.98 1.19 -1.28
v 1.84 1.04 -1.16
v 2.04 0.93 -0.85
v 1.96 0.77 -0.99
v 1.09 -1.66 -1.42
v -0.63 0.91 -1.17
v -0.84 0.65 -1.06
v 1.41 -0.19 -1.49
v 1.01 0.51 -1.48
v -1.35 0.67 -0.34
v 0.76 -1.59 -1.48
v 0.48 -1.58 -1.33
v -0.47 0.70 -1.42
v 1.53 0.88 -1.29
v 0.12 1.84 -0.25
v 2.24 0.85 -0.85
v 3.96 2.92 -0.13
v 3.96 3.08 -0.20
v 3.85 2.97 -0.19
v 3.90 2.92 -0.23
v 2.88 2.42 -0.68
v 3.94 2.74 0.00
v 1.89 0.54 -0.98
v 2.36 1.02 -0.64
v 2.51 1.42 -0.61
v 3.03 3.62 -0.46
v 1.45 2.90 -0.72
v 3.84 2.93 -0.18
v 2.74 3.21 -0.73
v 2.76 2.10 -0.84
v 2.88 2.27 -0.69
v 2.37 2.79 -0.83
v 1.59 0.97 -1.18
v 2.60 1.11 -0.56
v 1.82 2.65 -1.22
v 1.98 2.74 -1.19
v 1.85 2.49 -1.14
v 1.64 3.90 -0.72
v 1.75 3.04 -1.32
v 1.80 3.40 -1.08
v 1.89 3.91 -0.80
v 1.96 2.35 -1.12
v 1.63 3.35 -1.14
v 1.61 3.03 -1.42
v 1.51 3.14 -1.27
v 2.77 3.55 -0.58
v -4.43 -2.98 -0.22
v -4.15 -2.63 -0.46
v -1.62 -4.84 -0.16
v -2.44 -5.01 -0.14
v -3.10 -5.28 -0.12
v -3.66 -5.30 -0.13
v -4.01 -5.00 0.04
v -3.03 -5.04 -0.54
v -2.41 -4.69 -0.67
v -1.60 -3.83 -1.10
v -1.63 -3.39 -1.27
v -2.36 -2.73 -1.32
v -2.85 -2.53 -1.27
v -3.55 -2.53 -1.07
v -4.05 -2.79 -0.86
v -2.19 -4.79 -0.77
v -1.66 -4.28 -1.10
v -1.42 -3.31 -1.49
v -2.89 -2.43 -1.49
v -3.69 -2.66 -1.28
v -4.40 -3.35 -0.91
v -1.79 -3.28 -1.91
v -1.98 -2.91 -1.86
v -3.86 -3.22 -1.48
v -3.86 -3.67 -1.52
v -4.45 -3.85 -0.91
v -4.45 -4.41 -0.52
v -4.48 -3.93 -0.57
v -2.48 -2.50 -1.54
v -2.41 -2.55 -1.74
v -2.48 -2.80 -1.91
v -2.33 -3.27 -1.95
v -2.26 -3.81 -1.93
v -2.46 -4.42 -1.72
v -2.80 -5.10 -1.42
v -3.06 -4.99 -1.49
v -3.17 -4.64 -1.63
v -3.30 -4.04 -1.74
v -3.24 -3.44 -1.80
v -3.39 -3.03 -1.72
v -3.36 -2.61 -1.55
v -3.30 -2.50 -1.40
v -3.19 -2.47 -1.18
v -3.81 -2.65 -0.99
v -4.17 -3.59 -1.29
v -4.03 -4.47 -1.32
v -3.69 -5.27 -1.27
v -1.71 -2.98 -1.75
v -1.77 -2.95 -1.51
v -1.95 -3.02 -1.30
v -1.61 -3.00 -1.16
v -1.35 -3.65 -1.36
v -1.31 -3.68 -1.63
v -1.96 -4.29 -0.87
v -1.54 -4.35 -1.37
v -2.08 -4.92 -1.52
v -2.46 -5.03 -1.54
v -2.40 -4.95 -1.59
v -2.71 -5.01 -1.58
v -3.05 -5.10 -1.38
v -3.43 -5.29 -1.25
v -3.93 -5.38 -1.04
v -1.94 -5.23 -1.76
v -2.07 -5.13 -1.28
v -1.92 -4.97 -1.54
v -1.93 -5.05 -1.75
v -1.89 -5.13 -1.26
v -1.87 -5.38 -1.23
v -1.82 -5.44 -1.39
v -2.01 -4.87 -1.39
v -5.42 -4.66 -0.09
v -4.91 -4.17 -0.18
v -5.18 -4.77 -0.20
v -4.98 -4.92 -0.13
v -8.14 -4.95 -0.00
v -6.07 -4.83 -0.00
v -7.04 -5.39 -0.05
v -6.63 -5.52 -0.00
v -6.67 -5.20 -0.09
v -3.58 -2.31 -0.89
v -0.76 -2.65 -1.03
v -0.72 -3.03 -0.64
v -0.46 -3.02 -0.33
v -0.50 -3.17 -0.00
v -0.98 -2.28 -1.29
v -1.57 -1.74 -1.42
v -1.71 -1.22 -1.33
v -2.29 -1.84 -1.32
v -2.20 -1.11 -1.08
v -2.57 -1.00 -0.79
v -2.68 -0.83 -0.58
v -2.64 -0.66 -0.26
v -1.55 -3.75 -0.92
v -1.70 -4.09 -0.71
v -0.08 -0.39 -1.52
v -0.41 0.04 -1.49
v 0.10 -0.78 -1.37
v -2.08 -5.01 -1.50
v -3.47 -5.40 -1.17
v -2.46 -5.13 -1.13
v -2.11 -5.25 -1.22
v -2.11 -5.36 -1.23
v -4.39 -4.67 -0.94
v -2.02 -5.40 -1.61
v -2.09 -4.68 -0.21
v -1.71 -4.34 -0.10
v -1.77 -4.36 -0.18
v -1.51 -4.89 -0.08
v -2.41 -5.09 -0.03
v -1.61 -4.69 -0.15
v -1.67 -4.62 -0.08
v -2.14 -4.81 -0.14
v -1.53 -4.71 -0.07
v -1.70 -4.64 0.00
v -3.07 -5.13 -0.34
v -0.15 -2.51 -0.59
v -2.40 -5.20 -1.60
v -2.07 -5.09 -1.68
v 2.06 4.08 -0.17
v 1.07 3.40 0.00
v 0.96 3.09 -0.04
v 0.43 2.33 0.01
v -0.30 1.53 0.00
v -1.30 0.81 0.02
v -2.18 -1.08 1.09
v -2.09 -0.01 0.45
v -4.65 -3.48 0.00
v -8.58 -5.01 -0.02
v -0.21 -2.46 0.69
v -0.48 -1.60 1.33
v -0.96 -1.35 1.49
v -1.66 -1.20 1.34
v 0.81 -2.24 0.00
v 1.06 -2.12 0.00
v 2.38 -0.79 0.00
v 2.55 -0.26 0.00
v 2.85 1.43 0.00
v 3.00 1.96 -0.00
v 3.36 2.21 0.00
v 3.04 2.48 0.06
v 3.35 2.49 0.01
v 3.64 2.54 0.00
v 3.93 2.65 -0.00
v 3.00 3.74 -0.00
v -2.41 -4.87 0.41
v -3.57 -5.24 0.51
v -1.82 -4.34 0.53
v -1.35 -3.77 0.53
v -2.12 -4.88 0.94
v -2.86 -5.15 0.73
v -3.46 -5.31 0.71
v -2.79 -2.16 1.20
v -2.92 -2.49 1.69
v -4.40 -4.33 0.23
v -4.52 -3.64 0.52
v -4.33 -3.23 0.67
v -4.45 -3.65 0.60
v -4.40 -4.80 0.55
v -4.23 -5.20 0.61
v -4.03 -4.40 1.35
v -2.33 -3.80 1.94
v -3.69 -5.27 1.26
v -3.93 -4.95 1.26
v -2.51 -4.36 1.76
v -1.65 -3.74 1.84
v -1.39 -3.33 1.74
v -1.40 -4.04 1.54
v -8.72 -5.21 -0.02
v -8.22 -5.37 0.00
v -6.14 -5.15 0.09
v -6.77 -5.42 0.05
v -5.70 -4.70 0.01
v -1.79 -2.92 1.75
v -4.22 -2.70 0.41
v -3.58 -2.30 0.90
v -1.38 -3.31 0.99
v -1.61 -3.01 1.15
v -4.93 -4.00 0.02
v -4.22 -5.12 0.98
v -3.93 -5.38 1.04
v -3.94 -5.38 0.70
v -4.86 -4.05 0.16
v -2.16 -2.53 1.31
v -5.50 -5.22 0.09
v -4.41 -3.38 0.91
v -2.02 -4.76 1.49
v -1.79 -5.08 1.75
v -2.78 -5.09 1.43
v -1.80 -5.26 1.78
v -1.68 -5.12 1.35
v -1.67 -5.41 1.29
v -1.67 -5.27 1.30
v -1.01 -5.40 1.58
v -0.97 -5.40 1.32
v -1.26 -5.41 1.26
v -0.72 -5.40 1.78
v -0.69 -5.25 1.81
v -0.74 -5.26 1.69
v -1.23 -5.25 2.25
v -1.17 -5.25 2.17
v -1.18 -5.40 2.11
v -0.95 -5.07 1.98
v -0.97 -5.09 2.08
v -0.81 -5.26 2.05
v -0.82 -5.40 2.03
v -1.38 -5.11 1.90
v -1.23 -5.11 2.11
v -1.33 -5.09 2.18
v -0.99 -5.20 1.30
v -1.26 -5.09 1.35
v -1.26 -5.27 1.24
v -0.87 -5.40 1.93
v -0.85 -5.26 1.94
v -0.74 -5.25 1.92
v -0.76 -5.40 1.92
v -1.01 -5.17 1.56
v -0.83 -5.07 1.74
v -0.85 -5.25 1.44
v -0.96 -5.11 1.40
v -0.86 -5.40 1.47
v -0.90 -5.25 1.55
v -0.97 -5.11 1.52
v -1.32 -5.10 1.50
v -1.39 -5.21 2.22
v -1.26 -5.40 2.26
v -1.20 -5.20 2.09
v -0.91 -5.25 2.17
v -0.90 -5.40 2.15
v -1.33 -5.00 1.56
v -1.03 -5.12 1.84
v -0.85 -5.09 1.84
v -1.36 -4.99 1.65
v -1.41 -4.99 1.80
v -1.70 -5.00 1.57
v -1.52 -5.40 2.11
v -1.77 -5.42 1.69
v -3.37 -5.29 1.27
v 0.40 -2.29 0.31
v 0.92 -2.11 0.16
v 0.68 -2.19 0.31
v 1.29 -4.27 0.83
v 1.13 -4.49 1.16
v 0.65 -3.65 0.95
v 0.49 -2.31 0.78
v 0.62 -2.20 0.65
v 0.87 -2.68 0.53
v 0.89 -4.09 0.62
v 0.95 -4.58 0.54
v 0.76 -3.88 1.01
v 0.83 -4.25 0.98
v 1.06 -4.07 1.11
v 1.21 -3.78 0.78
v 1.16 -3.77 0.73
v 1.17 -4.20 0.65
v 1.09 -3.72 0.63
v 0.87 -1.18 1.62
v 1.30 -1.28 1.48
v 1.56 -1.37 1.16
v 1.73 -0.72 1.24
v 2.97 3.75 0.42
v 3.03 3.73 0.21
v 2.46 2.32 0.97
v 2.58 2.80 0.93
v 2.73 3.08 0.79
v 1.41 -0.71 1.47
v 1.76 -1.42 0.92
v 1.82 -0.21 1.10
v 1.72 -0.10 1.25
v 1.64 -1.88 0.55
v 1.94 -1.42 0.75
v 2.18 -0.23 0.72
v 2.04 -0.82 0.87
v 2.31 0.35 0.38
v 2.43 -0.27 0.28
v 2.70 1.67 0.74
v 2.78 1.76 0.61
v 2.69 0.86 0.20
v 2.65 1.12 0.15
v 2.73 2.01 0.82
v 2.72 1.86 0.44
v 2.86 2.70 0.80
v 2.84 2.36 0.86
v 2.96 2.62 0.73
v 2.91 2.47 0.79
v 3.05 2.54 0.62
v 3.03 2.73 0.63
v 3.22 3.25 0.41
v 3.13 3.50 0.03
v -1.29 0.73 0.36
v -1.16 0.72 0.66
v -1.72 -0.05 0.97
v -1.18 0.05 1.25
v -0.85 -0.25 1.52
v -0.51 -0.74 1.57
v 0.12 -2.53 0.34
v 0.00 -2.28 0.75
v -0.13 -1.88 1.09
v 1.32 0.60 1.30
v 1.40 0.61 1.18
v 0.81 1.04 1.26
v 0.86 1.03 1.16
v 0.26 1.22 1.18
v 0.32 1.21 1.10
v 0.04 1.42 0.92
v 0.12 1.45 0.83
v 0.50 -2.01 0.51
v 0.17 -1.61 0.92
v 0.28 -2.12 0.80
v 1.44 -1.68 1.18
v 1.37 -1.86 1.22
v 1.57 -1.92 0.85
v 1.31 -2.25 0.75
v 1.29 -2.49 0.65
v 1.22 -3.25 0.79
v 1.22 -2.14 0.49
v 1.29 -2.03 0.36
v 0.94 -4.71 0.75
v 0.95 -4.58 1.15
v 0.74 -4.56 0.94
v 0.89 -4.66 0.91
v 0.74 -4.26 0.93
v 0.85 -4.55 0.98
v 0.84 -4.25 0.71
v 0.85 -4.55 0.70
v 0.73 -4.56 0.75
v 0.72 -4.14 0.78
v 1.07 -4.78 1.09
v 1.05 -4.91 0.96
v 1.07 -4.76 0.61
v 1.25 -4.75 0.61
v 1.32 -4.71 0.66
v 1.35 -4.71 1.01
v 1.22 -4.72 1.11
v 1.56 -4.94 0.84
v 1.18 -5.05 1.08
v 1.18 -5.04 0.61
v 1.20 -5.31 0.67
v 1.17 -4.07 1.04
v 0.90 -4.17 1.10
v 1.33 -2.57 0.84
v 1.17 -3.17 1.07
v 0.79 -3.80 0.68
v 0.67 -3.42 1.06
v 0.57 -2.60 1.09
v 0.77 -3.24 1.17
v 0.98 -3.32 1.16
v 0.54 -2.29 1.18
v 0.27 -2.10 1.03
v 0.97 -2.06 1.27
v 0.70 -2.05 1.30
v 0.69 -1.89 1.41
v 1.06 -1.80 1.39
v 0.53 -1.99 1.25
v 0.70 -2.36 1.26
v 1.01 -2.27 1.31
v 1.27 -2.30 1.18
v 0.91 -2.07 0.36
v 0.88 -2.18 0.48
v 1.37 -2.18 0.81
v 1.25 -2.04 1.15
v 2.90 2.46 0.74
v 2.90 2.22 0.74
v 2.75 1.24 0.03
v 3.03 3.53 0.35
v 3.02 3.55 0.46
v 2.99 3.54 0.44
v 2.97 3.40 0.54
v 3.00 3.37 0.46
v 3.05 3.44 0.29
v 1.51 3.77 0.49
v 1.67 3.96 0.49
v 1.80 3.92 0.58
v 2.43 4.00 0.49
v 1.72 4.01 0.39
v 1.67 4.05 0.52
v 1.88 4.08 0.46
v 3.09 3.61 0.26
v 3.17 3.46 -0.00
v 2.94 3.81 0.37
v 2.64 1.35 0.58
v 2.38 1.50 0.87
v 2.45 1.86 0.98
v 2.89 2.47 0.71
v 2.67 2.46 0.84
v 1.18 -4.43 0.57
v 1.38 -4.64 0.84
v 1.26 -4.37 1.06
v 0.26 -2.21 0.51
v 1.64 -1.85 0.00
v 2.88 2.41 0.73
v 3.09 2.37 0.56
v 3.34 2.29 0.36
v 3.33 2.27 0.42
v 3.74 2.27 0.18
v 3.28 2.06 0.11
v 3.63 2.08 0.12
v 3.34 2.14 0.34
v 3.64 2.15 0.23
v 3.73 2.12 0.04
v 3.39 2.19 0.38
v 2.84 2.16 0.62
v 2.88 2.28 0.69
v 2.94 2.00 0.25
v 2.92 1.77 0.02
v 2.73 1.55 0.32
v 2.68 1.33 0.17
v 2.69 1.36 0.37
v 2.56 0.95 0.42
v 2.45 0.62 0.36
v 2.34 0.93 0.60
v 2.33 -0.77 0.29
v 2.13 0.44 0.70
v 2.04 -1.46 0.37
v 1.99 -1.42 0.18
v 3.02 2.44 0.62
v 3.46 2.36 0.48
v 3.36 2.35 0.46
v 3.67 2.37 0.37
v 3.74 2.40 0.26
v 3.81 2.67 0.30
v 3.24 2.73 0.53
v 3.60 2.69 0.42
v 3.81 2.49 0.27
v 3.78 2.98 0.27
v 3.81 2.93 0.24
v 3.60 3.08 0.37
v 3.84 3.24 0.12
v 3.64 3.25 0.23
v 1.74 -5.11 0.60
v 1.51 -4.95 1.01
v 2.12 -5.39 0.78
v 2.01 -5.39 0.85
v 2.14 -5.24 0.77
v 1.21 -5.33 0.99
v 1.79 -5.21 0.33
v 1.29 -5.24 0.50
v 1.71 -5.19 1.35
v 1.37 -5.01 1.16
v 1.50 -5.23 1.29
v 1.60 -5.01 1.12
v 2.01 -5.08 1.04
v 2.14 -5.24 0.92
v 2.12 -5.39 0.91
v 2.13 -5.24 1.04
v 2.11 -5.39 1.05
v 2.03 -5.10 0.93
v 1.59 -5.03 1.22
v 1.85 -5.39 1.33
v 1.89 -5.25 1.31
v 1.91 -5.24 1.19
v 1.69 -4.99 0.92
v 1.62 -5.00 0.59
v 1.37 -5.41 0.50
v 1.37 -5.02 0.55
v 1.52 -4.94 0.67
v 2.00 -5.08 0.66
v 2.11 -5.39 0.66
v 2.12 -5.24 0.62
v 2.02 -5.09 0.76
v 1.62 -5.02 0.50
v 1.94 -5.25 0.39
v 1.95 -5.39 0.51
v 1.88 -5.39 1.15
v 1.79 -5.10 1.27
v 1.82 -5.10 1.18
v 1.63 -5.04 0.85
v 2.00 -5.23 1.12
v 1.85 -5.24 1.13
v 1.54 -5.40 1.31
v 1.25 -5.24 1.14
v 1.90 -5.22 0.56
v 1.95 -5.20 0.51
v 1.83 -5.11 0.43
v 1.89 -5.39 0.36
v 1.55 -5.39 0.37
v 1.89 -5.39 0.58
v 2.02 -5.21 0.85
v 1.34 -5.41 1.17
v 1.67 -5.10 1.09
v 2.73 3.19 0.74
v -0.20 1.23 1.05
v 2.25 1.86 0.95
v 2.00 2.37 0.99
v 1.88 3.92 0.49
v 1.48 3.84 0.60
v 1.37 3.63 0.72
v 1.51 3.88 0.73
v 1.39 3.39 1.14
v 1.46 3.47 1.12
v 1.69 3.03 1.40
v 1.61 3.02 1.42
v 1.67 2.76 1.29
v 1.75 2.72 1.30
v 1.78 2.41 1.18
v 2.42 4.01 0.60
v 2.36 3.73 0.77
v 2.18 3.62 0.83
v 2.35 3.25 0.93
v 2.22 3.18 0.97
v 2.30 2.67 1.05
v 2.11 2.48 1.10
v 2.21 2.40 1.05
v 1.38 3.34 1.09
v 1.59 2.99 1.31
v 1.65 2.79 1.20
v 1.72 2.42 1.13
v 2.19 2.40 0.99
v 1.99 2.34 1.04
v 2.27 2.60 1.00
v 2.32 3.07 0.88
v 2.34 3.25 0.86
v 2.36 3.80 0.70
v 0.52 2.30 0.39
v 0.23 1.80 0.50
v 0.13 1.84 0.28
v 2.85 3.71 0.48
v 3.89 3.06 0.15
v 3.96 3.23 0.11
v 3.89 3.09 0.26
v 3.81 3.16 0.23
v 3.89 2.99 0.25
v 1.12 3.39 0.23
v 1.26 3.65 0.19
v 0.66 2.60 0.26
v 0.76 2.60 0.47
v 1.46 3.89 0.16
v 1.36 3.44 0.52
v 0.91 2.48 0.69
v 0.68 2.02 0.89
v 0.88 1.71 1.12
v 1.13 2.14 0.97
v 1.39 1.85 0.98
v 1.37 1.47 1.13
v 1.46 2.86 0.73
v 1.58 2.53 0.83
v 1.55 3.21 0.71
v 1.69 2.84 0.78
v 1.66 3.65 0.63
v 2.12 3.87 0.60
v 2.00 4.05 0.36
v 2.21 3.31 0.77
v 1.46 2.17 0.93
v 1.85 1.76 1.18
v 1.78 1.34 1.23
v 2.07 1.27 0.96
v 2.31 1.20 0.92
v 2.39 3.89 0.63
v 2.49 3.52 0.69
v 2.55 3.32 0.75
v 2.60 3.80 0.59
v 2.66 3.69 0.58
v 2.19 2.21 0.94
v 2.48 3.04 0.76
v 2.60 3.17 0.78
v 2.61 3.37 0.78
v 2.72 3.88 0.43
v 2.78 3.42 0.67
v 2.74 2.81 0.80
v 2.58 2.12 0.84
v 2.56 1.76 0.79
v 2.93 2.97 0.74
v 3.03 3.09 0.57
v 3.13 3.30 0.51
v 3.00 3.40 0.55
v 3.08 3.39 0.50
v 3.10 3.45 0.32
v 3.18 3.41 0.22
v 3.13 3.47 0.24
v 3.06 3.55 0.37
v 2.98 3.55 0.55
v 2.92 3.46 0.65
v 2.99 3.44 0.61
v 2.93 3.37 0.66
v 2.87 3.30 0.71
v 3.96 2.92 0.13
v 3.83 2.86 0.22
v 3.91 2.92 0.23
v 3.96 3.08 0.20
v 4.04 3.14 0.09
v 3.98 2.83 0.06
v 3.94 2.80 0.09
v 4.03 3.02 -0.00
v 0.20 -1.17 1.19
v 0.45 -0.66 1.59
v 0.51 -1.16 1.62
v 0.13 0.65 1.58
v 0.01 1.08 1.32
v 0.63 0.94 1.42
v -0.17 1.47 0.64
v 0.47 1.65 0.90
v 0.34 1.57 0.95
v 0.45 -2.28 1.01
v -0.87 1.17 0.43
v 0.51 0.13 1.70
v 0.92 -0.59 1.59
v 0.15 -0.24 1.69
v -0.19 0.24 1.66
v 0.25 -1.59 1.19
v 0.45 1.36 1.12
v 0.72 1.35 1.12
v 1.11 1.27 1.21
v 0.98 1.19 1.28
v 1.84 1.04 1.16
v 2.04 0.92 0.85
v 1.96 0.77 0.99
v -0.63 0.91 1.17
v -0.78 0.59 1.15
v 1.41 -0.19 1.49
v 1.01 0.51 1.48
v 0.76 -1.59 1.48
v 0.48 -1.58 1.33
v -0.47 0.70 1.42
v 1.53 0.88 1.29
v 1.59 0.97 1.18
v -0.23 1.53 0.37
v 2.23 0.83 0.85
v 3.90 2.95 0.11
v 3.99 3.06 0.13
v 3.84 2.93 0.18
v 1.89 0.54 0.98
v 2.41 1.19 0.65
v 2.51 1.42 0.61
v 3.08 3.60 0.37
v 1.16 3.00 0.49
v 2.07 2.75 0.84
v 1.04 3.07 0.30
v 3.85 2.97 0.19
v 3.86 2.51 0.11
v 2.31 2.55 0.89
v 2.60 1.11 0.56
v 1.98 2.65 1.19
v 1.85 2.49 1.14
v 1.89 3.91 0.79
v 1.64 3.90 0.72
v 1.82 2.65 1.22
v 1.75 3.04 1.32
v 1.66 3.30 1.19
v 1.56 3.44 1.06
v 1.98 2.34 1.11
v 1.59 3.28 1.30
v 1.51 3.14 1.27
v 2.78 3.55 0.58
v 2.70 3.66 0.61
v -3.85 -2.12 0.25
v -4.29 -2.73 0.23
v -1.62 -4.84 0.16
v -2.52 -5.04 0.13
v -3.10 -5.28 0.12
v -3.66 -5.30 0.13
v -3.03 -5.04 0.54
v -2.40 -4.68 0.67
v -1.97 -4.30 0.87
v -1.62 -3.39 1.27
v -2.36 -2.74 1.33
v -2.81 -2.53 1.27
v -3.55 -2.53 1.07
v -4.06 -2.80 0.85
v -2.19 -4.79 0.77
v -1.35 -3.65 1.36
v -1.42 -3.31 1.49
v -2.49 -2.50 1.53
v -2.89 -2.43 1.49
v -3.69 -2.66 1.28
v -1.79 -3.28 1.91
v -1.98 -2.91 1.86
v -2.88 -2.86 1.84
v -3.86 -3.22 1.48
v -3.86 -3.67 1.52
v -4.44 -3.89 0.92
v -4.45 -4.41 0.52
v -4.37 -3.84 0.36
v -2.48 -2.54 1.75
v -2.41 -2.82 1.92
v -2.43 -3.21 1.95
v -2.69 -4.85 1.56
v -3.06 -4.99 1.49
v -3.17 -4.64 1.63
v -3.30 -4.04 1.74
v -3.37 -3.47 1.76
v -3.39 -3.03 1.72
v -3.36 -2.61 1.55
v -3.30 -2.50 1.40
v -3.19 -2.47 1.18
v -3.81 -2.65 0.99
v -4.22 -3.08 0.88
v -3.78 -2.84 1.39
v -4.20 -3.57 1.26
v -1.77 -2.95 1.51
v -1.93 -3.03 1.30
v -1.87 -2.76 1.23
v -1.60 -3.82 1.10
v -1.31 -3.68 1.63
v -1.54 -4.35 1.38
v -1.61 -4.21 1.13
v -1.80 -4.53 1.58
v -4.40 -4.58 0.37
v -4.12 -4.95 0.37
v -2.02 -4.86 1.51
v -2.46 -5.03 1.54
v -2.40 -4.95 1.59
v -2.71 -5.01 1.58
v -3.06 -5.10 1.39
v -3.45 -5.40 1.17
v -1.94 -5.23 1.77
v -2.07 -5.13 1.28
v -1.99 -4.99 1.53
v -1.93 -5.05 1.75
v -1.86 -5.12 1.27
v -1.74 -5.45 1.39
v -2.98 -5.12 0.93
v -5.21 -4.35 -0.00
v -5.22 -4.50 0.11
v -5.27 -4.84 0.19
v -4.76 -4.22 0.32
v -4.94 -5.00 0.00
v -4.95 -4.90 0.13
v -8.12 -5.12 0.05
v -4.14 -2.46 -0.15
v -3.69 -2.02 0.52
v -0.93 -2.80 1.03
v -0.62 -2.91 0.68
v -0.49 -3.05 0.34
v -1.00 -2.31 1.29
v -1.75 -1.93 1.38
v -2.29 -1.84 1.32
v -2.45 -0.88 0.82
v -2.67 -0.79 0.54
v -2.61 -0.64 0.29
v -3.11 -1.19 0.21
v -1.54 -3.59 1.02
v -1.58 -3.85 0.82
v -0.08 -0.38 1.52
v -0.41 0.04 1.49
v 0.11 -0.78 1.37
v -2.18 -5.00 1.44
v -2.40 -5.20 1.60
v -2.07 -5.40 1.60
v -2.46 -5.13 1.13
v -2.11 -5.23 1.23
v -3.31 -5.41 1.05
v -3.19 -5.26 0.91
v -4.39 -4.68 0.94
v -2.03 -5.38 1.23
v -1.58 -4.89 0.00
v -2.38 -4.92 0.25
v -1.71 -4.34 0.10
v -1.77 -4.36 0.18
v -1.51 -4.89 0.08
v -2.33 -5.08 0.04
v -1.61 -4.69 0.15
v -1.67 -4.62 0.08
v -2.13 -4.80 0.14
v -1.53 -4.71 0.07
v -1.60 -4.72 0.00
v -3.07 -5.13 0.34
v -0.13 -2.72 0.29
v -2.07 -5.09 1.68
v 2.74 3.51 -0.56
v 2.80 3.33 -0.58
v 2.87 3.43 -0.60
v 2.84 3.54 -0.58
v 2.97 3.55 -0.54
v 3.05 3.49 -0.50
v 2.74 3.62 -0.44
v 2.83 3.62 -0.51
v 2.85 3.66 -0.40
v 3.00 3.61 -0.35
v 2.80 3.60 -0.23
v 2.88 3.64 -0.30
v 3.04 3.57 -0.41
v 2.92 3.58 -0.22
v 2.89 3.41 -0.15
v 2.97 3.48 -0.19
v 2.99 3.38 -0.21
v 3.06 3.47 -0.29
v 2.91 3.23 -0.29
v 3.00 3.29 -0.29
v 3.02 3.28 -0.43
v 3.09 3.43 -0.39
v 2.86 3.23 -0.47
v 2.96 3.27 -0.49
v 2.94 3.35 -0.57
v 3.03 3.56 0.47
v 3.08 3.47 0.38
v 2.79 3.35 0.58
v 2.87 3.43 0.60
v 2.90 3.52 0.59
v 2.73 3.57 0.52
v 2.83 3.62 0.51
v 2.89 3.66 0.44
v 2.77 3.64 0.31
v 2.88 3.65 0.30
v 3.01 3.60 0.33
v 2.83 3.55 0.19
v 2.92 3.58 0.22
v 2.89 3.38 0.16
v 2.97 3.48 0.19
v 3.03 3.43 0.22
v 2.91 3.22 0.32
v 3.00 3.29 0.28
v 3.04 3.29 0.37
v 2.86 3.23 0.47
v 2.96 3.27 0.49
v 2.91 3.33 0.57
v 3.03 3.38 0.51
v 3.05 3.47 0.49
v 3.69 2.34 -0.20
v 3.67 2.34 -0.22
v 3.65 2.35 -0.21
v 3.63 2.28 -0.19
v 3.64 2.27 -0.20
v 3.66 2.27 -0.17
v 3.67 2.35 -0.19
v 3.69 2.31 -0.12
v 3.68 2.31 -0.16
v 3.66 2.28 -0.15
v 3.68 2.27 -0.16
v 3.69 2.27 -0.13
v 3.67 2.28 -0.12
v 3.70 2.31 -0.07
v 3.72 2.31 -0.08
v 3.70 2.31 -0.11
v 3.68 2.28 -0.10
v 3.70 2.27 -0.11
v 3.70 2.28 -0.06
v 3.73 2.30 -0.01
v 3.71 2.31 -0.05
v 3.69 2.28 -0.05
v 3.71 2.27 -0.05
v 3.71 2.27 -0.00
v 3.70 2.31 -0.01
v 3.67 2.35 0.19
v 3.69 2.34 0.20
v 3.65 2.35 0.21
v 3.67 2.34 0.23
v 3.63 2.28 0.19
v 3.65 2.27 0.20
v 3.67 2.27 0.18
v 3.65 2.28 0.16
v 3.68 2.31 0.12
v 3.70 2.31 0.13
v 3.69 2.31 0.16
v 3.67 2.31 0.15
v 3.66 2.28 0.16
v 3.68 2.28 0.11
v 3.70 2.32 0.07
v 3.72 2.31 0.08
v 3.71 2.31 0.11
v 3.69 2.31 0.10
v 3.69 2.27 0.11
v 3.70 2.28 0.06
v 3.72 2.31 0.01
v 3.71 2.31 0.05
v 3.69 2.28 0.05
v 3.71 2.27 0.05
v 3.72 2.27 0.01
v 3.69 2.28 0.01
v 3.24 2.35 -0.24
v 3.11 2.30 -0.25
v 3.62 2.32 -0.17
v 2.60 2.50 -0.29
v 2.61 2.43 -0.24
v 2.59 2.45 -0.29
v 3.00 2.37 -0.26
v 3.74 2.30 -0.10
v 3.68 2.35 -0.15
v 2.38 2.51 -0.22
v 2.44 2.53 -0.31
v 2.44 2.47 -0.30
v 3.81 2.34 -0.01
v 3.81 2.32 0.00
v 2.43 2.55 -0.01
v 2.62 2.53 -0.05
v 3.14 2.39 -0.05
v 3.65 2.38 -0.03
v 2.83 2.38 -0.00
v 3.08 2.32 -0.00
v 2.59 2.46 -0.01
v 2.39 2.50 0.00
v 3.13 2.39 0.05
v 2.62 2.53 0.05
v 2.38 2.55 0.08
v 2.44 2.47 0.31
v 2.38 2.52 0.22
v 2.38 2.54 -0.08
v 3.81 2.34 0.02
v 3.70 2.31 0.14
v 3.03 2.30 0.21
v 2.98 2.37 0.26
v 2.59 2.45 0.29
v 2.44 2.53 0.31
v 2.61 2.52 0.23
v 2.61 2.51 0.00
v 3.66 2.36 0.01
v 3.65 2.35 0.15
v 3.62 2.34 0.00
v 3.14 2.37 0.00
v 3.49 2.33 0.21
v 3.05 2.38 0.21
v 3.02 2.32 0.26
v 1.81 -5.26 -1.23
v 1.80 -5.31 -1.23
v 1.80 -5.26 -1.27
v 1.80 -5.31 -1.27
v 1.96 -5.27 -1.26
v 1.96 -5.32 -1.27
v 1.95 -5.32 -1.30
v 1.95 -5.27 -1.30
v 2.03 -5.31 -0.99
v 2.04 -5.26 -1.00
v 2.03 -5.31 -0.95
v 2.04 -5.26 -0.96
v 2.19 -5.33 -0.99
v 2.19 -5.28 -1.00
v 2.19 -5.33 -0.96
v 2.20 -5.28 -0.96
v 2.04 -5.26 -0.70
v 2.03 -5.31 -0.71
v 2.04 -5.26 -0.74
v 2.04 -5.31 -0.75
v 2.19 -5.28 -0.70
v 2.19 -5.33 -0.71
v 2.19 -5.33 -0.74
v 2.19 -5.28 -0.74
v 1.86 -5.31 -0.47
v 1.86 -5.26 -0.47
v 1.85 -5.31 -0.44
v 1.86 -5.26 -0.43
v 2.01 -5.32 -0.44
v 2.01 -5.28 -0.44
v 2.00 -5.32 -0.40
v 2.00 -5.28 -0.40
v 1.81 -5.26 1.23
v 1.81 -5.31 1.23
v 1.80 -5.26 1.27
v 1.80 -5.31 1.27
v 1.96 -5.27 1.26
v 1.96 -5.32 1.27
v 1.95 -5.27 1.30
v 1.95 -5.32 1.30
v 2.03 -5.31 0.99
v 2.04 -5.26 1.00
v 2.03 -5.31 0.95
v 2.04 -5.26 0.96
v 2.19 -5.33 0.99
v 2.20 -5.28 1.00
v 2.19 -5.33 0.96
v 2.20 -5.28 0.96
v 2.04 -5.26 0.70
v 2.03 -5.31 0.71
v 2.04 -5.26 0.74
v 2.03 -5.31 0.75
v 2.19 -5.28 0.70
v 2.19 -5.33 0.71
v 2.19 -5.28 0.74
v 2.19 -5.33 0.74
v 1.85 -5.31 0.47
v 1.86 -5.26 0.47
v 1.85 -5.31 0.43
v 1.85 -5.26 0.43
v 2.01 -5.32 0.44
v 2.01 -5.27 0.44
v 2.00 -5.32 0.40
v 2.00 -5.28 0.40
v -1.15 -5.31 -2.26
v -1.13 -5.31 -2.23
v -1.12 -5.26 -2.23
v -1.14 -5.26 -2.27
v -1.27 -5.25 -2.19
v -1.28 -5.30 -2.18
v -1.26 -5.30 -2.15
v -1.25 -5.25 -2.15
v -0.76 -5.26 -2.13
v -0.75 -5.27 -2.10
v -0.76 -5.31 -2.12
v -0.75 -5.32 -2.09
v -0.90 -5.30 -2.03
v -0.90 -5.25 -2.04
v -0.91 -5.25 -2.08
v -0.91 -5.30 -2.06
v -0.63 -5.31 -1.89
v -0.61 -5.31 -1.85
v -0.61 -5.26 -1.84
v -0.62 -5.26 -1.88
v -0.76 -5.25 -1.83
v -0.77 -5.30 -1.83
v -0.76 -5.30 -1.80
v -0.75 -5.24 -1.79
v -0.79 -5.26 -1.47
v -0.79 -5.26 -1.43
v -0.80 -5.31 -1.47
v -0.79 -5.31 -1.44
v -0.94 -5.30 -1.41
v -0.94 -5.24 -1.41
v -0.94 -5.25 -1.45
v -0.95 -5.30 -1.45
v -1.15 -5.31 2.26
v -1.13 -5.31 2.23
v -1.12 -5.26 2.23
v -1.15 -5.26 2.27
v -1.27 -5.25 2.18
v -1.28 -5.30 2.18
v -1.26 -5.30 2.15
v -1.25 -5.25 2.15
v -0.75 -5.27 2.10
v -0.76 -5.27 2.13
v -0.76 -5.31 2.12
v -0.75 -5.31 2.09
v -0.90 -5.30 2.03
v -0.89 -5.25 2.04
v -0.91 -5.25 2.07
v -0.91 -5.30 2.07
v -0.62 -5.31 1.88
v -0.61 -5.31 1.85
v -0.61 -5.26 1.84
v -0.62 -5.26 1.88
v -0.76 -5.24 1.83
v -0.77 -5.30 1.84
v -0.76 -5.30 1.80
v -0.75 -5.24 1.79
v -0.79 -5.26 1.43
v -0.80 -5.26 1.47
v -0.80 -5.31 1.47
v -0.79 -5.31 1.44
v -0.95 -5.30 1.41
v -0.94 -5.25 1.41
v -0.95 -5.24 1.45
v -0.95 -5.30 1.45
f 1233 1266 1263
f 1269 1267 1271
f 1270 1197 1198
f 1266 1233 1267
f 820 821 1261
f 1259 675 676
f 1259 676 704
f 1259 704 1258
f 680 711 1253
f 620 1257 1256
f 653 1253 660
f 1252 1218 1251
f 1251 705 1248
f 1172 1173 702
f 1172 702 1247
f 703 1247 1185
f 699 697 606
f 1242 1241 1244
f 1240 1241 1242
f 1238 677 1263
f 1285 716 1264
f 1267 1238 1266
f 1229 1204 1230
f 1229 1203 1204
f 1199 683 1242
f 1223 692 1203
f 1218 1252 711
f 1230 690 1231
f 1213 713 1214
f 688 1270 707
f 688 707 691
f 1209 1191 1214
f 1209 1210 1191
f 1207 1208 1195
f 1207 1195 1196
f 1206 688 691
f 1206 691 1205
f 1230 1204 690
f 1189 1190 681
f 1189 681 1200
f 1201 1193 1200
f 1193 701 1200
f 1207 1206 689
f 1207 689 1202
f 693 1220 694
f 694 1192 693
f 1209 1208 1194
f 1209 1194 681
f 1197 713 685
f 678 1179 1186
f 678 1178 1179
f 1190 1183 1211
f 1211 1210 1190
f 1213 1185 684
f 1247 653 1254
f 1247 703 653
f 655 702 1173
f 655 706 702
f 1256 1255 654
f 907 1084 1079
f 907 1079 1044
f 893 1097 1098
f 1097 1151 1098
f 1077 1076 1069
f 1098 1099 1100
f 1170 1085 1099
f 1170 1099 1098
f 1171 1085 1170
f 1171 1083 1085
f 1165 1164 1027
f 1168 1018 1165
f 1169 1032 1019
f 1169 1039 1038
f 1169 1031 1039
f 1168 1016 1019
f 1015 1166 1162
f 1021 1164 1018
f 1021 1163 1164
f 1022 1160 1163
f 1022 1163 1021
f 1167 1022 1034
f 1167 1034 1036
f 1167 1029 1159
f 1025 1024 1161
f 1027 1025 1161
f 1027 1161 1165
f 1027 1164 1159
f 1029 1027 1159
f 1023 904 1161
f 1161 1024 1023
f 1017 1168 1166
f 1163 1160 1159
f 904 901 1068
f 410 1051 1054
f 648 1050 1051
f 649 1154 1050
f 650 1052 649
f 3 1043 1041
f 3 1041 650
f 3 1143 1043
f 4 1121 1143
f 4 1143 651
f 1140 1134 1135
f 1127 1119 833
f 1127 833 831
f 1059 1057 1058
f 1059 1056 1057
f 1062 1152 1056
f 1064 1055 1152
f 1066 898 1055
f 1066 1055 1064
f 1148 1142 1141
f 1141 827 1148
f 1133 940 1132
f 1142 1133 1131
f 1073 1071 1072
f 1073 909 1071
f 1088 910 909
f 1088 909 1150
f 1144 938 1149
f 1144 1149 1074
f 912 809 1086
f 1086 1089 792
f 1090 1102 1089
f 1153 1069 1065
f 1082 1083 1081
f 1083 1077 1081
f 1102 1085 1008
f 1092 1100 1101
f 1094 1096 1151
f 1082 1081 791
f 791 792 1082
f 1118 1057 1042
f 1131 1072 1142
f 1072 1061 1142
f 1144 1073 1132
f 1144 1074 1073
f 833 1119 1117
f 827 1141 1130
f 1130 829 827
f 1144 1132 940
f 1065 1063 1153
f 790 1157 1080
f 1153 1063 1011
f 1154 1053 1056
f 1154 1056 1152
f 788 1151 905
f 1098 1100 893
f 1100 1092 893
f 1148 795 799
f 1148 799 940
f 800 796 787
f 1067 1075 1012
f 899 903 902
f 902 898 899
f 1054 902 2
f 1138 879 880
f 883 884 888
f 883 888 877
f 1261 1125 1140
f 1261 1140 1135
f 1123 784 785
f 1123 785 793
f 837 785 880
f 837 786 785
f 1121 1134 1009
f 881 879 1138
f 1138 1139 881
f 773 886 774
f 1112 1124 1260
f 1112 1260 1262
f 1114 1122 1137
f 1114 1137 1116
f 821 822 1260
f 821 1260 1261
f 1123 1112 1113
f 1123 1113 784
f 1121 817 818
f 886 843 774
f 1126 876 881
f 1126 881 1139
f 1122 1136 1137
f 1122 1123 1136
f 1136 796 826
f 1136 826 1137
f 1111 1262 658
f 1111 658 825
f 916 834 835
f 1132 1131 1133
f 884 869 868
f 835 836 876
f 876 1126 835
f 1121 1117 1143
f 828 830 1116
f 830 1115 1116
f 1117 1121 1009
f 1042 1117 1119
f 1042 1119 1118
f 1115 1114 1116
f 1091 815 1095
f 1101 1102 1091
f 1101 1091 1093
f 1099 1101 1100
f 1096 1093 1091
f 1096 1091 1095
f 1094 896 1093
f 1092 1093 896
f 1102 1090 1091
f 1088 1087 910
f 1087 790 910
f 791 790 912
f 791 912 1086
f 788 1044 1098
f 1084 1078 1079
f 1076 1077 1083
f 1080 1010 910
f 1080 910 790
f 901 1075 1078
f 901 1078 1084
f 1075 1069 1076
f 901 1 1068
f 1067 1069 1075
f 1072 1071 1061
f 1071 1060 1061
f 1063 1070 1071
f 1063 1071 1011
f 1066 1069 1067
f 1060 1070 1059
f 1041 1042 1057
f 1051 1050 1055
f 1051 1055 898
f 2 902 1068
f 894 895 897
f 894 897 892
f 895 896 897
f 1041 1043 1042
f 903 899 1013
f 1013 1015 903
f 1040 1039 1014
f 1039 1031 1014
f 1034 1035 1036
f 1075 1023 1040
f 1023 1024 1040
f 1040 1024 1026
f 1040 1026 1039
f 1038 1026 1028
f 1038 1028 1037
f 1037 1030 1035
f 1037 1028 1030
f 1034 1020 1033
f 1031 1016 1014
f 1029 1030 1028
f 1026 1027 1028
f 1024 1025 1027
f 1024 1027 1026
f 1016 1017 1015
f 1015 1014 1016
f 1075 1040 1013
f 1075 1013 1012
f 1013 899 1012
f 1009 832 1117
f 837 839 794
f 794 786 837
f 1010 909 910
f 907 173 174
f 174 173 438
f 789 816 672
f 902 904 1068
f 1023 901 904
f 899 898 1066
f 899 1066 900
f 896 1094 897
f 893 1092 895
f 893 895 894
f 886 773 834
f 886 834 885
f 877 888 838
f 877 838 880
f 843 839 887
f 843 886 885
f 843 885 844
f 882 875 872
f 878 877 880
f 878 880 879
f 772 1120 876
f 772 876 836
f 777 871 771
f 869 866 780
f 866 869 874
f 866 874 779
f 872 871 873
f 781 842 780
f 843 844 797
f 797 839 843
f 843 840 841
f 841 781 783
f 781 841 842
f 839 837 838
f 1117 832 833
f 830 828 829
f 830 829 831
f 826 796 827
f 796 795 827
f 658 822 659
f 657 824 825
f 819 653 820
f 654 818 817
f 804 807 803
f 796 800 795
f 792 791 1086
f 790 1087 912
f 816 905 1096
f 766 661 768
f 766 18 661
f 683 710 1242
f 683 706 710
f 1195 1215 1196
f 706 1239 710
f 1239 1240 710
f 1241 712 1244
f 1247 1254 1255
f 676 1250 1249
f 9 696 55
f 696 9 697
f 1241 1240 700
f 57 656 603
f 1186 677 678
f 703 680 1253
f 703 1253 653
f 710 1240 1242
f 1173 529 655
f 1259 1219 1180
f 705 704 1248
f 1180 1179 673
f 673 675 1180
f 529 1173 1246
f 698 699 712
f 1244 1243 11
f 1244 11 682
f 1242 682 1199
f 1204 1203 692
f 1204 692 1205
f 683 1199 685
f 685 684 683
f 680 1184 1211
f 1211 1183 680
f 1249 657 825
f 1249 825 1248
f 1249 1250 1284
f 1249 1284 657
f 1256 654 5
f 1256 5 620
f 819 654 1255
f 819 1255 1254
f 673 1179 1178
f 1178 1283 673
f 659 822 821
f 659 821 660
f 545 544 29
f 44 556 555
f 625 463 461
f 621 28 622
f 539 61 621
f 539 579 61
f 616 614 67
f 616 67 36
f 614 616 615
f 542 543 608
f 1239 600 599
f 31 29 30
f 628 31 629
f 588 564 587
f 564 49 587
f 54 41 44
f 49 562 53
f 579 67 614
f 579 614 613
f 576 558 557
f 627 575 589
f 48 64 631
f 48 631 574
f 37 548 570
f 37 570 569
f 553 552 568
f 553 568 567
f 565 48 574
f 565 574 566
f 589 575 564
f 589 564 588
f 558 38 547
f 558 547 557
f 561 47 567
f 561 567 560
f 558 551 559
f 567 47 566
f 51 50 550
f 51 581 50
f 38 559 568
f 38 568 569
f 556 43 549
f 556 549 554
f 544 537 536
f 545 538 582
f 571 547 570
f 571 541 547
f 42 543 549
f 530 543 42
f 618 608 62
f 618 617 608
f 529 63 655
f 5 8 619
f 5 619 620
f 442 435 444
f 403 444 445
f 403 445 267
f 144 449 508
f 508 251 252
f 508 454 447
f 508 447 446
f 446 447 443
f 446 443 528
f 528 443 442
f 443 441 442
f 442 403 528
f 525 521 379
f 526 392 527
f 397 398 527
f 398 391 527
f 526 377 378
f 526 378 379
f 376 520 525
f 380 521 517
f 517 381 380
f 381 517 519
f 381 519 383
f 400 383 524
f 524 390 389
f 522 523 384
f 522 384 386
f 521 522 386
f 518 521 386
f 518 386 390
f 523 260 384
f 523 261 260
f 524 519 517
f 517 518 524
f 1054 412 410
f 649 401 650
f 650 401 497
f 650 497 3
f 3 497 478
f 651 478 472
f 651 472 4
f 467 489 488
f 467 488 495
f 186 188 470
f 186 470 480
f 418 417 416
f 418 416 419
f 419 416 415
f 419 415 509
f 422 415 414
f 422 414 413
f 422 413 259
f 496 515 505
f 505 182 496
f 485 295 486
f 484 486 515
f 429 432 431
f 429 428 432
f 507 271 164
f 507 269 271
f 433 506 498
f 147 273 167
f 368 369 168
f 368 168 147
f 421 422 424
f 511 443 369
f 369 447 454
f 369 455 452
f 439 514 440
f 440 368 439
f 468 402 417
f 468 417 469
f 430 429 484
f 484 515 430
f 485 431 498
f 431 433 498
f 189 470 188
f 189 468 470
f 184 496 182
f 184 483 496
f 295 485 498
f 425 426 421
f 371 426 425
f 455 454 450
f 252 454 508
f 252 450 454
f 251 508 449
f 295 155 152
f 295 152 505
f 16 179 276
f 179 191 276
f 260 434 372
f 423 258 257
f 423 257 373
f 647 262 2
f 239 226 230
f 243 242 240
f 240 239 243
f 625 14 178
f 625 178 623
f 490 151 143
f 490 143 141
f 497 468 478
f 475 490 141
f 494 479 461
f 461 463 494
f 461 479 191
f 233 235 230
f 230 237 233
f 476 477 474
f 477 464 474
f 139 140 487
f 139 487 493
f 482 515 496
f 482 496 483
f 181 491 466
f 181 466 183
f 191 179 180
f 191 180 461
f 197 225 240
f 477 495 465
f 477 465 464
f 493 494 463
f 463 139 493
f 175 489 176
f 488 489 472
f 489 175 472
f 240 196 197
f 487 193 194
f 194 235 487
f 482 483 480
f 482 480 481
f 125 127 234
f 477 476 623
f 477 623 624
f 462 476 474
f 462 474 475
f 231 237 229
f 231 229 471
f 467 624 7
f 462 463 625
f 145 453 255
f 448 168 369
f 511 368 440
f 144 508 267
f 441 440 437
f 441 437 436
f 146 514 439
f 435 372 444
f 438 445 434
f 270 432 428
f 436 437 424
f 647 1 434
f 269 433 432
f 433 431 432
f 428 427 420
f 424 425 421
f 258 423 259
f 419 426 420
f 427 430 418
f 416 417 411
f 417 402 411
f 414 415 408
f 413 410 412
f 413 412 262
f 402 401 411
f 408 409 410
f 393 394 395
f 393 395 396
f 392 393 396
f 396 397 392
f 374 375 399
f 397 387 398
f 396 388 387
f 396 387 397
f 394 382 383
f 392 526 382
f 392 382 393
f 388 390 386
f 388 386 387
f 376 374 263
f 383 382 381
f 381 382 526
f 526 380 381
f 376 375 374
f 428 371 270
f 371 370 270
f 369 368 511
f 149 153 195
f 156 155 295
f 506 294 295
f 506 293 294
f 271 269 270
f 438 173 267
f 672 816 144
f 264 261 263
f 263 262 264
f 261 264 260
f 258 259 413
f 258 413 257
f 254 256 255
f 252 253 450
f 250 252 251
f 250 251 449
f 190 192 234
f 232 236 233
f 194 195 242
f 194 242 243
f 240 242 196
f 230 238 237
f 234 192 125
f 232 237 231
f 232 233 237
f 471 229 228
f 471 228 124
f 134 230 226
f 223 131 228
f 225 197 136
f 131 223 133
f 196 242 126
f 126 128 198
f 192 190 191
f 188 186 187
f 186 185 187
f 184 182 183
f 182 181 183
f 155 150 152
f 179 16 644
f 175 176 6
f 175 6 8
f 5 652 492
f 158 164 163
f 163 512 158
f 142 141 143
f 140 139 141
f 471 124 125
f 662 661 121
f 661 122 121
f 590 575 627
f 646 32 626
f 646 563 32
f 550 551 576
f 550 576 51
f 47 562 565
f 47 565 566
f 600 706 655
f 655 63 600
f 554 555 556
f 559 551 550
f 550 560 559
f 58 605 607
f 549 43 42
f 61 609 610
f 61 610 28
f 548 37 549
f 25 33 30
f 30 536 25
f 656 66 55
f 10 606 58
f 42 529 530
f 58 59 60
f 697 9 605
f 1243 10 602
f 10 58 602
f 41 529 42
f 41 63 529
f 539 578 579
f 539 621 538
f 599 700 1239
f 56 55 66
f 56 66 57
f 604 700 599
f 1172 1257 620
f 1172 620 1246
f 608 35 542
f 59 604 599
f 59 599 60
f 607 603 604
f 56 9 55
f 39 602 601
f 39 601 54
f 52 53 50
f 52 50 581
f 568 559 567
f 36 541 571
f 36 571 35
f 571 542 35
f 609 180 644
f 609 644 610
f 644 611 610
f 618 619 8
f 618 8 6
f 643 25 536
f 7 177 615
f 615 177 178
f 615 178 15
f 536 537 24
f 536 24 643
f 622 26 582
f 34 31 30
f 30 33 34
f 615 15 614
f 615 617 7
f 15 14 613
f 14 180 609
f 14 609 613
f 35 616 36
f 570 547 38
f 570 38 569
f 43 44 41
f 41 42 43
f 565 562 49
f 565 49 564
f 44 39 54
f 39 11 1243
f 39 1243 602
f 56 57 607
f 59 58 607
f 24 537 582
f 582 26 24
f 579 609 61
f 582 621 622
f 59 607 604
f 54 601 600
f 617 616 35
f 617 35 608
f 30 29 544
f 544 536 30
f 606 605 58
f 66 656 57
f 605 9 56
f 605 56 607
f 60 599 601
f 28 610 611
f 28 611 27
f 619 618 62
f 602 58 60
f 602 60 601
f 600 1239 706
f 553 573 552
f 54 600 63
f 63 41 54
f 562 47 561
f 122 661 120
f 661 18 120
f 147 439 368
f 152 150 151
f 158 512 159
f 492 175 8
f 492 8 5
f 176 7 6
f 179 644 180
f 14 15 178
f 182 152 151
f 182 151 181
f 186 184 183
f 186 183 185
f 188 187 189
f 195 194 193
f 195 193 149
f 126 242 195
f 197 196 198
f 136 197 198
f 128 136 198
f 198 196 126
f 199 126 195
f 195 153 199
f 223 134 133
f 135 225 136
f 238 223 228
f 238 228 229
f 230 134 223
f 230 223 238
f 134 226 222
f 225 135 226
f 135 222 226
f 124 228 131
f 192 232 231
f 192 231 125
f 236 235 233
f 238 229 237
f 199 241 129
f 199 129 126
f 235 194 243
f 241 190 234
f 241 234 129
f 256 250 449
f 256 449 255
f 253 254 450
f 145 144 816
f 173 672 144
f 173 144 267
f 158 268 164
f 149 193 142
f 189 187 473
f 373 374 399
f 373 399 372
f 373 257 374
f 376 378 377
f 377 375 376
f 526 379 380
f 385 384 260
f 387 386 384
f 387 384 385
f 388 389 390
f 375 377 391
f 393 382 394
f 394 383 400
f 395 389 388
f 388 396 395
f 398 387 385
f 398 385 399
f 399 260 372
f 399 385 260
f 400 395 394
f 375 398 399
f 375 391 398
f 257 263 374
f 402 497 401
f 253 252 250
f 253 250 256
f 256 254 253
f 649 415 411
f 649 411 401
f 647 264 262
f 413 414 408
f 413 408 410
f 416 411 415
f 420 427 418
f 418 419 420
f 647 434 264
f 424 422 259
f 371 428 420
f 371 420 426
f 430 428 429
f 430 427 428
f 372 424 259
f 372 259 423
f 424 372 435
f 435 436 424
f 437 514 425
f 437 425 424
f 1 438 434
f 445 444 372
f 445 372 434
f 146 271 270
f 146 270 370
f 440 514 437
f 441 436 435
f 1 174 438
f 446 267 508
f 446 403 267
f 443 511 440
f 443 440 441
f 147 146 439
f 271 163 164
f 271 146 163
f 452 448 369
f 254 451 450
f 255 451 254
f 171 452 453
f 453 172 171
f 465 466 464
f 469 470 468
f 473 472 189
f 466 465 185
f 466 185 183
f 472 478 189
f 232 191 479
f 232 192 191
f 240 225 226
f 240 226 239
f 485 486 484
f 191 190 276
f 180 14 625
f 180 625 461
f 491 181 151
f 491 151 490
f 491 490 474
f 490 475 474
f 494 236 232
f 494 232 479
f 472 175 492
f 139 463 462
f 139 462 475
f 624 623 178
f 624 178 177
f 466 491 474
f 466 474 464
f 625 623 476
f 625 476 462
f 127 129 234
f 493 236 494
f 471 125 231
f 473 488 472
f 487 140 193
f 140 142 193
f 141 139 475
f 467 495 477
f 467 477 624
f 235 243 239
f 235 239 230
f 487 235 236
f 487 236 493
f 262 263 257
f 257 413 262
f 373 372 423
f 143 151 150
f 152 182 505
f 269 506 433
f 269 507 506
f 450 451 455
f 451 452 455
f 451 255 453
f 451 453 452
f 449 145 255
f 449 144 145
f 167 146 147
f 421 426 509
f 426 419 509
f 146 370 514
f 425 514 370
f 147 168 273
f 146 167 163
f 371 425 370
f 295 294 156
f 505 515 486
f 186 480 483
f 483 184 186
f 189 478 468
f 516 293 506
f 484 431 485
f 484 429 431
f 468 497 402
f 509 422 421
f 415 649 409
f 415 409 408
f 369 454 455
f 448 452 171
f 369 443 447
f 170 168 448
f 164 268 507
f 295 498 506
f 269 432 270
f 516 507 268
f 516 506 507
f 430 515 482
f 486 295 505
f 418 482 481
f 418 430 482
f 509 415 422
f 481 469 417
f 481 417 418
f 480 470 469
f 480 469 481
f 465 473 187
f 465 187 185
f 473 465 495
f 473 495 488
f 489 467 7
f 489 7 176
f 4 472 492
f 4 492 652
f 3 478 651
f 648 409 649
f 410 409 648
f 2 262 412
f 2 412 1054
f 434 260 264
f 390 524 518
f 520 263 261
f 261 523 520
f 517 521 518
f 379 521 380
f 525 523 522
f 525 520 523
f 524 389 395
f 524 395 400
f 519 524 383
f 376 525 378
f 520 376 263
f 379 378 525
f 527 391 377
f 527 377 526
f 527 392 397
f 522 521 525
f 528 403 446
f 442 441 435
f 442 444 403
f 445 438 267
f 620 619 62
f 620 62 1246
f 1246 530 529
f 6 7 617
f 6 617 618
f 572 543 542
f 572 542 548
f 548 549 572
f 557 541 540
f 557 547 541
f 545 537 544
f 545 582 537
f 44 43 556
f 549 37 552
f 549 552 573
f 559 38 558
f 560 550 50
f 560 50 561
f 573 553 574
f 36 67 540
f 561 50 53
f 561 53 562
f 560 567 559
f 541 36 540
f 575 565 564
f 575 48 565
f 566 574 553
f 566 553 567
f 568 552 37
f 568 37 569
f 542 571 570
f 570 548 542
f 575 590 64
f 575 64 48
f 631 554 573
f 631 573 574
f 554 549 573
f 549 543 572
f 551 558 576
f 578 67 579
f 578 540 67
f 613 614 15
f 621 582 538
f 584 32 563
f 563 585 584
f 626 32 628
f 32 31 628
f 629 31 34
f 629 34 630
f 645 563 646
f 32 29 31
f 601 599 600
f 606 697 605
f 57 603 607
f 608 543 530
f 530 62 608
f 62 530 1246
f 609 579 613
f 615 616 617
f 621 61 28
f 28 27 26
f 26 622 28
f 624 177 7
f 629 592 628
f 555 554 631
f 626 628 592
f 660 821 820
f 660 820 653
f 1283 1178 674
f 675 1259 1180
f 678 1238 1269
f 1269 679 678
f 1252 659 660
f 1251 658 659
f 1251 1248 825
f 1251 825 658
f 681 1190 1210
f 1210 1209 681
f 1207 1202 1194
f 1207 1194 1208
f 1220 693 1223
f 1220 1223 695
f 1242 1244 682
f 696 697 1245
f 604 603 1245
f 604 1245 698
f 1241 700 604
f 1241 604 698
f 1200 701 1189
f 1184 680 703
f 603 656 696
f 603 696 1245
f 1240 1239 700
f 1219 1258 1181
f 705 1218 1181
f 1218 1217 1181
f 684 706 683
f 684 702 706
f 1244 712 10
f 1244 10 1243
f 55 696 656
f 712 1241 698
f 1185 702 684
f 712 699 606
f 712 606 10
f 679 674 678
f 1213 1214 1191
f 676 1249 1248
f 676 1248 704
f 684 713 1213
f 684 685 713
f 698 1245 699
f 1202 1192 1193
f 1202 1193 1201
f 1197 685 1198
f 1206 1205 692
f 1206 692 689
f 694 701 1193
f 694 1193 1192
f 1263 716 1285
f 1231 690 708
f 767 768 661
f 767 661 662
f 772 771 1120
f 787 793 786
f 907 788 789
f 807 1088 803
f 807 1087 1088
f 817 652 5
f 817 5 654
f 654 819 818
f 657 1284 823
f 657 823 824
f 828 826 827
f 828 827 829
f 830 831 833
f 833 832 830
f 835 834 836
f 841 840 842
f 841 783 843
f 780 868 869
f 842 868 780
f 871 777 873
f 777 867 873
f 873 867 779
f 873 779 874
f 771 871 872
f 771 872 1120
f 1120 881 876
f 1120 875 881
f 772 836 773
f 881 878 879
f 887 884 868
f 840 843 887
f 888 887 839
f 888 839 838
f 773 836 834
f 1094 1097 892
f 1094 892 897
f 1097 893 894
f 1097 894 892
f 1092 896 895
f 816 789 905
f 173 789 672
f 173 907 789
f 1088 908 803
f 940 936 938
f 940 937 936
f 940 799 801
f 797 794 839
f 1008 1089 1102
f 1008 792 1089
f 1010 1080 1011
f 1010 1011 1071
f 1017 1016 1168
f 1019 1020 1021
f 1021 1018 1019
f 1021 1020 1022
f 1028 1027 1029
f 1014 1015 1013
f 1033 1020 1019
f 1033 1019 1032
f 1034 1022 1020
f 1030 1167 1036
f 1030 1036 1035
f 1039 1026 1038
f 1030 1029 1167
f 1014 1013 1040
f 1037 1033 1032
f 1037 1035 1034
f 1037 1034 1033
f 1044 788 907
f 1053 1052 1041
f 902 1054 898
f 898 1054 1051
f 1050 1154 1152
f 1050 1152 1055
f 1053 1057 1056
f 1053 1041 1057
f 1059 1061 1060
f 1059 1058 1061
f 1059 1070 1063
f 1059 1063 1062
f 1066 1064 1069
f 1066 1067 900
f 1070 1060 1071
f 1073 1074 909
f 1068 1 647
f 1071 909 1010
f 1 901 1084
f 1079 1075 1076
f 791 1157 790
f 1171 1170 1044
f 1084 174 1
f 1044 1170 1098
f 1099 1102 1101
f 1099 1085 1102
f 1082 792 1008
f 788 1098 1151
f 1096 1095 816
f 1262 1113 1112
f 820 1261 1135
f 1120 872 875
f 1123 1122 1124
f 1123 1124 1112
f 1261 1260 1124
f 1261 1124 1125
f 1128 1127 1130
f 1128 1130 1129
f 882 873 874
f 882 874 883
f 838 837 880
f 840 887 868
f 818 1135 1134
f 1134 1121 818
f 819 1135 818
f 1113 1139 1138
f 1138 784 1113
f 1114 1115 1140
f 1114 1140 1125
f 868 842 840
f 882 872 873
f 878 881 875
f 878 875 882
f 1111 825 824
f 1111 824 835
f 828 1116 1137
f 828 1137 826
f 1141 1142 1129
f 1129 1130 1141
f 1138 880 785
f 1138 785 784
f 1122 1125 1124
f 1122 1114 1125
f 883 877 878
f 878 882 883
f 835 1126 1111
f 1111 1126 1139
f 1139 1113 1111
f 793 1136 1123
f 1143 1117 1042
f 1143 1042 1043
f 793 787 796
f 793 796 1136
f 1260 822 658
f 1260 658 1262
f 888 884 887
f 883 874 869
f 883 869 884
f 2 1068 647
f 1012 899 1067
f 899 900 1067
f 1075 901 1023
f 916 824 823
f 916 835 824
f 1148 827 795
f 1074 1150 909
f 1074 1149 1150
f 1101 1093 1092
f 1093 1096 1094
f 1094 1151 1097
f 1096 905 1151
f 1062 1063 1065
f 1154 1052 1053
f 1086 809 1089
f 1080 1157 1011
f 1157 1153 1011
f 940 801 937
f 1133 1142 1148
f 829 1130 831
f 1130 1127 831
f 938 936 1158
f 1158 1149 938
f 1132 1073 1131
f 1073 1072 1131
f 791 1081 1157
f 1157 1081 1153
f 1065 1064 1062
f 815 1091 1090
f 1008 1083 1082
f 1008 1085 1083
f 1081 1077 1069
f 1081 1069 1153
f 1065 1069 1064
f 1090 1089 814
f 1150 908 1088
f 938 1144 940
f 908 1150 1149
f 908 1149 1158
f 1129 1142 1061
f 1148 940 1133
f 1128 1129 1058
f 1129 1061 1058
f 1064 1152 1062
f 1062 1056 1059
f 1058 1057 1118
f 1058 1118 1128
f 1128 1118 1119
f 1128 1119 1127
f 832 1009 1115
f 1115 830 832
f 1134 1140 1115
f 1134 1115 1009
f 819 820 1135
f 652 817 1121
f 652 1121 4
f 651 1143 3
f 650 1041 1052
f 649 1052 1154
f 649 1050 648
f 648 1051 410
f 903 904 902
f 1161 904 1162
f 1159 1164 1163
f 1018 1164 1165
f 1165 1161 1166
f 1161 1162 1166
f 1159 1160 1167
f 1022 1167 1160
f 1017 1166 1015
f 1162 904 903
f 903 1015 1162
f 1165 1166 1168
f 1019 1016 1031
f 1019 1031 1169
f 1038 1032 1169
f 1038 1037 1032
f 1019 1018 1168
f 1079 1076 1083
f 1079 1083 1171
f 1078 1075 1079
f 1044 1079 1171
f 907 174 1084
f 1172 1247 1255
f 1172 1255 1257
f 1254 653 819
f 1184 1185 1212
f 1191 1184 1212
f 1212 1213 1191
f 1182 1183 1189
f 1183 1190 1189
f 1186 1179 1180
f 1180 1222 1186
f 1215 1195 1214
f 1200 681 1201
f 681 1194 1201
f 689 693 1192
f 689 1192 1202
f 688 1196 1215
f 1183 1182 711
f 692 1223 693
f 692 693 689
f 1201 1194 1202
f 1183 711 680
f 1205 691 690
f 690 1204 1205
f 1207 1196 688
f 1207 688 1206
f 1209 1214 1195
f 1209 1195 1208
f 1210 1211 1184
f 1184 1191 1210
f 691 707 708
f 691 708 690
f 688 1215 1197
f 688 1197 1270
f 1215 713 1197
f 1215 1214 713
f 1212 1185 1213
f 1218 1182 1217
f 1218 711 1182
f 659 1252 1251
f 1259 1258 1219
f 674 1178 678
f 1227 716 1263
f 1266 1238 1263
f 1269 1238 1267
f 678 677 1238
f 697 699 1245
f 703 1185 1184
f 1247 702 1185
f 1246 1173 1172
f 1251 1218 705
f 660 1253 1252
f 1256 1257 1255
f 711 1252 1253
f 704 705 1181
f 1181 1258 704
f 1111 1113 1262
f 1285 1234 1263
f 1198 685 1199
f 1222 1180 1219
f 677 1186 1222
f 1250 1274 13
f 1176 1175 1273
f 1273 1283 1176
f 1279 1281 1282
f 1279 1282 642
f 1280 1278 1279
f 1280 1174 1278
f 1281 1276 1272
f 1281 1272 1282
f 1275 1279 1274
f 1273 1175 1280
f 1275 1273 1280
f 1280 1279 1275
f 682 11 535
f 1177 12 1176
f 1175 1277 1276
f 1175 1276 1174
f 13 612 1250
f 934 935 806
f 1158 935 908
f 1158 806 935
f 908 804 803
f 908 935 804
f 277 767 662
f 19 942 917
f 664 802 663
f 802 939 663
f 20 937 801
f 21 806 805
f 665 933 891
f 936 806 1158
f 936 805 806
f 925 928 930
f 925 930 929
f 928 925 926
f 944 813 943
f 950 944 948
f 1156 951 947
f 671 504 1109
f 948 952 950
f 914 859 913
f 846 855 861
f 846 861 770
f 859 858 913
f 995 1007 996
f 968 993 1007
f 991 976 997
f 991 997 1006
f 979 974 1005
f 979 1005 994
f 1005 961 987
f 981 1003 1002
f 981 1002 990
f 981 990 1004
f 1004 999 986
f 1004 986 985
f 981 865 964
f 1002 1003 963
f 1000 989 1001
f 988 1001 963
f 963 982 988
f 980 957 1000
f 999 957 984
f 856 998 863
f 856 962 998
f 967 997 976
f 976 965 967
f 995 972 969
f 975 992 993
f 975 993 968
f 965 977 992
f 976 977 965
f 960 971 981
f 971 973 991
f 971 991 1006
f 971 1006 981
f 966 968 958
f 966 975 968
f 862 987 984
f 862 984 983
f 983 980 982
f 980 988 982
f 987 961 986
f 987 986 984
f 853 845 848
f 853 848 847
f 957 983 984
f 982 963 1003
f 981 1006 962
f 981 962 865
f 865 962 856
f 994 862 979
f 976 991 978
f 976 978 977
f 969 972 970
f 969 970 974
f 1005 970 971
f 1005 971 960
f 969 958 1007
f 967 965 966
f 982 964 864
f 816 1095 906
f 956 1095 815
f 954 1048 956
f 956 1048 955
f 1104 952 948
f 1104 948 1109
f 948 951 1109
f 949 950 954
f 1090 814 949
f 1090 949 815
f 814 811 949
f 951 946 947
f 951 948 946
f 949 813 944
f 949 944 950
f 943 813 911
f 800 794 798
f 797 941 798
f 941 942 939
f 805 936 937
f 933 804 935
f 933 935 934
f 808 933 932
f 931 808 932
f 929 923 925
f 929 931 923
f 925 923 924
f 926 927 922
f 924 286 927
f 925 924 926
f 844 277 917
f 844 917 797
f 768 767 885
f 885 834 768
f 823 766 916
f 913 769 914
f 889 813 812
f 855 856 863
f 845 857 864
f 845 864 865
f 858 859 983
f 858 983 982
f 860 861 966
f 860 966 958
f 914 860 958
f 914 958 862
f 913 775 782
f 913 776 775
f 846 850 848
f 850 847 848
f 848 855 846
f 848 856 855
f 812 813 811
f 931 929 808
f 801 799 802
f 786 794 800
f 786 800 787
f 782 769 913
f 852 775 776
f 748 721 722
f 763 723 740
f 763 740 729
f 721 724 740
f 721 740 723
f 757 751 718
f 763 717 764
f 738 739 720
f 720 718 738
f 719 723 1237
f 715 752 736
f 715 736 734
f 760 757 718
f 718 762 760
f 718 751 738
f 763 729 753
f 759 760 762
f 759 762 758
f 727 736 752
f 754 761 734
f 754 731 761
f 745 757 760
f 745 760 759
f 747 737 738
f 742 759 741
f 759 758 741
f 741 758 730
f 741 730 732
f 757 745 744
f 754 729 756
f 754 756 755
f 731 754 755
f 729 754 728
f 727 752 753
f 751 744 750
f 744 749 750
f 749 721 748
f 749 744 721
f 746 747 750
f 750 749 746
f 748 722 737
f 748 737 746
f 742 741 740
f 742 740 743
f 733 740 741
f 733 741 732
f 739 737 722
f 739 722 723
f 732 730 731
f 732 731 755
f 728 727 753
f 728 753 729
f 721 723 722
f 1283 674 1177
f 1273 675 673
f 675 1273 1275
f 675 1275 676
f 611 634 635
f 611 635 27
f 643 533 534
f 639 641 638
f 640 531 532
f 641 636 531
f 641 531 638
f 636 1272 1277
f 642 639 634
f 634 13 642
f 535 11 39
f 533 12 534
f 12 1177 534
f 531 636 637
f 531 637 532
f 611 612 13
f 162 160 292
f 268 162 516
f 268 160 162
f 158 160 268
f 662 121 277
f 917 298 19
f 917 278 298
f 663 296 157
f 663 157 664
f 161 162 21
f 891 292 249
f 891 249 665
f 162 161 293
f 293 516 162
f 156 294 20
f 148 513 288
f 148 288 289
f 289 288 287
f 301 306 302
f 305 307 304
f 310 308 312
f 274 214 215
f 274 215 275
f 216 123 275
f 216 275 215
f 201 211 212
f 212 138 201
f 367 338 355
f 366 322 359
f 327 358 366
f 366 359 327
f 365 330 334
f 352 346 365
f 352 365 356
f 360 348 351
f 319 344 351
f 319 351 340
f 319 340 320
f 340 364 324
f 363 350 349
f 363 349 323
f 323 349 362
f 347 362 361
f 347 361 339
f 348 360 316
f 348 316 361
f 343 360 345
f 359 322 221
f 326 359 218
f 353 357 333
f 353 367 357
f 353 338 367
f 357 332 333
f 354 325 335
f 325 326 335
f 355 338 337
f 355 337 354
f 328 318 317
f 356 217 352
f 350 351 348
f 350 348 349
f 343 346 352
f 321 345 344
f 321 344 319
f 364 341 324
f 316 342 339
f 220 324 219
f 217 334 329
f 217 329 318
f 331 333 332
f 331 332 330
f 329 357 317
f 359 326 327
f 365 321 319
f 365 319 320
f 266 314 172
f 266 172 906
f 313 171 314
f 265 314 266
f 315 407 313
f 407 312 313
f 312 456 311
f 307 308 310
f 313 308 306
f 313 306 171
f 306 169 170
f 307 303 302
f 307 302 308
f 308 302 306
f 244 169 306
f 296 297 154
f 296 154 150
f 297 298 278
f 278 153 297
f 296 150 155
f 296 155 157
f 249 159 166
f 249 160 159
f 932 291 290
f 932 290 666
f 923 666 290
f 923 290 285
f 280 288 513
f 288 280 282
f 282 287 288
f 284 927 287
f 285 286 923
f 153 278 277
f 153 277 199
f 241 122 190
f 241 121 122
f 276 120 16
f 203 201 130
f 306 301 244
f 221 220 204
f 221 204 210
f 219 341 212
f 212 211 219
f 326 218 209
f 326 209 216
f 342 217 214
f 342 214 213
f 204 203 205
f 211 203 204
f 211 201 203
f 906 145 816
f 166 159 165
f 160 158 159
f 154 153 149
f 106 105 80
f 106 109 90
f 75 90 93
f 115 87 69
f 88 113 71
f 72 74 89
f 118 117 74
f 118 74 597
f 104 117 70
f 104 70 69
f 116 115 69
f 90 109 84
f 81 115 111
f 115 116 111
f 78 86 85
f 78 85 79
f 82 115 81
f 101 103 113
f 101 113 97
f 92 112 95
f 92 95 76
f 102 94 110
f 102 110 103
f 87 107 85
f 107 79 85
f 104 105 117
f 102 99 75
f 102 75 77
f 77 94 102
f 100 96 98
f 100 98 99
f 88 96 97
f 76 95 77
f 95 94 77
f 75 93 92
f 75 92 76
f 85 86 87
f 108 83 84
f 108 84 109
f 76 77 75
f 24 532 643
f 535 40 534
f 40 25 534
f 611 644 16
f 27 633 26
f 27 635 633
f 532 24 26
f 532 26 633
f 534 25 643
f 73 74 99
f 80 105 78
f 80 78 79
f 108 82 81
f 108 81 83
f 107 87 82
f 74 73 88
f 74 88 89
f 83 91 90
f 83 90 84
f 93 90 91
f 93 91 92
f 96 88 73
f 96 73 98
f 101 97 96
f 96 100 101
f 99 102 100
f 102 101 100
f 101 102 103
f 105 104 78
f 79 106 80
f 79 107 106
f 108 107 82
f 108 109 106
f 108 106 107
f 94 95 110
f 83 81 91
f 81 111 91
f 91 111 112
f 91 112 92
f 113 88 97
f 112 114 110
f 112 110 95
f 87 115 82
f 104 86 78
f 111 116 114
f 111 114 112
f 105 106 117
f 113 103 71
f 71 110 114
f 114 116 71
f 87 86 69
f 86 104 69
f 597 74 72
f 89 88 71
f 71 72 89
f 118 70 117
f 71 103 110
f 90 75 99
f 99 74 90
f 106 90 74
f 106 74 117
f 73 99 98
f 138 274 137
f 143 150 149
f 143 149 142
f 157 155 156
f 166 148 290
f 244 246 169
f 170 169 246
f 172 453 145
f 202 209 210
f 210 207 206
f 210 206 202
f 137 130 138
f 217 318 215
f 217 215 214
f 318 326 216
f 318 216 215
f 341 342 213
f 341 213 212
f 220 219 211
f 220 211 204
f 218 221 210
f 218 210 209
f 246 244 245
f 201 138 130
f 120 190 122
f 120 276 190
f 199 277 241
f 277 121 241
f 287 286 289
f 286 285 289
f 287 927 286
f 287 282 284
f 289 285 290
f 289 290 148
f 280 513 272
f 290 291 166
f 291 249 166
f 292 160 249
f 294 293 161
f 156 20 157
f 298 297 296
f 154 297 153
f 150 154 149
f 245 244 301
f 305 303 307
f 171 170 448
f 171 306 170
f 310 309 307
f 309 310 312
f 309 312 311
f 407 456 312
f 265 315 314
f 314 315 313
f 171 172 314
f 906 172 145
f 221 322 220
f 219 324 341
f 326 325 327
f 317 318 329
f 320 331 330
f 320 330 365
f 334 330 332
f 334 332 329
f 337 338 353
f 337 353 336
f 220 322 366
f 220 366 340
f 364 323 341
f 343 342 316
f 207 210 204
f 207 204 205
f 343 345 321
f 343 321 346
f 341 347 339
f 341 339 342
f 342 343 352
f 342 352 217
f 318 328 326
f 328 335 326
f 340 366 353
f 340 353 333
f 340 333 331
f 340 331 320
f 325 337 336
f 354 337 325
f 328 355 354
f 328 354 335
f 356 334 217
f 329 332 357
f 336 358 325
f 358 327 325
f 218 359 221
f 343 316 360
f 361 316 339
f 323 362 347
f 347 341 323
f 362 349 348
f 362 348 361
f 323 364 363
f 340 324 220
f 344 345 360
f 344 360 351
f 340 351 350
f 340 350 363
f 340 363 364
f 346 321 365
f 356 365 334
f 353 366 358
f 353 358 336
f 328 317 367
f 367 355 328
f 367 317 357
f 138 212 213
f 123 216 209
f 123 209 202
f 138 213 214
f 214 274 138
f 313 312 308
f 671 309 504
f 304 307 309
f 304 309 671
f 665 249 291
f 665 291 932
f 21 162 292
f 21 292 891
f 294 161 21
f 21 20 294
f 664 157 20
f 298 296 663
f 663 19 298
f 277 278 917
f 17 16 120
f 17 120 18
f 16 17 612
f 16 612 611
f 532 12 533
f 532 637 12
f 534 1177 535
f 640 633 635
f 635 639 640
f 633 640 532
f 634 639 635
f 636 1277 637
f 1282 1272 636
f 1282 636 641
f 638 531 640
f 639 638 640
f 642 1282 641
f 642 641 639
f 533 643 532
f 13 634 611
f 1177 1225 535
f 1177 674 1225
f 1283 1273 673
f 724 726 725
f 756 733 732
f 756 732 755
f 734 736 735
f 737 739 738
f 725 742 743
f 725 743 724
f 726 745 725
f 726 744 745
f 747 746 737
f 748 746 749
f 726 724 721
f 726 721 744
f 763 753 752
f 735 728 754
f 735 754 734
f 751 757 744
f 725 745 759
f 725 759 742
f 747 738 751
f 747 751 750
f 730 761 731
f 728 735 736
f 728 736 727
f 758 762 730
f 762 761 730
f 733 756 740
f 715 761 762
f 715 717 752
f 717 763 752
f 1237 723 763
f 1237 763 764
f 739 723 719
f 719 720 739
f 715 734 761
f 724 743 740
f 740 756 729
f 797 798 794
f 799 795 800
f 1284 17 823
f 845 776 857
f 852 776 845
f 853 852 845
f 859 914 862
f 859 862 983
f 861 863 966
f 861 855 863
f 858 982 864
f 864 857 858
f 856 845 865
f 955 265 266
f 906 955 266
f 813 889 911
f 915 914 769
f 834 916 766
f 766 768 834
f 885 767 844
f 767 277 844
f 923 286 924
f 927 926 924
f 922 927 284
f 921 928 926
f 921 926 922
f 919 930 928
f 919 928 921
f 923 931 666
f 666 931 932
f 808 804 933
f 891 934 806
f 802 799 800
f 802 800 939
f 942 941 797
f 797 917 942
f 800 798 939
f 798 941 939
f 949 811 813
f 944 946 948
f 815 949 954
f 952 1104 953
f 954 952 1048
f 956 815 954
f 906 1095 956
f 906 956 955
f 960 959 961
f 960 961 1005
f 967 966 998
f 969 1007 995
f 970 972 973
f 970 973 971
f 969 974 979
f 958 969 979
f 864 964 865
f 980 983 957
f 964 982 1003
f 959 985 986
f 959 986 961
f 845 856 848
f 989 1000 990
f 989 990 1002
f 1007 958 968
f 958 979 862
f 992 977 978
f 992 978 993
f 975 965 992
f 975 966 965
f 994 987 862
f 973 972 995
f 996 978 991
f 973 995 996
f 973 996 991
f 863 998 966
f 986 999 984
f 1000 957 999
f 980 1000 1001
f 980 1001 988
f 1001 989 963
f 963 989 1002
f 964 1003 981
f 960 981 1004
f 960 1004 985
f 960 985 959
f 1004 990 1000
f 1000 999 1004
f 994 1005 987
f 974 970 1005
f 1006 997 967
f 967 998 1006
f 1006 998 962
f 993 978 996
f 996 1007 993
f 857 776 913
f 913 858 857
f 860 915 770
f 860 770 861
f 915 860 914
f 950 952 954
f 671 1109 951
f 671 951 1156
f 932 933 665
f 891 806 21
f 805 937 20
f 20 21 805
f 20 801 802
f 20 802 664
f 663 942 19
f 663 939 942
f 18 766 823
f 18 823 17
f 934 891 933
f 1250 612 17
f 1250 17 1284
f 1176 12 1277
f 1277 1175 1176
f 1274 1279 642
f 642 13 1274
f 1277 1272 1276
f 12 637 1277
f 1278 1174 1276
f 1278 1276 1281
f 1175 1174 1280
f 1278 1281 1279
f 1177 1176 1283
f 676 1275 1274
f 676 1274 1250
f 1229 1228 1203
f 701 1216 1189
f 1223 1221 695
f 1265 1232 1264
f 677 1221 714
f 1269 1271 1268
f 1271 1237 1268
f 1263 677 1226
f 1232 717 715
f 1232 715 1235
f 1236 1267 1233
f 1234 1285 1235
f 1265 765 1231
f 1227 1228 1229
f 1224 686 1198
f 1222 1187 1221
f 1187 695 1221
f 1187 1188 694
f 1187 694 1220
f 1226 714 1203
f 1226 1203 1228
f 1198 686 1270
f 1188 1181 1217
f 1188 1217 1216
f 810 890 812
f 807 804 890
f 807 890 810
f 1087 807 810
f 809 810 811
f 889 918 911
f 889 812 890
f 772 773 870
f 772 870 854
f 771 772 854
f 774 775 870
f 774 870 773
f 774 783 775
f 782 775 783
f 854 870 851
f 771 849 778
f 771 778 777
f 853 847 849
f 853 849 854
f 915 769 866
f 846 770 779
f 846 779 867
f 781 782 783
f 1089 809 811
f 808 929 890
f 786 793 785
f 781 780 769
f 769 782 781
f 867 777 778
f 679 1269 709
f 1269 1268 709
f 1231 708 1268
f 708 709 1268
f 1237 1271 719
f 1236 720 719
f 1236 719 1271
f 1235 1285 1232
f 1221 1223 714
f 674 709 687
f 674 679 709
f 708 687 709
f 708 707 687
f 674 687 1225
f 535 1224 682
f 535 1225 1224
f 563 587 585
f 627 632 597
f 645 632 589
f 68 29 598
f 598 32 584
f 595 629 630
f 595 630 596
f 593 626 592
f 593 592 595
f 593 116 69
f 593 69 594
f 630 34 119
f 630 119 597
f 587 586 585
f 583 52 580
f 583 580 545
f 581 51 546
f 581 546 580
f 586 49 68
f 586 68 584
f 631 45 555
f 577 578 539
f 577 539 546
f 273 246 247
f 273 247 512
f 512 247 159
f 512 163 167
f 208 124 200
f 224 227 130
f 227 208 205
f 227 205 203
f 227 203 130
f 135 137 274
f 123 222 275
f 132 133 202
f 132 202 206
f 200 132 206
f 200 206 207
f 246 168 170
f 123 133 134
f 129 128 126
f 588 587 563
f 118 632 591
f 118 591 70
f 595 72 71
f 593 595 71
f 593 71 116
f 580 52 581
f 53 68 49
f 64 46 45
f 64 45 631
f 29 583 545
f 51 576 577
f 51 577 546
f 39 44 555
f 555 45 39
f 39 40 535
f 39 45 40
f 40 46 25
f 65 46 590
f 46 64 590
f 46 65 25
f 65 33 25
f 68 53 583
f 591 646 594
f 596 72 595
f 72 596 597
f 632 118 597
f 590 627 119
f 590 119 65
f 119 34 33
f 33 65 119
f 133 132 131
f 222 123 134
f 137 135 136
f 142 140 141
f 165 148 166
f 246 273 168
f 128 137 136
f 200 124 131
f 133 123 202
f 222 135 274
f 222 274 275
f 208 200 207
f 208 207 205
f 131 132 200
f 128 224 130
f 128 130 137
f 224 128 129
f 127 227 224
f 127 224 129
f 208 125 124
f 208 227 127
f 208 127 125
f 247 246 165
f 246 245 165
f 247 165 159
f 273 512 167
f 513 148 165
f 272 513 245
f 513 165 245
f 577 557 540
f 577 540 578
f 546 539 538
f 538 580 546
f 545 580 538
f 45 46 40
f 585 586 584
f 597 119 627
f 594 646 626
f 594 626 593
f 595 592 629
f 596 630 597
f 594 69 70
f 594 70 591
f 598 584 68
f 598 29 32
f 627 589 632
f 68 583 29
f 632 645 591
f 52 583 53
f 557 577 576
f 49 586 587
f 1198 1199 682
f 682 1224 1198
f 1188 1216 701
f 1188 701 694
f 1222 1221 677
f 1270 686 687
f 1270 687 707
f 1203 714 1223
f 1187 1220 695
f 762 718 1236
f 762 1236 1234
f 1236 718 720
f 717 1232 764
f 716 1229 1230
f 843 783 774
f 780 866 769
f 809 912 810
f 814 1089 811
f 847 850 778
f 847 778 849
f 850 846 867
f 850 867 778
f 770 915 866
f 770 866 779
f 775 852 851
f 852 853 854
f 852 854 851
f 854 849 771
f 775 851 870
f 789 788 905
f 804 808 890
f 918 930 919
f 912 1087 810
f 890 929 930
f 810 812 811
f 889 890 918
f 890 930 918
f 1217 1182 1189
f 1217 1189 1216
f 1219 1181 1187
f 1181 1188 1187
f 1219 1187 1222
f 1225 687 686
f 686 1224 1225
f 765 1230 1231
f 1263 1226 1228
f 1263 1228 1227
f 1235 715 762
f 1235 762 1234
f 1236 1233 1234
f 1271 1267 1236
f 764 1265 1237
f 1232 1265 764
f 1226 677 714
f 1268 1237 1265
f 1268 1265 1231
f 1263 1234 1233
f 1227 1229 716
f 1264 1232 1285
f 588 563 645
f 645 589 588
f 646 591 645
f 1264 716 1230
f 1230 1265 1264
f 1230 765 1265
f 1045 1155 1145
f 1155 952 953
f 1155 953 1147
f 1155 1049 952
f 1147 1105 1145
f 1145 1103 1146
f 1145 1146 1045
f 1145 1105 1103
f 1107 1108 1110
f 1106 1146 1107
f 1048 952 1047
f 1105 953 1104
f 1109 1103 1105
f 1047 1046 955
f 1047 955 1048
f 955 1046 23
f 955 23 265
f 405 501 404
f 510 456 407
f 510 407 501
f 502 456 510
f 404 500 459
f 501 500 404
f 501 457 500
f 248 458 23
f 460 309 499
f 458 460 499
f 458 499 459
f 458 500 406
f 458 406 23
f 500 457 406
f 309 311 502
f 407 406 457
f 315 265 23
f 315 23 406
f 499 309 502
f 311 456 502
f 406 407 315
f 458 459 500
f 1110 460 458
f 405 499 502
f 404 459 499
f 404 499 405
f 405 502 510
f 407 457 501
f 501 405 510
f 458 248 1110
f 309 460 504
f 248 23 1046
f 1049 1047 952
f 1105 1104 1109
f 1047 1049 1106
f 1046 1047 1106
f 1046 1106 1107
f 1146 1103 1108
f 1146 1108 1107
f 1108 1103 1109
f 1108 460 1110
f 1046 1107 248
f 1045 1106 1155
f 1106 1049 1155
f 1045 1146 1106
f 1147 953 1105
f 460 1108 504
f 1147 1145 1155
f 1110 248 1107
f 504 1108 1109
f 944 945 946
f 300 301 302
f 299 245 301
f 279 280 272
f 279 272 503
f 281 282 280
f 281 280 279
f 283 284 282
f 283 282 281
f 299 301 300
f 503 272 245
f 245 299 503
f 919 921 920
f 920 921 922
f 920 922 283
f 283 922 284
f 945 944 943
f 1156 670 671
f 1156 947 670
f 946 945 669
f 669 670 946
f 669 945 668
f 945 943 668
f 911 668 943
f 22 503 918
f 22 918 919
f 671 670 304
f 670 305 304
f 669 303 670
f 669 302 303
f 300 302 669
f 669 668 300
f 911 299 668
f 279 503 22
f 667 281 279
f 283 281 667
f 667 279 22
f 503 299 911
f 668 299 300
f 670 303 305
f 667 920 283
f 22 919 920
f 22 920 667
f 911 918 503
f 670 947 946
f 1291 1310 1290
f 1306 1309 1310
f 1309 1308 1287
f 1309 1287 1310
f 1307 1306 1291
f 1307 1305 1306
f 1305 1304 1306
f 1303 1301 1302
f 1301 1300 1302
f 1295 1297 1299
f 1297 1296 1299
f 1290 1293 1294
f 1290 1294 1295
f 1293 1292 1294
f 1292 1286 1287
f 1292 1287 1308
f 1292 1308 1304
f 1292 1304 1300
f 1292 1300 1296
f 1288 1287 1286
f 1288 1286 1289
f 1290 1288 1289
f 1289 1286 1292
f 1289 1292 1293
f 1290 1289 1293
f 1290 1295 1298
f 1294 1292 1296
f 1294 1296 1297
f 1295 1294 1297
f 1299 1296 1300
f 1299 1300 1301
f 1295 1299 1301
f 1295 1301 1303
f 1302 1300 1304
f 1302 1304 1305
f 1303 1302 1305
f 1303 1305 1307
f 1306 1304 1308
f 1306 1308 1309
f 1291 1306 1310
f 1310 1287 1288
f 1310 1288 1290
f 1291 1298 1307
f 1291 1290 1298
f 1298 1295 1303
f 1298 1303 1307
f 1315 1314 1332
f 1315 1332 1333
f 1314 1313 1332
f 1333 1331 1329
f 1331 1330 1327
f 1331 1327 1329
f 1329 1328 1326
f 1328 1327 1324
f 1328 1324 1326
f 1326 1325 1323
f 1326 1323 1321
f 1325 1324 1322
f 1325 1322 1323
f 1321 1320 1318
f 1320 1319 1318
f 1318 1317 1315
f 1317 1316 1315
f 1315 1316 1313
f 1315 1313 1314
f 1319 1322 1324
f 1319 1324 1327
f 1319 1327 1330
f 1319 1330 1313
f 1319 1313 1316
f 1311 1315 1334
f 1311 1318 1315
f 1318 1319 1316
f 1318 1316 1317
f 1321 1318 1311
f 1323 1322 1319
f 1323 1319 1320
f 1321 1323 1320
f 1312 1326 1321
f 1326 1324 1325
f 1312 1329 1326
f 1329 1327 1328
f 1333 1329 1312
f 1332 1313 1330
f 1332 1330 1331
f 1333 1332 1331
f 1334 1315 1333
f 1311 1334 1312
f 1334 1333 1312
f 1312 1321 1311
f 1383 1381 1382
f 1380 1381 1383
f 1380 1383 1384
f 1375 1376 1378
f 1374 1377 1376
f 1374 1376 1375
f 1376 1377 1378
f 1368 1371 1370
f 1368 1370 1369
f 1370 1371 1372
f 1361 1363 1365
f 1361 1365 1366
f 1360 1362 1363
f 1360 1363 1361
f 1363 1362 1364
f 1363 1364 1365
f 1358 1357 1355
f 1358 1355 1354
f 1354 1355 1359
f 1357 1356 1355
f 1349 1352 1350
f 1349 1350 1348
f 1352 1351 1350
f 1346 1345 1343
f 1346 1343 1342
f 1345 1344 1343
f 1340 1339 1336
f 1340 1336 1335
f 1335 1336 1337
f 1335 1337 1341
f 1339 1338 1337
f 1339 1337 1336
f 1340 1335 1341
f 1340 1338 1339
f 1338 1341 1337
f 1340 1341 1338
f 1347 1346 1342
f 1346 1347 1344
f 1346 1344 1345
f 1344 1347 1342
f 1344 1342 1343
f 1353 1349 1348
f 1353 1351 1352
f 1351 1353 1348
f 1351 1348 1350
f 1352 1349 1353
f 1358 1354 1359
f 1358 1356 1357
f 1356 1359 1355
f 1358 1359 1356
f 1360 1361 1366
f 1360 1366 1367
f 1365 1364 1367
f 1365 1367 1366
f 1362 1360 1367
f 1362 1367 1364
f 1368 1369 1373
f 1371 1368 1373
f 1371 1373 1372
f 1373 1369 1370
f 1373 1370 1372
f 1374 1375 1379
f 1378 1377 1374
f 1378 1374 1379
f 1379 1375 1378
f 1380 1384 1385
f 1383 1382 1385
f 1383 1385 1384
f 1381 1380 1385
f 1381 1385 1382
f 1416 1426 1428
f 1415 1426 1416
f 1415 1423 1426
f 1419 1412 1411
f 1395 1397 1407
f 1413 1400 1396
f 1413 1396 1395
f 1397 1391 1390
f 1390 1391 1387
f 1387 1424 1405
f 1413 1395 1407
f 1386 1387 1392
f 1403 1394 1386
f 1403 1386 1402
f 1392 1389 1401
f 1406 1390 1404
f 1392 1387 1391
f 1394 1393 1388
f 1424 1388 1393
f 1424 1393 1399
f 1391 1397 1396
f 1391 1396 1389
f 1403 1399 1398
f 1403 1422 1399
f 1422 1425 1408
f 1408 1425 1421
f 1408 1421 1409
f 1409 1421 1400
f 1409 1400 1410
f 1418 1411 1407
f 1418 1407 1406
f 1410 1419 1420
f 1410 1420 1409
f 1414 1422 1423
f 1405 1416 1404
f 1427 1408 1409
f 1417 1419 1418
f 1417 1418 1428
f 1424 1415 1416
f 1414 1415 1399
f 1407 1412 1410
f 1416 1405 1424
f 1417 1428 1426
f 1408 1427 1423
f 1408 1423 1422
f 1409 1420 1427
f 1404 1416 1418
f 1404 1418 1406
f 1399 1415 1424
f 1419 1411 1418
f 1414 1399 1422
f 1402 1425 1422
f 1402 1422 1403
f 1401 1421 1425
f 1401 1425 1402
f 1400 1421 1401
f 1406 1407 1397
f 1406 1397 1390
f 1401 1389 1396
f 1401 1396 1400
f 1394 1403 1398
f 1404 1390 1387
f 1404 1387 1405
f 1401 1402 1392
f 1391 1389 1392
f 1387 1388 1424
f 1386 1394 1388
f 1386 1388 1387
f 1398 1399 1393
f 1398 1393 1394
f 1400 1413 1410
f 1386 1392 1402
f 1395 1396 1397
f 1411 1412 1407
f 1410 1412 1419
f 1407 1410 1413
f 1415 1414 1423
f 1418 1416 1428
f 1420 1419 1417
f 1420 1417 1427
f 1426 1423 1427
f 1427 1417 1426
f 1460 1459 1457
f 1460 1457 1458
f 1458 1457 1453
f 1458 1453 1454
f 1459 1460 1456
f 1459 1456 1455
f 1451 1452 1449
f 1451 1449 1450
f 1450 1449 1445
f 1450 1445 1446
f 1452 1451 1448
f 1452 1448 1447
f 1444 1443 1441
f 1444 1441 1442
f 1442 1441 1437
f 1442 1437 1438
f 1443 1444 1440
f 1443 1440 1439
f 1435 1436 1433
f 1435 1433 1434
f 1434 1433 1429
f 1434 1429 1430
f 1436 1435 1432
f 1436 1432 1431
f 1435 1434 1430
f 1435 1430 1432
f 1433 1436 1431
f 1433 1431 1429
f 1431 1432 1430
f 1431 1430 1429
f 1444 1442 1438
f 1444 1438 1440
f 1441 1443 1439
f 1441 1439 1437
f 1439 1440 1438
f 1439 1438 1437
f 1451 1450 1446
f 1451 1446 1448
f 1449 1452 1447
f 1449 1447 1445
f 1447 1448 1446
f 1447 1446 1445
f 1460 1458 1454
f 1460 1454 1456
f 1457 1459 1455
f 1457 1455 1453
f 1455 1456 1454
f 1455 1454 1453
f 1485 1486 1488
f 1485 1488 1487
f 1485 1487 1491
f 1485 1491 1489
f 1488 1486 1490
f 1488 1490 1492
f 1477 1478 1480
f 1477 1480 1479
f 1477 1479 1483
f 1477 1483 1481
f 1480 1478 1482
f 1480 1482 1484
f 1469 1470 1472
f 1469 1472 1471
f 1469 1471 1475
f 1469 1475 1473
f 1472 1470 1474
f 1472 1474 1476
f 1461 1462 1464
f 1461 1464 1463
f 1461 1463 1467
f 1461 1467 1465
f 1464 1462 1466
f 1464 1466 1468
f 1463 1464 1468
f 1463 1468 1467
f 1462 1461 1465
f 1462 1465 1466
f 1466 1465 1467
f 1466 1467 1468
f 1471 1472 1476
f 1471 1476 1475
f 1470 1469 1473
f 1470 1473 1474
f 1474 1473 1475
f 1474 1475 1476
f 1479 1480 1484
f 1479 1484 1483
f 1478 1477 1481
f 1478 1481 1482
f 1482 1481 1483
f 1482 1483 1484
f 1487 1488 1492
f 1487 1492 1491
f 1486 1485 1489
f 1486 1489 1490
f 1490 1489 1491
f 1490 1491 1492
f 1522 1518 1517
f 1522 1517 1523
f 1524 1519 1520
f 1524 1520 1521
f 1524 1521 1522
f 1524 1522 1523
f 1514 1509 1510
f 1514 1510 1515
f 1516 1511 1512
f 1516 1512 1513
f 1516 1513 1514
f 1516 1514 1515
f 1506 1502 1501
f 1506 1501 1507
f 1508 1503 1504
f 1508 1504 1505
f 1508 1505 1506
f 1508 1506 1507
f 1498 1493 1494
f 1498 1494 1499
f 1500 1495 1496
f 1500 1496 1497
f 1500 1497 1498
f 1500 1498 1499
f 1494 1493 1496
f 1494 1496 1495
f 1499 1494 1495
f 1499 1495 1500
f 1497 1496 1493
f 1497 1493 1498
f 1501 1502 1504
f 1501 1504 1503
f 1507 1501 1503
f 1507 1503 1508
f 1505 1504 1502
f 1505 1502 1506
f 1510 1509 1512
f 1510 1512 1511
f 1515 1510 1511
f 1515 1511 1516
f 1513 1512 1509
f 1513 1509 1514
f 1517 1518 1520
f 1517 1520 1519
f 1523 1517 1519
f 1523 1519 1524
f 1521 1520 1518
f 1521 1518 1522
f 1554 1549 1552
f 1554 1552 1553
f 1556 1551 1550
f 1556 1550 1555
f 1551 1552 1549
f 1551 1549 1550
f 1546 1541 1544
f 1546 1544 1545
f 1548 1543 1542
f 1548 1542 1547
f 1543 1544 1541
f 1543 1541 1542
f 1538 1533 1536
f 1538 1536 1537
f 1540 1535 1534
f 1540 1534 1539
f 1535 1536 1533
f 1535 1533 1534
f 1530 1525 1528
f 1530 1528 1529
f 1532 1527 1526
f 1532 1526 1531
f 1527 1528 1525
f 1527 1525 1526
f 1531 1530 1529
f 1531 1529 1532
f 1529 1528 1527
f 1529 1527 1532
f 1531 1526 1525
f 1531 1525 1530
f 1539 1538 1537
f 1539 1537 1540
f 1537 1536 1535
f 1537 1535 1540
f 1539 1534 1533
f 1539 1533 1538
f 1547 1546 1545
f 1547 1545 1548
f 1545 1544 1543
f 1545 1543 1548
f 1547 1542 1541
f 1547 1541 1546
f 1555 1554 1553
f 1555 1553 1556
f 1553 1552 1551
f 1553 1551 1556
f 1555 1550 1549
f 1555 1549 1554
