v -0.86 2.29 0.12
v -0.94 2.30 0.00
v -0.38 2.80 0.00
v -0.27 2.79 0.09
v 0.09 3.04 0.00
v 0.14 2.99 0.05
v 0.55 3.07 0.00
v 0.57 3.01 0.02
v 0.81 3.00 0.00
v 0.56 2.15 0.14
v 0.55 2.41 0.00
v 0.70 2.05 0.00
v -0.02 2.26 0.17
v 0.20 2.57 0.09
v 0.35 2.74 0.05
v -3.35 1.20 0.00
v -3.43 1.09 0.11
v -3.51 1.04 0.00
v -3.08 1.40 0.00
v -3.14 1.32 0.20
v -2.76 1.59 0.08
v -2.68 1.65 0.00
v -2.16 1.95 0.00
v -2.19 1.86 0.26
v -2.75 1.56 0.20
v -1.53 2.20 0.00
v -1.54 2.12 0.32
v -0.91 2.07 0.36
v -0.07 2.05 0.39
v 0.74 1.88 0.29
v 1.54 1.71 0.17
v 1.53 1.77 0.00
v 2.12 1.58 0.00
v 2.11 1.41 0.21
v 2.48 1.46 0.00
v 2.49 1.23 0.17
v 2.82 1.33 0.00
v 2.85 1.11 0.11
v 3.09 1.20 0.00
v 3.12 1.07 0.14
v 3.27 0.98 0.00
v 3.18 0.97 0.11
v -2.79 1.47 0.32
v -2.56 1.43 0.47
v -2.11 1.66 0.43
v -1.56 1.85 0.46
v -0.91 1.82 0.52
v -0.18 1.80 0.49
v 0.70 1.69 0.41
v 1.53 1.60 0.26
v -2.74 1.26 0.53
v -2.89 1.29 0.46
v -3.00 1.20 0.40
v -3.26 0.97 0.30
v -3.48 0.79 0.15
v -2.72 1.11 0.52
v -2.87 1.19 0.45
v -3.51 0.68 0.20
v -3.43 0.53 0.22
v -3.84 0.23 0.11
v -3.91 0.27 0.11
v -3.98 0.22 0.06
v -4.00 0.24 0.00
v -3.62 0.67 0.00
v -3.58 0.70 0.07
v -3.03 1.00 0.44
v -2.92 1.11 0.44
v -3.02 0.96 0.44
v -3.22 0.91 0.38
v -3.18 0.83 0.37
v -3.38 0.47 0.23
v -3.75 0.21 0.12
v -3.10 0.67 0.37
v -2.95 0.87 0.50
v -2.63 0.73 0.50
v -3.07 0.58 0.40
v -2.87 0.95 0.50
v -2.83 1.07 0.50
v -2.65 0.90 0.56
v -3.36 0.40 0.26
v -3.70 0.16 0.16
v -3.03 0.27 0.25
v -2.81 0.67 0.46
v -2.51 0.36 0.32
v -3.29 0.28 0.15
v -3.36 0.34 0.25
v -2.08 0.63 0.62
v -2.06 0.49 0.51
v -2.58 0.91 0.58
v -2.00 1.06 0.71
v -2.49 1.16 0.58
v -2.46 1.35 0.53
v -2.01 1.41 0.62
v -1.55 1.51 0.67
v -1.41 1.13 0.74
v -0.84 1.36 0.69
v -0.77 1.09 0.74
v -0.15 1.43 0.67
v -0.12 1.09 0.71
v 0.66 1.34 0.63
v 0.65 0.96 0.65
v 1.51 1.29 0.48
v 1.49 0.94 0.41
v 2.06 1.19 0.34
v 2.03 0.84 0.32
v 2.46 1.05 0.20
v 2.43 0.83 0.21
v 2.75 0.99 0.14
v 2.70 0.81 0.15
v 3.09 0.96 0.26
v -1.51 0.67 0.59
v -0.75 0.60 0.54
v -0.20 0.62 0.55
v 0.50 0.59 0.45
v 1.44 0.63 0.25
v 2.06 0.58 0.14
v 2.41 0.65 0.10
v 2.85 0.67 0.08
v 3.05 0.69 0.17
v -1.70 0.44 1.06
v -1.71 0.42 1.03
v -1.37 0.53 0.93
v -1.05 0.37 1.12
v -1.25 0.35 1.17
v -1.54 0.39 1.16
v -0.80 0.40 0.00
v -1.49 0.44 0.00
v 0.46 0.43 0.00
v 1.51 0.59 0.00
v 2.39 0.59 0.00
v 2.87 0.64 0.00
v -2.45 0.32 0.00
v -1.94 0.38 0.00
v -2.92 0.22 0.00
v -3.25 0.24 0.00
v -3.62 0.09 0.00
v -3.66 0.12 0.11
v -3.90 0.00 0.00
v -3.87 0.03 0.07
v 4.00 0.63 1.25
v 3.48 0.62 1.06
v 3.86 0.67 0.91
v 3.54 0.82 0.14
v 3.30 0.87 0.24
v 3.42 0.87 0.00
v 3.70 0.82 0.08
v 3.57 0.82 0.00
v 3.10 0.91 0.35
v -3.95 0.14 0.06
v -3.96 0.14 0.00
v -3.93 0.07 0.07
v -3.96 0.06 0.00
v -1.25 0.34 1.14
v -1.54 0.36 1.13
v 0.68 2.71 0.00
v 0.85 2.88 0.00
v -0.17 0.46 0.00
v 2.02 0.55 0.00
v 3.08 0.67 0.00
v 3.48 0.59 1.06
v 3.23 0.65 0.76
v 3.23 0.72 0.76
v 3.77 0.74 0.31
v -2.73 1.63 0.00
v -0.27 2.79 -0.09
v -0.86 2.29 -0.12
v 0.14 2.99 -0.05
v 0.57 3.01 -0.02
v 0.56 2.15 -0.14
v 0.20 2.57 -0.09
v -0.02 2.26 -0.17
v 0.35 2.74 -0.05
v -3.43 1.09 -0.11
v -3.14 1.32 -0.20
v -2.76 1.59 -0.08
v -2.75 1.56 -0.20
v -2.19 1.86 -0.26
v -1.54 2.12 -0.32
v -0.91 2.07 -0.36
v -0.07 2.05 -0.39
v 0.74 1.88 -0.29
v 1.54 1.71 -0.17
v 2.11 1.41 -0.21
v 2.49 1.23 -0.17
v 2.85 1.11 -0.11
v 3.12 1.07 -0.14
v 3.18 0.97 -0.11
v -2.79 1.47 -0.32
v -2.56 1.43 -0.47
v -2.11 1.66 -0.43
v -1.56 1.85 -0.46
v -0.91 1.82 -0.52
v -0.18 1.80 -0.49
v 0.70 1.69 -0.41
v 1.53 1.60 -0.26
v -2.89 1.29 -0.46
v -2.74 1.26 -0.53
v -3.00 1.20 -0.40
v -3.26 0.97 -0.30
v -3.48 0.79 -0.15
v -2.87 1.19 -0.45
v -2.72 1.11 -0.52
v -3.51 0.68 -0.20
v -3.91 0.27 -0.11
v -3.84 0.23 -0.11
v -3.43 0.53 -0.22
v -3.58 0.70 -0.07
v -3.98 0.22 -0.06
v -3.02 0.96 -0.44
v -2.92 1.11 -0.44
v -3.03 1.00 -0.44
v -3.22 0.91 -0.38
v -3.18 0.83 -0.37
v -3.75 0.21 -0.12
v -3.38 0.47 -0.23
v -3.10 0.67 -0.37
v -2.95 0.87 -0.50
v -3.07 0.58 -0.40
v -2.63 0.73 -0.50
v -2.87 0.95 -0.50
v -2.83 1.07 -0.50
v -2.65 0.90 -0.56
v -3.70 0.16 -0.16
v -3.36 0.40 -0.26
v -2.81 0.67 -0.46
v -3.03 0.27 -0.25
v -2.51 0.36 -0.32
v -3.36 0.34 -0.25
v -3.29 0.28 -0.15
v -2.06 0.49 -0.51
v -2.08 0.63 -0.62
v -2.00 1.06 -0.71
v -2.58 0.91 -0.58
v -2.49 1.16 -0.58
v -2.46 1.35 -0.53
v -2.01 1.41 -0.62
v -1.41 1.13 -0.74
v -1.55 1.51 -0.67
v -0.77 1.09 -0.74
v -0.84 1.36 -0.69
v -0.12 1.09 -0.71
v -0.15 1.43 -0.67
v 0.65 0.96 -0.65
v 0.66 1.34 -0.63
v 1.49 0.94 -0.41
v 1.51 1.29 -0.48
v 2.03 0.84 -0.32
v 2.06 1.19 -0.34
v 2.43 0.83 -0.21
v 2.46 1.05 -0.20
v 2.70 0.81 -0.15
v 2.75 0.99 -0.14
v 3.09 0.96 -0.26
v -1.51 0.67 -0.59
v -0.75 0.60 -0.54
v -0.20 0.62 -0.55
v 0.50 0.59 -0.45
v 1.44 0.63 -0.25
v 2.06 0.58 -0.14
v 2.41 0.65 -0.10
v 2.85 0.67 -0.08
v 3.05 0.69 -0.17
v -1.71 0.42 -1.03
v -1.70 0.44 -1.06
v -1.37 0.53 -0.93
v -1.05 0.37 -1.12
v -1.54 0.39 -1.16
v -1.25 0.35 -1.17
v -3.66 0.12 -0.11
v -3.87 0.03 -0.07
v 3.86 0.67 -0.91
v 3.48 0.62 -1.06
v 4.00 0.63 -1.25
v 3.30 0.87 -0.24
v 3.54 0.82 -0.14
v 3.70 0.82 -0.08
v 3.10 0.91 -0.35
v -3.95 0.14 -0.06
v -3.93 0.07 -0.07
v -1.54 0.36 -1.13
v -1.25 0.34 -1.14
v 3.23 0.72 -0.76
v 3.23 0.65 -0.76
v 3.48 0.59 -1.06
v 3.77 0.74 -0.31
f 1 2 3
f 3 4 1
f 4 3 5
f 5 6 4
f 6 5 7
f 7 8 6
f 8 7 9
f 10 11 12
f 13 1 4
f 4 14 13
f 14 4 6
f 6 15 14
f 15 6 8
f 16 17 18
f 17 16 19
f 19 20 17
f 21 22 23
f 23 24 21
f 25 21 24
f 24 23 26
f 26 27 24
f 27 26 2
f 2 1 27
f 27 1 28
f 28 1 13
f 13 29 28
f 29 13 10
f 10 30 29
f 30 10 12
f 31 30 12
f 12 32 31
f 31 32 33
f 33 34 31
f 34 33 35
f 35 36 34
f 36 35 37
f 37 38 36
f 38 37 39
f 39 40 38
f 40 39 41
f 41 42 40
f 43 20 25
f 44 43 25
f 45 44 25
f 25 24 45
f 45 24 27
f 27 46 45
f 46 27 28
f 28 47 46
f 47 28 29
f 29 48 47
f 48 29 30
f 30 49 48
f 49 30 31
f 31 50 49
f 50 31 34
f 44 51 52
f 52 43 44
f 43 52 53
f 53 20 43
f 20 53 54
f 54 17 20
f 17 54 55
f 51 56 57
f 57 52 51
f 52 57 53
f 54 58 55
f 59 60 61
f 61 58 59
f 62 63 64
f 64 65 62
f 17 55 65
f 65 18 17
f 18 65 64
f 66 53 67
f 67 68 66
f 69 54 53
f 53 66 69
f 69 66 68
f 68 70 69
f 58 69 70
f 70 59 58
f 60 59 71
f 71 72 60
f 71 59 70
f 70 73 71
f 70 68 74
f 73 74 75
f 75 76 73
f 65 55 58
f 77 68 67
f 77 67 78
f 77 78 56
f 77 56 79
f 77 79 74
f 77 74 68
f 80 81 72
f 72 71 80
f 76 80 71
f 71 73 76
f 82 76 83
f 83 75 82
f 84 82 75
f 76 82 85
f 85 86 76
f 84 75 87
f 87 88 84
f 87 75 89
f 89 90 87
f 75 79 89
f 89 79 56
f 56 91 89
f 56 51 44
f 44 92 56
f 91 56 92
f 89 91 93
f 93 90 89
f 90 93 94
f 94 95 90
f 95 94 96
f 96 97 95
f 97 96 98
f 98 99 97
f 99 98 100
f 100 101 99
f 101 100 102
f 102 103 101
f 103 102 104
f 104 105 103
f 105 104 106
f 106 107 105
f 107 106 108
f 108 109 107
f 93 91 92
f 93 92 45
f 45 92 44
f 93 45 46
f 46 94 93
f 94 46 47
f 47 96 94
f 96 47 48
f 48 98 96
f 98 48 49
f 49 100 98
f 100 49 50
f 50 102 100
f 102 50 34
f 34 104 102
f 104 34 36
f 36 106 104
f 106 36 38
f 38 108 106
f 108 38 40
f 40 110 108
f 110 40 42
f 87 90 95
f 95 111 87
f 111 95 97
f 97 112 111
f 112 97 99
f 99 113 112
f 113 99 101
f 101 114 113
f 114 101 103
f 103 115 114
f 115 103 105
f 105 116 115
f 116 105 107
f 107 117 116
f 117 107 109
f 109 118 117
f 118 109 119
f 88 87 120
f 120 121 88
f 120 87 111
f 111 122 120
f 120 122 123
f 123 124 120
f 125 120 124
f 111 112 126
f 126 127 111
f 128 114 115
f 115 129 128
f 130 117 118
f 118 131 130
f 132 84 88
f 88 133 132
f 133 88 111
f 111 127 133
f 134 82 84
f 84 132 134
f 135 85 82
f 82 134 135
f 136 137 85
f 85 135 136
f 137 86 85
f 136 138 139
f 139 137 136
f 140 141 142
f 143 144 42
f 42 145 143
f 146 143 145
f 145 147 146
f 108 110 148
f 148 109 108
f 109 148 119
f 65 58 61
f 61 62 65
f 62 149 150
f 150 63 62
f 149 62 61
f 61 60 149
f 86 80 76
f 86 137 81
f 81 80 86
f 139 81 137
f 81 139 151
f 151 72 81
f 72 151 149
f 149 60 72
f 151 139 138
f 138 152 151
f 152 150 149
f 149 151 152
f 67 53 57
f 57 56 78
f 74 79 75
f 54 69 58
f 57 78 67
f 124 153 154
f 154 125 124
f 121 120 125
f 125 154 121
f 153 124 123
f 88 121 122
f 122 111 88
f 154 153 123
f 123 122 154
f 121 154 122
f 13 14 11
f 11 10 13
f 15 155 11
f 11 14 15
f 9 156 155
f 155 15 9
f 8 9 15
f 157 113 114
f 114 128 157
f 112 113 157
f 157 126 112
f 116 117 130
f 130 158 116
f 116 158 129
f 129 115 116
f 159 131 118
f 118 119 159
f 141 160 161
f 161 162 141
f 119 148 162
f 162 161 119
f 160 141 140
f 41 145 42
f 147 159 119
f 163 146 147
f 147 119 163
f 161 163 119
f 160 142 163
f 163 161 160
f 140 142 160
f 163 142 141
f 141 162 163
f 143 146 163
f 163 162 143
f 144 143 162
f 148 144 162
f 110 42 144
f 144 148 110
f 21 164 22
f 164 21 20
f 20 19 164
f 21 25 20
f 165 3 2
f 2 166 165
f 167 5 3
f 3 165 167
f 168 7 5
f 5 167 168
f 9 7 168
f 12 11 169
f 170 165 166
f 166 171 170
f 172 167 165
f 165 170 172
f 168 167 172
f 18 173 16
f 174 19 16
f 16 173 174
f 23 22 175
f 175 176 23
f 177 23 176
f 178 26 23
f 23 177 178
f 166 2 26
f 26 178 166
f 179 166 178
f 180 171 166
f 166 179 180
f 181 169 171
f 171 180 181
f 12 169 181
f 32 12 181
f 181 182 32
f 183 33 32
f 32 182 183
f 184 35 33
f 33 183 184
f 185 37 35
f 35 184 185
f 186 39 37
f 37 185 186
f 187 41 39
f 39 186 187
f 176 174 188
f 176 188 189
f 177 176 189
f 189 190 177
f 191 178 177
f 177 190 191
f 192 179 178
f 178 191 192
f 193 180 179
f 179 192 193
f 194 181 180
f 180 193 194
f 195 182 181
f 181 194 195
f 183 182 195
f 188 196 197
f 197 189 188
f 174 198 196
f 196 188 174
f 199 198 174
f 174 173 199
f 200 199 173
f 196 201 202
f 202 197 196
f 198 201 196
f 200 203 199
f 203 204 205
f 205 206 203
f 207 64 63
f 63 208 207
f 18 207 200
f 200 173 18
f 64 207 18
f 209 210 198
f 198 211 209
f 211 198 199
f 199 212 211
f 213 209 211
f 211 212 213
f 206 213 212
f 212 203 206
f 214 215 206
f 206 205 214
f 216 213 206
f 206 215 216
f 217 209 213
f 218 219 217
f 217 216 218
f 203 200 207
f 210 209 220
f 221 210 220
f 202 221 220
f 222 202 220
f 217 222 220
f 209 217 220
f 215 214 223
f 223 224 215
f 216 215 224
f 224 218 216
f 225 218 226
f 226 227 225
f 219 225 227
f 228 229 226
f 226 218 228
f 230 231 219
f 219 227 230
f 232 233 219
f 219 231 232
f 233 222 219
f 234 202 222
f 222 233 234
f 189 197 202
f 202 234 189
f 235 189 234
f 232 236 234
f 234 233 232
f 237 238 236
f 236 232 237
f 239 240 238
f 238 237 239
f 241 242 240
f 240 239 241
f 243 244 242
f 242 241 243
f 245 246 244
f 244 243 245
f 247 248 246
f 246 245 247
f 249 250 248
f 248 247 249
f 251 252 250
f 250 249 251
f 235 234 236
f 190 235 236
f 189 235 190
f 238 191 190
f 190 236 238
f 240 192 191
f 191 238 240
f 242 193 192
f 192 240 242
f 244 194 193
f 193 242 244
f 246 195 194
f 194 244 246
f 248 183 195
f 195 246 248
f 250 184 183
f 183 248 250
f 252 185 184
f 184 250 252
f 253 186 185
f 185 252 253
f 187 186 253
f 254 237 232
f 232 231 254
f 255 239 237
f 237 254 255
f 256 241 239
f 239 255 256
f 257 243 241
f 241 256 257
f 258 245 243
f 243 257 258
f 259 247 245
f 245 258 259
f 260 249 247
f 247 259 260
f 261 251 249
f 249 260 261
f 262 251 261
f 263 264 231
f 231 230 263
f 265 254 231
f 231 264 265
f 266 265 264
f 264 267 266
f 268 266 267
f 127 126 255
f 255 254 127
f 129 258 257
f 257 128 129
f 131 261 260
f 260 130 131
f 133 230 227
f 227 132 133
f 127 254 230
f 230 133 127
f 132 227 226
f 226 134 132
f 134 226 229
f 229 135 134
f 135 229 269
f 269 136 135
f 229 228 269
f 269 270 138
f 138 136 269
f 271 272 273
f 145 187 274
f 274 275 145
f 147 145 275
f 275 276 147
f 251 277 253
f 253 252 251
f 262 277 251
f 208 204 203
f 203 207 208
f 63 150 278
f 278 208 63
f 205 204 208
f 208 278 205
f 218 224 228
f 224 223 269
f 269 228 224
f 269 223 270
f 214 279 270
f 270 223 214
f 205 278 279
f 279 214 205
f 152 138 270
f 270 279 152
f 279 278 150
f 150 152 279
f 201 198 210
f 221 202 201
f 219 222 217
f 203 212 199
f 210 221 201
f 267 280 281
f 281 268 267
f 280 267 264
f 264 263 280
f 266 268 281
f 254 265 263
f 263 230 254
f 266 281 280
f 280 263 266
f 265 266 263
f 169 11 170
f 170 171 169
f 170 11 155
f 155 172 170
f 155 156 9
f 9 168 155
f 172 155 168
f 128 257 256
f 256 157 128
f 126 157 256
f 256 255 126
f 158 130 260
f 260 259 158
f 258 129 158
f 158 259 258
f 262 261 131
f 131 159 262
f 282 283 284
f 284 272 282
f 283 282 277
f 277 262 283
f 273 272 284
f 187 145 41
f 262 159 147
f 147 276 285
f 285 283 147
f 262 147 283
f 283 285 271
f 271 284 283
f 284 271 273
f 282 272 271
f 271 285 282
f 282 285 276
f 276 275 282
f 282 275 274
f 282 274 277
f 277 274 187
f 187 253 277
f 22 164 175
f 19 174 175
f 175 164 19
f 174 176 175
f 213 216 217
f 74 73 70
