v 35.76 37.26 51.15
v 34.68 37.26 63.57
v 29.41 37.26 74.87
v 20.59 37.26 83.69
v 9.29 37.26 88.96
v -3.13 37.26 90.04
v -15.17 37.26 86.81
v -25.39 37.26 79.66
v -32.54 37.26 69.45
v -35.76 37.26 57.41
v -34.68 37.26 44.99
v -29.41 37.26 33.69
v -20.59 37.26 24.87
v -9.29 37.26 19.60
v 3.13 37.26 18.51
v 15.17 37.26 21.74
v 25.39 37.26 28.89
v 32.54 37.26 39.10
v 35.76 15.72 57.41
v 32.54 15.72 69.45
v 25.39 15.72 79.66
v 15.17 15.72 86.81
v 3.13 15.72 90.04
v -9.29 15.72 88.96
v -20.59 15.72 83.69
v -29.41 15.72 74.87
v -34.68 15.72 63.57
v -35.76 15.72 51.15
v -32.54 15.72 39.10
v -25.39 15.72 28.89
v -15.17 15.72 21.74
v -3.13 15.72 18.51
v 9.29 15.72 19.60
v 20.59 15.72 24.87
v 29.41 15.72 33.69
v 34.68 15.72 44.99
v 35.76 15.72 51.15
v 34.68 15.72 63.57
v 29.41 15.72 74.87
v 20.59 15.72 83.69
v 9.29 15.72 88.96
v -3.13 15.72 90.04
v -15.17 15.72 86.81
v -25.39 15.72 79.66
v -32.54 15.72 69.45
v -35.76 15.72 57.41
v -34.68 15.72 44.99
v -29.41 15.72 33.69
v -20.59 15.72 24.87
v -9.29 15.72 19.60
v 3.13 15.72 18.51
v 15.17 15.72 21.74
v 25.39 15.72 28.89
v 32.54 15.72 39.10
v 34.33 8.54 57.28
v 31.24 8.54 68.84
v 24.37 8.54 78.65
v 14.57 8.54 85.51
v 3.00 8.54 88.61
v -8.92 8.54 87.57
v -19.77 8.54 82.51
v -28.23 8.54 74.05
v -33.29 8.54 63.20
v -34.33 8.54 51.27
v -31.24 8.54 39.71
v -24.37 8.54 29.91
v -14.57 8.54 23.04
v -3.00 8.54 19.94
v 8.92 8.54 20.99
v 19.77 8.54 26.05
v 28.23 8.54 34.51
v 33.29 8.54 45.36
v 34.33 8.54 51.27
v 33.29 8.54 63.20
v 28.23 8.54 74.05
v 19.77 8.54 82.51
v 8.92 8.54 87.57
v -3.00 8.54 88.61
v -14.57 8.54 85.51
v -24.37 8.54 78.65
v -31.24 8.54 68.84
v -34.33 8.54 57.28
v -33.29 8.54 45.36
v -28.23 8.54 34.51
v -19.77 8.54 26.05
v -8.92 8.54 20.99
v 3.00 8.54 19.94
v 14.57 8.54 23.04
v 24.37 8.54 29.91
v 31.24 8.54 39.71
v 32.90 1.36 57.16
v 29.93 1.36 68.24
v 23.36 1.36 77.63
v 13.96 1.36 84.21
v 2.88 1.36 87.18
v -8.55 1.36 86.18
v -18.94 1.36 81.33
v -27.06 1.36 73.22
v -31.90 1.36 62.83
v -32.90 1.36 51.40
v -29.93 1.36 40.32
v -23.36 1.36 30.92
v -13.96 1.36 24.34
v -2.88 1.36 21.37
v 8.55 1.36 22.37
v 18.94 1.36 27.22
v 27.06 1.36 35.33
v 31.90 1.36 45.73
v 32.90 1.36 51.40
v 31.90 1.36 62.83
v 27.06 1.36 73.22
v 18.94 1.36 81.33
v 8.55 1.36 86.18
v -2.88 1.36 87.18
v -13.96 1.36 84.21
v -23.36 1.36 77.63
v -29.93 1.36 68.24
v -32.90 1.36 57.16
v -31.90 1.36 45.73
v -27.06 1.36 35.33
v -18.94 1.36 27.22
v -8.55 1.36 22.37
v 2.88 1.36 21.37
v 13.96 1.36 24.34
v 23.36 1.36 30.92
v 29.93 1.36 40.32
v 29.76 -5.82 56.88
v 27.07 -5.82 66.90
v 21.12 -5.82 75.40
v 12.62 -5.82 81.35
v 2.60 -5.82 84.03
v -7.73 -5.82 83.13
v -17.13 -5.82 78.75
v -24.47 -5.82 71.41
v -28.85 -5.82 62.01
v -29.76 -5.82 51.67
v -27.07 -5.82 41.65
v -21.12 -5.82 33.16
v -12.62 -5.82 27.21
v -2.60 -5.82 24.52
v 7.73 -5.82 25.43
v 17.13 -5.82 29.81
v 24.47 -5.82 37.14
v 28.85 -5.82 46.55
v 29.76 -5.82 51.67
v 28.85 -5.82 62.01
v 24.47 -5.82 71.41
v 17.13 -5.82 78.75
v 7.73 -5.82 83.13
v -2.60 -5.82 84.03
v -12.62 -5.82 81.35
v -21.12 -5.82 75.40
v -27.07 -5.82 66.90
v -29.76 -5.82 56.88
v -28.85 -5.82 46.55
v -24.47 -5.82 37.14
v -17.13 -5.82 29.81
v -7.73 -5.82 25.43
v 2.60 -5.82 24.52
v 12.62 -5.82 27.21
v 21.12 -5.82 33.16
v 27.07 -5.82 41.65
v 26.11 -13.00 56.56
v 23.75 -13.00 65.35
v 18.53 -13.00 72.81
v 11.08 -13.00 78.03
v 2.28 -13.00 80.39
v -6.78 -13.00 79.59
v -15.03 -13.00 75.75
v -21.47 -13.00 69.31
v -25.31 -13.00 61.06
v -26.11 -13.00 51.99
v -23.75 -13.00 43.20
v -18.53 -13.00 35.75
v -11.08 -13.00 30.52
v -2.28 -13.00 28.17
v 6.78 -13.00 28.96
v 15.03 -13.00 32.81
v 21.47 -13.00 39.25
v 25.31 -13.00 47.49
v 0.00 -13.00 54.28
v 26.21 -13.00 54.28
v 24.63 -13.00 63.24
v 20.08 -13.00 71.12
v 13.10 -13.00 76.97
v 4.55 -13.00 80.09
v -4.55 -13.00 80.09
v -13.10 -13.00 76.97
v -20.08 -13.00 71.12
v -24.63 -13.00 63.24
v -26.21 -13.00 54.28
v -24.63 -13.00 45.31
v -20.08 -13.00 37.43
v -13.10 -13.00 31.58
v -4.55 -13.00 28.47
v 4.55 -13.00 28.47
v 13.10 -13.00 31.58
v 20.08 -13.00 37.43
v 24.63 -13.00 45.31
v 24.14 -13.00 52.17
v 23.41 -13.00 60.55
v 19.85 -13.00 68.18
v 13.90 -13.00 74.13
v 6.27 -13.00 77.68
v -2.11 -13.00 78.42
v -10.24 -13.00 76.24
v -17.14 -13.00 71.41
v -21.96 -13.00 64.52
v -24.14 -13.00 56.39
v -23.41 -13.00 48.01
v -19.85 -13.00 40.38
v -13.90 -13.00 34.43
v -6.27 -13.00 30.87
v 2.11 -13.00 30.14
v 10.24 -13.00 32.31
v 17.14 -13.00 37.14
v 21.96 -13.00 44.04
v 21.46 -27.36 56.15
v 19.52 -27.36 63.38
v 15.23 -27.36 69.51
v 9.10 -27.36 73.80
v 1.88 -27.36 75.74
v -5.58 -27.36 75.08
v -12.36 -27.36 71.92
v -17.65 -27.36 66.63
v -20.81 -27.36 59.85
v -21.46 -27.36 52.40
v -19.52 -27.36 45.17
v -15.23 -27.36 39.05
v -9.10 -27.36 34.75
v -1.88 -27.36 32.82
v 5.58 -27.36 33.47
v 12.36 -27.36 36.63
v 17.65 -27.36 41.92
v 20.81 -27.36 48.70
v 0.00 -27.36 54.28
v 21.54 -27.36 54.28
v 20.24 -27.36 61.64
v 16.50 -27.36 68.12
v 10.77 -27.36 72.93
v 3.74 -27.36 75.49
v -3.74 -27.36 75.49
v -10.77 -27.36 72.93
v -16.50 -27.36 68.12
v -20.24 -27.36 61.64
v -21.54 -27.36 54.28
v -20.24 -27.36 46.91
v -16.50 -27.36 40.43
v -10.77 -27.36 35.62
v -3.74 -27.36 33.06
v 3.74 -27.36 33.06
v 10.77 -27.36 35.62
v 16.50 -27.36 40.43
v 20.24 -27.36 46.91
v 17.88 -27.36 52.71
v 17.34 -27.36 58.92
v 14.70 -27.36 64.57
v 10.30 -27.36 68.98
v 4.65 -27.36 71.62
v -1.56 -27.36 72.16
v -7.59 -27.36 70.55
v -12.69 -27.36 66.97
v -16.27 -27.36 61.86
v -17.88 -27.36 55.84
v -17.34 -27.36 49.63
v -14.70 -27.36 43.98
v -10.30 -27.36 39.57
v -4.65 -27.36 36.94
v 1.56 -27.36 36.39
v 7.59 -27.36 38.01
v 12.69 -27.36 41.58
v 16.27 -27.36 46.69
v 17.88 -30.95 55.84
v 16.27 -30.95 61.86
v 12.69 -30.95 66.97
v 7.59 -30.95 70.55
v 1.56 -30.95 72.16
v -4.65 -30.95 71.62
v -10.30 -30.95 68.98
v -14.70 -30.95 64.57
v -17.34 -30.95 58.92
v -17.88 -30.95 52.71
v -16.27 -30.95 46.69
v -12.69 -30.95 41.58
v -7.59 -30.95 38.01
v -1.56 -30.95 36.39
v 4.65 -30.95 36.94
v 10.30 -30.95 39.57
v 14.70 -30.95 43.98
v 17.34 -30.95 49.63
v 32.19 109.06 51.46
v 31.21 109.06 62.64
v 26.47 109.06 72.81
v 18.53 109.06 80.74
v 8.36 109.06 85.49
v -2.82 109.06 86.47
v -13.66 109.06 83.56
v -22.85 109.06 77.12
v -29.28 109.06 67.93
v -32.19 109.06 57.09
v -31.21 109.06 45.91
v -26.47 109.06 35.74
v -18.53 109.06 27.81
v -8.36 109.06 23.07
v 2.82 109.06 22.09
v 13.66 109.06 24.99
v 22.85 109.06 31.43
v 29.28 109.06 40.62
v 35.76 37.26 57.41
v 32.54 37.26 69.45
v 25.39 37.26 79.66
v 15.17 37.26 86.81
v 3.13 37.26 90.04
v -9.29 37.26 88.96
v -20.59 37.26 83.69
v -29.41 37.26 74.87
v -34.68 37.26 63.57
v -35.76 37.26 51.15
v -32.54 37.26 39.10
v -25.39 37.26 28.89
v -15.17 37.26 21.74
v -3.13 37.26 18.51
v 9.29 37.26 19.60
v 20.59 37.26 24.87
v 29.41 37.26 33.69
v 34.68 37.26 44.99
v 32.19 109.06 57.09
v 31.21 109.06 45.91
v 26.47 109.06 35.74
v 18.53 109.06 27.81
v 8.36 109.06 23.07
v -2.82 109.06 22.09
v -13.66 109.06 24.99
v -22.85 109.06 31.43
v -29.28 109.06 40.62
v -32.19 109.06 51.46
v -31.21 109.06 62.64
v -26.47 109.06 72.81
v -18.53 109.06 80.74
v -8.36 109.06 85.49
v 2.82 109.06 86.47
v 13.66 109.06 83.56
v 22.85 109.06 77.12
v 29.28 109.06 67.93
v 23.60 173.68 52.21
v 21.47 173.68 44.26
v 16.75 173.68 37.52
v 10.01 173.68 32.80
v 2.07 173.68 30.67
v -6.13 173.68 31.39
v -13.59 173.68 34.87
v -19.41 173.68 40.69
v -22.89 173.68 48.14
v -23.60 173.68 56.34
v -21.47 173.68 64.29
v -16.75 173.68 71.03
v -10.01 173.68 75.75
v -2.07 173.68 77.88
v 6.13 173.68 77.16
v 13.59 173.68 73.69
v 19.41 173.68 67.87
v 22.89 173.68 60.41
v 23.69 173.68 54.17
v 22.86 173.68 48.04
v 20.47 173.68 42.34
v 16.68 173.68 37.45
v 11.76 173.68 33.71
v 6.03 173.68 31.36
v -0.10 173.68 30.58
v -6.23 173.68 31.42
v -11.94 173.68 33.81
v -16.83 173.68 37.60
v -20.57 173.68 42.52
v -22.91 173.68 48.24
v -23.69 173.68 54.38
v 14.23 216.76 52.34
v 16.54 209.58 50.93
v 14.17 202.40 50.47
v 10.84 195.22 48.60
v 6.77 183.02 44.84
v 2.15 177.27 40.04
v -2.43 177.27 40.08
v -6.97 183.02 44.90
v -11.02 195.22 48.70
v -14.31 202.40 50.59
v -16.63 209.58 51.07
v -14.25 216.76 52.46
v -13.36 216.76 52.43
v -11.49 216.76 52.43
v -8.90 216.76 52.43
v -5.60 216.76 52.43
v -2.01 216.76 52.43
v 1.72 216.76 52.43
v 5.31 216.76 52.43
v 8.62 216.76 52.43
v 11.34 216.76 52.43
v 13.21 216.76 52.43
v 14.23 216.76 52.34
v 14.25 216.76 56.09
v 13.30 205.99 57.56
v 11.43 209.58 62.97
v 8.79 216.76 65.63
v 5.55 216.76 67.52
v 1.94 216.76 68.51
v -1.81 216.76 68.52
v -5.44 216.76 67.57
v -8.69 216.76 65.71
v -11.35 209.58 63.07
v -13.24 205.99 57.68
v -14.23 216.76 56.21
v -13.93 216.76 52.43
v 23.69 173.68 54.17
v 22.91 173.68 60.31
v 20.57 173.68 66.04
v 16.83 173.68 70.96
v 11.94 173.68 74.75
v 6.23 173.68 77.14
v 0.10 173.68 77.97
v -6.03 173.68 77.19
v -11.76 173.68 74.85
v -16.68 173.68 71.10
v -20.47 173.68 66.21
v -22.86 173.68 60.51
v -23.69 173.68 54.38
v -0.18 177.48 56.16
v 14.24 216.76 52.40
v 14.24 216.76 56.15
v 13.27 205.99 57.62
v 11.39 209.58 63.02
v 8.74 216.76 65.67
v 5.50 216.76 67.54
v 1.87 216.76 68.51
v -1.87 216.76 68.51
v -5.50 216.76 67.54
v -8.74 216.76 65.67
v -11.39 209.58 63.02
v -13.26 205.99 57.62
v -14.24 216.76 56.15
v -14.24 216.76 52.40
v 10.77 203.84 56.43
v 10.12 207.52 56.43
v 8.25 210.76 56.43
v 5.39 213.17 56.43
v 1.87 214.45 56.43
v -1.87 214.45 56.43
v -5.39 213.17 56.43
v -8.25 210.76 56.43
v -10.12 207.52 56.43
v -10.77 203.84 56.43
v 9.80 205.57 60.55
v 8.62 208.82 60.55
v 6.40 211.46 60.55
v 3.40 213.19 60.55
v 0.00 213.79 60.55
v -3.40 213.19 60.55
v -6.40 211.46 60.55
v -8.62 208.82 60.55
v -9.80 205.57 60.55
v 7.16 206.44 64.05
v 5.83 208.74 64.05
v 3.81 210.44 64.05
v 1.32 211.34 64.05
v -1.32 211.34 64.05
v -3.81 210.44 64.05
v -5.83 208.74 64.05
v -7.16 206.44 64.05
v -7.62 203.84 64.05
v 7.62 203.84 64.05
v 3.57 205.90 66.38
v 2.65 207.00 66.38
v 1.41 207.71 66.38
v 0.00 207.96 66.38
v -1.41 207.71 66.38
v -2.65 207.00 66.38
v -3.57 205.90 66.38
v -4.06 204.56 66.38
v 4.06 204.56 66.38
v 0.00 203.84 67.20
v 0.00 -99.17 133.26
v 136.42 -99.17 133.26
v 131.78 -134.48 133.26
v 118.15 -167.38 133.26
v 96.47 -195.63 133.26
v 68.21 -217.31 133.26
v 35.31 -230.94 133.26
v 0.00 -235.59 133.26
v -35.31 -230.94 133.26
v -68.21 -217.31 133.26
v -96.47 -195.63 133.26
v -118.15 -167.38 133.26
v -131.78 -134.48 133.26
v -136.42 -99.17 133.26
v -131.78 -63.86 133.26
v -118.15 -30.95 133.26
v -96.47 -2.70 133.26
v -68.21 18.98 133.26
v -35.31 32.61 133.26
v 0.00 37.26 133.26
v 35.31 32.61 133.26
v 68.21 18.98 133.26
v 96.47 -2.70 133.26
v 118.15 -30.95 133.26
v 131.78 -63.86 133.26
v 143.61 -99.17 142.83
v 138.71 -136.33 142.83
v 124.37 -170.97 142.83
v 101.54 -200.71 142.83
v 71.80 -223.53 142.83
v 37.17 -237.88 142.83
v 0.00 -242.77 142.83
v -37.17 -237.88 142.83
v -71.80 -223.53 142.83
v -101.54 -200.71 142.83
v -124.37 -170.97 142.83
v -138.71 -136.33 142.83
v -143.60 -99.17 142.83
v -138.71 -62.00 142.83
v -124.37 -27.36 142.83
v -101.54 2.38 142.83
v -71.80 25.20 142.83
v -37.17 39.55 142.83
v 0.00 44.44 142.83
v 37.17 39.55 142.83
v 71.80 25.20 142.83
v 101.54 2.38 142.83
v 124.37 -27.36 142.83
v 138.71 -62.00 142.83
v 0.00 -99.17 142.83
v 142.49 -99.17 144.03
v 137.64 -62.29 144.03
v 123.40 -27.92 144.03
v 100.76 1.59 144.03
v 71.25 24.24 144.03
v 36.88 38.47 144.03
v 0.00 43.33 144.03
v -36.88 38.47 144.03
v -71.25 24.24 144.03
v -100.76 1.59 144.03
v -123.40 -27.92 144.03
v -137.64 -62.29 144.03
v -142.49 -99.17 144.03
v -137.64 -136.05 144.03
v -123.40 -170.41 144.03
v -100.76 -199.92 144.03
v -71.25 -222.57 144.03
v -36.88 -236.80 144.03
v 0.00 -241.66 144.03
v 36.88 -236.80 144.03
v 71.25 -222.57 144.03
v 100.76 -199.92 144.03
v 123.40 -170.41 144.03
v 137.64 -136.05 144.03
v 71.80 -99.17 147.62
v 69.36 -80.58 147.62
v 62.18 -63.27 147.62
v 50.77 -48.39 147.62
v 35.90 -36.98 147.62
v 18.58 -29.81 147.62
v 0.00 -27.36 147.62
v -18.58 -29.81 147.62
v -35.90 -36.98 147.62
v -50.77 -48.39 147.62
v -62.18 -63.27 147.62
v -69.36 -80.58 147.62
v -71.80 -99.17 147.62
v -69.36 -117.75 147.62
v -62.18 -135.07 147.62
v -50.77 -149.94 147.62
v -35.90 -161.35 147.62
v -18.58 -168.52 147.62
v 0.00 -170.97 147.62
v 18.58 -168.52 147.62
v 35.90 -161.35 147.62
v 50.77 -149.94 147.62
v 62.18 -135.07 147.62
v 69.36 -117.75 147.62
v 35.90 -99.17 151.21
v 34.68 -89.87 151.21
v 31.09 -81.22 151.21
v 25.39 -73.78 151.21
v 17.95 -68.08 151.21
v 9.29 -64.49 151.21
v 0.00 -63.27 151.21
v -9.29 -64.49 151.21
v -17.95 -68.08 151.21
v -25.39 -73.78 151.21
v -31.09 -81.22 151.21
v -34.68 -89.87 151.21
v -35.90 -99.17 151.21
v -34.68 -108.46 151.21
v -31.09 -117.12 151.21
v -25.39 -124.55 151.21
v -17.95 -130.26 151.21
v -9.29 -133.84 151.21
v 0.00 -135.07 151.21
v 9.29 -133.84 151.21
v 17.95 -130.26 151.21
v 25.39 -124.55 151.21
v 31.09 -117.12 151.21
v 34.68 -108.46 151.21
v 21.54 -99.17 154.80
v 20.81 -93.59 154.80
v 18.65 -88.40 154.80
v 15.23 -83.94 154.80
v 10.77 -80.51 154.80
v 5.58 -78.36 154.80
v 0.00 -77.63 154.80
v -5.58 -78.36 154.80
v -10.77 -80.51 154.80
v -15.23 -83.94 154.80
v -18.65 -88.40 154.80
v -20.81 -93.59 154.80
v -21.54 -99.17 154.80
v -20.81 -104.74 154.80
v -18.65 -109.94 154.80
v -15.23 -114.40 154.80
v -10.77 -117.82 154.80
v -5.58 -119.97 154.80
v 0.00 -120.71 154.80
v 5.58 -119.97 154.80
v 10.77 -117.82 154.80
v 15.23 -114.40 154.80
v 18.65 -109.94 154.80
v 20.81 -104.74 154.80
v 0.00 -99.17 111.72
v 135.71 -99.17 133.26
v 131.08 -134.29 133.26
v 117.53 -167.02 133.26
v 95.96 -195.13 133.26
v 67.85 -216.69 133.26
v 35.12 -230.25 133.26
v 0.00 -234.87 133.26
v -35.12 -230.25 133.26
v -67.85 -216.69 133.26
v -95.96 -195.13 133.26
v -117.53 -167.02 133.26
v -131.08 -134.29 133.26
v -135.71 -99.17 133.26
v -131.08 -64.04 133.26
v -117.53 -31.31 133.26
v -95.96 -3.21 133.26
v -67.85 18.36 133.26
v -35.12 31.92 133.26
v 0.00 36.54 133.26
v 35.12 31.92 133.26
v 67.85 18.36 133.26
v 95.96 -3.21 133.26
v 117.53 -31.31 133.26
v 131.08 -64.04 133.26
v 71.80 -99.17 133.26
v 69.36 -117.75 133.26
v 62.18 -135.07 133.26
v 50.77 -149.94 133.26
v 35.90 -161.35 133.26
v 18.58 -168.52 133.26
v 0.00 -170.97 133.26
v -18.58 -168.52 133.26
v -35.90 -161.35 133.26
v -50.77 -149.94 133.26
v -62.18 -135.07 133.26
v -69.36 -117.75 133.26
v -71.80 -99.17 133.26
v -69.36 -80.58 133.26
v -62.18 -63.27 133.26
v -50.77 -48.39 133.26
v -35.90 -36.98 133.26
v -18.58 -29.81 133.26
v 0.00 -27.36 133.26
v 18.58 -29.81 133.26
v 35.90 -36.98 133.26
v 50.77 -48.39 133.26
v 62.18 -63.27 133.26
v 69.36 -80.58 133.26
v 35.90 -99.17 126.08
v 34.68 -108.46 126.08
v 31.09 -117.12 126.08
v 25.39 -124.55 126.08
v 17.95 -130.26 126.08
v 9.29 -133.84 126.08
v 0.00 -135.07 126.08
v -9.29 -133.84 126.08
v -17.95 -130.26 126.08
v -25.39 -124.55 126.08
v -31.09 -117.12 126.08
v -34.68 -108.46 126.08
v -35.90 -99.17 126.08
v -34.68 -89.87 126.08
v -31.09 -81.22 126.08
v -25.39 -73.78 126.08
v -17.95 -68.08 126.08
v -9.29 -64.49 126.08
v 0.00 -63.27 126.08
v 9.29 -64.49 126.08
v 17.95 -68.08 126.08
v 25.39 -73.78 126.08
v 31.09 -81.22 126.08
v 34.68 -89.87 126.08
v 21.54 -99.17 118.90
v 20.81 -104.74 118.90
v 18.65 -109.94 118.90
v 15.23 -114.40 118.90
v 10.77 -117.82 118.90
v 5.58 -119.97 118.90
v 0.00 -120.71 118.90
v -5.58 -119.97 118.90
v -10.77 -117.82 118.90
v -15.23 -114.40 118.90
v -18.65 -109.94 118.90
v -20.81 -104.74 118.90
v -21.54 -99.17 118.90
v -20.81 -93.59 118.90
v -18.65 -88.40 118.90
v -15.23 -83.94 118.90
v -10.77 -80.51 118.90
v -5.58 -78.36 118.90
v 0.00 -77.63 118.90
v 5.58 -78.36 118.90
v 10.77 -80.51 118.90
v 15.23 -83.94 118.90
v 18.65 -88.40 118.90
v 20.81 -93.59 118.90
v 10.77 -99.17 111.72
v 10.40 -101.95 111.72
v 9.33 -104.55 111.72
v 7.62 -106.78 111.72
v 5.39 -108.49 111.72
v 2.79 -109.57 111.72
v 0.00 -109.94 111.72
v -2.79 -109.57 111.72
v -5.39 -108.49 111.72
v -7.62 -106.78 111.72
v -9.33 -104.55 111.72
v -10.40 -101.95 111.72
v -10.77 -99.17 111.72
v -10.40 -96.38 111.72
v -9.33 -93.78 111.72
v -7.62 -91.55 111.72
v -5.39 -89.84 111.72
v -2.79 -88.76 111.72
v 0.00 -88.40 111.72
v 2.79 -88.76 111.72
v 5.39 -89.84 111.72
v 7.62 -91.55 111.72
v 9.33 -93.78 111.72
v 10.40 -96.38 111.72
v 7.62 -106.78 158.39
v 9.33 -104.55 158.39
v 10.40 -101.95 158.39
v 10.77 -99.17 158.39
v 10.40 -96.38 158.39
v 9.33 -93.78 158.39
v 7.62 -91.55 158.39
v 5.39 -89.84 158.39
v 2.79 -88.76 158.39
v 0.00 -88.40 158.39
v -2.79 -88.76 158.39
v -5.39 -89.84 158.39
v -7.62 -91.55 158.39
v -9.33 -93.78 158.39
v -10.40 -96.38 158.39
v -10.77 -99.17 158.39
v -10.40 -101.95 158.39
v -9.33 -104.55 158.39
v -7.62 -106.78 158.39
v -5.39 -108.49 158.39
v -2.79 -109.57 158.39
v 0.00 -109.94 158.39
v 2.79 -109.57 158.39
v 5.39 -108.49 158.39
v 11.39 -107.91 157.43
v 13.27 -104.66 157.43
v 14.24 -101.04 157.43
v 14.24 -97.29 157.43
v 13.27 -93.67 157.43
v 11.39 -90.42 157.43
v 8.74 -87.77 157.43
v 5.50 -85.90 157.43
v 1.87 -84.93 157.43
v -1.87 -84.93 157.43
v -5.50 -85.90 157.43
v -8.74 -87.77 157.43
v -11.39 -90.42 157.43
v -13.27 -93.67 157.43
v -14.24 -97.29 157.43
v -14.24 -101.04 157.43
v -13.27 -104.66 157.43
v -11.39 -107.91 157.43
v -8.74 -110.56 157.43
v -5.50 -112.43 157.43
v -1.87 -113.40 157.43
v 1.87 -113.40 157.43
v 5.50 -112.43 157.43
v 8.74 -110.56 157.43
v 17.66 -109.36 154.80
v 19.69 -104.44 154.80
v 20.39 -99.17 154.80
v 19.69 -93.89 154.80
v 17.66 -88.97 154.80
v 14.42 -84.75 154.80
v 10.19 -81.51 154.80
v 5.28 -79.48 154.80
v 0.00 -78.78 154.80
v -5.28 -79.48 154.80
v -10.19 -81.51 154.80
v -14.42 -84.75 154.80
v -17.66 -88.97 154.80
v -19.69 -93.89 154.80
v -20.39 -99.17 154.80
v -19.69 -104.44 154.80
v -17.66 -109.36 154.80
v -14.42 -113.58 154.80
v -10.19 -116.82 154.80
v -5.28 -118.86 154.80
v 0.00 -119.55 154.80
v 5.28 -118.86 154.80
v 10.19 -116.82 154.80
v 14.42 -113.58 154.80
v 0.00 -99.17 154.80
v 20.81 -104.74 154.74
v 18.65 -109.94 154.69
v 15.23 -114.40 154.64
v 10.77 -117.82 154.61
v 5.58 -119.97 154.58
v 0.00 -120.71 154.58
v -5.58 -119.97 154.58
v -10.77 -117.82 154.61
v -15.23 -114.40 154.64
v -18.65 -109.94 154.69
v -20.81 -104.74 154.74
v -21.54 -99.17 154.80
v -20.81 -93.59 154.86
v -18.65 -88.40 154.91
v -15.23 -83.94 154.96
v -10.77 -80.51 155.00
v -5.58 -78.36 155.02
v 0.00 -77.63 155.03
v 5.58 -78.36 155.02
v 10.77 -80.51 155.00
v 15.23 -83.94 154.96
v 18.65 -88.40 154.91
v 20.81 -93.59 154.86
v 0.00 -99.24 158.36
v 10.77 -99.24 158.36
v 10.40 -102.03 158.36
v 9.33 -104.63 158.36
v 7.62 -106.86 158.36
v 5.39 -108.57 158.36
v 2.79 -109.65 158.36
v 0.00 -110.01 158.36
v -2.79 -109.65 158.36
v -5.39 -108.57 158.36
v -7.62 -106.86 158.36
v -9.33 -104.63 158.36
v -10.40 -102.03 158.36
v -10.77 -99.24 158.36
v -10.40 -96.45 158.36
v -9.33 -93.86 158.36
v -7.62 -91.63 158.36
v -5.39 -89.91 158.36
v -2.79 -88.84 158.36
v 0.00 -88.47 158.36
v 2.79 -88.84 158.36
v 5.39 -89.91 158.36
v 7.62 -91.63 158.36
v 9.33 -93.86 158.36
v 10.40 -96.45 158.36
v 11.94 -97.06 155.88
v 10.50 -93.10 155.88
v 7.79 -89.88 155.88
v 4.15 -87.77 155.88
v 0.00 -87.04 155.88
v -4.15 -87.77 155.88
v -7.79 -89.88 155.88
v -10.50 -93.10 155.88
v -11.94 -97.06 155.88
v -11.94 -101.27 155.88
v -10.50 -105.23 155.88
v -7.79 -108.46 155.88
v -4.15 -110.56 155.88
v 0.00 -111.29 155.88
v 4.15 -110.56 155.88
v 7.79 -108.46 155.88
v 10.50 -105.23 155.88
v 11.94 -101.27 155.88
v 5.06 -97.32 159.82
v 4.13 -95.71 159.82
v 2.69 -94.50 159.82
v 0.94 -93.86 159.82
v -0.94 -93.86 159.82
v -2.69 -94.50 159.82
v -4.13 -95.71 159.82
v -5.06 -97.32 159.82
v -5.39 -99.17 159.82
v -5.06 -101.01 159.82
v -4.13 -102.63 159.82
v -2.69 -103.83 159.82
v -0.94 -104.47 159.82
v 0.94 -104.47 159.82
v 2.69 -103.83 159.82
v 4.13 -102.63 159.82
v 5.06 -101.01 159.82
v 5.39 -99.17 159.82
v 0.00 -99.17 161.26
v -14.31 -100.42 115.31
v -13.87 -95.45 115.31
v -11.76 -90.93 115.31
v -8.24 -87.40 115.31
v -3.72 -85.30 115.31
v 1.25 -84.86 115.31
v 6.07 -86.15 115.31
v 10.15 -89.01 115.31
v 13.02 -93.10 115.31
v 14.31 -97.92 115.31
v 13.87 -102.88 115.31
v 11.76 -107.40 115.31
v 8.24 -110.93 115.31
v 3.72 -113.04 115.31
v -1.25 -113.47 115.31
v -6.07 -112.18 115.31
v -10.15 -109.32 115.31
v -13.01 -105.24 115.31
v 0.00 -99.17 108.13
v 7.21 -52.47 143.31
v 8.01 28.31 133.62
v 8.01 52.55 133.62
v 8.01 52.55 144.39
v 8.01 28.31 144.39
v 21.75 -52.47 143.31
v 24.17 28.31 135.77
v 24.17 52.55 135.77
v 24.17 52.55 142.24
v 24.17 28.31 142.24
v -7.33 -52.47 143.31
v -8.15 28.31 133.62
v -8.15 52.55 133.62
v -8.15 52.55 144.39
v -8.15 28.31 144.39
v 7.21 -52.47 143.31
v 8.01 28.31 133.62
v 8.01 52.55 133.62
v 8.01 52.55 144.39
v 8.01 28.31 144.39
v -7.33 -52.47 143.31
v -8.15 28.31 133.62
v -8.15 52.55 133.62
v -8.15 52.55 144.39
v -8.15 28.31 144.39
v 7.21 -52.47 143.31
v 8.01 28.31 133.62
v 8.01 52.55 133.62
v 8.01 52.55 144.39
v 8.01 28.31 144.39
v -21.87 -52.47 143.31
v -24.30 28.31 135.77
v -24.30 52.55 135.77
v -24.30 52.55 142.24
v -24.30 28.31 142.24
v -7.33 -52.47 143.31
v -8.15 28.31 133.62
v -8.15 52.55 133.62
v -8.15 52.55 144.39
v -8.15 28.31 144.39
v -6.91 15.66 111.72
v -3.38 -5.88 75.82
v -3.38 -5.88 90.18
v -3.38 -41.78 133.26
v -6.91 30.02 133.26
v -6.91 44.38 90.18
v -6.91 44.38 75.82
v 3.80 -5.88 75.82
v 3.80 -5.88 90.18
v 3.80 -41.78 133.26
v 7.45 30.02 133.26
v 7.45 44.38 90.18
v 7.45 44.38 75.82
v 7.45 15.66 111.72
v -2.14 26.52 97.36
v -3.56 -9.38 93.77
v -3.56 -20.15 93.77
v -3.56 -20.15 100.95
v -3.56 -9.38 100.95
v -6.44 26.52 97.36
v -10.74 -9.38 95.20
v -10.74 -20.15 95.20
v -10.74 -20.15 99.51
v -10.74 -9.38 99.51
v 2.17 26.52 97.36
v 3.62 -9.38 93.77
v 3.62 -20.15 93.77
v 3.62 -20.15 100.95
v 3.62 -9.38 100.95
v -2.14 26.52 97.36
v -3.56 -9.38 93.77
v -3.56 -20.15 93.77
v -3.56 -20.15 100.95
v -3.56 -9.38 100.95
v 2.17 26.52 97.36
v 3.62 -9.38 93.77
v 3.62 -20.15 93.77
v 3.62 -20.15 100.95
v 3.62 -9.38 100.95
v -2.14 26.52 97.36
v -3.56 -9.38 93.77
v -3.56 -20.15 93.77
v -3.56 -20.15 100.95
v -3.56 -9.38 100.95
v 6.48 26.52 97.36
v 10.80 -9.38 95.20
v 10.80 -20.15 95.20
v 10.80 -20.15 99.51
v 10.80 -9.38 99.51
v 2.17 26.52 97.36
v 3.62 -9.38 93.77
v 3.62 -20.15 93.77
v 3.62 -20.15 100.95
v 3.62 -9.38 100.95
v -16.84 94.54 75.82
v -16.84 94.54 68.64
v -16.84 108.90 68.64
v -16.84 108.90 75.82
v -111.62 123.02 126.08
v -111.62 166.10 126.08
v -111.62 123.02 133.26
v -111.62 166.10 133.26
v -24.02 94.54 75.82
v -24.02 94.54 68.64
v -24.02 108.90 68.64
v -24.02 108.90 75.82
v -118.80 123.02 126.08
v -118.80 166.10 126.08
v -118.80 123.02 133.26
v -118.80 166.10 133.26
v -116.16 128.32 139.78
v -116.16 79.13 126.08
v -116.16 50.41 140.44
v -116.16 445.32 154.80
v -116.16 395.06 126.08
v -116.16 50.41 147.62
v -116.16 57.59 154.80
v -123.34 79.13 126.08
v -123.34 50.41 140.44
v -123.34 445.32 154.80
v -123.34 395.06 126.08
v -123.34 50.41 147.62
v -123.34 57.59 154.80
v -123.34 128.32 139.78
v -107.54 128.50 139.91
v -107.43 89.15 128.95
v -107.37 66.18 140.44
v -108.20 382.10 151.93
v -108.10 341.89 128.95
v -107.37 66.18 146.18
v -107.39 71.92 151.93
v -116.16 79.13 126.08
v -116.16 50.41 140.44
v -116.16 445.32 154.80
v -116.16 395.06 126.08
v -116.16 50.41 147.62
v -116.16 57.59 154.80
v -116.16 128.32 139.78
v -129.08 128.58 139.91
v -128.98 89.23 128.95
v -128.92 66.25 140.44
v -129.74 382.18 151.93
v -129.64 341.97 128.95
v -128.92 66.25 146.18
v -128.93 72.00 151.93
v -123.34 128.32 139.78
v -123.34 79.13 126.08
v -123.34 50.41 140.44
v -123.34 445.32 154.80
v -123.34 395.06 126.08
v -123.34 50.41 147.62
v -123.34 57.59 154.80
v -128.98 89.23 128.95
v -128.92 66.25 140.44
v -129.74 382.18 151.93
v -129.64 341.97 128.95
v -128.92 66.25 146.18
v -128.93 72.00 151.93
v -129.08 128.58 139.91
v 19.06 94.91 75.82
v 19.06 94.91 68.64
v 19.06 109.27 68.64
v 19.06 109.27 75.82
v 119.58 124.69 126.08
v 119.58 167.77 126.08
v 119.58 124.69 133.26
v 119.58 167.77 133.26
v 11.88 94.91 75.82
v 11.88 94.91 68.64
v 11.88 109.27 68.64
v 11.88 109.27 75.82
v 112.40 124.69 126.08
v 112.40 167.77 126.08
v 112.40 124.69 133.26
v 112.40 167.77 133.26
v 120.78 130.80 139.78
v 120.78 81.61 126.08
v 120.78 52.89 140.44
v 120.78 447.80 154.80
v 120.78 397.54 126.08
v 120.78 52.89 147.62
v 120.78 60.07 154.80
v 113.60 81.61 126.08
v 113.60 52.89 140.44
v 113.60 447.80 154.80
v 113.60 397.54 126.08
v 113.60 52.89 147.62
v 113.60 60.07 154.80
v 113.60 130.80 139.78
v 129.40 130.98 139.91
v 129.50 91.63 128.95
v 129.56 68.66 140.44
v 128.73 384.58 151.93
v 128.84 344.37 128.95
v 129.56 68.66 146.18
v 129.55 74.40 151.93
v 120.78 81.61 126.08
v 120.78 52.89 140.44
v 120.78 447.80 154.80
v 120.78 397.54 126.08
v 120.78 52.89 147.62
v 120.78 60.07 154.80
v 120.78 130.80 139.78
v 107.86 131.06 139.91
v 107.96 91.71 128.95
v 108.02 68.73 140.44
v 107.19 384.66 151.93
v 107.30 344.45 128.95
v 108.02 68.73 146.18
v 108.00 74.48 151.93
v 113.60 130.80 139.78
v 113.60 81.61 126.08
v 113.60 52.89 140.44
v 113.60 447.80 154.80
v 113.60 397.54 126.08
v 113.60 52.89 147.62
v 113.60 60.07 154.80
v 107.96 91.71 128.95
v 108.02 68.73 140.44
v 107.19 384.66 151.93
v 107.30 344.45 128.95
v 108.02 68.73 146.18
v 108.00 74.48 151.93
v 107.86 131.06 139.91
v 0.00 -28.08 54.28
v 17.23 -28.08 54.28
v 16.65 -28.08 58.74
v 14.92 -28.08 62.89
v 12.19 -28.08 66.46
v 8.62 -28.08 69.20
v 4.46 -28.08 70.92
v 0.00 -28.08 71.51
v -4.46 -28.08 70.92
v -8.62 -28.08 69.20
v -12.19 -28.08 66.46
v -14.92 -28.08 62.89
v -16.65 -28.08 58.74
v -17.23 -28.08 54.28
v -16.65 -28.08 49.82
v -14.92 -28.08 45.66
v -12.19 -28.08 42.09
v -8.62 -28.08 39.35
v -4.46 -28.08 37.63
v 0.00 -28.08 37.04
v 4.46 -28.08 37.63
v 8.62 -28.08 39.35
v 12.19 -28.08 42.09
v 14.92 -28.08 45.66
v 16.65 -28.08 49.82
f 1 2 19
f 19 20 2
f 2 3 20
f 20 21 3
f 3 4 21
f 21 22 4
f 4 5 22
f 22 23 5
f 5 6 23
f 23 24 6
f 6 7 24
f 24 25 7
f 7 8 25
f 25 26 8
f 8 9 26
f 26 27 9
f 9 10 27
f 27 28 10
f 10 11 28
f 28 29 11
f 11 12 29
f 29 30 12
f 12 13 30
f 30 31 13
f 13 14 31
f 31 32 14
f 14 15 32
f 32 33 15
f 15 16 33
f 33 34 16
f 16 17 34
f 34 35 17
f 17 18 35
f 35 36 18
f 18 1 36
f 36 19 1
f 37 38 55
f 55 56 38
f 38 39 56
f 56 57 39
f 39 40 57
f 57 58 40
f 40 41 58
f 58 59 41
f 41 42 59
f 59 60 42
f 42 43 60
f 60 61 43
f 43 44 61
f 61 62 44
f 44 45 62
f 62 63 45
f 45 46 63
f 63 64 46
f 46 47 64
f 64 65 47
f 47 48 65
f 65 66 48
f 48 49 66
f 66 67 49
f 49 50 67
f 67 68 50
f 50 51 68
f 68 69 51
f 51 52 69
f 69 70 52
f 52 53 70
f 70 71 53
f 53 54 71
f 71 72 54
f 54 37 72
f 72 55 37
f 73 74 91
f 91 92 74
f 74 75 92
f 92 93 75
f 75 76 93
f 93 94 76
f 76 77 94
f 94 95 77
f 77 78 95
f 95 96 78
f 78 79 96
f 96 97 79
f 79 80 97
f 97 98 80
f 80 81 98
f 98 99 81
f 81 82 99
f 99 100 82
f 82 83 100
f 100 101 83
f 83 84 101
f 101 102 84
f 84 85 102
f 102 103 85
f 85 86 103
f 103 104 86
f 86 87 104
f 104 105 87
f 87 88 105
f 105 106 88
f 88 89 106
f 106 107 89
f 89 90 107
f 107 108 90
f 90 73 108
f 108 91 73
f 109 110 127
f 127 128 110
f 110 111 128
f 128 129 111
f 111 112 129
f 129 130 112
f 112 113 130
f 130 131 113
f 113 114 131
f 131 132 114
f 114 115 132
f 132 133 115
f 115 116 133
f 133 134 116
f 116 117 134
f 134 135 117
f 117 118 135
f 135 136 118
f 118 119 136
f 136 137 119
f 119 120 137
f 137 138 120
f 120 121 138
f 138 139 121
f 121 122 139
f 139 140 122
f 122 123 140
f 140 141 123
f 123 124 141
f 141 142 124
f 124 125 142
f 142 143 125
f 125 126 143
f 143 144 126
f 126 109 144
f 144 127 109
f 145 146 163
f 163 164 146
f 146 147 164
f 164 165 147
f 147 148 165
f 165 166 148
f 148 149 166
f 166 167 149
f 149 150 167
f 167 168 150
f 150 151 168
f 168 169 151
f 151 152 169
f 169 170 152
f 152 153 170
f 170 171 153
f 153 154 171
f 171 172 154
f 154 155 172
f 172 173 155
f 155 156 173
f 173 174 156
f 156 157 174
f 174 175 157
f 157 158 175
f 175 176 158
f 158 159 176
f 176 177 159
f 159 160 177
f 177 178 160
f 160 161 178
f 178 179 161
f 161 162 179
f 179 180 162
f 162 145 180
f 180 163 145
f 181 182 183
f 181 183 184
f 181 184 185
f 181 185 186
f 181 186 187
f 181 187 188
f 181 188 189
f 181 189 190
f 181 190 191
f 181 191 192
f 181 192 193
f 181 193 194
f 181 194 195
f 181 195 196
f 181 196 197
f 181 197 198
f 181 198 199
f 181 199 182
f 200 201 218
f 218 219 201
f 201 202 219
f 219 220 202
f 202 203 220
f 220 221 203
f 203 204 221
f 221 222 204
f 204 205 222
f 222 223 205
f 205 206 223
f 223 224 206
f 206 207 224
f 224 225 207
f 207 208 225
f 225 226 208
f 208 209 226
f 226 227 209
f 209 210 227
f 227 228 210
f 210 211 228
f 228 229 211
f 211 212 229
f 229 230 212
f 212 213 230
f 230 231 213
f 213 214 231
f 231 232 214
f 214 215 232
f 232 233 215
f 215 216 233
f 233 234 216
f 216 217 234
f 234 235 217
f 217 200 235
f 235 218 200
f 236 237 238
f 236 238 239
f 236 239 240
f 236 240 241
f 236 241 242
f 236 242 243
f 236 243 244
f 236 244 245
f 236 245 246
f 236 246 247
f 236 247 248
f 236 248 249
f 236 249 250
f 236 250 251
f 236 251 252
f 236 252 253
f 236 253 254
f 236 254 237
f 255 256 273
f 273 274 256
f 256 257 274
f 274 275 257
f 257 258 275
f 275 276 258
f 258 259 276
f 276 277 259
f 259 260 277
f 277 278 260
f 260 261 278
f 278 279 261
f 261 262 279
f 279 280 262
f 262 263 280
f 280 281 263
f 263 264 281
f 281 282 264
f 264 265 282
f 282 283 265
f 265 266 283
f 283 284 266
f 266 267 284
f 284 285 267
f 267 268 285
f 285 286 268
f 268 269 286
f 286 287 269
f 269 270 287
f 287 288 270
f 270 271 288
f 288 289 271
f 271 272 289
f 289 290 272
f 272 255 290
f 290 273 255
f 291 292 309
f 309 310 292
f 292 293 310
f 310 311 293
f 293 294 311
f 311 312 294
f 294 295 312
f 312 313 295
f 295 296 313
f 313 314 296
f 296 297 314
f 314 315 297
f 297 298 315
f 315 316 298
f 298 299 316
f 316 317 299
f 299 300 317
f 317 318 300
f 300 301 318
f 318 319 301
f 301 302 319
f 319 320 302
f 302 303 320
f 320 321 303
f 303 304 321
f 321 322 304
f 304 305 322
f 322 323 305
f 305 306 323
f 323 324 306
f 306 307 324
f 324 325 307
f 307 308 325
f 325 326 308
f 308 291 326
f 326 309 291
f 327 328 345
f 345 346 328
f 328 329 346
f 346 347 329
f 329 330 347
f 347 348 330
f 330 331 348
f 348 349 331
f 331 332 349
f 349 350 332
f 332 333 350
f 350 351 333
f 333 334 351
f 351 352 334
f 334 335 352
f 352 353 335
f 335 336 353
f 353 354 336
f 336 337 354
f 354 355 337
f 337 338 355
f 355 356 338
f 338 339 356
f 356 357 339
f 339 340 357
f 357 358 340
f 340 341 358
f 358 359 341
f 341 342 359
f 359 360 342
f 342 343 360
f 360 361 343
f 343 344 361
f 361 362 344
f 344 327 362
f 362 345 327
f 363 364 376
f 376 377 364
f 364 365 377
f 377 378 365
f 365 366 378
f 378 379 366
f 366 367 379
f 379 380 367
f 367 368 380
f 380 381 368
f 368 369 381
f 381 382 369
f 369 370 382
f 382 383 370
f 370 371 383
f 383 384 371
f 371 372 384
f 384 385 372
f 372 373 385
f 385 386 373
f 373 374 386
f 386 387 374
f 374 375 387
f 387 388 386
f 388 389 386
f 385 386 389
f 389 385 384
f 390 384 389
f 391 390 384
f 384 391 383
f 391 383 392
f 392 382 383
f 381 382 392
f 392 393 381
f 393 381 394
f 394 381 380
f 379 380 394
f 394 395 379
f 395 379 396
f 396 379 378
f 377 378 396
f 396 397 377
f 376 377 397
f 398 399 412
f 412 413 399
f 399 400 413
f 413 414 400
f 400 401 414
f 414 415 401
f 401 402 415
f 415 416 402
f 402 403 416
f 416 417 403
f 403 404 417
f 417 418 404
f 404 405 418
f 418 419 405
f 405 406 419
f 419 420 406
f 406 407 420
f 420 421 407
f 407 408 421
f 421 422 408
f 408 409 422
f 422 423 409
f 409 410 423
f 423 424 410
f 410 411 424
f 425 426 427
f 425 427 428
f 425 428 429
f 425 429 430
f 425 430 431
f 425 431 432
f 425 432 433
f 425 433 434
f 425 434 435
f 425 435 436
f 425 436 437
f 425 437 438
f 425 438 439
f 410 411 399
f 411 399 398
f 410 399 425
f 440 441 450
f 450 451 441
f 441 442 451
f 451 452 442
f 442 443 452
f 452 453 443
f 443 444 453
f 453 454 444
f 444 445 454
f 454 455 445
f 445 446 455
f 455 456 446
f 446 447 456
f 456 457 447
f 447 448 457
f 457 458 448
f 448 449 458
f 450 451 459
f 459 460 451
f 451 452 460
f 460 461 452
f 452 453 461
f 461 462 453
f 453 454 462
f 462 463 454
f 454 455 463
f 463 464 455
f 455 456 464
f 464 465 456
f 456 457 465
f 465 466 457
f 457 458 466
f 466 467 458
f 468 459 450
f 459 460 469
f 469 470 460
f 460 461 470
f 470 471 461
f 461 462 471
f 471 472 462
f 462 463 472
f 472 473 463
f 463 464 473
f 473 474 464
f 464 465 474
f 474 475 465
f 465 466 475
f 475 476 466
f 466 467 476
f 468 459 477
f 477 469 459
f 469 470 478
f 470 471 478
f 471 472 478
f 472 473 478
f 473 474 478
f 474 475 478
f 475 476 478
f 477 469 478
f 480 504 505
f 480 505 481
f 481 505 506
f 481 506 482
f 482 506 507
f 482 507 483
f 483 507 508
f 483 508 484
f 484 508 509
f 484 509 485
f 485 509 510
f 485 510 486
f 486 510 511
f 486 511 487
f 487 511 512
f 487 512 488
f 488 512 513
f 488 513 489
f 489 513 514
f 489 514 490
f 490 514 515
f 490 515 491
f 491 515 516
f 491 516 492
f 492 516 517
f 492 517 493
f 493 517 518
f 493 518 494
f 494 518 519
f 494 519 495
f 495 519 520
f 495 520 496
f 496 520 521
f 496 521 497
f 497 521 522
f 497 522 498
f 498 522 523
f 498 523 499
f 499 523 524
f 499 524 500
f 500 524 525
f 500 525 501
f 501 525 526
f 501 526 502
f 502 526 527
f 502 527 503
f 503 527 504
f 503 504 480
f 535 559 558
f 558 535 534
f 558 534 557
f 557 534 533
f 533 557 556
f 556 533 532
f 556 532 555
f 555 532 531
f 531 555 554
f 554 531 530
f 554 530 553
f 553 530 529
f 529 553 576
f 576 529 552
f 576 552 551
f 576 551 575
f 551 575 550
f 550 575 574
f 574 550 549
f 549 574 573
f 549 573 548
f 548 573 572
f 572 548 547
f 547 572 571
f 547 571 546
f 546 571 570
f 545 546 570
f 569 570 545
f 545 569 568
f 568 545 544
f 568 544 567
f 567 544 543
f 543 567 566
f 566 543 542
f 566 542 565
f 565 542 541
f 541 565 564
f 564 541 540
f 564 540 563
f 563 540 539
f 539 563 562
f 562 539 538
f 562 538 561
f 561 538 537
f 537 561 560
f 560 537 536
f 560 536 559
f 559 536 535
f 571 595 570
f 570 595 594
f 570 594 569
f 569 594 593
f 593 569 568
f 568 593 592
f 568 592 567
f 590 567 591
f 566 590 567
f 566 590 589
f 589 566 565
f 589 565 588
f 588 565 564
f 564 588 587
f 587 564 563
f 587 563 586
f 586 563 562
f 562 586 585
f 585 562 561
f 585 561 584
f 584 561 560
f 560 584 583
f 583 560 559
f 583 559 582
f 558 582 559
f 558 582 581
f 581 558 557
f 581 557 580
f 580 557 556
f 556 580 579
f 579 556 555
f 555 579 578
f 578 555 554
f 578 554 577
f 577 554 553
f 553 577 600
f 600 553 576
f 600 576 599
f 599 576 575
f 575 598 574
f 575 599 598
f 598 574 597
f 597 574 573
f 573 597 596
f 596 573 572
f 596 572 571
f 571 595 596
f 591 592 567
f 607 583 606
f 606 583 582
f 582 606 605
f 605 582 581
f 605 581 604
f 604 581 580
f 580 604 603
f 603 580 579
f 603 579 602
f 602 579 578
f 578 602 601
f 601 578 577
f 601 577 624
f 624 577 600
f 600 624 623
f 623 600 599
f 599 623 622
f 622 599 598
f 598 622 621
f 621 598 597
f 597 621 620
f 620 597 596
f 596 620 619
f 619 596 595
f 595 619 618
f 618 595 594
f 618 594 617
f 617 594 593
f 593 617 616
f 616 593 592
f 616 592 615
f 615 592 591
f 591 615 614
f 614 591 590
f 614 590 613
f 613 590 589
f 589 613 612
f 612 589 588
f 612 588 611
f 611 588 587
f 611 587 610
f 610 587 586
f 586 610 609
f 609 586 585
f 609 585 608
f 608 585 584
f 584 608 607
f 607 584 583
f 625 722 723
f 625 723 724
f 625 724 725
f 625 725 726
f 625 726 727
f 625 727 728
f 625 728 729
f 625 729 730
f 625 730 731
f 625 731 732
f 625 732 733
f 625 733 734
f 625 734 735
f 625 735 736
f 625 736 737
f 625 737 738
f 625 738 739
f 625 739 740
f 625 740 741
f 625 741 742
f 625 742 743
f 625 743 744
f 625 744 745
f 625 745 722
f 644 668 669
f 669 644 645
f 669 645 670
f 670 645 646
f 646 670 671
f 671 646 647
f 671 647 672
f 672 647 648
f 648 672 673
f 673 648 649
f 673 649 650
f 650 649 626
f 626 650 651
f 651 626 627
f 651 627 652
f 652 627 628
f 628 652 653
f 653 628 629
f 653 629 654
f 654 629 630
f 630 654 655
f 655 630 631
f 655 631 656
f 656 631 632
f 632 656 657
f 657 632 633
f 657 633 658
f 658 633 634
f 634 658 659
f 659 634 635
f 659 635 660
f 660 635 636
f 636 660 661
f 661 636 637
f 661 637 662
f 662 637 638
f 638 662 663
f 663 638 639
f 663 639 664
f 664 639 640
f 640 664 665
f 665 640 641
f 665 641 666
f 642 667 666
f 642 667 643
f 667 643 668
f 668 643 644
f 668 692 693
f 693 668 669
f 693 669 694
f 694 669 670
f 670 694 695
f 695 670 671
f 695 671 696
f 696 671 672
f 672 696 697
f 697 672 673
f 697 673 674
f 674 673 650
f 650 674 675
f 675 650 651
f 675 651 676
f 676 651 652
f 652 676 677
f 677 652 653
f 653 677 678
f 678 653 654
f 678 654 679
f 679 654 655
f 655 679 680
f 680 655 656
f 680 656 681
f 656 657 681
f 681 682 657
f 657 658 682
f 682 683 658
f 658 659 683
f 659 683 684
f 659 684 660
f 684 660 685
f 685 660 661
f 661 685 686
f 686 661 662
f 686 662 687
f 687 662 663
f 663 687 688
f 688 663 664
f 688 664 689
f 689 664 665
f 665 689 690
f 690 665 666
f 690 666 691
f 691 666 667
f 667 691 692
f 668 692 667
f 641 642 666
f 692 716 717
f 717 692 693
f 693 717 718
f 718 693 694
f 694 718 719
f 719 694 695
f 695 719 720
f 720 695 696
f 696 720 721
f 721 696 697
f 697 721 698
f 698 697 674
f 698 674 699
f 699 674 675
f 675 699 700
f 700 675 676
f 700 676 701
f 701 676 677
f 677 701 702
f 702 677 678
f 702 678 703
f 703 678 679
f 679 703 704
f 704 679 680
f 704 680 705
f 705 680 681
f 681 705 706
f 706 681 682
f 706 682 707
f 707 682 683
f 683 707 708
f 708 683 684
f 708 684 709
f 709 684 685
f 709 685 710
f 710 685 686
f 686 710 711
f 711 686 687
f 711 687 712
f 712 687 688
f 688 712 713
f 713 688 689
f 713 689 714
f 714 689 690
f 690 714 715
f 715 690 691
f 715 691 716
f 716 691 692
f 716 740 741
f 741 716 717
f 741 717 742
f 742 717 718
f 718 742 743
f 743 718 719
f 743 719 744
f 744 719 720
f 720 744 745
f 745 720 721
f 745 721 722
f 722 721 698
f 698 722 723
f 723 698 699
f 723 724 699
f 724 699 700
f 700 724 725
f 700 725 701
f 725 701 726
f 726 701 702
f 702 726 727
f 727 702 703
f 727 703 728
f 728 703 704
f 704 728 729
f 729 704 705
f 729 705 730
f 730 705 706
f 706 730 731
f 731 706 707
f 731 707 732
f 732 707 708
f 708 732 733
f 733 708 709
f 733 709 734
f 734 709 710
f 710 734 735
f 735 710 711
f 735 711 736
f 736 711 712
f 712 736 737
f 737 712 713
f 737 713 738
f 738 713 714
f 714 738 739
f 739 714 715
f 739 715 740
f 740 715 716
f 746 747 770
f 770 771 747
f 747 748 771
f 771 772 748
f 748 749 772
f 772 773 749
f 749 750 773
f 773 774 750
f 750 751 774
f 774 775 751
f 751 752 775
f 775 776 752
f 752 753 776
f 776 777 753
f 753 754 777
f 777 778 754
f 754 755 778
f 778 779 755
f 755 756 779
f 779 780 756
f 756 757 780
f 780 781 757
f 757 758 781
f 781 782 758
f 758 759 782
f 782 783 759
f 759 760 783
f 783 784 760
f 760 761 784
f 784 785 761
f 761 762 785
f 785 786 762
f 762 763 786
f 786 787 763
f 763 764 787
f 787 788 764
f 764 765 788
f 788 789 765
f 765 766 789
f 789 790 766
f 766 767 790
f 790 791 767
f 767 768 791
f 791 792 768
f 768 769 792
f 792 793 769
f 769 746 793
f 793 770 746
f 770 771 794
f 794 795 771
f 771 772 795
f 795 796 772
f 772 773 796
f 796 797 773
f 773 774 797
f 797 798 774
f 774 775 798
f 798 799 775
f 775 776 799
f 799 800 776
f 776 777 800
f 800 801 777
f 777 778 801
f 801 802 778
f 778 779 802
f 802 803 779
f 779 780 803
f 803 804 780
f 780 781 804
f 804 805 781
f 781 782 805
f 805 806 782
f 782 783 806
f 806 807 783
f 783 784 807
f 807 808 784
f 784 785 808
f 808 809 785
f 785 786 809
f 809 810 786
f 786 787 810
f 810 811 787
f 787 788 811
f 811 812 788
f 788 789 812
f 812 813 789
f 789 790 813
f 813 814 790
f 790 791 814
f 814 815 791
f 791 792 815
f 815 816 792
f 792 793 816
f 816 817 793
f 793 770 817
f 817 794 770
f 818 601 819
f 818 819 820
f 818 820 821
f 818 821 822
f 818 822 823
f 818 823 824
f 818 824 825
f 818 825 826
f 818 826 827
f 818 827 828
f 818 828 829
f 818 829 830
f 818 830 831
f 818 831 832
f 818 832 833
f 818 833 834
f 818 834 835
f 818 835 836
f 818 836 837
f 818 837 838
f 818 838 839
f 818 839 840
f 818 840 841
f 818 841 601
f 842 843 844
f 842 844 845
f 842 845 846
f 842 846 847
f 842 847 848
f 842 848 849
f 842 849 850
f 842 850 851
f 842 851 852
f 842 852 853
f 842 853 854
f 842 854 855
f 842 855 856
f 842 856 857
f 842 857 858
f 842 858 859
f 842 859 860
f 842 860 861
f 842 861 862
f 842 862 863
f 842 863 864
f 842 864 865
f 842 865 866
f 842 866 843
f 867 868 885
f 885 886 868
f 868 869 886
f 886 887 869
f 869 870 887
f 887 888 870
f 870 871 888
f 888 889 871
f 871 872 889
f 889 890 872
f 872 873 890
f 890 891 873
f 873 874 891
f 891 892 874
f 874 875 892
f 892 893 875
f 875 876 893
f 893 894 876
f 876 877 894
f 894 895 877
f 877 878 895
f 895 896 878
f 878 879 896
f 896 897 879
f 879 880 897
f 897 898 880
f 880 881 898
f 898 899 881
f 881 882 899
f 899 900 882
f 882 883 900
f 900 901 883
f 883 884 901
f 901 902 884
f 884 867 902
f 902 885 867
f 885 886 903
f 886 887 903
f 887 888 903
f 888 889 903
f 889 890 903
f 890 891 903
f 891 892 903
f 892 893 903
f 893 894 903
f 894 895 903
f 895 896 903
f 896 897 903
f 897 898 903
f 898 899 903
f 899 900 903
f 900 901 903
f 901 902 903
f 902 885 903
f 904 905 922
f 905 906 922
f 906 907 922
f 907 908 922
f 908 909 922
f 909 910 922
f 910 911 922
f 911 912 922
f 912 913 922
f 913 914 922
f 914 915 922
f 915 916 922
f 916 917 922
f 917 918 922
f 918 919 922
f 919 920 922
f 920 921 922
f 921 904 922
f 925 926 927
f 927 925 924
f 924 927 923
f 923 928 929
f 923 929 924
f 924 929 930
f 924 930 925
f 925 930 931
f 925 931 926
f 926 931 932
f 926 932 927
f 927 932 928
f 927 928 923
f 930 931 932
f 932 930 929
f 929 932 928
f 935 936 937
f 937 935 934
f 934 937 933
f 933 938 939
f 933 939 934
f 934 939 940
f 934 940 935
f 935 940 941
f 935 941 936
f 936 941 942
f 936 942 937
f 937 942 938
f 937 938 933
f 940 941 942
f 942 940 939
f 939 942 938
f 945 946 947
f 947 945 944
f 944 947 943
f 943 948 949
f 943 949 944
f 944 949 950
f 944 950 945
f 945 950 951
f 945 951 946
f 946 951 952
f 946 952 947
f 947 952 948
f 947 948 943
f 950 951 952
f 952 950 949
f 949 952 948
f 955 956 957
f 957 955 954
f 954 957 953
f 953 958 959
f 953 959 954
f 954 959 960
f 954 960 955
f 955 960 961
f 955 961 956
f 956 961 962
f 956 962 957
f 957 962 958
f 957 958 953
f 960 961 962
f 962 960 959
f 959 962 958
f 964 965 969
f 968 965 969
f 968 965 967
f 966 967 965
f 964 970 971
f 964 971 965
f 965 971 972
f 965 972 966
f 966 972 973
f 966 973 967
f 967 973 974
f 967 974 968
f 968 974 975
f 968 975 969
f 969 975 970
f 969 970 964
f 970 971 975
f 974 971 975
f 974 971 973
f 972 973 971
f 979 980 981
f 981 979 978
f 978 981 977
f 977 982 983
f 977 983 978
f 978 983 984
f 978 984 979
f 979 984 985
f 979 985 980
f 980 985 986
f 980 986 981
f 981 986 982
f 981 982 977
f 984 985 986
f 986 984 983
f 983 986 982
f 989 990 991
f 991 989 988
f 988 991 987
f 987 992 993
f 987 993 988
f 988 993 994
f 988 994 989
f 989 994 995
f 989 995 990
f 990 995 996
f 990 996 991
f 991 996 992
f 991 992 987
f 994 995 996
f 996 994 993
f 993 996 992
f 999 1000 1001
f 1001 999 998
f 998 1001 997
f 997 1002 1003
f 997 1003 998
f 998 1003 1004
f 998 1004 999
f 999 1004 1005
f 999 1005 1000
f 1000 1005 1006
f 1000 1006 1001
f 1001 1006 1002
f 1001 1002 997
f 1004 1005 1006
f 1006 1004 1003
f 1003 1006 1002
f 1009 1010 1011
f 1011 1009 1008
f 1008 1011 1007
f 1007 1012 1013
f 1007 1013 1008
f 1008 1013 1014
f 1008 1014 1009
f 1009 1014 1015
f 1009 1015 1010
f 1010 1015 1016
f 1010 1016 1011
f 1011 1016 1012
f 1011 1012 1007
f 1014 1015 1016
f 1016 1014 1013
f 1013 1016 1012
f 1017 1018 1019
f 1019 1020 1017
f 1020 1017 1021
f 1020 1021 1022
f 1022 1021 1023
f 1023 1022 1024
f 1017 1025 1026
f 1017 1026 1018
f 1018 1026 1027
f 1018 1027 1019
f 1019 1027 1028
f 1019 1028 1020
f 1021 1029 1025
f 1021 1025 1017
f 1020 1028 1030
f 1020 1030 1022
f 1023 1031 1032
f 1023 1032 1024
f 1024 1032 1030
f 1024 1030 1022
f 1023 1031 1029
f 1023 1029 1021
f 1025 1026 1027
f 1027 1028 1025
f 1028 1025 1029
f 1028 1029 1030
f 1030 1029 1031
f 1031 1030 1032
f 1039 1037 1036
f 1039 1034 1037
f 1039 1034 1035
f 1035 1038 1039
f 1034 1040 1041
f 1034 1041 1035
f 1036 1042 1043
f 1036 1043 1037
f 1037 1043 1040
f 1037 1040 1034
f 1035 1041 1044
f 1035 1044 1038
f 1038 1044 1045
f 1038 1045 1039
f 1039 1045 1042
f 1039 1042 1036
f 1045 1043 1042
f 1045 1040 1043
f 1045 1040 1041
f 1041 1044 1045
f 1053 1051 1050
f 1053 1048 1051
f 1053 1048 1049
f 1049 1052 1053
f 1048 1054 1055
f 1048 1055 1049
f 1050 1056 1057
f 1050 1057 1051
f 1051 1057 1054
f 1051 1054 1048
f 1049 1055 1058
f 1049 1058 1052
f 1052 1058 1059
f 1052 1059 1053
f 1053 1059 1056
f 1053 1056 1050
f 1059 1057 1056
f 1059 1054 1057
f 1059 1054 1055
f 1055 1058 1059
f 1067 1065 1064
f 1067 1062 1065
f 1067 1062 1063
f 1063 1066 1067
f 1074 1072 1071
f 1074 1069 1072
f 1074 1069 1070
f 1070 1073 1074
f 1069 1075 1076
f 1069 1076 1070
f 1071 1077 1078
f 1071 1078 1072
f 1072 1078 1075
f 1072 1075 1069
f 1070 1076 1079
f 1070 1079 1073
f 1073 1079 1080
f 1073 1080 1074
f 1074 1080 1077
f 1074 1077 1071
f 1080 1078 1077
f 1080 1075 1078
f 1080 1075 1076
f 1076 1079 1080
f 1082 1083 1084
f 1084 1085 1082
f 1085 1082 1086
f 1085 1086 1087
f 1087 1086 1088
f 1088 1087 1089
f 1082 1090 1091
f 1082 1091 1083
f 1083 1091 1092
f 1083 1092 1084
f 1084 1092 1093
f 1084 1093 1085
f 1086 1094 1090
f 1086 1090 1082
f 1085 1093 1095
f 1085 1095 1087
f 1088 1096 1097
f 1088 1097 1089
f 1089 1097 1095
f 1089 1095 1087
f 1088 1096 1094
f 1088 1094 1086
f 1090 1091 1092
f 1092 1093 1090
f 1093 1090 1094
f 1093 1094 1095
f 1095 1094 1096
f 1096 1095 1097
f 1104 1102 1101
f 1104 1099 1102
f 1104 1099 1100
f 1100 1103 1104
f 1099 1105 1106
f 1099 1106 1100
f 1101 1107 1108
f 1101 1108 1102
f 1102 1108 1105
f 1102 1105 1099
f 1100 1106 1109
f 1100 1109 1103
f 1103 1109 1110
f 1103 1110 1104
f 1104 1110 1107
f 1104 1107 1101
f 1110 1108 1107
f 1110 1105 1108
f 1110 1105 1106
f 1106 1109 1110
f 1118 1116 1115
f 1118 1113 1116
f 1118 1113 1114
f 1114 1117 1118
f 1113 1119 1120
f 1113 1120 1114
f 1115 1121 1122
f 1115 1122 1116
f 1116 1122 1119
f 1116 1119 1113
f 1114 1120 1123
f 1114 1123 1117
f 1117 1123 1124
f 1117 1124 1118
f 1118 1124 1121
f 1118 1121 1115
f 1124 1122 1121
f 1124 1119 1122
f 1124 1119 1120
f 1120 1123 1124
f 1132 1130 1129
f 1132 1127 1130
f 1132 1127 1128
f 1128 1131 1132
f 1139 1137 1136
f 1139 1134 1137
f 1139 1134 1135
f 1135 1138 1139
f 1134 1140 1141
f 1134 1141 1135
f 1136 1142 1143
f 1136 1143 1137
f 1137 1143 1140
f 1137 1140 1134
f 1135 1141 1144
f 1135 1144 1138
f 1138 1144 1145
f 1138 1145 1139
f 1139 1145 1142
f 1139 1142 1136
f 1145 1143 1142
f 1145 1140 1143
f 1145 1140 1141
f 1141 1144 1145
f 1147 1148 1149
f 1147 1149 1150
f 1147 1150 1151
f 1147 1151 1152
f 1147 1152 1153
f 1147 1153 1154
f 1147 1154 1155
f 1147 1155 1156
f 1147 1156 1157
f 1147 1157 1158
f 1147 1158 1159
f 1147 1159 1160
f 1147 1160 1161
f 1147 1161 1162
f 1147 1162 1163
f 1147 1163 1164
f 1147 1164 1165
f 1147 1165 1166
f 1147 1166 1167
f 1147 1167 1168
f 1147 1168 1169
f 1147 1169 1170
f 1147 1170 1171
f 1147 1171 1148
