v 45.66 41.88 61.93
v 45.66 31.32 61.93
v -127.10 41.88 61.93
v 50.94 45.14 53.39
v -94.11 128.26 8.54
v -88.83 131.52 0.00
v -102.65 122.98 5.28
v -40.72 -11.51 94.93
v -49.27 -16.79 91.66
v -32.18 -16.79 91.66
v 12.67 128.26 8.54
v 21.21 122.98 5.28
v 7.39 131.52 0.00
v -132.38 45.14 53.39
v -127.10 31.32 61.93
v -132.38 28.05 53.39
v 12.67 -55.07 8.54
v 7.39 -58.33 0.00
v 21.21 -49.78 5.28
v -40.72 84.71 94.93
v -32.18 89.99 91.66
v -49.27 89.99 91.66
v -94.11 -55.07 8.54
v -102.65 -49.78 5.28
v -88.83 -58.33 0.00
v 50.94 28.05 53.39
v 54.20 36.60 48.11
v -35.44 -25.33 -86.38
v -32.18 -16.79 -91.66
v -46.00 -25.33 -86.38
v -35.44 -25.33 86.38
v -46.00 -25.33 86.38
v 50.94 28.05 -53.39
v 54.20 36.60 -48.11
v 45.66 31.32 -61.93
v -94.11 -55.07 -8.54
v -102.65 -49.78 -5.28
v -40.72 84.71 -94.93
v -49.27 89.99 -91.66
v -32.18 89.99 -91.66
v 12.67 -55.07 -8.54
v 21.21 -49.78 -5.28
v -127.10 31.32 -61.93
v -132.38 28.05 -53.39
v -127.10 41.88 -61.93
v 45.66 41.88 -61.93
v 50.94 45.14 -53.39
v -94.11 128.26 -8.54
v -102.65 122.98 -5.28
v -40.72 -11.51 -94.93
v -49.27 -16.79 -91.66
v 12.67 128.26 -8.54
v 21.21 122.98 -5.28
v -132.38 45.14 -53.39
v -135.65 36.60 -48.11
v -46.00 98.53 86.38
v -35.44 98.53 86.38
v -46.00 98.53 -86.38
v -35.44 98.53 -86.38
v -135.65 36.60 48.11
v -40.72 65.75 47.18
v -40.72 7.44 47.18
v -11.57 -10.58 0.00
v -40.72 7.44 -47.18
v -40.72 65.75 -47.18
v -69.88 83.77 0.00
v -87.90 36.60 -29.16
v -87.90 36.60 29.16
v -69.88 -10.58 0.00
v -11.57 83.77 0.00
v 6.45 36.60 29.16
v 6.45 36.60 -29.16
f 1 3 15
f 1 15 2
f 4 6 5
f 4 5 1
f 7 9 8
f 7 8 5
f 10 12 11
f 10 11 8
f 13 14 3
f 13 3 11
f 16 18 17
f 16 17 15
f 19 21 20
f 19 20 17
f 22 24 23
f 22 23 20
f 25 26 2
f 25 2 23
f 26 28 29
f 26 29 27
f 28 31 32
f 28 32 30
f 31 33 34
f 31 34 10
f 33 25 36
f 33 36 35
f 37 39 38
f 37 38 36
f 40 42 41
f 40 41 38
f 18 44 43
f 18 43 41
f 45 46 35
f 45 35 43
f 46 48 6
f 46 6 47
f 48 50 51
f 48 51 49
f 50 52 53
f 50 53 29
f 52 45 54
f 52 54 13
f 55 22 56
f 55 56 54
f 57 59 58
f 57 58 56
f 39 60 14
f 39 14 58
f 60 51 30
f 60 30 16
f 49 37 24
f 49 24 7
f 44 32 9
f 44 9 55
f 59 4 27
f 59 27 40
f 47 57 21
f 47 21 34
f 42 53 12
f 42 12 19
f 2 26 27
f 2 27 4
f 2 4 1
f 6 48 49
f 6 49 7
f 6 7 5
f 9 32 31
f 9 31 10
f 9 10 8
f 12 53 52
f 12 52 13
f 12 13 11
f 14 60 16
f 14 16 15
f 14 15 3
f 18 41 42
f 18 42 19
f 18 19 17
f 21 57 56
f 21 56 22
f 21 22 20
f 24 37 36
f 24 36 25
f 24 25 23
f 28 30 51
f 28 51 50
f 28 50 29
f 33 35 46
f 33 46 47
f 33 47 34
f 39 58 59
f 39 59 40
f 39 40 38
f 44 55 54
f 44 54 45
f 44 45 43
f 61 1 5
f 61 5 8
f 61 8 11
f 61 11 3
f 61 3 1
f 62 15 17
f 62 17 20
f 62 20 23
f 62 23 2
f 62 2 15
f 63 25 33
f 63 33 31
f 63 31 28
f 63 28 26
f 63 26 25
f 64 36 38
f 64 38 41
f 64 41 43
f 64 43 35
f 64 35 36
f 65 45 52
f 65 52 50
f 65 50 48
f 65 48 46
f 65 46 45
f 66 54 56
f 66 56 58
f 66 58 14
f 66 14 13
f 66 13 54
f 67 39 37
f 67 37 49
f 67 49 51
f 67 51 60
f 67 60 39
f 68 24 22
f 68 22 55
f 68 55 9
f 68 9 7
f 68 7 24
f 69 44 18
f 69 18 16
f 69 16 30
f 69 30 32
f 69 32 44
f 70 57 47
f 70 47 6
f 70 6 4
f 70 4 59
f 70 59 57
f 71 21 19
f 71 19 12
f 71 12 10
f 71 10 34
f 71 34 21
f 72 42 40
f 72 40 27
f 72 27 29
f 72 29 53
f 72 53 42
