v -71235.10 38353.80 31490.60
v -67828.00 27289.30 47787.30
v -101993.00 21431.50 35333.00
v -104153.00 39503.90 20230.70
v -143100.00 46385.80 10605.20
v -140807.00 28787.80 26196.90
v -181800.00 53351.30 10690.60
v -178931.00 35698.30 24654.00
v -213503.00 66432.80 20285.80
v -208274.00 46812.60 32783.90
v -239430.00 81941.60 33809.20
v -233870.00 62258.80 52390.40
v -255576.00 94699.70 52708.50
v -246622.00 71734.70 70343.10
v -262579.00 99566.10 73039.60
v -237815.00 65289.40 88857.80
v -220605.00 54940.00 105644.00
v -252848.00 90389.80 102550.00
v -231652.00 75745.50 124732.00
v -202495.00 44925.80 114125.00
v -182813.00 36397.30 119148.00
v -213714.00 67015.40 135057.00
v -160663.00 32406.00 121555.00
v -135058.00 27725.90 121370.00
v -169163.00 50634.90 145419.00
v -189257.00 37632.10 142583.00
v -100295.00 21098.20 109034.00
v -102832.00 38681.90 132573.00
v -120901.00 42053.40 140743.00
v -140890.00 45606.00 143728.00
v -66819.90 27131.70 87139.30
v -66665.70 38584.10 107503.00
v -38602.90 32131.10 74002.40
v -28887.10 36431.30 79674.30
v -38263.70 32281.30 57341.40
v -42713.60 30678.80 43700.50
v -27069.10 37215.70 58050.10
v -25798.50 37773.30 68722.90
v -4784.65 36400.70 59745.90
v -15128.80 37603.70 56165.80
v -117282.00 24385.50 117363.00
v -225319.00 71642.70 54814.40
v -236623.00 80837.00 70887.70
v -228815.00 74585.90 87464.10
v -213520.00 64608.60 102493.00
v -197412.00 54983.30 110086.00
v -179867.00 46870.10 114583.00
v -160030.00 43328.20 116739.00
v -137101.00 39168.10 116572.00
v -121184.00 36188.90 112985.00
v -105975.00 33247.10 105528.00
v -75911.20 33145.00 85925.60
v -50367.40 45462.20 74163.90
v -38771.30 51339.20 69437.20
v -39921.90 50758.30 59881.60
v -50060.20 45618.60 59247.10
v -73488.40 33355.20 50693.20
v -107496.00 33545.80 39542.80
v -142249.00 40113.20 31363.10
v -176389.00 46249.80 29981.70
v -202573.00 56750.20 37260.50
v -266162.00 99566.10 74019.70
v -252848.00 90389.80 107710.00
v -231652.00 75745.50 129892.00
v -213714.00 67015.40 140217.00
v -191048.00 37632.10 147146.00
v -169163.00 50634.90 150579.00
v -140890.00 45606.00 148888.00
v -120901.00 42053.40 145904.00
v -102832.00 38681.90 137733.00
v -66665.70 38584.10 112663.00
v -28887.10 36431.30 84834.40
v 20542.50 6909.91 90465.10
v -34076.10 17965.00 108011.00
v -76775.50 21859.60 142185.00
v -132234.00 25034.40 161285.00
v -190999.00 41237.20 160794.00
v -244999.00 64909.80 146854.00
v -279943.00 97980.60 108395.00
v -78305.20 -3974.38 170736.00
v -133764.00 -799.59 181509.00
v -192529.00 15403.20 181017.00
v -249248.00 28198.30 167078.00
v -289970.00 57190.10 140515.00
v -32037.00 -7868.94 153217.00
v 2106.21 -3078.19 121693.00
v -313227.00 78431.60 104150.00
v -279943.00 97980.60 73895.70
v -321554.00 78431.60 72029.90
v -279943.00 97980.60 48815.90
v -321554.00 78431.60 46950.10
v 2822.02 42662.50 44821.00
v 27034.70 -3993.03 66916.50
v 28159.50 -20347.40 33385.00
v 12995.40 7513.42 16758.70
v 34039.60 -40336.10 -7597.88
v 13557.30 -368.72 -11184.20
v 1742.03 -7265.56 -53234.30
v 13557.20 -38236.50 -59382.50
v 30820.40 -58507.60 -48083.40
v 3114.96 -52084.70 -99416.20
v 21105.10 -80401.30 -96287.20
v -14706.00 -6916.13 -86761.60
v -33425.40 0.00 -106087.00
v -19275.50 -60393.60 -129224.00
v 18684.20 -92566.30 -130029.00
v -4238.04 -60393.60 -164189.00
v 22811.60 -96510.30 -159929.00
v 19283.50 -55392.80 -172079.00
v 40171.80 -85858.80 -175098.00
v -144131.00 46385.80 1324.68
v -105184.00 39503.90 10950.10
v -72266.20 38353.80 22210.10
v -43744.80 30678.80 34420.00
v -182831.00 53351.30 1410.06
v -214534.00 66432.80 11005.20
v -240462.00 81941.60 24528.70
v -256607.00 94699.70 43428.00
v -311814.00 30106.70 -975.31
v -282529.00 5521.92 -22660.20
v -227304.00 -3046.41 -43842.90
v -161309.00 -3046.41 -46936.40
v -95314.60 3379.84 -38009.80
v -54984.50 18374.40 -17181.00
v -13965.00 33369.00 3647.77
v -16159.90 37603.70 46885.30
v -325860.00 78431.60 130960.00
v -295126.00 57190.10 166294.00
v -247185.00 28198.30 185639.00
v -190467.00 15403.20 199578.00
v -131701.00 -799.59 198007.00
v -76242.80 -3974.38 189297.00
v -27912.30 -7868.94 175903.00
v 12417.90 -3078.19 158815.00
v -345827.00 37470.10 -43580.20
v -345151.00 55191.80 -2044.15
v -333918.00 19925.80 -96433.50
v -336057.00 50356.80 -134197.00
v -355400.00 67901.00 -79094.90
v -363686.00 82746.20 -35981.40
v -375419.00 172011.00 -74443.20
v -357087.00 171372.00 -143865.00
v -339293.00 210695.00 -206402.00
v -305652.00 32812.50 -180999.00
v -310863.00 2381.56 -145052.00
v -266722.00 22016.00 -221436.00
v -253855.00 -8414.91 -197506.00
v -228033.00 32938.00 -249620.00
v -215336.00 -16512.30 -216354.00
v -322853.00 52385.10 -225025.00
v -298319.00 32812.50 -257993.00
v -272781.00 22016.00 -289349.00
v -227184.00 33323.70 -312865.00
v -252896.00 33403.30 -350791.00
v -280027.00 39373.80 -319436.00
v -310804.00 165244.00 -265945.00
v -299277.00 160281.00 -330402.00
v -272008.00 160281.00 -385668.00
v -236307.00 160281.00 -438178.00
v -219972.00 33192.50 -373584.00
v -202367.00 61239.40 -422109.00
v -211500.00 160281.00 -483349.00
v -181331.00 61239.40 -480771.00
v -181104.00 160281.00 -520117.00
v -156236.00 160281.00 -548597.00
v -146529.00 19396.90 -524767.00
v -93578.40 160281.00 -588785.00
v -88762.40 19396.90 -570833.00
v -31399.80 160281.00 -609511.00
v -25653.40 19396.90 -595173.00
v 30156.80 160281.00 -616005.00
v 35357.40 19396.90 -604338.00
v 102096.00 159085.00 -627583.00
v 98717.00 19396.90 -606029.00
v 182923.00 160281.00 -596461.00
v 174908.00 19396.90 -585520.00
v 235428.00 160281.00 -554729.00
v 215682.00 19135.50 -551172.00
v 274965.00 160281.00 -505880.00
v 253813.00 34612.30 -486304.00
v -183357.00 -3046.41 -110357.00
v -252119.00 -3046.41 -82362.20
v -70974.10 3379.84 -132911.00
v -169464.00 34612.30 -427642.00
v -184197.00 34612.30 -373546.00
v -177576.00 29134.20 -312865.00
v -143799.00 34612.30 -486304.00
v -157860.00 -19855.80 -226141.00
v -120308.00 -18496.10 -233508.00
v -29084.90 11789.10 -60630.90
v -43592.60 0.00 -178034.00
v -57743.50 0.00 -158724.00
v -55953.40 0.00 -132627.00
v -46627.20 -7770.50 -117965.00
v -151200.00 34612.30 -373546.00
v -144579.00 29134.20 -312865.00
v -136467.00 34612.30 -427642.00
v -110802.00 34612.30 -486304.00
v -373427.00 109672.00 -121.06
v -382820.00 182056.00 -17120.70
v -337579.00 82258.50 110276.00
v -343337.00 100276.00 87208.10
v -379200.00 213639.00 63990.40
v -368537.00 213639.00 103470.00
v -360246.00 196924.00 134469.00
v -331229.00 190082.00 175353.00
v -321567.00 183925.00 212148.00
v -85511.40 2249.73 -235307.00
v -111581.00 33921.70 -312865.00
v -118203.00 34612.30 -373546.00
v -103469.00 34612.30 -427642.00
v -78431.00 -24852.80 -498030.00
v 23267.80 -17075.50 269158.00
v -27930.30 -21866.30 286494.00
v -78571.90 -17971.70 286022.00
v -127097.00 -14796.90 285488.00
v -185863.00 15403.20 287058.00
v -242581.00 51691.60 273119.00
v -304986.00 178452.00 244856.00
v -296695.00 175031.00 265297.00
v -296695.00 169557.00 300941.00
v 19333.20 -3078.19 366472.00
v -27930.30 -7868.94 369694.00
v -76260.80 -3974.38 371533.00
v -131719.00 -799.59 368687.00
v -225112.00 38896.40 358703.00
v 19333.20 38984.60 488144.00
v -27930.30 34193.80 491365.00
v -76260.80 33781.50 488897.00
v -131719.00 51043.40 488474.00
v -193214.00 73536.50 476189.00
v -255243.00 152777.00 471714.00
v -230371.00 152777.00 496585.00
v -180628.00 152777.00 521457.00
v -130886.00 129284.00 546328.00
v -296695.00 151769.00 404303.00
v -296695.00 159979.00 355242.00
v -81142.70 129284.00 571200.00
v -31399.80 129284.00 567054.00
v 30778.80 129284.00 567054.00
v -74966.40 -15187.90 -332604.00
v -54041.80 -22174.90 -319324.00
v -72754.80 -8627.22 -318120.00
v -34620.50 -18197.80 -294176.00
v -101484.00 -1623.94 -331544.00
v -72591.80 -6451.97 -337212.00
v -49827.10 -20171.40 -336908.00
v -22046.40 -12834.70 -341247.00
v -7584.09 -26926.10 -337678.00
v -19550.70 -31163.70 -300485.00
v -949.65 -22217.00 -282921.00
v 9054.48 -34984.80 -290970.00
v 22105.60 -22785.80 -277929.00
v 28641.20 -35468.10 -286728.00
v 38018.20 -22406.60 -281257.00
v 42159.80 -35145.90 -289556.00
v 61109.50 -34022.50 -299416.00
v 60323.70 -21084.30 -292863.00
v 75827.50 -35294.30 -288253.00
v 77648.10 -22581.30 -279724.00
v 96949.00 -35302.80 -288179.00
v 102510.00 -22591.30 -279637.00
v 122302.00 -34433.60 -295807.00
v 132353.00 -21568.30 -288615.00
v 135378.00 -30443.00 -306810.00
v 147744.00 -17349.40 -301622.00
v 153616.00 -22653.90 -315120.00
v 169212.00 -9377.09 -311539.00
v 178529.00 -16058.20 -324966.00
v 196902.00 13887.80 -319989.00
v 16605.60 -15536.50 -341555.00
v 25252.90 -29628.00 -337986.00
v 38380.70 -15726.20 -339891.00
v 43752.00 -29789.10 -336572.00
v 66329.40 -16005.60 -337438.00
v 67495.90 -30026.50 -334488.00
v 87047.60 -16474.70 -333321.00
v 85097.20 -30425.00 -330990.00
v 116053.00 -16474.70 -333321.00
v 109739.00 -30425.00 -330990.00
v 136746.00 -27324.60 -334180.00
v 147843.00 -13303.80 -337130.00
v 157868.00 -20569.90 -333411.00
v 172705.00 -6828.03 -333912.00
v -48467.50 -32158.00 -327791.00
v -11085.10 -40563.50 -314072.00
v 18974.30 -44130.00 -306791.00
v 40251.00 -44369.70 -304687.00
v 61911.80 -43506.70 -312262.00
v 82290.60 -44612.60 -302555.00
v 111793.00 -44062.40 -307385.00
v 130468.00 -40333.10 -316094.00
v 150201.00 -32399.30 -325673.00
v -73913.90 -14230.00 -353023.00
v -50468.30 -17986.10 -380110.00
v -52111.50 -23296.00 -368348.00
v -72464.60 -5372.50 -346687.00
v -22740.80 -30423.90 -355963.00
v -22740.80 -12127.20 -347456.00
v 15911.20 -33125.80 -356271.00
v 15911.20 -14829.10 -347764.00
v 37686.30 -33315.40 -354607.00
v 37686.30 -15018.70 -346100.00
v 65635.00 -33594.80 -352154.00
v 65635.00 -15298.20 -343647.00
v 86353.20 -34063.90 -348037.00
v 86353.20 -15767.20 -339530.00
v 115359.00 -34063.90 -348037.00
v 115359.00 -15767.20 -339530.00
v 147149.00 -30892.90 -351846.00
v 147149.00 -12596.30 -343339.00
v 172011.00 -5841.56 -342570.00
v 164867.00 -15901.80 -360584.00
v 166510.00 -12169.90 -371104.00
v 160722.00 -16823.40 -372985.00
v 162365.00 -10762.10 -383460.00
v 151005.00 -24524.80 -384883.00
v 152649.00 -16109.10 -396585.00
v 121989.00 -39005.80 -396277.00
v 123632.00 -20395.20 -406394.00
v 76391.00 -39313.00 -400411.00
v 78034.20 -20395.20 -410540.00
v 30793.30 -39313.00 -400411.00
v -14804.30 -33274.80 -392546.00
v 32436.50 -20395.20 -410540.00
v -13161.10 -14956.50 -402249.00
v 116887.00 -43048.80 -360791.00
v 147179.00 -27268.30 -360804.00
v 72564.40 -42922.80 -368727.00
v 24415.70 -43211.60 -366193.00
v -19906.40 -36018.30 -368467.00
v 107389.00 -65150.00 -581495.00
v 21316.70 -72643.90 -574300.00
v -38365.20 -60190.40 -558981.00
v 174458.00 -60311.30 -561345.00
v -72428.20 -22876.60 -563077.00
v -26566.80 -52084.70 -133580.00
v -20715.90 -52084.70 -160925.00
v -44817.10 -52084.70 -147884.00
v -34080.10 -52084.70 -163125.00
v -16124.70 -35466.90 -114955.00
v -29163.90 -27157.90 -118261.00
v -42846.50 -27157.90 -131903.00
v -53034.00 -7770.50 -136891.00
v -53776.00 -32697.30 -157528.00
v -41568.90 -32697.30 -173750.00
v -34036.10 0.00 -178034.00
v 47535.90 -45975.50 -187841.00
v 30384.40 -30466.00 -186042.00
v 48969.80 -18279.10 -199924.00
v 38347.40 -2769.63 -200514.00
v 212007.00 21431.50 35333.00
v 177842.00 27289.30 47787.30
v 181249.00 38353.80 31490.60
v 214167.00 39503.90 20230.70
v 253113.00 46385.80 10605.20
v 250821.00 28787.80 26196.90
v 291814.00 53351.30 10690.60
v 288944.00 35698.30 24654.00
v 323517.00 66432.80 20285.80
v 318288.00 46812.60 32783.90
v 349444.00 81941.60 33809.20
v 343884.00 62258.80 52390.40
v 365590.00 94699.70 52708.50
v 356636.00 71734.70 70343.10
v 372593.00 99566.10 73039.60
v 362861.00 90389.80 102550.00
v 330619.00 54940.00 105644.00
v 347829.00 65289.40 88857.80
v 341665.00 75745.50 124732.00
v 323727.00 67015.40 135057.00
v 292827.00 36397.30 119148.00
v 312509.00 44925.80 114125.00
v 279177.00 50634.90 145419.00
v 245072.00 27725.90 121370.00
v 270677.00 32406.00 121555.00
v 299271.00 37632.10 142583.00
v 230915.00 42053.40 140743.00
v 212846.00 38681.90 132573.00
v 210309.00 21098.20 109034.00
v 250904.00 45606.00 143728.00
v 176680.00 38584.10 107503.00
v 176834.00 27131.70 87139.30
v 148617.00 32131.10 74002.40
v 138901.00 36431.30 79674.30
v 148277.00 32281.30 57341.40
v 152727.00 30678.80 43700.50
v 137083.00 37215.70 58050.10
v 114798.00 36400.70 59745.90
v 135812.00 37773.30 68722.90
v 125143.00 37603.70 56165.80
v 227296.00 24385.50 117363.00
v 346637.00 80837.00 70887.70
v 335333.00 71642.70 54814.40
v 338829.00 74585.90 87464.10
v 323534.00 64608.60 102493.00
v 307426.00 54983.30 110086.00
v 289880.00 46870.10 114583.00
v 270044.00 43328.20 116739.00
v 247115.00 39168.10 116572.00
v 231198.00 36188.90 112985.00
v 215989.00 33247.10 105528.00
v 185925.00 33145.00 85925.60
v 160381.00 45462.20 74163.90
v 148785.00 51339.20 69437.20
v 149936.00 50758.30 59881.60
v 160074.00 45618.60 59247.10
v 183502.00 33355.20 50693.20
v 217509.00 33545.80 39542.80
v 252263.00 40113.20 31363.10
v 286403.00 46249.80 29981.70
v 312587.00 56750.20 37260.50
v 376176.00 99566.10 74019.70
v 362861.00 90389.80 107710.00
v 341665.00 75745.50 129892.00
v 323727.00 67015.40 140217.00
v 301062.00 37632.10 147146.00
v 279177.00 50634.90 150579.00
v 250904.00 45606.00 148888.00
v 230915.00 42053.40 145904.00
v 212846.00 38681.90 137733.00
v 176680.00 38584.10 112663.00
v 138901.00 36431.30 84834.40
v 89471.30 6909.91 90465.10
v 144090.00 17965.00 108011.00
v 186789.00 21859.60 142185.00
v 242248.00 25034.40 161285.00
v 301013.00 41237.20 160794.00
v 355012.00 64909.80 146854.00
v 389956.00 97980.60 108395.00
v 188319.00 -3974.38 170736.00
v 243777.00 -799.59 181509.00
v 302543.00 15403.20 181017.00
v 359261.00 28198.30 167078.00
v 399984.00 57190.10 140515.00
v 142051.00 -7868.94 153217.00
v 107908.00 -3078.19 121693.00
v 423241.00 78431.60 104150.00
v 431568.00 78431.60 72029.90
v 389956.00 97980.60 73895.70
v 431568.00 78431.60 46950.10
v 389956.00 97980.60 48815.90
v 82979.10 -3993.03 66916.50
v 107192.00 42662.50 44821.00
v 81854.30 -20347.40 33385.00
v 93953.30 7513.42 16758.70
v 74952.50 -40336.10 -8619.55
v 95434.80 -368.72 -12205.90
v 95434.90 -38236.50 -54274.20
v 106228.00 -7265.56 -48125.90
v 78171.70 -58507.60 -47061.70
v 90952.00 -80401.30 -98330.60
v 110985.00 -52084.70 -97983.70
v 123698.00 -6916.13 -83696.60
v 138742.00 0.00 -106087.00
v 96437.90 -92566.30 -135137.00
v 117545.00 -60393.60 -129224.00
v 89245.50 -96510.30 -159929.00
v 105878.00 -60393.60 -160818.00
v 98387.40 -55392.80 -168862.00
v 77041.00 -85858.80 -175098.00
v 215198.00 39503.90 10950.10
v 254144.00 46385.80 1324.68
v 182280.00 38353.80 22210.10
v 153759.00 30678.80 34420.00
v 292845.00 53351.30 1410.06
v 324548.00 66432.80 11005.20
v 350475.00 81941.60 24528.70
v 366621.00 94699.70 43428.00
v 411063.00 26942.70 9433.13
v 392543.00 5521.92 -22660.20
v 337318.00 -3046.41 -43842.90
v 271323.00 -3046.41 -46936.40
v 205328.00 3379.84 -38009.80
v 164998.00 18374.40 -17181.00
v 125649.00 33369.00 308.23
v 126174.00 37603.70 46885.30
v 440647.00 79670.20 129427.00
v 405139.00 57190.10 166294.00
v 357199.00 28198.30 185639.00
v 300481.00 15403.20 199578.00
v 241715.00 -799.59 198007.00
v 186257.00 -3974.38 189297.00
v 137926.00 -7868.94 175903.00
v 97595.90 -3078.19 158815.00
v 450425.00 55143.30 -2972.70
v 452548.00 37470.10 -43580.20
v 440639.00 19925.80 -96433.50
v 460823.00 67810.30 -79094.90
v 442778.00 50356.80 -134197.00
v 461508.00 83908.70 -35981.40
v 468290.00 154057.00 -76318.80
v 459887.00 154239.00 -142314.00
v 447635.00 151667.00 -185686.00
v 417584.00 2381.56 -145052.00
v 423167.00 32812.50 -195392.00
v 381150.00 22016.00 -234029.00
v 379078.00 -8414.91 -197506.00
v 325350.00 -16512.30 -216354.00
v 336247.00 32938.00 -246022.00
v 429279.00 55474.10 -225025.00
v 411094.00 52226.90 -266120.00
v 366604.00 22016.00 -289349.00
v 337198.00 33323.70 -312865.00
v 383092.00 44254.90 -325031.00
v 353099.00 35743.80 -353271.00
v 417382.00 160281.00 -282928.00
v 403937.00 160281.00 -334139.00
v 386032.00 160281.00 -372566.00
v 348228.00 160281.00 -426924.00
v 328123.00 33192.50 -373584.00
v 314243.00 61239.40 -422109.00
v 312328.00 160281.00 -475513.00
v 293371.00 -3046.41 -110357.00
v 362133.00 -3046.41 -82362.20
v 171579.00 3379.84 -134710.00
v 279478.00 34612.30 -427642.00
v 294211.00 34612.30 -373546.00
v 287590.00 29134.20 -312865.00
v 290431.00 62705.00 -471598.00
v 267873.00 -19855.80 -226141.00
v 223126.00 -18496.10 -235307.00
v 140768.00 11789.10 -60630.90
v 163060.00 0.00 -158724.00
v 148909.00 0.00 -178034.00
v 161270.00 0.00 -132627.00
v 152965.00 -7770.50 -116944.00
v 261214.00 34612.30 -373546.00
v 254592.00 29134.20 -312865.00
v 251945.00 34612.30 -429464.00
v 228102.00 34612.30 -486304.00
v 472519.00 148952.00 22016.10
v 476845.00 153876.00 -19430.60
v 449481.00 80037.70 108166.00
v 456133.00 96123.90 91034.50
v 477287.00 185217.00 67202.60
v 459338.00 100149.00 100874.00
v 466967.00 173431.00 134469.00
v 448949.00 166589.00 175353.00
v 431580.00 160432.00 212148.00
v 190128.00 2249.73 -235307.00
v 221595.00 33921.70 -312865.00
v 228216.00 34612.30 -373546.00
v 213483.00 34612.30 -427642.00
v 204055.00 -24852.80 -495099.00
v 89868.80 -17075.50 269158.00
v 137944.00 -21866.30 286494.00
v 188586.00 -17971.70 286022.00
v 237111.00 -14796.90 285488.00
v 315940.00 10843.20 282459.00
v 388654.00 30047.70 260519.00
v 414999.00 154958.00 244856.00
v 406709.00 151538.00 265297.00
v 406709.00 146064.00 298005.00
v 90680.60 -3078.19 366472.00
v 137944.00 -7868.94 369694.00
v 186275.00 -3974.38 371533.00
v 290553.00 -14003.00 365621.00
v 375732.00 19581.10 367235.00
v 90680.60 38984.60 488144.00
v 137944.00 34193.80 491365.00
v 186275.00 30192.40 490871.00
v 267226.00 53154.80 477642.00
v 320105.00 51532.70 463391.00
v 365257.00 129284.00 471714.00
v 340385.00 129284.00 496585.00
v 290642.00 129284.00 521457.00
v 240899.00 129284.00 546328.00
v 406709.00 128276.00 404303.00
v 406709.00 136486.00 355242.00
v 191156.00 129284.00 571200.00
v 141414.00 129284.00 567054.00
v 79234.90 129284.00 567054.00
v 121335.00 -52084.70 -160925.00
v 131883.00 -52084.70 -133580.00
v 150133.00 -52084.70 -147884.00
v 135873.00 -52084.70 -163125.00
v 121441.00 -35466.90 -112606.00
v 134480.00 -27157.90 -118261.00
v 148163.00 -27157.90 -131903.00
v 158350.00 -7770.50 -136891.00
v 159092.00 -32697.30 -157528.00
v 146885.00 -32697.30 -173750.00
v 139352.00 0.00 -178034.00
v 82741.70 -30466.00 -184122.00
v 65437.60 -45975.50 -186667.00
v 74760.40 -2769.63 -199768.00
v 64872.60 -18279.10 -198596.00
v 173472.00 -42594.30 -448469.00
v -42810.60 -42594.30 -453746.00
v 29906.80 -85915.10 -506632.00
v -48919.20 -67486.80 -511950.00
v 90518.30 -83531.60 -498705.00
v 180204.00 -65066.80 -500464.00
v 25840.90 -42594.30 -444171.00
v 83393.00 -42594.30 -443320.00
v 28731.30 -18496.10 -236965.00
v -13661.20 -8921.09 -242836.00
v -66184.50 3845.56 -257282.00
v 181758.00 3845.56 -260558.00
v 136431.00 -8921.09 -243982.00
v 87721.50 -18496.10 -239769.00
v 58160.60 -3339.38 -261736.00
v 58160.60 -1743.53 -223436.00
v -390325.00 224811.00 167828.00
v -367032.00 224811.00 241587.00
v -370915.00 224811.00 307582.00
v -458360.00 406769.00 268066.00
v -458360.00 406769.00 338535.00
v -370915.00 224811.00 385223.00
v -433488.00 406769.00 404859.00
v -355386.00 224811.00 470628.00
v -425198.00 406769.00 462892.00
v -462505.00 406769.00 214178.00
v -462505.00 406769.00 176871.00
v -450069.00 406769.00 139563.00
v -433488.00 400896.00 77554.50
v -293274.00 224811.00 548269.00
v -387890.00 437884.00 543815.00
v -277745.00 224811.00 591996.00
v -342293.00 405224.00 585781.00
v -304986.00 394337.00 639669.00
v -228860.00 224811.00 611855.00
v -230371.00 391226.00 681122.00
v -165166.00 224811.00 618145.00
v -71996.80 226366.00 659341.00
v 435671.00 118303.00 335349.00
v 423450.00 118303.00 413260.00
v 395952.00 118303.00 468255.00
v 368454.00 118303.00 507974.00
v 305820.00 118303.00 550749.00
v 247769.00 118303.00 579774.00
v 327854.00 224811.00 610381.00
v 195829.00 118303.00 601161.00
v 117918.00 118303.00 596578.00
v 129870.00 241919.00 662452.00
v 32818.50 229477.00 664007.00
v 40007.50 118303.00 595051.00
v -42486.00 118303.00 599634.00
v -139176.00 413000.00 727754.00
v -6528.32 397447.00 753146.00
v 117039.00 394337.00 794293.00
v 223039.00 231032.00 662440.00
v 226855.00 380339.00 821204.00
v 412075.00 380339.00 735207.00
v 401613.00 224811.00 540504.00
v 428196.00 380339.00 623088.00
v 470174.00 380339.00 527748.00
v 440434.00 224811.00 435689.00
v 459844.00 224811.00 284289.00
v 459844.00 224811.00 229941.00
v 503336.00 380339.00 250017.00
v 503336.00 380339.00 332921.00
v 503336.00 380339.00 399245.00
v 495046.00 380339.00 448988.00
v 371873.00 380339.00 846537.00
v -439654.00 555583.00 69586.20
v -456235.00 609912.00 147747.00
v -433561.00 609912.00 188601.00
v -468671.00 621658.00 226766.00
v -454494.00 576295.00 279188.00
v -464526.00 623127.00 355528.00
v -424607.00 561872.00 413289.00
v -431364.00 589355.00 479886.00
v -342293.00 517940.00 593299.00
v -304986.00 473744.00 643608.00
v -230371.00 491550.00 683862.00
v -139176.00 441063.00 728746.00
v -6528.32 433635.00 748095.00
v 472790.00 319298.00 196488.00
v 492297.00 319298.00 143541.00
v 503443.00 319298.00 98954.10
v 472399.00 220577.00 103470.00
v 500657.00 414049.00 533678.00
v 461643.00 414049.00 628425.00
v 450496.00 414049.00 731533.00
v 520163.00 414049.00 450077.00
v 531310.00 414049.00 391557.00
v 539670.00 414049.00 321889.00
v 520163.00 414049.00 190915.00
v 520163.00 414049.00 135181.00
v -146650.00 294380.00 -525206.00
v -177269.00 335638.00 -499176.00
v -215334.00 353675.00 -466493.00
v -247809.00 347607.00 -420504.00
v -272008.00 321267.00 -362277.00
v -299277.00 318816.00 -304560.00
v -310804.00 309015.00 -261413.00
v -89744.20 233486.00 -567028.00
v -341226.00 319298.00 -213578.00
v -374436.00 319298.00 -143007.00
v -391040.00 319298.00 -80739.30
v 417382.00 272259.00 -257087.00
v 403937.00 272259.00 -308298.00
v 386032.00 272259.00 -346725.00
v 353875.00 395073.00 -401083.00
v 316132.00 350920.00 -449672.00
v 271131.00 335524.00 -480039.00
v 239262.00 310602.00 -528888.00
v 182923.00 272259.00 -570620.00
v 95807.70 237752.00 -591960.00
v 18654.20 222415.00 -590164.00
v 326431.00 77310.30 20285.80
v 292527.00 51742.20 50281.60
v 294729.00 64228.70 10690.60
v 312695.00 55026.60 60498.00
v 352359.00 92819.00 33809.20
v 322778.00 56668.90 75093.00
v 368505.00 105577.00 52708.50
v 375507.00 110444.00 73039.60
v 327100.00 57372.70 95525.90
v 365776.00 101267.00 102550.00
v 319897.00 56199.70 114499.00
v 344580.00 86622.90 124732.00
v 326642.00 77892.80 135057.00
v 304051.00 53619.00 132013.00
v 302185.00 52599.30 142583.00
v 282091.00 61512.40 145419.00
v 255074.00 45642.50 41524.60
v 256028.00 57263.30 10605.20
v 229145.00 41419.70 48822.10
v 217082.00 50381.40 20230.70
v 206096.00 37666.00 66336.00
v 184164.00 49231.30 31490.60
v 155642.00 41556.20 43700.50
v 141816.00 47308.80 79674.30
v 129088.00 48481.10 46885.30
v 117713.00 47278.20 59745.90
v 193132.00 35554.60 89687.90
v 179594.00 49461.50 107503.00
v 200334.00 36727.60 111580.00
v 215761.00 49559.30 132573.00
v 218217.00 39640.00 127911.00
v 233830.00 52930.90 140743.00
v 261268.00 32611.60 83621.90
v 284685.00 36425.30 89408.60
v 290396.00 37355.40 102718.00
v 285256.00 36518.30 117185.00
v 270406.00 34099.90 123550.00
v 253819.00 56483.50 143728.00
v 250987.00 30937.30 120078.00
v 238422.00 28890.90 114870.00
v 237280.00 28704.90 99245.90
v 245276.00 30007.10 85357.90
v -185911.00 64228.70 10690.60
v -183709.00 51742.20 50281.60
v -217613.00 77310.30 20285.80
v -203876.00 55026.60 60498.00
v -243541.00 92819.00 33809.20
v -213960.00 56668.90 75093.00
v -259686.00 105577.00 52708.50
v -266689.00 110444.00 73039.60
v -218282.00 57372.70 95525.90
v -256958.00 101267.00 102550.00
v -211079.00 56199.70 114499.00
v -235762.00 86622.90 124732.00
v -217824.00 77892.80 135057.00
v -195233.00 53619.00 132013.00
v -193367.00 52599.30 142583.00
v -173273.00 61512.40 145419.00
v -146256.00 45642.50 41524.60
v -147210.00 57263.30 10605.20
v -108263.00 50381.40 20230.70
v -120327.00 41419.70 48822.10
v -97278.30 37666.00 66336.00
v -75345.40 49231.30 31490.60
v -46823.90 41556.20 43700.50
v -20270.30 48481.10 46885.30
v -32997.40 47308.80 79674.30
v -8895.00 47278.20 59745.90
v -84313.70 35554.60 89687.90
v -70776.10 49461.50 107503.00
v -91516.20 36727.60 111580.00
v -106943.00 49559.30 132573.00
v -109399.00 39640.00 127911.00
v -125011.00 52930.90 140743.00
v -152450.00 32611.60 83621.90
v -175867.00 36425.30 89408.60
v -181578.00 37355.40 102718.00
v -176438.00 36518.30 117185.00
v -161588.00 34099.90 123550.00
v -145000.00 56483.50 143728.00
v -142169.00 30937.30 120078.00
v -129604.00 28890.90 114870.00
v -128462.00 28704.90 99245.90
v -136458.00 30007.10 85357.90
f 1 2 3
f 4 1 3
f 5 4 3
f 5 3 6
f 7 5 6
f 7 6 8
f 9 7 8
f 10 9 8
f 11 9 10
f 12 11 10
f 13 11 12
f 14 13 12
f 15 13 14
f 16 17 18
f 18 19 17
f 18 15 16
f 20 21 22
f 22 19 17
f 23 24 25
f 25 26 21
f 27 28 29
f 24 29 30
f 27 31 32
f 27 32 28
f 31 33 32
f 33 34 32
f 2 35 1
f 1 35 2
f 1 36 35
f 36 37 35
f 38 39 34
f 33 38 34
f 36 40 37
f 40 39 38
f 37 40 38
f 21 26 22
f 24 30 25
f 29 41 27
f 17 20 22
f 21 23 25
f 29 24 41
f 14 16 15
f 15 18 17
f 17 19 18
f 12 42 43
f 12 43 14
f 14 43 44
f 14 44 16
f 44 45 16
f 16 45 17
f 45 46 17
f 17 46 20
f 20 46 47
f 20 47 21
f 21 47 48
f 21 48 23
f 48 49 23
f 23 49 24
f 24 49 50
f 24 50 41
f 41 50 51
f 41 51 27
f 27 51 52
f 27 52 31
f 31 52 53
f 31 53 33
f 53 54 33
f 54 38 33
f 35 55 37
f 35 37 55
f 35 55 56
f 35 56 2
f 57 2 56
f 3 2 57
f 3 57 58
f 6 3 58
f 6 58 59
f 8 6 59
f 8 59 60
f 10 8 60
f 10 60 61
f 12 10 61
f 12 61 42
f 15 18 62
f 62 18 63
f 18 19 63
f 63 19 64
f 19 22 64
f 64 22 65
f 22 26 65
f 65 26 66
f 26 25 66
f 66 25 67
f 25 30 67
f 67 30 68
f 68 30 29
f 68 29 69
f 69 29 28
f 69 28 70
f 70 28 32
f 70 32 71
f 71 32 34
f 71 34 72
f 34 39 73
f 72 74 71
f 71 74 75
f 71 75 70
f 70 75 69
f 75 76 69
f 69 76 68
f 67 68 76
f 67 77 66
f 77 67 76
f 65 66 77
f 64 65 78
f 78 65 77
f 63 64 78
f 79 63 78
f 79 62 63
f 75 80 76
f 76 80 81
f 77 76 81
f 77 81 82
f 78 77 83
f 83 77 82
f 78 83 84
f 84 79 78
f 75 85 80
f 75 74 85
f 74 86 85
f 74 73 86
f 74 72 73
f 73 72 34
f 79 84 87
f 88 79 89
f 89 79 87
f 88 62 79
f 90 88 91
f 91 88 89
f 92 93 73
f 92 73 39
f 94 93 92
f 95 94 92
f 95 96 94
f 95 97 96
f 97 98 99
f 96 97 99
f 99 100 96
f 99 101 102
f 99 102 100
f 98 103 99
f 103 101 99
f 103 104 101
f 101 105 106
f 101 106 102
f 105 107 108
f 105 108 106
f 107 109 108
f 109 110 108
f 111 112 5
f 112 4 5
f 112 113 4
f 113 1 4
f 113 114 1
f 114 36 1
f 115 111 5
f 115 5 7
f 116 115 7
f 116 7 9
f 117 116 9
f 117 9 11
f 118 117 11
f 118 11 13
f 62 13 15
f 62 118 13
f 90 62 88
f 90 118 62
f 91 119 90
f 118 90 119
f 119 117 118
f 117 119 120
f 117 120 121
f 117 121 116
f 116 121 122
f 116 122 115
f 115 122 111
f 111 122 123
f 111 123 112
f 112 123 124
f 112 124 113
f 113 124 114
f 124 125 114
f 114 126 36
f 36 126 40
f 126 92 40
f 40 92 39
f 125 126 114
f 125 95 92
f 125 92 126
f 87 84 127
f 127 84 128
f 128 84 83
f 128 83 129
f 129 83 82
f 129 82 130
f 130 82 81
f 130 81 131
f 131 81 80
f 131 80 132
f 132 80 85
f 132 85 133
f 133 85 134
f 85 86 134
f 135 119 136
f 136 119 91
f 135 137 119
f 137 120 119
f 138 137 139
f 139 135 140
f 140 135 136
f 140 141 139
f 141 142 139
f 139 142 138
f 138 142 143
f 138 144 145
f 138 145 137
f 144 146 145
f 146 147 145
f 146 148 149
f 146 149 147
f 138 150 144
f 150 151 144
f 143 150 138
f 151 146 144
f 151 152 146
f 146 152 148
f 148 152 153
f 154 152 155
f 155 152 151
f 155 151 156
f 156 151 150
f 156 157 155
f 157 158 155
f 158 159 155
f 159 154 155
f 154 153 152
f 154 160 153
f 154 161 160
f 159 161 154
f 159 162 161
f 162 163 161
f 162 164 163
f 164 165 166
f 164 166 163
f 165 167 166
f 166 167 168
f 167 169 170
f 167 170 168
f 169 171 170
f 171 172 170
f 171 173 174
f 171 174 172
f 173 175 176
f 174 173 176
f 175 177 178
f 175 178 176
f 177 179 180
f 177 180 178
f 149 181 147
f 147 181 182
f 145 147 182
f 145 182 120
f 145 120 137
f 182 121 120
f 182 181 121
f 181 122 121
f 181 183 122
f 183 123 122
f 161 184 160
f 184 185 160
f 160 185 186
f 160 186 153
f 153 186 148
f 163 184 161
f 163 187 184
f 166 187 163
f 168 187 166
f 149 188 181
f 188 183 181
f 188 189 183
f 148 188 149
f 186 188 148
f 183 190 123
f 190 124 123
f 190 125 124
f 190 97 125
f 125 97 95
f 190 98 97
f 190 103 98
f 190 104 103
f 183 104 190
f 189 191 192
f 189 192 183
f 183 192 193
f 183 193 194
f 185 195 186
f 195 196 186
f 184 197 185
f 197 195 185
f 186 196 188
f 196 189 188
f 187 197 184
f 187 198 197
f 140 136 199
f 140 199 200
f 141 140 200
f 201 87 127
f 89 87 201
f 89 201 202
f 91 89 202
f 136 203 199
f 203 91 202
f 136 91 203
f 203 202 204
f 202 201 204
f 204 201 205
f 205 201 127
f 205 127 206
f 206 127 128
f 206 128 207
f 196 208 189
f 208 191 189
f 209 208 196
f 210 209 196
f 195 210 196
f 197 210 195
f 197 211 210
f 198 211 197
f 168 198 187
f 198 212 211
f 139 137 135
f 134 213 133
f 133 213 214
f 133 214 215
f 132 133 215
f 132 215 216
f 131 132 216
f 130 131 216
f 130 216 217
f 130 217 218
f 218 129 130
f 129 207 128
f 129 218 207
f 218 219 207
f 218 220 219
f 218 221 220
f 213 222 214
f 214 222 223
f 214 223 224
f 214 224 215
f 216 215 224
f 216 224 225
f 216 225 217
f 217 225 226
f 218 217 226
f 222 227 223
f 223 227 228
f 223 228 224
f 224 228 229
f 224 229 225
f 225 229 230
f 225 230 226
f 226 230 231
f 226 231 232
f 231 233 232
f 231 234 233
f 230 234 231
f 230 235 234
f 226 232 236
f 226 236 237
f 218 237 221
f 218 226 237
f 229 238 230
f 230 238 235
f 229 239 238
f 228 239 229
f 228 240 239
f 227 240 228
f 241 242 243
f 242 244 243
f 245 241 243
f 245 246 241
f 246 247 241
f 246 248 247
f 247 248 249
f 242 250 244
f 250 251 244
f 250 252 251
f 251 252 253
f 252 254 253
f 254 255 253
f 254 256 255
f 256 257 258
f 256 258 255
f 258 259 260
f 257 259 258
f 259 261 262
f 259 262 260
f 261 263 264
f 261 264 262
f 263 265 264
f 265 266 264
f 265 267 266
f 267 268 266
f 267 269 268
f 269 270 268
f 248 271 272
f 249 248 272
f 271 273 272
f 272 273 274
f 273 275 276
f 273 276 274
f 275 277 278
f 275 278 276
f 277 279 280
f 277 280 278
f 279 281 280
f 281 282 283
f 282 284 283
f 279 282 281
f 283 284 269
f 241 285 242
f 285 250 242
f 285 286 250
f 286 252 250
f 286 287 252
f 287 254 252
f 287 288 254
f 288 256 254
f 288 289 257
f 288 257 256
f 289 290 257
f 290 259 257
f 290 261 259
f 290 291 261
f 291 263 261
f 291 292 263
f 292 265 263
f 292 293 265
f 293 267 265
f 293 269 267
f 241 247 285
f 247 249 285
f 249 286 285
f 249 272 286
f 272 287 286
f 272 288 287
f 272 274 288
f 274 276 288
f 276 289 288
f 276 290 289
f 276 278 290
f 278 280 290
f 280 291 290
f 280 281 292
f 280 292 291
f 281 293 292
f 281 283 293
f 283 269 293
f 294 295 296
f 294 296 297
f 296 298 299
f 296 299 297
f 298 300 301
f 298 301 299
f 300 302 301
f 302 303 301
f 302 304 305
f 302 305 303
f 304 306 305
f 306 307 305
f 306 308 307
f 308 309 307
f 308 310 311
f 308 311 309
f 310 312 311
f 312 310 313
f 313 314 312
f 313 315 314
f 315 316 314
f 315 317 316
f 317 318 316
f 317 319 318
f 319 320 318
f 319 321 320
f 321 322 320
f 321 323 322
f 323 324 325
f 323 325 322
f 324 326 325
f 324 296 326
f 296 295 326
f 327 310 308
f 327 328 310
f 328 313 310
f 328 315 313
f 317 315 328
f 328 319 317
f 319 328 327
f 306 327 308
f 306 329 327
f 304 329 306
f 304 330 329
f 330 304 302
f 330 302 300
f 300 331 330
f 331 300 298
f 296 331 298
f 296 324 331
f 331 324 330
f 324 323 330
f 323 321 330
f 321 329 330
f 321 327 329
f 321 319 327
f 174 332 172
f 172 332 333
f 170 172 333
f 170 333 334
f 174 176 332
f 176 335 332
f 176 178 335
f 168 170 336
f 336 334 198
f 334 212 198
f 107 337 338
f 107 105 337
f 338 337 339
f 340 338 339
f 105 341 337
f 337 341 342
f 337 342 343
f 339 337 343
f 105 101 341
f 341 101 104
f 342 341 104
f 194 342 104
f 343 342 194
f 194 104 183
f 194 193 344
f 344 343 194
f 344 339 343
f 345 339 344
f 345 346 340
f 345 340 339
f 193 192 345
f 345 344 193
f 192 346 345
f 192 191 346
f 191 347 346
f 348 110 349
f 349 110 109
f 350 348 351
f 351 348 349
f 352 353 354
f 352 354 355
f 352 355 356
f 357 352 356
f 357 356 358
f 359 357 358
f 359 358 360
f 359 360 361
f 361 360 362
f 361 362 363
f 363 362 364
f 363 364 365
f 365 364 366
f 367 368 369
f 368 370 367
f 369 366 367
f 371 372 373
f 368 370 371
f 374 375 376
f 372 377 374
f 378 379 380
f 381 378 375
f 382 383 380
f 379 382 380
f 382 384 383
f 382 385 384
f 354 386 353
f 353 386 354
f 386 387 354
f 386 388 387
f 385 389 390
f 385 390 384
f 388 391 387
f 390 389 391
f 390 391 388
f 371 377 372
f 374 381 375
f 380 392 378
f 371 373 368
f 374 376 372
f 392 375 378
f 366 369 365
f 368 367 366
f 367 370 368
f 393 394 363
f 365 393 363
f 395 393 365
f 369 395 365
f 369 396 395
f 368 396 369
f 368 397 396
f 373 397 368
f 398 397 373
f 372 398 373
f 399 398 372
f 376 399 372
f 376 400 399
f 375 400 376
f 401 400 375
f 392 401 375
f 402 401 392
f 380 402 392
f 403 402 380
f 383 403 380
f 404 403 383
f 384 404 383
f 384 405 404
f 384 390 405
f 388 406 386
f 406 388 386
f 407 406 386
f 353 407 386
f 407 353 408
f 408 353 352
f 409 408 352
f 409 352 357
f 410 409 357
f 410 357 359
f 411 410 359
f 411 359 361
f 412 411 361
f 412 361 363
f 394 412 363
f 413 367 366
f 414 367 413
f 414 370 367
f 415 370 414
f 415 371 370
f 416 371 415
f 416 377 371
f 417 377 416
f 417 374 377
f 418 374 417
f 418 381 374
f 419 381 418
f 378 381 419
f 420 378 419
f 379 378 420
f 421 379 420
f 382 379 421
f 422 382 421
f 385 382 422
f 423 385 422
f 424 389 385
f 422 425 423
f 426 425 422
f 421 426 422
f 420 426 421
f 420 427 426
f 419 427 420
f 427 419 418
f 417 428 418
f 427 418 428
f 428 417 416
f 429 416 415
f 428 416 429
f 429 415 414
f 429 414 430
f 414 413 430
f 427 431 426
f 432 431 427
f 432 427 428
f 433 432 428
f 434 428 429
f 433 428 434
f 435 434 429
f 429 430 435
f 431 436 426
f 436 425 426
f 436 437 425
f 437 424 425
f 424 423 425
f 385 423 424
f 438 435 430
f 439 430 440
f 438 430 439
f 430 413 440
f 441 440 442
f 439 440 441
f 424 443 444
f 389 424 444
f 444 443 445
f 444 445 446
f 445 447 446
f 447 448 446
f 449 450 448
f 449 448 447
f 447 451 449
f 452 453 449
f 451 452 449
f 449 454 450
f 449 453 454
f 453 455 454
f 456 457 453
f 452 456 453
f 458 459 457
f 456 458 457
f 458 460 459
f 458 461 460
f 356 462 463
f 356 355 462
f 355 464 462
f 355 354 464
f 354 465 464
f 354 387 465
f 356 463 466
f 358 356 466
f 358 466 467
f 360 358 467
f 360 467 468
f 362 360 468
f 362 468 469
f 364 362 469
f 366 364 413
f 364 469 413
f 440 413 442
f 413 469 442
f 442 470 441
f 470 442 469
f 469 468 470
f 471 470 468
f 472 471 468
f 467 472 468
f 473 472 467
f 466 473 467
f 463 473 466
f 474 473 463
f 462 474 463
f 475 474 462
f 464 475 462
f 465 475 464
f 465 476 475
f 387 477 465
f 391 477 387
f 391 444 477
f 389 444 391
f 465 477 476
f 444 446 476
f 477 444 476
f 478 435 438
f 479 435 478
f 434 435 479
f 480 434 479
f 433 434 480
f 481 433 480
f 432 433 481
f 482 432 481
f 431 432 482
f 483 431 482
f 436 431 483
f 484 436 483
f 485 436 484
f 485 437 436
f 486 470 487
f 441 470 486
f 470 488 487
f 470 471 488
f 489 488 490
f 491 487 489
f 486 487 491
f 489 492 491
f 489 493 492
f 490 493 489
f 494 493 490
f 495 496 490
f 488 495 490
f 495 497 496
f 495 498 497
f 499 500 497
f 498 499 497
f 496 501 490
f 496 502 501
f 490 501 494
f 496 497 502
f 497 503 502
f 500 503 497
f 504 503 500
f 505 503 506
f 502 503 505
f 507 502 505
f 501 502 507
f 505 508 507
f 505 509 508
f 505 510 509
f 505 506 510
f 503 504 506
f 504 511 506
f 511 512 506
f 506 512 510
f 512 513 510
f 498 514 499
f 515 514 498
f 515 498 495
f 471 515 495
f 488 471 495
f 471 472 515
f 472 514 515
f 472 473 514
f 473 516 514
f 473 474 516
f 511 517 512
f 511 518 517
f 519 518 511
f 504 519 511
f 500 519 504
f 512 517 520
f 517 180 520
f 514 521 499
f 514 516 521
f 516 522 521
f 499 521 500
f 500 521 519
f 474 523 516
f 474 475 523
f 475 476 523
f 476 448 523
f 446 448 476
f 448 450 523
f 450 454 523
f 454 455 523
f 523 455 516
f 524 525 522
f 516 524 522
f 526 524 516
f 527 526 516
f 519 528 518
f 519 529 528
f 518 530 517
f 518 528 530
f 521 529 519
f 521 522 529
f 517 530 180
f 530 531 180
f 532 486 491
f 533 532 491
f 533 491 492
f 478 438 534
f 534 438 439
f 535 534 439
f 535 439 441
f 532 536 486
f 535 441 536
f 536 441 486
f 537 535 536
f 537 534 535
f 538 534 537
f 478 534 538
f 539 478 538
f 479 478 539
f 540 479 539
f 522 541 529
f 522 525 541
f 529 541 542
f 529 542 543
f 529 543 528
f 528 543 530
f 543 544 530
f 530 544 531
f 544 545 531
f 487 488 489
f 484 546 485
f 547 546 484
f 548 547 484
f 548 484 483
f 549 548 483
f 549 483 482
f 549 482 481
f 550 549 481
f 551 550 481
f 481 480 551
f 479 540 480
f 480 540 552
f 552 551 480
f 552 553 551
f 553 554 551
f 547 555 546
f 556 555 547
f 557 556 547
f 548 557 547
f 557 548 549
f 558 557 549
f 550 558 549
f 559 558 550
f 559 550 551
f 556 560 555
f 561 560 556
f 557 561 556
f 562 561 557
f 558 562 557
f 563 562 558
f 559 563 558
f 564 563 559
f 565 564 559
f 565 566 564
f 566 567 564
f 564 567 563
f 567 568 563
f 569 565 559
f 570 569 559
f 554 570 551
f 570 559 551
f 563 571 562
f 568 571 563
f 571 572 562
f 562 572 561
f 572 573 561
f 561 573 560
f 574 575 459
f 575 457 459
f 576 575 574
f 576 574 577
f 575 578 457
f 579 578 575
f 580 579 575
f 580 575 576
f 578 453 457
f 455 453 578
f 455 578 579
f 455 579 527
f 527 579 580
f 516 455 527
f 581 526 527
f 527 580 581
f 580 576 581
f 581 576 582
f 577 583 582
f 576 577 582
f 582 524 526
f 526 581 582
f 582 583 524
f 583 525 524
f 583 584 525
f 585 461 586
f 460 461 585
f 587 586 588
f 585 586 587
f 134 485 213
f 485 546 213
f 213 546 555
f 213 555 222
f 222 555 560
f 222 560 227
f 227 560 573
f 227 573 240
f 86 485 134
f 86 437 485
f 73 437 86
f 73 424 437
f 93 424 73
f 93 443 424
f 94 443 93
f 94 445 443
f 96 445 94
f 96 447 445
f 100 447 96
f 100 451 447
f 102 451 100
f 102 452 451
f 106 452 102
f 106 456 452
f 106 458 456
f 106 108 458
f 108 110 458
f 110 461 458
f 348 461 110
f 348 586 461
f 350 586 348
f 350 588 586
f 179 520 180
f 178 180 531
f 178 531 545
f 335 178 545
f 545 544 589
f 212 590 211
f 334 591 592
f 334 333 591
f 333 332 593
f 333 593 591
f 332 335 593
f 335 594 593
f 335 545 594
f 334 592 212
f 212 592 590
f 592 595 590
f 592 591 595
f 591 593 596
f 591 596 595
f 593 594 596
f 594 589 596
f 594 545 589
f 179 513 520
f 520 513 512
f 336 170 334
f 168 336 198
f 596 322 595
f 595 322 325
f 595 325 326
f 590 595 326
f 590 326 211
f 211 326 295
f 211 295 210
f 210 295 294
f 596 320 322
f 589 320 596
f 589 318 320
f 589 544 318
f 544 316 318
f 544 314 316
f 544 543 314
f 543 312 314
f 543 542 312
f 294 245 210
f 245 209 210
f 542 270 312
f 255 597 253
f 253 597 251
f 251 597 598
f 251 598 244
f 244 598 599
f 243 244 599
f 209 245 243
f 243 208 209
f 243 599 208
f 270 542 600
f 542 541 600
f 268 270 600
f 266 268 600
f 264 266 600
f 264 600 601
f 262 264 601
f 262 601 602
f 260 262 602
f 600 525 601
f 600 541 525
f 599 191 208
f 598 191 599
f 598 347 191
f 601 584 525
f 597 351 598
f 601 587 602
f 258 603 255
f 258 260 603
f 260 602 603
f 603 602 604
f 604 602 587
f 604 587 588
f 604 588 350
f 604 350 351
f 604 351 597
f 603 597 255
f 603 604 597
f 598 351 347
f 601 525 584
f 601 584 587
f 605 206 606
f 606 206 207
f 606 207 219
f 606 219 607
f 607 219 220
f 607 220 221
f 608 606 607
f 608 607 609
f 609 607 610
f 609 610 611
f 610 607 221
f 610 221 237
f 610 237 236
f 610 236 612
f 611 610 612
f 611 612 613
f 608 614 606
f 614 615 606
f 615 605 606
f 605 205 206
f 615 616 605
f 616 617 605
f 605 204 205
f 617 204 605
f 617 203 204
f 612 236 232
f 612 618 232
f 612 232 618
f 612 618 619
f 612 619 613
f 232 233 618
f 233 620 618
f 619 618 621
f 618 620 621
f 621 620 622
f 620 623 622
f 622 623 624
f 233 623 620
f 234 623 233
f 234 625 623
f 234 235 625
f 235 238 625
f 238 626 625
f 554 627 570
f 570 627 628
f 570 628 569
f 569 628 629
f 569 629 565
f 565 629 630
f 630 566 565
f 631 566 630
f 631 567 566
f 632 567 631
f 631 633 632
f 632 568 567
f 632 571 568
f 571 632 634
f 634 572 571
f 634 635 572
f 635 634 636
f 636 637 638
f 638 635 636
f 635 573 572
f 635 638 573
f 638 240 573
f 638 239 240
f 638 639 239
f 238 239 639
f 639 626 238
f 639 638 637
f 639 637 626
f 626 640 625
f 625 640 624
f 623 625 624
f 626 641 640
f 626 637 641
f 637 636 642
f 637 642 641
f 636 634 643
f 634 632 643
f 632 633 643
f 643 644 636
f 636 644 642
f 643 645 644
f 633 645 643
f 631 646 633
f 646 647 633
f 646 648 647
f 629 646 630
f 629 648 646
f 629 649 648
f 628 649 629
f 554 650 627
f 554 553 650
f 553 552 650
f 552 540 651
f 552 651 650
f 651 652 650
f 650 652 653
f 650 653 627
f 627 653 654
f 627 654 628
f 628 654 649
f 649 654 655
f 649 655 648
f 633 647 645
f 645 656 644
f 657 617 616
f 657 616 658
f 658 616 615
f 659 615 614
f 658 615 659
f 659 614 660
f 660 614 608
f 660 608 661
f 661 608 609
f 661 609 662
f 662 609 611
f 662 611 663
f 663 611 613
f 663 613 664
f 664 613 619
f 664 619 665
f 665 619 621
f 665 621 622
f 665 622 666
f 666 622 667
f 667 622 624
f 667 624 640
f 667 640 668
f 668 640 669
f 669 640 641
f 669 641 642
f 651 670 652
f 540 670 651
f 539 670 540
f 539 671 670
f 539 538 671
f 538 672 671
f 538 673 672
f 673 536 672
f 647 648 674
f 647 674 675
f 647 675 676
f 676 645 647
f 648 677 674
f 648 655 677
f 655 654 677
f 677 654 678
f 678 654 653
f 653 679 678
f 679 653 652
f 652 680 679
f 652 670 680
f 670 671 680
f 671 681 680
f 671 672 681
f 645 676 656
f 682 164 162
f 682 162 683
f 683 162 159
f 683 159 684
f 684 159 685
f 685 159 158
f 685 158 686
f 686 158 157
f 686 157 687
f 687 157 156
f 687 156 688
f 682 165 164
f 689 165 682
f 689 167 165
f 156 150 143
f 688 156 143
f 200 199 203
f 688 143 690
f 690 143 691
f 691 143 142
f 691 141 692
f 691 142 141
f 507 494 501
f 507 693 494
f 507 694 693
f 508 694 507
f 509 695 508
f 510 696 509
f 513 697 510
f 510 697 696
f 509 696 695
f 508 695 694
f 513 698 697
f 179 698 513
f 179 699 698
f 177 699 179
f 177 700 699
f 175 700 177
f 175 701 700
f 175 702 701
f 173 702 175
f 169 702 171
f 169 689 702
f 169 167 689
f 689 702 682
f 682 702 701
f 701 700 682
f 703 704 705
f 706 704 703
f 707 706 703
f 708 706 707
f 708 707 709
f 710 708 709
f 711 708 710
f 712 711 710
f 713 711 712
f 713 712 714
f 713 714 715
f 715 716 713
f 715 717 716
f 717 718 716
f 704 719 705
f 719 720 705
f 721 722 720
f 719 721 720
f 721 723 722
f 723 724 722
f 723 725 724
f 726 727 725
f 726 728 727
f 725 723 726
f 723 729 726
f 729 730 726
f 729 731 730
f 731 732 730
f 733 732 731
f 734 732 733
f 704 735 719
f 736 735 704
f 706 736 704
f 736 706 708
f 737 736 708
f 711 737 708
f 713 737 711
f 738 737 713
f 738 713 716
f 739 738 716
f 739 716 718
f 718 740 739
f 740 741 739
f 740 734 741
f 734 742 741
f 734 733 742
f 733 731 742
f 731 743 742
f 731 729 743
f 729 744 743
f 729 723 744
f 723 721 744
f 735 744 721
f 721 719 735
f 737 738 736
f 738 739 736
f 736 739 735
f 739 741 735
f 741 744 735
f 741 743 744
f 741 742 743
f 745 746 747
f 747 746 748
f 747 748 749
f 749 748 750
f 751 749 750
f 751 750 752
f 752 750 753
f 752 753 754
f 754 753 755
f 756 754 755
f 757 756 755
f 755 758 757
f 758 759 757
f 758 760 759
f 745 761 746
f 745 762 761
f 762 763 764
f 762 764 761
f 763 765 764
f 763 766 765
f 766 767 765
f 767 768 769
f 768 770 769
f 769 765 767
f 769 771 765
f 769 772 771
f 772 773 771
f 772 774 773
f 773 774 775
f 775 774 776
f 761 777 746
f 746 777 778
f 746 778 748
f 750 748 778
f 750 778 779
f 750 779 753
f 753 779 755
f 755 779 780
f 758 755 780
f 758 780 781
f 760 758 781
f 781 782 760
f 781 783 782
f 783 776 782
f 783 784 776
f 784 775 776
f 784 773 775
f 784 785 773
f 785 771 773
f 785 786 771
f 786 765 771
f 786 764 765
f 764 786 777
f 777 761 764
f 778 780 779
f 778 781 780
f 777 781 778
f 777 783 781
f 777 786 783
f 786 785 783
f 785 784 783
