v 199438.00 -40728.00 -283833.00
v 263710.00 -43897.10 -283822.00
v 259356.00 -45402.90 -256822.00
v 216362.00 -43691.90 -237601.00
v 163304.00 -36448.00 -282374.00
v 173074.00 -39508.20 -228784.00
v 137058.00 -32221.80 -280891.00
v 133754.00 -33535.80 -231750.00
v 97252.50 -19365.90 -276476.00
v 90389.50 -17435.60 -240590.00
v 58368.80 -1139.78 -247223.00
v 36015.00 15944.90 -252373.00
v 62913.80 -2821.13 -267590.00
v 43612.30 9082.58 -263129.00
v 30626.40 19427.60 -258715.00
v 2315.44 43314.80 -249474.00
v 21675.20 29520.60 -285363.00
v 27030.10 23291.70 -269916.00
v 36112.20 21484.40 -316344.00
v 57506.00 2714.48 -308844.00
v 51070.00 10286.50 -347837.00
v 75724.60 -8226.63 -339032.00
v 66778.50 2930.80 -377228.00
v 95977.10 -17890.70 -362668.00
v 93144.50 -11801.10 -407670.00
v 134449.00 -30530.40 -431306.00
v 128847.00 -29876.70 -376754.00
v 176254.00 -37646.20 -440430.00
v 171802.00 -37225.50 -387016.00
v 218428.00 -42149.90 -443385.00
v 212508.00 -41740.50 -386372.00
v 262425.00 -43896.60 -445314.00
v 262384.00 -43894.30 -387802.00
v 94271.50 -1050.97 -414511.00
v 64800.60 14629.90 -382013.00
v 49455.90 22024.60 -355707.00
v 37210.30 32412.50 -325242.00
v 22933.30 40434.40 -294261.00
v 1172.59 56760.60 -257702.00
v 134347.00 -19565.20 -439175.00
v 175717.00 -26710.00 -449328.00
v 217408.00 -31266.90 -452283.00
v 250454.00 -32932.00 -452283.00
v 173109.00 -30272.90 -216876.00
v 133892.00 -24332.60 -219842.00
v 216286.00 -34439.00 -225693.00
v 247766.00 -35934.50 -244914.00
v 90654.00 -8290.41 -228682.00
v 58733.30 7948.25 -235315.00
v 36460.20 24982.30 -240465.00
v 2440.19 52476.00 -238971.00
v -10766.60 79218.30 -237141.00
v 45097.50 30618.00 -141104.00
v 65038.90 24730.30 -115393.00
v 33137.60 9779.42 -108362.00
v 15228.20 15823.90 -132619.00
v 10201.20 42538.90 -179799.00
v -2395.75 47829.70 -206588.00
v -13152.30 26383.40 -161939.00
v -26799.70 57826.90 -222182.00
v -33731.20 35098.80 -185752.00
v -30024.10 16787.70 -120268.00
v -62319.90 31253.10 -158963.00
v -64435.30 48883.20 -203611.00
v -90432.80 43775.30 -158963.00
v -92743.40 62850.30 -215517.00
v -117929.00 74099.60 -191705.00
v -123380.00 74099.60 -150033.00
v -137154.00 107339.00 -164916.00
v -121496.00 102060.00 -209564.00
v -99271.80 91881.80 -233377.00
v -60820.30 73065.10 -233377.00
v 250557.00 -15011.10 -503376.00
v 217908.00 -10240.40 -503376.00
v 172651.00 -6509.89 -498929.00
v 131405.00 1164.92 -488470.00
v 85403.90 19011.90 -469047.00
v 51136.30 35657.10 -440660.00
v 24115.60 53374.20 -386872.00
v 260028.00 -38285.90 -539961.00
v 211067.00 -35840.70 -542938.00
v 159509.00 -28804.10 -551868.00
v 91625.00 2505.95 -522486.00
v 55836.80 19818.00 -500074.00
v 20174.20 41119.90 -449275.00
v 6303.56 48065.40 -356019.00
v -9617.56 53040.70 -318275.00
v -38707.90 63112.40 -265879.00
v 34109.60 55007.50 -505123.00
v -114.94 67611.30 -459038.00
v -21075.50 74375.00 -399972.00
v -44729.90 82291.50 -337371.00
v -63773.30 87229.40 -259947.00
v -58057.30 142131.00 -339981.00
v -74785.70 157093.00 -265072.00
v -34377.90 124801.00 -404233.00
v -14577.60 110191.00 -461248.00
v 14560.40 92451.30 -505547.00
v 246657.00 -28196.10 -196985.00
v 214796.00 -26657.40 -177764.00
v 171113.00 -22447.40 -168947.00
v 131439.00 -16479.90 -171913.00
v 87714.40 -425.22 -180753.00
v 55441.10 15809.90 -187386.00
v 32934.20 32833.20 -192536.00
v 9932.22 54605.90 -209055.00
v 22531.40 49560.30 -182266.00
v 57291.50 38246.70 -143571.00
v 73395.50 33604.10 -116782.00
v 95529.80 17086.50 -78596.10
v 85939.20 18274.70 -146073.00
v 129546.00 2232.31 -137233.00
v 169152.00 -3761.91 -134267.00
v 208406.00 -7721.11 -135653.00
v 225599.00 -8833.23 -157649.00
v 245660.00 -9674.55 -166021.00
v 194144.00 3718.56 -129019.00
v 180102.00 5150.14 -121588.00
v 160825.00 7538.67 -121588.00
v 137343.00 11099.30 -124065.00
v 117221.00 14740.60 -129019.00
v 103268.00 17534.60 -127781.00
v 92863.10 19613.20 -112918.00
v 90863.20 19851.20 -95578.40
v 124398.00 -14774.20 -585850.00
v 115620.00 -7915.05 -634519.00
v 258102.00 -38277.60 -686313.00
v 260097.00 -52169.00 -647930.00
v 202732.00 -34730.70 -690172.00
v 200320.00 -48437.80 -647930.00
v 162326.00 -28413.90 -690172.00
v 158725.00 -41964.70 -647930.00
v 132017.00 -18682.90 -675232.00
v 251191.00 -52025.70 -576697.00
v 203339.00 -48917.30 -576697.00
v 160470.00 -42767.90 -576697.00
v 63254.90 41108.20 -573037.00
v 104917.00 -4731.72 -642238.00
v 57432.20 43450.20 -579606.00
v 52819.50 45562.80 -591055.00
v 3305.50 98073.60 -517104.00
v -28001.80 117041.00 -465128.00
v -52831.50 134911.00 -413871.00
v -71076.80 149669.00 -349619.00
v -85390.90 163241.00 -272791.00
v 100880.00 79911.80 -658348.00
v 65985.90 111516.00 -621684.00
v 34598.90 141471.00 -581161.00
v 5119.13 165401.00 -530989.00
v -27298.30 176948.00 -473099.00
v -55859.10 178757.00 -417449.00
v -77475.60 186699.00 -354095.00
v -92821.30 193046.00 -290246.00
v -123618.00 201795.00 -196867.00
v 128680.00 67404.70 -678333.00
v 163685.00 49421.60 -696129.00
v 201985.00 41298.90 -708589.00
v 259144.00 36544.60 -719879.00
v -147481.00 88278.00 -130535.00
v -148874.00 161993.00 -141776.00
v -172748.00 99639.20 -96810.50
v -168732.00 177992.00 -100096.00
v -182390.00 100908.00 -46224.30
v -183363.00 174394.00 -48097.80
v -135586.00 55623.30 -113673.00
v -156245.00 64909.90 -93063.40
v -164701.00 65773.00 -44350.70
v -108314.00 49800.80 -117291.00
v -69759.60 25210.20 -117420.00
v -48189.60 15826.00 -102431.00
v -28483.30 7702.63 -81822.00
v 8924.81 -5264.23 -64959.90
v -138720.00 228082.00 -160512.00
v -157552.00 247956.00 -106108.00
v -173996.00 244531.00 -49901.10
v -132031.00 36606.20 -46214.60
v -80476.90 13728.10 -46214.60
v -46049.10 24033.30 -19231.40
v -96001.50 43092.80 -1528.50
v -145432.00 65658.20 -1528.50
v -178226.00 82615.40 -4652.88
v -193677.00 156209.00 -790.36
v -187171.00 230805.00 -790.36
v 244244.00 -104591.00 -151496.00
v 225390.00 -103813.00 -145657.00
v 204936.00 -102508.00 -126115.00
v 198875.00 -126867.00 -95865.70
v 188568.00 -123408.00 -68295.10
v 171340.00 -105217.00 -73005.40
v 185404.00 -110487.00 -115060.00
v 188119.00 -118187.00 -42021.20
v 162946.00 -85159.30 -45220.00
v 200352.00 -102284.00 -2610.28
v 170344.00 -73618.90 1953.42
v 199878.00 -84016.80 36637.60
v 185160.00 -64828.40 54951.50
v 214475.00 -127979.00 -116138.00
v 228324.00 -120919.00 -138359.00
v 244648.00 -118946.00 -139656.00
v 196780.00 -48004.50 111581.00
v 247387.00 -129459.00 -116138.00
v 246418.00 -129433.00 -95865.70
v 245721.00 -126803.00 -68295.10
v 245535.00 -120274.00 -42021.20
v 245956.00 -105935.00 -2610.28
v 245439.00 -86356.10 36637.60
v 59833.30 761.02 -67422.20
v 196998.00 -21351.20 215476.00
v 165522.00 3205.30 261478.00
v 169094.00 -1825.39 204091.00
v 200884.00 -32284.40 168048.00
v 168230.00 -5186.47 161582.00
v 174160.00 -20507.50 115486.00
v 169464.00 -19863.10 57901.40
v 156961.00 -18206.40 6714.91
v 140612.00 -15759.40 -31675.00
v 129402.00 12006.60 -58421.70
v 122712.00 11475.40 -39900.90
v 114341.00 14740.60 -64614.50
v 139928.00 -10166.80 55309.70
v 125281.00 -10911.90 17051.70
v 152682.00 -7818.66 102751.00
v 90244.60 -6684.27 -33807.70
v 200083.00 -2604.47 278480.00
v 190115.00 -1929.95 331593.00
v 155800.00 33889.00 334662.00
v 146490.00 2186.03 372116.00
v 127296.00 37334.00 359631.00
v 88163.80 10304.20 393964.00
v 77030.70 45265.10 375237.00
v 18161.90 10033.70 403328.00
v 21013.40 42709.60 390843.00
v -72680.10 34280.40 409570.00
v -60677.20 64699.10 393964.00
v -140108.00 57201.40 412692.00
v -118945.00 84601.70 387722.00
v -198730.00 144257.00 427980.00
v -200905.00 133800.00 375237.00
v 152999.00 86925.80 186561.00
v 151200.00 87018.10 223676.00
v 125637.00 90244.70 293608.00
v 80920.80 97632.50 325432.00
v 25957.70 95404.30 339898.00
v -43078.80 114446.00 345684.00
v -107660.00 137058.00 339898.00
v -147403.00 168425.00 328325.00
v -186309.00 188418.00 293666.00
v 146805.00 87964.60 134485.00
v 132673.00 90244.70 99767.20
v 95691.70 77343.10 82408.30
v 43457.80 61505.80 71900.20
v -20987.90 80659.10 69007.00
v -104018.00 112082.00 80579.60
v -155285.00 149544.00 100832.00
v -191414.00 181398.00 128699.00
v -198431.00 238426.00 66235.70
v -210822.00 246759.00 125368.00
v -211704.00 267016.00 179938.00
v -201483.00 272243.00 428359.00
v -210880.00 275721.00 325348.00
v -207790.00 273282.00 258787.00
v 116875.00 -52333.10 -123767.00
v 95441.20 -48255.90 -110714.00
v 104580.00 -49987.00 -123164.00
v 93732.50 -48058.40 -96189.80
v 97900.10 -50618.90 -81964.50
v 113771.00 -61804.20 -70252.90
v 135734.00 -65180.10 -121356.00
v 163075.00 -69123.40 -115963.00
v 135569.00 -65500.30 -62892.20
v 87916.00 -8089.45 -115745.00
v 99826.10 -10484.50 -132400.00
v 115780.00 -13677.00 -133788.00
v 85613.70 -7814.14 -96313.70
v 90976.20 -10771.50 -77283.30
v 112511.00 -13677.00 -61615.50
v 140089.00 -17959.40 -132148.00
v 165652.00 -21675.40 -125460.00
v 129786.00 -16761.50 -54675.90
v 241307.00 -50412.60 113670.00
v 243641.00 -34413.50 168048.00
v 238019.00 -23555.00 217565.00
v 241313.00 -4649.97 278480.00
v 240421.00 -4624.52 333682.00
v 137953.00 157472.00 215094.00
v 100743.00 163472.00 261301.00
v 47672.60 174593.00 289924.00
v -3145.19 188368.00 291192.00
v -47164.20 202760.00 288896.00
v -97653.50 222846.00 269699.00
v -124808.00 236248.00 238472.00
v 120231.00 160509.00 187054.00
v 84001.00 167799.00 165578.00
v 31669.60 181041.00 156802.00
v -28342.10 200344.00 153254.00
v -92802.40 225183.00 172827.00
v -131913.00 241285.00 207397.00
v -206576.00 190472.00 231966.00
v 88891.10 132583.00 254856.00
v 41207.20 136282.00 281141.00
v -8256.53 149331.00 282893.00
v -54333.40 164800.00 281116.00
v -98632.10 186655.00 264089.00
v -124072.00 206110.00 238662.00
v 116001.00 150749.00 198620.00
v 78541.60 153178.00 177759.00
v 24924.60 164706.00 169235.00
v -36403.40 183657.00 165789.00
v -100639.00 213419.00 184801.00
v -119572.00 195516.00 228557.00
v -98812.80 168803.00 246915.00
v -58089.30 140899.00 261484.00
v -14123.80 125077.00 268510.00
v 35080.80 113174.00 260779.00
v 81598.80 118446.00 244427.00
v 185297.00 -14661.00 384138.00
v 265578.00 -18092.50 384138.00
v 247242.00 -17504.90 460578.00
v 130341.00 -8975.45 460578.00
v 247325.00 -17504.90 537018.00
v 127808.00 -8975.45 537018.00
v 271767.00 -2444.66 605814.00
v 126681.00 6319.44 605814.00
v 246816.00 32389.70 690228.00
v 126612.00 40705.50 694133.00
v 4433.75 13378.00 460578.00
v -46100.10 24768.30 525304.00
v -32657.80 35410.70 605814.00
v 10139.10 59602.60 690228.00
v -167965.00 66826.30 460578.00
v -220515.00 83933.90 542417.00
v -182378.00 81772.70 609719.00
v -105970.00 89699.00 674610.00
v -171375.00 236093.00 645467.00
v -204843.00 253915.00 581628.00
v -213840.00 269640.00 523023.00
v -117254.00 234444.00 206864.00
v -107149.00 190278.00 225536.00
v -89150.70 165161.00 241735.00
v -53495.90 139522.00 254591.00
v -14810.30 125470.00 260790.00
v 28534.70 114940.00 253969.00
v 69918.90 120949.00 239539.00
v 101399.00 153433.00 199119.00
v 68290.70 155462.00 180711.00
v 20923.60 165774.00 173190.00
v -33288.20 182405.00 170149.00
v -89973.30 208726.00 186925.00
v -174508.00 500975.00 561505.00
v -181080.00 516027.00 502900.00
v -169354.00 518558.00 408236.00
v -177212.00 521503.00 305225.00
v -174385.00 519010.00 238664.00
v -176129.00 520377.00 159815.00
v -172114.00 517803.00 100382.00
v -161821.00 508321.00 39627.60
v -159526.00 466292.00 -36724.50
v 229941.00 253285.00 -728197.00
v 188828.00 259188.00 -716907.00
v 153892.00 268182.00 -704446.00
v 122265.00 286643.00 -686650.00
v 97045.70 299370.00 -666666.00
v 65927.00 330886.00 -630002.00
v 38004.10 360530.00 -589479.00
v 11585.90 384055.00 -539307.00
v -18091.40 395237.00 -481417.00
v -44651.30 396794.00 -425767.00
v -64550.50 404435.00 -362412.00
v -78712.40 410575.00 -298564.00
v -123161.00 425476.00 -172782.00
v -140090.00 444851.00 -118379.00
v -27730.90 200125.00 153254.00
v -14787.30 182481.00 169340.00
v -45567.80 192944.00 181105.00
v -92197.40 224919.00 172827.00
v -64588.00 199521.00 198752.00
v -131309.00 240996.00 207397.00
v -70923.20 200976.00 225222.00
v -124195.00 235967.00 238472.00
v -65977.50 198083.00 251692.00
v -97028.80 222586.00 269699.00
v -52429.50 192488.00 269339.00
v -46527.30 202536.00 288896.00
v 20071.00 171579.00 169340.00
v 32288.20 180865.00 156802.00
v 43267.50 164987.00 178164.00
v 84624.90 167663.00 165578.00
v 57135.60 161163.00 198752.00
v 120861.00 160400.00 187054.00
v 138589.00 157377.00 215094.00
v 59317.50 160248.00 226692.00
v 101387.00 163351.00 261301.00
v 56410.30 160550.00 254633.00
v 41040.80 164008.00 273750.00
v 48319.50 174435.00 289924.00
v -2502.31 188176.00 291192.00
v -12563.80 178823.00 282574.00
v 1947.25 168840.00 197008.00
v -25043.30 177373.00 202890.00
v -33391.30 179521.00 226419.00
v -25990.80 176525.00 244066.00
v -9819.63 171197.00 249948.00
v 12577.30 164689.00 242596.00
v 27528.60 160759.00 230831.00
v 25304.00 161809.00 207302.00
v 312900.00 -42433.80 -283833.00
v 296734.00 -44870.50 -237601.00
v 339366.00 -41972.70 -228784.00
v 348286.00 -39267.70 -282374.00
v 373767.00 -35879.20 -280891.00
v 377542.00 -37225.90 -231750.00
v 411850.00 -24400.90 -276476.00
v 418750.00 -22649.70 -240590.00
v 444249.00 -9172.63 -267590.00
v 469316.00 8447.16 -252373.00
v 448740.00 -7621.50 -247223.00
v 462247.00 1915.91 -263129.00
v 474239.00 11667.40 -258715.00
v 500256.00 34177.30 -249474.00
v 477386.00 15313.50 -269916.00
v 482066.00 21207.70 -285363.00
v 468337.00 13735.40 -316344.00
v 448767.00 -3992.89 -308844.00
v 454202.00 3149.27 -347837.00
v 431462.00 -14234.70 -339032.00
v 439178.00 -3613.53 -377228.00
v 412149.00 -23144.90 -362668.00
v 414156.00 -17304.80 -407670.00
v 380708.00 -33946.00 -376754.00
v 374746.00 -34487.10 -431306.00
v 338966.00 -39870.50 -387016.00
v 334094.00 -40192.60 -440430.00
v 299026.00 -43088.60 -386372.00
v 292627.00 -43330.60 -443385.00
v 440555.00 7872.19 -382013.00
v 412547.00 -6630.53 -414511.00
v 455200.00 14668.50 -355707.00
v 466791.00 24549.00 -325242.00
v 480382.00 32007.20 -294261.00
v 500789.00 47371.80 -257702.00
v 374272.00 -23616.00 -439175.00
v 334038.00 -29332.00 -449328.00
v 293056.00 -32504.00 -452283.00
v 338982.00 -32767.30 -216876.00
v 377065.00 -28065.90 -219842.00
v 296456.00 -35632.20 -225693.00
v 265007.00 -36192.10 -244914.00
v 418185.00 -13557.50 -228682.00
v 448114.00 1409.95 -235315.00
v 468652.00 17427.90 -240465.00
v 499932.00 43262.90 -238971.00
v 511583.00 69120.80 -237141.00
v 473813.00 2640.75 -108362.00
v 442587.00 18520.20 -115393.00
v 461206.00 23587.70 -141104.00
v 490359.00 7913.17 -132619.00
v 493564.00 33961.30 -179799.00
v 516483.00 17183.10 -161939.00
v 505000.00 38597.30 -206588.00
v 535235.00 24870.60 -185752.00
v 527438.00 47392.30 -222182.00
v 533313.00 7241.97 -120268.00
v 562532.00 20045.60 -158963.00
v 563199.00 37067.60 -203611.00
v 588181.00 31156.50 -158963.00
v 588796.00 49455.00 -215517.00
v 611905.00 59442.20 -191705.00
v 617460.00 59442.20 -150033.00
v 628652.00 91238.60 -164916.00
v 613905.00 86554.40 -209564.00
v 593517.00 77525.70 -233377.00
v 558560.00 60853.90 -233377.00
v 291240.00 -11513.80 -503376.00
v 335770.00 -9375.83 -498929.00
v 375830.00 -3215.77 -488470.00
v 419785.00 12781.70 -469047.00
v 452254.00 27957.10 -440660.00
v 477875.00 44517.30 -386872.00
v 298684.00 -37313.00 -542938.00
v 349034.00 -32076.10 -551868.00
v 413883.00 -3452.89 -522486.00
v 447719.00 12306.10 -500074.00
v 481333.00 32012.90 -449275.00
v 495185.00 38631.30 -356019.00
v 510412.00 43008.20 -318275.00
v 537913.00 51891.30 -265879.00
v 467143.00 46125.20 -505123.00
v 499489.00 57191.50 -459038.00
v 519564.00 63153.30 -399972.00
v 542089.00 70145.90 -337371.00
v 560532.00 74513.00 -259947.00
v 553079.00 128441.00 -339981.00
v 569175.00 142783.00 -265072.00
v 530735.00 112204.00 -404233.00
v 511969.00 98489.80 -461248.00
v 484628.00 82204.60 -505547.00
v 266193.00 -28487.00 -196985.00
v 298009.00 -27894.30 -177764.00
v 341024.00 -24998.80 -168947.00
v 379546.00 -20281.30 -171913.00
v 421145.00 -5770.84 -180753.00
v 451424.00 9187.33 -187386.00
v 472203.00 25194.70 -192536.00
v 493104.00 45774.40 -209055.00
v 481614.00 41369.30 -182266.00
v 449259.00 31573.40 -143571.00
v 434235.00 27602.10 -116782.00
v 413863.00 12036.70 -78596.10
v 422432.00 12774.20 -146073.00
v 380902.00 -1703.72 -137233.00
v 342449.00 -6422.31 -134267.00
v 303889.00 -9170.39 -135653.00
v 286679.00 -9764.89 -157649.00
v 266654.00 -9994.98 -166021.00
v 317597.00 1807.80 -129019.00
v 331447.00 2805.11 -121588.00
v 350287.00 4582.39 -121588.00
v 373081.00 7376.89 -124065.00
v 392471.00 10337.60 -129019.00
v 405899.00 12654.50 -127781.00
v 416019.00 14395.70 -112918.00
v 418105.00 14595.70 -95578.40
v 382302.00 -19465.00 -585850.00
v 390046.00 -13099.40 -634519.00
v 305478.00 -36576.80 -690172.00
v 308865.00 -50296.90 -647930.00
v 344923.00 -31762.70 -690172.00
v 349442.00 -45303.80 -647930.00
v 374193.00 -23221.10 -675232.00
v 306601.00 -50630.30 -576697.00
v 348480.00 -45953.30 -576697.00
v 439211.00 33435.20 -573037.00
v 444611.00 35471.20 -579606.00
v 400174.00 -10385.30 -642238.00
v 448810.00 37312.10 -591055.00
v 494913.00 87145.00 -517104.00
v 524250.00 104532.00 -465128.00
v 547470.00 121139.00 -413871.00
v 564795.00 135109.00 -349619.00
v 578700.00 148225.00 -272791.00
v 434782.00 103125.00 -621684.00
v 401653.00 73318.80 -658348.00
v 464481.00 131396.00 -581161.00
v 492384.00 153775.00 -530989.00
v 522928.00 163727.00 -473099.00
v 549756.00 164234.00 -417449.00
v 570240.00 171266.00 -354095.00
v 585005.00 177105.00 -290246.00
v 614110.00 184650.00 -196867.00
v 374983.00 62106.60 -678333.00
v 341219.00 45707.50 -696129.00
v 303742.00 39200.70 -708589.00
v 639280.00 72289.60 -130535.00
v 638170.00 144428.00 -141776.00
v 662376.00 82378.10 -96810.50
v 656398.00 159365.00 -100096.00
v 671809.00 83505.30 -46224.30
v 670395.00 155428.00 -48097.80
v 648879.00 49273.30 -93063.40
v 630029.00 41017.70 -113673.00
v 657253.00 50041.50 -44350.70
v 605021.00 36508.00 -117291.00
v 570280.00 13997.20 -117420.00
v 550680.00 5677.97 -102431.00
v 532743.00 -1506.23 -81822.00
v 498101.00 -12924.50 -64959.90
v 628172.00 209997.00 -160512.00
v 645891.00 228944.00 -106108.00
v 661399.00 225039.00 -49901.10
v 628584.00 22964.50 -46214.60
v 581771.00 2621.25 -46214.60
v 549196.00 14143.50 -19231.40
v 595289.00 31023.30 -1528.50
v 640063.00 51059.30 -1528.50
v 669376.00 66125.20 -4652.88
v 680798.00 137398.00 -790.36
v 673898.00 211124.00 -790.36
v 273706.00 -104950.00 -151496.00
v 292502.00 -104631.00 -145657.00
v 312932.00 -103820.00 -126115.00
v 346935.00 -107301.00 -73005.40
v 331448.00 -125004.00 -68295.10
v 321215.00 -128230.00 -95865.70
v 332994.00 -112235.00 -115060.00
v 331760.00 -119804.00 -42021.20
v 354007.00 -87538.50 -45220.00
v 318814.00 -103665.00 -2610.28
v 346414.00 -75840.30 1953.42
v 318333.00 -85450.50 36637.60
v 331753.00 -66682.00 54951.50
v 305597.00 -128998.00 -116138.00
v 290989.00 -121641.00 -138359.00
v 274542.00 -119292.00 -139656.00
v 319764.00 -49589.00 111581.00
v 272941.00 -129743.00 -116138.00
v 274144.00 -129739.00 -95865.70
v 274938.00 -127126.00 -68295.10
v 274880.00 -120601.00 -42021.20
v 273740.00 -106255.00 -2610.28
v 273194.00 -86689.50 36637.60
v 449065.00 -5290.75 -67422.20
v 345507.00 -4249.89 204091.00
v 349316.00 702.19 261478.00
v 319034.00 -22958.70 215476.00
v 315332.00 -33781.90 168048.00
v 346122.00 -7650.19 161582.00
v 340601.00 -22780.20 115486.00
v 344651.00 -22305.50 57901.40
v 356369.00 -21049.60 6714.91
v 371897.00 -19127.00 -31675.00
v 381386.00 8106.42 -58421.70
v 388088.00 7392.28 -39900.90
v 395865.00 10337.60 -64614.50
v 387090.00 -14706.80 17051.70
v 373119.00 -13496.90 55309.70
v 360967.00 -10751.40 102751.00
v 420422.00 -11638.70 -33807.70
v 315641.00 -4147.70 278480.00
v 325943.00 -3719.16 331593.00
v 358334.00 31056.40 334662.00
v 369046.00 -744.75 372116.00
v 386308.00 33703.10 359631.00
v 425736.00 5774.75 393964.00
v 434961.00 40154.30 375237.00
v 493327.00 3554.19 403328.00
v 489020.00 35968.00 390843.00
v 565729.00 55099.60 393964.00
v 578529.00 24740.70 409570.00
v 619450.00 72632.30 387722.00
v 640607.00 45001.80 412692.00
v 693180.00 117640.00 375237.00
v 691611.00 128323.00 427980.00
v 360736.00 83775.20 223676.00
v 358665.00 83705.00 186561.00
v 386198.00 86264.60 293608.00
v 429628.00 92252.20 325432.00
v 482389.00 88273.20 339898.00
v 547371.00 104763.00 345684.00
v 607078.00 124625.00 339898.00
v 643061.00 153867.00 328325.00
v 677752.00 171580.00 293666.00
v 364255.00 84493.80 134485.00
v 377686.00 86264.60 99767.20
v 413500.00 72167.40 82408.30
v 463868.00 54638.50 71900.20
v 524419.00 71254.50 69007.00
v 601143.00 98925.30 80579.60
v 647554.00 133559.00 100832.00
v 680095.00 163262.00 128699.00
v 684975.00 218553.00 66235.70
v 696940.00 226557.00 125368.00
v 698740.00 246989.00 179938.00
v 693849.00 254626.00 428359.00
v 700564.00 256830.00 325348.00
v 696679.00 254068.00 258787.00
v 407956.00 -54272.90 -123164.00
v 416855.00 -52804.90 -110714.00
v 396131.00 -56247.10 -123767.00
v 418652.00 -52637.20 -96189.80
v 414912.00 -55032.50 -81964.50
v 400303.00 -65659.00 -70252.90
v 378546.00 -68464.60 -121356.00
v 352046.00 -71637.60 -115963.00
v 379337.00 -68727.50 -62892.20
v 421936.00 -13243.60 -115745.00
v 410363.00 -15267.00 -132400.00
v 395021.00 -17934.90 -133788.00
v 424339.00 -13009.30 -96313.70
v 419483.00 -15740.40 -77283.30
v 398896.00 -17934.90 -61615.50
v 371557.00 -21438.40 -132148.00
v 346763.00 -24359.10 -125460.00
v 382295.00 -20469.40 -54675.90
v 275691.00 -50851.70 113670.00
v 272949.00 -34794.60 168048.00
v 278431.00 -24083.40 217565.00
v 274772.00 -5094.17 278480.00
v 276155.00 -5091.08 333682.00
v 373765.00 153588.00 215094.00
v 410193.00 158373.00 261301.00
v 461309.00 167653.00 289924.00
v 509428.00 179481.00 291192.00
v 550605.00 192032.00 288896.00
v 597086.00 209716.00 269699.00
v 621551.00 221578.00 238472.00
v 390708.00 155981.00 187054.00
v 425419.00 161940.00 165578.00
v 475201.00 173157.00 156802.00
v 531555.00 189916.00 153254.00
v 591425.00 211782.00 172827.00
v 627609.00 226045.00 207397.00
v 695116.00 172163.00 231966.00
v 421204.00 127185.00 254856.00
v 467014.00 129277.00 281141.00
v 513780.00 140457.00 282893.00
v 556813.00 154013.00 281116.00
v 597551.00 173744.00 264089.00
v 620550.00 191730.00 238662.00
v 394752.00 146121.00 198620.00
v 430555.00 147202.00 177759.00
v 481474.00 156678.00 169235.00
v 538962.00 173038.00 165789.00
v 598564.00 199797.00 184801.00
v 616274.00 181395.00 228557.00
v 597508.00 155976.00 246915.00
v 560164.00 130100.00 261484.00
v 519240.00 116126.00 268510.00
v 472729.00 106053.00 260779.00
v 428104.00 112850.00 244427.00
v 331807.00 -16517.50 384138.00
v 386229.00 -12201.50 460578.00
v 389422.00 -12201.50 537018.00
v 390375.00 3045.28 605814.00
v 389814.00 37345.00 694133.00
v 506879.00 6580.95 460578.00
v 555111.00 16504.20 525304.00
v 542651.00 27606.30 605814.00
v 501713.00 52968.00 690228.00
v 666589.00 53643.40 460578.00
v 715292.00 68824.90 542417.00
v 681049.00 68448.50 609719.00
v 610406.00 79148.90 674610.00
v 669378.00 221440.00 645467.00
v 698890.00 237258.00 581628.00
v 706308.00 252049.00 523023.00
v 614244.00 219980.00 206864.00
v 604876.00 176764.00 225536.00
v 588563.00 152764.00 241735.00
v 555822.00 128893.00 254591.00
v 519802.00 116467.00 260790.00
v 478869.00 107562.00 253969.00
v 439248.00 114936.00 239539.00
v 408849.00 148295.00 199119.00
v 440390.00 149114.00 180711.00
v 485294.00 157596.00 173190.00
v 536109.00 171943.00 170149.00
v 588804.00 195650.00 186925.00
v 679001.00 485408.00 561505.00
v 684688.00 499804.00 502900.00
v 672727.00 502354.00 408236.00
v 677492.00 504109.00 305225.00
v 673418.00 501251.00 238664.00
v 673254.00 501851.00 159815.00
v 668317.00 499004.00 100382.00
v 657571.00 489637.00 39627.60
v 651866.00 447055.00 -36724.50
v 275668.00 252236.00 -728197.00
v 316290.00 256244.00 -716907.00
v 350418.00 263583.00 -704446.00
v 381174.00 280477.00 -686650.00
v 405497.00 291930.00 -666666.00
v 435720.00 321808.00 -630002.00
v 462828.00 349969.00 -589479.00
v 488385.00 372143.00 -539307.00
v 516449.00 381826.00 -481417.00
v 541197.00 382077.00 -425767.00
v 560212.00 388882.00 -362412.00
v 574052.00 394579.00 -298564.00
v 615986.00 407564.00 -172782.00
v 632501.00 426225.00 -118379.00
v 547724.00 181933.00 181105.00
v 518889.00 172780.00 169340.00
v 530985.00 189725.00 153254.00
v 590870.00 211549.00 172827.00
v 565561.00 187712.00 198752.00
v 627059.00 225788.00 207397.00
v 571729.00 188992.00 225222.00
v 620992.00 221328.00 238472.00
v 567464.00 186446.00 251692.00
v 596512.00 209487.00 269699.00
v 555099.00 181532.00 269339.00
v 550012.00 191835.00 288896.00
v 486118.00 163327.00 169340.00
v 474616.00 173008.00 156802.00
v 464240.00 157674.00 178164.00
v 424821.00 161827.00 165578.00
v 451242.00 154424.00 198752.00
v 390099.00 155893.00 187054.00
v 373147.00 153514.00 215094.00
v 449427.00 153651.00 226692.00
v 409573.00 158275.00 261301.00
v 452464.00 153907.00 254633.00
v 467282.00 156839.00 273750.00
v 460692.00 167519.00 289924.00
v 508823.00 179314.00 291192.00
v 518007.00 169597.00 282574.00
v 528764.00 167401.00 202890.00
v 503402.00 159979.00 197008.00
v 536814.00 169277.00 226419.00
v 530096.00 166662.00 244066.00
v 515009.00 162023.00 249948.00
v 493854.00 156391.00 242596.00
v 479604.00 153010.00 230831.00
v 481476.00 153911.00 207302.00
f 1 2 3
f 1 3 4
f 5 1 6
f 1 4 6
f 7 5 6
f 7 6 8
f 7 8 9
f 9 8 10
f 11 12 13
f 13 9 10
f 14 13 12
f 15 14 12
f 16 15 12
f 16 17 18
f 17 19 18
f 19 20 18
f 19 21 20
f 21 22 20
f 21 23 22
f 23 24 22
f 23 25 24
f 25 26 27
f 25 27 24
f 26 28 29
f 26 29 27
f 28 30 31
f 28 31 29
f 30 32 31
f 32 33 31
f 10 11 13
f 34 25 35
f 35 25 23
f 35 23 36
f 23 21 36
f 21 37 36
f 21 19 37
f 37 19 38
f 19 17 38
f 38 17 39
f 17 16 39
f 34 40 25
f 40 26 25
f 40 41 28
f 40 28 26
f 41 42 28
f 28 42 30
f 42 43 30
f 30 43 32
f 8 6 44
f 8 44 45
f 6 4 44
f 44 4 46
f 46 4 3
f 46 3 47
f 10 8 45
f 10 45 48
f 11 10 48
f 11 48 49
f 12 11 49
f 12 49 50
f 51 12 50
f 16 12 51
f 16 51 52
f 39 16 52
f 53 54 55
f 53 55 56
f 57 53 56
f 58 57 59
f 60 58 61
f 61 58 59
f 59 57 56
f 59 56 62
f 63 59 62
f 63 61 59
f 64 60 61
f 64 61 63
f 65 64 63
f 65 66 64
f 65 67 66
f 65 68 67
f 68 69 67
f 69 70 67
f 67 70 71
f 67 71 66
f 66 71 72
f 66 72 64
f 72 60 64
f 73 43 74
f 74 43 42
f 74 42 41
f 75 74 41
f 75 41 40
f 76 75 40
f 77 76 40
f 34 77 40
f 34 78 77
f 78 34 35
f 35 79 78
f 79 35 36
f 80 73 81
f 81 73 74
f 82 81 74
f 82 74 75
f 82 75 76
f 83 82 76
f 83 76 77
f 77 84 83
f 84 77 78
f 78 85 84
f 85 78 79
f 86 79 36
f 86 36 37
f 86 37 38
f 86 38 87
f 87 38 39
f 87 39 88
f 88 39 52
f 60 88 52
f 72 88 60
f 52 58 60
f 89 84 85
f 89 85 90
f 90 85 79
f 90 79 91
f 91 79 86
f 91 86 92
f 92 86 87
f 92 87 93
f 93 88 72
f 93 72 71
f 94 92 93
f 94 93 95
f 95 93 71
f 96 92 94
f 96 91 92
f 96 97 91
f 97 90 91
f 97 98 90
f 98 89 90
f 47 99 46
f 46 99 100
f 46 100 44
f 44 100 101
f 44 101 45
f 45 101 102
f 45 102 103
f 48 45 103
f 49 48 103
f 49 103 104
f 50 49 104
f 50 104 105
f 51 50 105
f 52 106 58
f 51 106 52
f 51 105 106
f 106 107 58
f 58 107 57
f 107 108 57
f 106 105 107
f 108 53 57
f 108 109 53
f 53 109 54
f 109 110 54
f 105 108 107
f 105 104 108
f 104 111 108
f 104 103 111
f 103 102 112
f 103 112 111
f 102 101 113
f 102 113 112
f 101 100 114
f 101 114 113
f 100 115 114
f 100 99 116
f 111 109 108
f 100 116 115
f 114 117 113
f 113 117 118
f 113 118 119
f 113 119 120
f 112 113 120
f 112 120 121
f 112 121 122
f 111 112 122
f 111 122 123
f 111 123 109
f 109 123 124
f 109 124 110
f 83 125 82
f 84 126 125
f 84 125 83
f 89 126 84
f 127 128 129
f 129 128 130
f 131 129 130
f 131 130 132
f 133 131 132
f 133 132 125
f 126 133 125
f 128 134 130
f 130 134 135
f 130 135 136
f 132 130 136
f 132 136 125
f 125 136 82
f 136 135 82
f 135 81 82
f 135 134 81
f 134 80 81
f 126 89 137
f 138 137 139
f 139 98 140
f 141 98 97
f 141 97 142
f 142 97 96
f 142 96 143
f 143 96 94
f 143 94 144
f 144 94 95
f 144 95 145
f 145 95 71
f 145 71 70
f 146 138 147
f 147 140 141
f 148 147 141
f 149 148 141
f 149 141 142
f 150 149 142
f 150 142 143
f 151 150 143
f 151 143 144
f 152 151 144
f 153 152 144
f 153 144 145
f 153 145 70
f 153 70 154
f 154 70 69
f 146 155 138
f 138 133 126
f 155 133 138
f 155 156 133
f 156 131 133
f 156 157 131
f 157 129 131
f 157 158 129
f 158 127 129
f 87 88 93
f 68 159 69
f 69 159 160
f 160 159 161
f 160 161 162
f 162 161 163
f 162 163 164
f 159 165 166
f 159 166 161
f 161 166 167
f 161 167 163
f 159 68 165
f 68 168 165
f 68 65 168
f 65 169 168
f 63 169 65
f 63 62 169
f 169 62 170
f 62 171 170
f 62 55 171
f 62 56 55
f 55 172 171
f 154 69 173
f 173 69 160
f 173 160 162
f 173 162 174
f 174 162 164
f 174 164 175
f 140 98 141
f 147 138 140
f 137 89 98
f 138 126 137
f 139 137 98
f 138 139 140
f 168 176 165
f 165 176 166
f 166 176 167
f 168 177 176
f 168 169 177
f 169 170 177
f 170 171 177
f 171 178 177
f 177 178 179
f 177 179 176
f 176 179 180
f 176 180 167
f 167 181 163
f 167 180 181
f 164 163 181
f 172 178 171
f 164 181 182
f 164 182 175
f 175 182 183
f 116 184 115
f 115 184 185
f 115 185 114
f 114 185 186
f 114 186 117
f 187 188 189
f 189 190 187
f 189 188 191
f 189 191 192
f 192 191 193
f 192 193 194
f 194 193 195
f 194 195 196
f 186 197 187
f 186 187 190
f 198 197 186
f 185 198 186
f 185 184 198
f 184 199 198
f 195 200 196
f 199 201 198
f 198 201 197
f 197 201 202
f 197 202 187
f 187 202 203
f 187 203 188
f 188 203 191
f 191 203 204
f 191 204 193
f 204 205 193
f 193 205 206
f 193 206 195
f 206 200 195
f 55 54 110
f 55 207 172
f 55 110 207
f 208 209 210
f 211 208 210
f 211 210 212
f 200 211 212
f 213 200 212
f 196 200 213
f 214 196 213
f 214 215 196
f 215 194 196
f 215 216 194
f 216 192 194
f 217 192 216
f 217 216 218
f 219 217 218
f 215 220 221
f 215 214 220
f 214 222 220
f 214 213 222
f 222 213 212
f 216 215 221
f 218 216 221
f 218 221 223
f 110 219 223
f 219 218 223
f 110 223 207
f 208 224 209
f 209 224 225
f 209 225 226
f 226 225 227
f 226 227 228
f 228 227 229
f 228 229 230
f 230 229 231
f 230 231 232
f 232 233 234
f 234 235 236
f 236 237 238
f 237 236 235
f 235 234 233
f 233 232 231
f 239 210 240
f 240 210 209
f 240 209 241
f 241 209 226
f 241 226 242
f 242 226 228
f 242 228 230
f 242 230 232
f 243 242 232
f 243 234 244
f 243 232 234
f 244 234 236
f 244 236 245
f 245 236 238
f 246 245 238
f 246 238 247
f 248 212 239
f 212 210 239
f 249 222 248
f 248 222 212
f 249 220 222
f 220 249 250
f 221 220 250
f 221 250 251
f 223 221 251
f 223 251 207
f 172 207 251
f 172 251 178
f 178 251 252
f 178 252 253
f 179 178 253
f 179 253 180
f 180 253 254
f 181 180 254
f 181 254 182
f 182 254 255
f 182 255 256
f 183 182 256
f 256 255 257
f 255 258 257
f 238 237 259
f 238 259 260
f 247 238 260
f 260 261 247
f 262 263 264
f 262 265 263
f 262 266 265
f 262 267 266
f 262 268 267
f 268 269 267
f 269 270 267
f 271 123 122
f 122 272 271
f 272 122 121
f 121 273 272
f 274 124 123
f 123 271 274
f 275 110 124
f 124 274 275
f 276 219 110
f 110 275 276
f 273 121 120
f 120 277 273
f 277 120 119
f 119 278 277
f 278 119 217
f 279 217 219
f 219 276 279
f 263 271 272
f 272 264 263
f 264 272 273
f 273 262 264
f 265 274 271
f 271 263 265
f 266 275 274
f 274 265 266
f 267 276 275
f 275 266 267
f 262 273 277
f 277 268 262
f 268 277 278
f 278 269 268
f 270 279 276
f 276 267 270
f 217 192 279
f 270 192 279
f 270 189 192
f 269 189 270
f 117 186 190
f 269 190 189
f 278 190 269
f 278 118 119
f 206 280 200
f 200 280 281
f 200 281 211
f 211 281 282
f 211 282 208
f 208 282 283
f 208 283 224
f 224 283 284
f 224 284 225
f 285 240 241
f 285 241 286
f 286 241 242
f 286 242 287
f 287 242 243
f 287 243 288
f 288 243 244
f 288 244 289
f 289 244 245
f 289 245 290
f 290 245 246
f 290 246 291
f 291 246 247
f 285 292 239
f 239 240 285
f 292 248 239
f 292 249 248
f 292 293 249
f 293 250 249
f 293 251 250
f 293 294 251
f 294 252 251
f 294 295 252
f 253 252 295
f 295 296 253
f 254 253 296
f 296 297 254
f 255 254 297
f 247 298 261
f 261 298 247
f 261 258 298
f 255 298 258
f 255 297 298
f 298 297 291
f 298 291 247
f 285 286 299
f 299 286 287
f 299 287 300
f 300 287 288
f 300 288 301
f 301 288 289
f 301 289 302
f 302 289 303
f 303 289 290
f 304 303 290
f 304 290 291
f 297 304 291
f 285 305 292
f 292 305 306
f 292 306 293
f 293 306 307
f 293 307 294
f 294 307 308
f 294 308 295
f 295 308 296
f 308 309 296
f 296 309 297
f 297 310 304
f 310 311 303
f 310 303 304
f 311 312 302
f 311 302 303
f 312 313 302
f 302 313 301
f 301 313 314
f 301 314 300
f 314 315 299
f 314 299 300
f 315 285 299
f 316 317 318
f 316 318 319
f 227 316 319
f 227 225 316
f 225 317 316
f 284 317 225
f 318 320 321
f 321 319 318
f 320 322 323
f 321 320 323
f 323 322 324
f 323 324 325
f 229 227 319
f 229 319 326
f 231 229 326
f 326 319 327
f 327 319 321
f 327 321 323
f 327 323 328
f 328 323 325
f 328 325 329
f 233 231 326
f 233 330 235
f 330 233 326
f 330 326 327
f 330 327 331
f 331 327 328
f 331 328 332
f 332 328 329
f 332 329 333
f 332 333 334
f 331 332 334
f 331 334 335
f 331 335 336
f 331 336 237
f 237 235 330
f 237 330 331
f 259 237 336
f 297 337 310
f 337 338 310
f 338 339 310
f 310 339 311
f 339 312 311
f 339 340 312
f 312 340 313
f 340 341 313
f 341 342 313
f 313 342 314
f 314 342 343
f 314 343 315
f 343 285 315
f 305 285 344
f 306 305 344
f 306 344 345
f 307 306 345
f 307 345 346
f 308 307 346
f 308 346 347
f 309 308 347
f 309 347 348
f 297 309 348
f 297 348 337
f 349 335 334
f 349 336 335
f 350 336 349
f 350 351 259
f 350 259 336
f 351 260 259
f 351 352 260
f 352 261 260
f 352 353 261
f 353 354 261
f 354 258 261
f 354 355 258
f 355 257 258
f 355 256 257
f 355 356 256
f 356 183 256
f 356 357 183
f 357 175 183
f 358 158 157
f 358 157 156
f 359 358 156
f 360 359 156
f 360 156 155
f 361 360 155
f 361 155 146
f 362 361 146
f 362 146 147
f 363 362 147
f 363 147 148
f 364 363 148
f 364 148 149
f 365 364 149
f 365 149 150
f 366 365 150
f 366 150 151
f 366 151 367
f 367 151 152
f 367 152 368
f 368 152 153
f 368 153 369
f 369 153 154
f 369 154 173
f 369 173 370
f 370 173 174
f 370 174 371
f 371 174 175
f 371 175 357
f 372 373 374
f 375 372 374
f 375 374 376
f 377 375 376
f 377 376 378
f 377 378 379
f 379 378 380
f 379 380 381
f 381 380 382
f 381 382 383
f 372 384 373
f 372 385 384
f 385 386 384
f 385 387 386
f 387 388 386
f 387 389 388
f 388 389 390
f 388 390 391
f 391 390 392
f 391 392 393
f 393 392 394
f 394 392 395
f 394 395 396
f 394 396 397
f 382 397 383
f 383 397 396
f 373 398 399
f 374 399 376
f 373 399 374
f 376 399 400
f 376 400 378
f 378 400 380
f 380 400 401
f 380 401 382
f 382 401 397
f 401 402 397
f 402 403 397
f 397 403 394
f 394 403 404
f 394 404 393
f 393 404 391
f 391 404 405
f 388 391 405
f 388 405 386
f 386 405 384
f 384 405 398
f 384 398 373
f 399 401 400
f 398 401 399
f 398 402 401
f 398 403 402
f 398 404 403
f 398 405 404
f 3 2 406
f 407 3 406
f 408 406 409
f 408 407 406
f 408 409 410
f 411 408 410
f 412 411 410
f 413 411 412
f 414 415 416
f 413 412 414
f 415 414 417
f 415 417 418
f 415 418 419
f 420 421 419
f 420 422 421
f 420 423 422
f 423 424 422
f 423 425 424
f 425 426 424
f 425 427 426
f 427 428 426
f 429 430 428
f 427 429 428
f 431 432 430
f 429 431 430
f 433 434 432
f 431 433 432
f 433 32 434
f 433 33 32
f 414 416 413
f 435 428 436
f 426 428 435
f 437 426 435
f 437 424 426
f 437 438 424
f 438 422 424
f 439 422 438
f 439 421 422
f 440 421 439
f 440 419 421
f 428 441 436
f 428 430 441
f 432 442 441
f 430 432 441
f 432 443 442
f 434 443 432
f 434 43 443
f 32 43 434
f 444 408 411
f 445 444 411
f 444 407 408
f 446 407 444
f 3 407 446
f 447 3 446
f 445 411 413
f 448 445 413
f 448 413 416
f 449 448 416
f 449 416 415
f 450 449 415
f 450 415 451
f 451 415 419
f 452 451 419
f 452 419 440
f 453 454 455
f 456 453 455
f 456 455 457
f 458 457 459
f 460 459 461
f 458 459 460
f 456 457 458
f 462 456 458
f 462 458 463
f 458 460 463
f 460 461 464
f 463 460 464
f 463 464 465
f 464 466 465
f 466 467 465
f 467 468 465
f 467 469 468
f 467 470 469
f 471 470 467
f 466 471 467
f 472 471 466
f 464 472 466
f 464 461 472
f 473 43 73
f 443 43 473
f 442 443 473
f 442 473 474
f 441 442 474
f 441 474 475
f 441 475 476
f 441 476 436
f 476 477 436
f 435 436 477
f 477 478 435
f 437 435 478
f 479 73 80
f 473 73 479
f 473 479 480
f 474 473 480
f 475 474 480
f 475 480 481
f 476 475 481
f 481 482 476
f 477 476 482
f 482 483 477
f 478 477 483
f 437 478 484
f 438 437 484
f 439 438 484
f 485 439 484
f 440 439 485
f 486 440 485
f 452 440 486
f 452 486 461
f 461 486 472
f 461 459 452
f 483 482 487
f 488 483 487
f 478 483 488
f 489 478 488
f 484 478 489
f 490 484 489
f 485 484 490
f 491 485 490
f 472 486 491
f 471 472 491
f 491 490 492
f 493 491 492
f 471 491 493
f 492 490 494
f 490 489 494
f 489 495 494
f 489 488 495
f 488 496 495
f 488 487 496
f 446 497 447
f 498 497 446
f 444 498 446
f 499 498 444
f 445 499 444
f 500 499 445
f 501 500 445
f 501 445 448
f 501 448 449
f 502 501 449
f 502 449 450
f 503 502 450
f 503 450 451
f 459 504 452
f 452 504 451
f 504 503 451
f 459 505 504
f 457 505 459
f 457 506 505
f 505 503 504
f 457 455 506
f 455 507 506
f 454 507 455
f 454 508 507
f 505 506 503
f 506 502 503
f 506 509 502
f 509 501 502
f 510 500 501
f 509 510 501
f 511 499 500
f 510 511 500
f 512 498 499
f 511 512 499
f 512 513 498
f 514 497 498
f 506 507 509
f 513 514 498
f 511 515 512
f 516 515 511
f 517 516 511
f 518 517 511
f 518 511 510
f 519 518 510
f 520 519 510
f 520 510 509
f 521 520 509
f 507 521 509
f 522 521 507
f 508 522 507
f 480 523 481
f 523 524 482
f 481 523 482
f 482 524 487
f 525 128 127
f 526 128 525
f 526 525 527
f 528 526 527
f 528 527 529
f 523 528 529
f 523 529 524
f 526 134 128
f 530 134 526
f 531 530 526
f 531 526 528
f 523 531 528
f 480 531 523
f 480 530 531
f 480 479 530
f 479 134 530
f 479 80 134
f 532 487 524
f 533 532 534
f 535 496 533
f 495 496 536
f 537 495 536
f 494 495 537
f 538 494 537
f 492 494 538
f 539 492 538
f 493 492 539
f 540 493 539
f 471 493 540
f 470 471 540
f 541 534 542
f 536 535 541
f 536 541 543
f 536 543 544
f 537 536 544
f 537 544 545
f 538 537 545
f 538 545 546
f 539 538 546
f 539 546 547
f 539 547 548
f 540 539 548
f 470 540 548
f 549 470 548
f 469 470 549
f 534 550 542
f 524 529 534
f 534 529 550
f 529 551 550
f 529 527 551
f 527 552 551
f 527 525 552
f 525 158 552
f 525 127 158
f 491 486 485
f 469 553 468
f 554 553 469
f 555 553 554
f 556 555 554
f 557 555 556
f 558 557 556
f 559 560 553
f 555 559 553
f 561 559 555
f 557 561 555
f 560 468 553
f 560 562 468
f 562 465 468
f 562 563 465
f 465 563 463
f 563 462 463
f 564 462 563
f 564 565 462
f 565 453 462
f 453 456 462
f 565 566 453
f 567 469 549
f 554 469 567
f 556 554 567
f 568 556 567
f 558 556 568
f 569 558 568
f 536 496 535
f 535 534 541
f 496 487 532
f 532 524 534
f 496 532 533
f 535 533 534
f 560 570 562
f 559 570 560
f 561 570 559
f 570 571 562
f 571 563 562
f 571 564 563
f 571 565 564
f 571 572 565
f 573 572 571
f 570 573 571
f 574 573 570
f 561 574 570
f 557 575 561
f 575 574 561
f 575 557 558
f 565 572 566
f 576 575 558
f 569 576 558
f 577 576 569
f 513 578 514
f 579 578 513
f 512 579 513
f 580 579 512
f 515 580 512
f 581 582 583
f 583 584 581
f 585 582 581
f 586 585 581
f 587 585 586
f 588 587 586
f 589 587 588
f 590 589 588
f 583 591 580
f 584 583 580
f 580 591 592
f 580 592 579
f 592 578 579
f 592 593 578
f 590 594 589
f 592 595 593
f 591 595 592
f 596 595 591
f 583 596 591
f 597 596 583
f 582 597 583
f 585 597 582
f 598 597 585
f 587 598 585
f 587 599 598
f 600 599 587
f 589 600 587
f 589 594 600
f 508 454 453
f 566 601 453
f 601 508 453
f 602 603 604
f 602 604 605
f 606 602 605
f 606 605 594
f 606 594 607
f 607 594 590
f 607 590 608
f 590 609 608
f 590 588 609
f 588 610 609
f 588 586 610
f 610 586 611
f 612 610 611
f 612 611 613
f 614 615 609
f 615 608 609
f 615 616 608
f 616 607 608
f 606 607 616
f 614 609 610
f 614 610 612
f 617 614 612
f 617 613 508
f 617 612 613
f 601 617 508
f 603 618 604
f 619 618 603
f 620 619 603
f 621 619 620
f 622 621 620
f 623 621 622
f 624 623 622
f 625 623 624
f 626 625 624
f 627 628 626
f 629 630 627
f 631 632 629
f 630 629 632
f 628 627 630
f 625 626 628
f 633 602 634
f 603 602 633
f 635 603 633
f 620 603 635
f 636 620 635
f 622 620 636
f 624 622 636
f 626 624 636
f 626 636 637
f 638 627 637
f 627 626 637
f 629 627 638
f 639 629 638
f 631 629 639
f 631 639 640
f 641 631 640
f 634 606 642
f 634 602 606
f 642 616 643
f 606 616 642
f 616 615 643
f 644 643 615
f 644 615 614
f 645 644 614
f 645 614 617
f 601 645 617
f 645 601 566
f 572 645 566
f 646 645 572
f 647 646 572
f 647 572 573
f 574 647 573
f 648 647 574
f 648 574 575
f 576 648 575
f 649 648 576
f 650 649 576
f 650 576 577
f 651 649 650
f 651 652 649
f 653 632 631
f 654 653 631
f 654 631 641
f 641 655 654
f 656 657 658
f 657 659 658
f 659 660 658
f 660 661 658
f 661 662 658
f 661 663 662
f 661 664 663
f 520 521 665
f 665 666 520
f 519 520 666
f 666 667 519
f 521 522 668
f 668 665 521
f 522 508 669
f 669 668 522
f 508 613 670
f 670 669 508
f 518 519 667
f 667 671 518
f 517 518 671
f 671 672 517
f 611 517 672
f 613 611 673
f 673 670 613
f 666 665 657
f 657 656 666
f 667 666 656
f 656 658 667
f 665 668 659
f 659 657 665
f 668 669 660
f 660 659 668
f 669 670 661
f 661 660 669
f 671 667 658
f 658 662 671
f 672 671 662
f 662 663 672
f 670 673 664
f 664 661 670
f 673 586 611
f 673 586 664
f 586 581 664
f 664 581 663
f 584 580 515
f 581 584 663
f 663 584 672
f 517 516 672
f 594 674 600
f 675 674 594
f 605 675 594
f 676 675 605
f 604 676 605
f 677 676 604
f 618 677 604
f 678 677 618
f 619 678 618
f 635 633 679
f 680 635 679
f 636 635 680
f 681 636 680
f 637 636 681
f 682 637 681
f 638 637 682
f 683 638 682
f 639 638 683
f 684 639 683
f 640 639 684
f 685 640 684
f 641 640 685
f 634 686 679
f 679 633 634
f 634 642 686
f 642 643 686
f 643 687 686
f 643 644 687
f 644 645 687
f 645 688 687
f 645 646 688
f 646 689 688
f 689 646 647
f 647 690 689
f 690 647 648
f 648 691 690
f 691 648 649
f 655 692 641
f 641 692 655
f 692 652 655
f 652 692 649
f 692 691 649
f 685 691 692
f 641 685 692
f 693 680 679
f 681 680 693
f 694 681 693
f 682 681 694
f 695 682 694
f 683 682 695
f 696 683 695
f 697 683 696
f 684 683 697
f 684 697 698
f 685 684 698
f 685 698 691
f 686 699 679
f 700 699 686
f 687 700 686
f 701 700 687
f 688 701 687
f 702 701 688
f 689 702 688
f 690 702 689
f 690 703 702
f 691 703 690
f 698 704 691
f 697 705 704
f 698 697 704
f 696 706 705
f 697 696 705
f 696 707 706
f 695 707 696
f 708 707 695
f 694 708 695
f 693 709 708
f 694 693 708
f 693 679 709
f 318 317 710
f 711 318 710
f 711 710 621
f 710 619 621
f 710 317 619
f 619 317 678
f 712 320 318
f 318 711 712
f 713 322 320
f 713 320 712
f 324 322 713
f 714 324 713
f 711 621 623
f 715 711 623
f 715 623 625
f 716 711 715
f 712 711 716
f 713 712 716
f 717 713 716
f 714 713 717
f 718 714 717
f 715 625 628
f 630 719 628
f 715 628 719
f 716 715 719
f 720 716 719
f 717 716 720
f 721 717 720
f 718 717 721
f 722 718 721
f 723 722 721
f 723 721 720
f 724 723 720
f 725 724 720
f 632 725 720
f 719 630 632
f 720 719 632
f 725 632 653
f 704 726 691
f 704 727 726
f 704 728 727
f 705 728 704
f 705 706 728
f 706 729 728
f 707 729 706
f 707 730 729
f 707 731 730
f 708 731 707
f 732 731 708
f 709 732 708
f 709 679 732
f 733 679 699
f 733 699 700
f 734 733 700
f 734 700 701
f 735 734 701
f 735 701 702
f 736 735 702
f 736 702 703
f 737 736 703
f 737 703 691
f 726 737 691
f 723 724 738
f 724 725 738
f 738 725 739
f 653 740 739
f 725 653 739
f 653 654 740
f 654 741 740
f 654 655 741
f 655 742 741
f 655 743 742
f 655 652 743
f 652 744 743
f 652 651 744
f 651 650 744
f 650 745 744
f 650 577 745
f 577 746 745
f 577 569 746
f 552 158 747
f 551 552 747
f 551 747 748
f 551 748 749
f 550 551 749
f 550 749 750
f 542 550 750
f 542 750 751
f 541 542 751
f 541 751 752
f 543 541 752
f 543 752 753
f 544 543 753
f 544 753 754
f 545 544 754
f 545 754 755
f 546 545 755
f 756 546 755
f 547 546 756
f 757 547 756
f 548 547 757
f 758 548 757
f 549 548 758
f 567 549 758
f 759 567 758
f 568 567 759
f 760 568 759
f 569 568 760
f 746 569 760
f 761 762 763
f 761 763 764
f 765 761 764
f 765 764 766
f 767 765 766
f 768 767 766
f 769 767 768
f 770 769 768
f 771 769 770
f 772 771 770
f 762 773 763
f 773 774 763
f 773 775 774
f 775 776 774
f 775 777 776
f 777 778 776
f 779 778 777
f 780 779 777
f 781 779 780
f 782 781 780
f 783 781 782
f 784 781 783
f 785 784 783
f 786 785 783
f 772 786 771
f 785 786 772
f 787 788 762
f 765 787 761
f 761 787 762
f 789 787 765
f 767 789 765
f 769 789 767
f 790 789 769
f 771 790 769
f 786 790 771
f 786 791 790
f 786 792 791
f 783 792 786
f 793 792 783
f 782 793 783
f 780 793 782
f 794 793 780
f 794 780 777
f 775 794 777
f 773 794 775
f 788 794 773
f 762 788 773
f 789 790 787
f 787 790 788
f 790 791 788
f 791 792 788
f 792 793 788
f 793 794 788
f 284 678 317
f 283 678 284
f 283 677 678
f 283 676 677
f 283 282 676
f 282 281 675
f 675 676 282
f 281 280 674
f 674 675 281
f 280 600 674
f 206 600 280
f 206 599 600
f 205 599 206
f 204 599 205
f 204 598 599
f 203 598 204
f 203 597 598
f 203 596 597
f 202 596 203
f 202 595 596
f 202 201 595
f 201 593 595
f 201 199 593
f 199 578 593
f 199 184 578
f 184 514 578
f 184 116 514
f 116 497 514
f 116 99 497
f 99 447 497
f 47 447 99
