v -87.01 -5.98 -8.98
v -87.01 -6.03 -8.98
v -87.01 -5.98 -10.02
v -87.01 -5.98 -8.99
v -87.99 -5.98 -8.98
v -85.98 -7.03 -9.01
v -87.01 -7.03 -7.98
v -87.98 -7.03 -9.01
v -87.98 -7.03 -10.01
v -87.01 -7.03 -9.98
v -85.98 -7.03 -10.01
v -86.01 -7.03 -8.98
v -86.97 -7.03 -9.00
v -86.99 -7.03 -9.00
v -88.01 -7.03 -8.98
v -86.99 -7.03 -10.02
v -86.97 -7.03 -10.02
v -87.01 7.97 -8.99
v -86.99 7.97 -9.00
v -87.01 7.97 -7.98
v -87.99 7.97 -8.98
v -87.01 8.02 -8.98
v -87.01 7.97 -10.02
v -87.01 7.97 -8.98
v -85.98 7.97 -9.01
v -86.01 7.97 -8.98
v -86.97 7.97 -9.00
v -87.98 7.97 -9.01
v -88.01 7.97 -8.98
v -87.98 7.97 -10.01
v -86.99 7.97 -10.02
v -87.01 7.97 -9.98
v -86.97 7.97 -10.02
v -85.98 7.97 -10.01
v -91.01 6.00 -13.03
v -92.03 6.01 -12.00
v -95.02 1.97 -13.97
v -15.99 3.00 19.00
v -14.00 -0.00 12.01
v -15.98 4.02 14.00
v -88.98 6.98 -13.01
v -92.01 3.01 -13.98
v -18.97 4.02 12.00
v -12.00 -0.00 20.97
v -20.03 5.02 4.02
v -17.03 3.97 8.02
v -13.99 -0.00 3.98
v -21.02 5.01 8.02
v -96.97 0.98 -12.99
v -92.98 5.99 -12.00
v -24.01 5.01 5.00
v -24.99 5.00 4.01
v -28.01 5.03 6.02
v -28.98 3.98 4.03
v -33.00 -0.00 7.03
v -34.97 -0.00 5.02
v -19.00 -0.00 24.98
v -18.99 2.97 19.03
v -17.01 -0.00 26.00
v -12.00 -0.00 28.01
v -75.01 10.00 -10.98
v -81.02 9.02 -9.97
v -78.01 9.99 -9.02
v -81.02 9.00 -12.01
v -79.98 5.01 -14.99
v -78.00 7.97 -15.02
v -72.03 10.01 -15.02
v -76.98 5.01 -15.01
v -73.98 7.99 -14.99
v -74.03 3.00 -16.00
v -76.02 -0.00 -14.99
v -76.97 -0.00 -18.00
v -85.99 9.01 -7.00
v -93.97 7.00 -9.00
v -84.02 9.01 -10.01
v -93.03 -0.02 -13.98
v -89.98 7.97 -11.01
v -98.00 0.98 -12.01
v -93.01 6.02 -11.99
v -95.99 5.02 -10.03
v -85.03 8.01 -12.98
v -85.02 8.99 -11.99
v -86.98 3.99 -15.02
v -87.00 6.98 -12.98
v -21.03 3.03 18.02
v -22.98 4.99 13.01
v -10.97 -0.00 5.99
v 31.02 2.03 1.02
v 33.03 -0.00 0.03
v 30.98 2.01 0.03
v 41.00 -0.00 0.98
v 33.99 -0.00 -0.01
v 35.02 -0.00 -0.03
v 35.02 -0.00 1.03
v 33.98 -0.00 0.99
v 31.01 1.99 1.98
v 33.99 -0.00 2.00
v 34.00 -0.00 2.03
v 34.00 -0.00 2.99
v 34.00 -0.00 4.01
v 32.01 -0.00 4.98
v 67.01 3.02 -0.98
v 65.01 -0.00 -0.01
v 69.00 -0.00 3.01
v 64.00 4.02 -3.01
v 66.97 3.01 -3.97
v 62.00 -0.00 -1.00
v 70.00 3.01 0.02
v 74.03 2.00 2.98
v 73.99 1.97 -0.01
v 72.01 -0.00 4.99
v 75.02 -0.00 8.01
v 71.01 2.98 -2.00
v 71.02 2.99 -5.02
v 75.00 1.97 -3.00
v 77.98 -0.00 -6.00
v 76.99 1.98 5.01
v 79.00 -0.00 10.02
v 81.99 -0.00 11.97
v 77.98 1.97 1.03
v 78.01 1.97 -1.01
v 81.00 0.99 3.03
v 80.99 0.97 7.03
v 84.99 -0.00 13.98
v 83.98 1.03 9.02
v 87.98 -0.00 15.01
v 87.01 1.00 9.97
v 91.01 -0.00 15.98
v 93.00 -0.00 17.02
v 84.03 1.03 5.02
v 80.97 1.01 -0.01
v 86.00 1.03 6.02
v 88.99 0.99 10.97
v 94.98 -0.00 18.00
v 91.99 0.99 12.03
v 97.03 -0.00 18.97
v 94.98 1.00 13.01
v 95.98 0.03 13.99
v 96.03 -0.02 16.02
v 94.98 -0.00 12.00
v 94.02 -0.00 11.97
v 93.00 1.03 13.02
v 95.03 0.02 14.98
v 93.97 1.01 14.00
v 93.00 -0.00 11.02
v 91.99 0.99 11.97
v 91.00 -0.00 11.00
v 89.99 0.99 10.00
v 95.01 -0.03 17.01
v 84.98 1.01 2.98
v 78.99 1.99 -2.00
v 83.02 1.02 1.01
v 87.98 0.99 7.98
v 86.99 1.02 6.03
v 88.01 1.03 5.97
v 89.97 -0.00 6.02
v 86.00 -0.00 1.97
v 94.03 -0.00 11.00
v 93.00 -0.00 11.00
v 83.98 0.97 0.98
v 82.02 -0.00 -2.02
v 87.01 0.99 6.00
v 92.03 -0.00 11.00
v 55.98 5.02 -4.00
v 51.97 6.02 -2.98
v 52.00 6.01 -4.00
v 60.01 3.99 -4.99
v 71.00 2.98 -5.97
v 68.00 2.99 -6.99
v 56.02 5.01 -6.00
v 51.98 5.01 -7.00
v 65.00 4.02 -7.03
v 62.97 -0.00 -8.99
v 75.02 2.02 -10.02
v 80.99 -0.00 -10.03
v 84.01 -0.00 -13.99
v 71.00 3.00 -9.98
v 66.99 2.97 -10.01
v 74.02 2.01 -13.99
v 78.01 1.98 -13.01
v 87.02 -0.00 -18.01
v 82.03 1.03 -16.99
v 89.97 -0.00 -20.99
v 79.98 0.99 -17.98
v 81.00 -0.00 -19.02
v 74.97 -0.00 -16.00
v 88.00 -0.00 -21.98
v 87.98 -0.00 -22.00
v 72.99 2.03 -14.00
v 69.00 -0.00 -12.00
v 80.97 1.01 -18.01
v 89.01 -0.00 -22.02
v 30.02 2.01 1.00
v 28.02 -0.00 2.98
v 30.02 -0.00 3.98
v 28.00 1.97 -0.03
v 29.99 2.01 -0.01
v 25.97 -0.00 0.99
v 29.02 2.00 -16.01
v 25.97 -0.00 -16.97
v 26.98 -0.00 -18.01
v 28.02 1.02 -15.99
v 31.01 2.02 -14.97
v 23.97 -0.00 -16.00
v 30.98 2.01 -16.99
v 31.98 2.00 -18.00
v 33.02 2.00 -16.02
v 28.98 -0.00 -18.98
v 30.00 -0.00 -20.02
v 32.00 2.02 -16.01
v 33.01 1.99 -13.99
v 33.97 2.02 -15.03
v 43.97 -0.00 -11.98
v 38.03 1.01 -14.98
v 40.02 -0.00 -15.02
v 38.02 -0.00 -15.02
v 40.02 -0.00 -15.00
v 38.02 -0.00 -13.99
v 35.99 2.01 -14.97
v 35.02 2.01 -14.97
v 35.02 2.01 -15.03
v 37.00 -0.00 -15.02
v 35.99 -0.00 -15.02
v 35.99 2.01 -15.02
v 37.00 -0.00 -14.02
v 35.02 2.00 -13.98
v 37.01 1.00 -17.99
v 37.98 -0.00 -18.98
v 37.97 -0.00 -20.02
v 37.01 -0.00 -18.00
v 35.97 -0.00 -17.01
v 37.03 0.97 -18.98
v 37.00 1.00 -19.99
v 37.03 0.99 -18.02
v 38.03 -0.00 -21.00
v 39.00 -0.00 -21.97
v 35.97 1.02 -17.00
v 35.98 -0.00 -16.02
v 35.99 2.01 -17.00
v 35.01 0.98 -19.01
v 37.01 -0.00 -22.01
v 35.02 -0.00 -21.00
v 34.99 2.02 -18.02
v 33.98 1.98 -16.02
v 33.03 2.00 -17.03
v 34.01 0.98 -19.01
v 32.97 -0.00 -20.97
v 31.97 2.02 -17.98
v 33.97 2.01 -16.01
v 33.98 2.00 -16.02
v 33.02 1.97 -17.01
v 45.97 6.98 -2.02
v 57.00 -0.00 -0.01
v 52.00 -0.00 -0.00
v 45.99 6.97 -3.97
v 46.02 7.02 -5.98
v 33.01 8.02 -5.97
v 32.99 8.02 -4.03
v 46.01 -0.00 0.01
v 27.97 9.01 -2.99
v 28.98 8.03 -8.97
v 48.00 -0.00 -10.98
v 53.01 -0.00 -9.99
v 23.97 8.99 -9.98
v 22.99 10.02 -7.03
v 33.02 6.99 -8.99
v 58.02 -0.00 -9.98
v 28.00 8.99 -5.97
v 22.98 10.03 -4.03
v 21.03 10.00 -10.97
v 18.98 11.01 -10.97
v 16.00 11.01 -12.01
v 18.01 11.00 -8.02
v 20.97 9.99 -7.99
v 19.97 10.01 -5.01
v 13.03 11.98 -12.98
v 21.03 -0.00 -16.97
v 16.98 -0.00 -18.01
v 13.03 12.97 -10.03
v 17.02 11.03 -4.97
v 9.00 14.00 -11.02
v 9.99 12.00 -14.01
v 13.97 -0.00 -18.98
v 7.01 13.01 -15.01
v 9.99 -0.00 -20.02
v 15.00 11.03 -5.02
v 13.97 12.00 -5.00
v 11.98 11.98 -4.01
v 6.01 15.00 -11.03
v 6.97 13.98 -11.03
v 5.01 12.97 -13.98
v 7.02 13.00 -4.00
v 16.98 -0.00 1.98
v 20.00 -0.00 2.00
v 3.98 12.98 -4.03
v 1.01 16.01 -10.97
v 14.03 -0.00 2.03
v 8.99 12.01 -3.97
v 23.02 -0.00 0.97
v 3.01 14.97 -10.97
v 3.03 13.98 -14.00
v -25.97 5.01 8.98
v -29.97 -0.00 10.99
v -27.99 -0.00 15.01
v -25.02 -0.00 18.97
v -22.98 -0.00 23.00
v -20.99 -0.00 24.02
v 10.98 0.97 -25.03
v 16.01 -0.00 -27.01
v 16.01 -0.00 -26.97
v 12.02 1.01 -25.01
v 8.97 1.97 -24.03
v 16.99 -0.00 -26.00
v 10.99 1.00 -25.98
v 11.97 -0.00 -27.02
v 7.99 -0.00 -27.01
v 16.01 -0.00 -27.98
v 7.97 1.98 -25.02
v 6.02 1.97 -24.00
v 4.99 -0.00 -26.01
v 1.01 -0.00 -25.02
v 10.97 1.99 -24.02
v 16.02 -0.00 -25.02
v 16.03 -0.00 -23.98
v 10.97 1.97 -22.99
v 9.97 1.99 -22.02
v 7.97 1.98 -23.00
v 14.99 -0.00 -23.01
v 15.00 -0.00 -21.97
v 7.97 1.99 -24.01
v 4.97 2.01 -23.01
v 8.99 1.99 -22.00
v 12.99 -0.00 -22.01
v 11.97 -0.00 -21.00
v 8.97 2.03 -22.01
v 7.98 2.03 -20.98
v 5.99 1.99 -21.99
v 11.01 -0.00 -20.97
v 7.03 2.03 -23.01
v 3.97 1.98 -22.99
v -15.99 17.98 -11.00
v -17.97 16.03 -4.03
v -18.99 18.03 -11.00
v -13.98 15.03 -4.02
v -13.03 17.99 -10.99
v 0.98 14.00 -15.02
v 0.03 16.00 -10.98
v 2.00 13.99 -4.99
v -2.02 17.00 -10.98
v -0.01 13.99 -15.97
v -2.02 14.01 -16.98
v -8.99 14.97 -3.99
v -7.00 -0.00 4.02
v -0.01 -0.00 3.01
v -3.01 14.01 -4.00
v 6.98 -0.00 2.98
v -6.98 16.99 -10.99
v -31.02 15.01 -4.00
v -35.00 15.02 -3.97
v -34.03 18.03 -10.99
v -27.03 16.01 -4.01
v -30.02 17.98 -10.99
v -26.01 17.99 -10.99
v -23.02 15.99 -4.02
v -22.97 18.01 -11.00
v -55.02 13.03 -5.03
v -63.01 12.02 -6.02
v -59.03 12.97 -11.01
v -60.01 -0.00 0.97
v -51.99 -0.00 2.98
v -68.03 -0.00 0.02
v -47.98 14.01 -4.00
v -52.03 14.98 -11.02
v -45.03 16.03 -10.97
v -42.99 -0.00 4.00
v -41.03 13.99 -2.98
v -39.03 16.99 -10.98
v -71.01 10.99 -11.03
v -69.97 10.99 -6.97
v -67.00 11.00 -11.03
v -74.03 9.99 -7.03
v -79.01 -0.00 -0.97
v -68.01 10.99 -17.00
v -64.98 11.98 -6.00
v -70.99 -0.00 -0.00
v -73.03 -0.00 -0.02
v -68.02 11.01 -6.98
v -75.98 -0.00 -1.02
v -65.01 11.98 -11.03
v -80.02 8.99 -7.02
v -87.99 -0.00 -3.99
v -84.98 -0.00 -3.01
v -82.97 9.02 -8.03
v -91.01 -0.00 -4.97
v -82.02 -0.00 -2.02
v -77.02 10.02 -6.02
v -92.97 -0.00 -6.03
v -15.99 15.00 -17.02
v -11.99 15.00 -17.01
v -7.97 15.02 -16.02
v -33.03 15.01 -17.99
v -36.97 15.00 -18.02
v -23.99 16.01 -17.02
v -28.03 15.00 -17.01
v -55.00 12.97 -16.02
v -62.00 11.99 -17.03
v -42.97 14.00 -16.98
v -48.97 13.99 -16.01
v -65.02 11.99 -17.00
v -78.02 5.00 -18.02
v -82.00 -0.00 -20.03
v -79.01 -0.00 -21.99
v -83.00 5.97 -15.02
v -83.01 -0.02 -15.02
v -88.02 -0.02 -15.02
v 74.03 0.02 2.98
v 74.02 0.01 -13.99
v -100.00 -0.02 -8.98
v -97.01 -0.00 -6.99
v -65.01 -9.99 -11.03
v -62.99 -10.00 -16.98
v -65.02 -10.00 -17.00
v -18.99 -0.98 19.03
v -93.97 -5.01 -9.00
v -95.99 -3.03 -10.03
v -98.00 0.03 -12.01
v 74.02 1.98 -13.99
v 80.97 0.00 -18.01
v 82.03 -0.02 -16.99
v 78.01 0.01 -13.01
v 74.03 1.97 2.98
v 76.99 0.01 5.01
v -79.98 -3.02 -14.99
v -83.00 -3.98 -15.02
v -92.01 -1.02 -13.98
v -86.98 -2.00 -15.02
v -81.02 -7.01 -12.01
v -89.98 -5.98 -11.01
v -85.02 -7.00 -11.99
v -88.98 -4.99 -13.01
v -87.00 -5.97 -12.98
v -85.03 -6.02 -12.98
v -84.02 -7.02 -10.01
v -93.01 -4.03 -11.99
v -92.98 -4.00 -12.00
v -96.97 0.03 -12.99
v -92.03 -4.02 -12.00
v -91.01 -4.99 -13.03
v -95.02 0.02 -13.97
v -15.99 -1.99 19.00
v -15.98 -3.02 14.00
v -18.97 -3.01 12.00
v -20.03 -3.03 4.02
v -17.03 -3.03 8.02
v -21.02 -3.02 8.02
v -24.01 -3.02 5.00
v -24.99 -3.01 4.01
v -28.01 -2.97 6.02
v -28.98 -2.97 4.03
v -10.01 -0.00 27.02
v -75.01 -8.01 -10.98
v -81.02 -8.02 -9.97
v -78.01 -8.00 -9.02
v -78.00 -6.97 -15.02
v -72.03 -8.02 -15.02
v -76.98 -3.02 -15.01
v -73.98 -6.00 -14.99
v -74.03 -1.01 -16.00
v -85.99 -7.02 -7.00
v -71.98 7.97 -19.97
v -69.01 7.97 -20.01
v -75.03 -0.00 -22.98
v -72.98 -0.00 -23.02
v -53.01 -0.00 -25.97
v -50.99 9.97 -20.97
v -56.03 -0.00 -25.03
v -47.99 9.97 -22.01
v -45.97 14.00 -16.99
v -54.02 9.97 -21.02
v -43.98 9.97 -21.97
v -49.00 -0.00 -25.99
v -28.98 -0.00 -26.98
v -29.00 10.01 -23.02
v -31.01 -0.00 -27.00
v -27.01 11.01 -21.98
v -25.98 15.01 -17.02
v -31.03 10.01 -22.97
v -24.00 11.01 -22.03
v -25.97 -0.00 -27.03
v -9.01 -0.00 -26.00
v -9.98 9.98 -21.98
v -6.00 -0.00 -25.99
v -12.01 11.00 -22.02
v -14.02 14.97 -16.98
v -8.01 9.98 -20.98
v -15.02 11.00 -21.97
v -10.97 -0.00 -26.02
v -66.02 9.00 -21.00
v -68.00 9.00 -21.03
v -62.99 11.99 -16.98
v -67.01 -0.00 -23.98
v -63.98 9.00 -20.98
v -69.00 -0.00 -24.01
v -60.97 9.00 -20.02
v -63.00 -0.00 -24.99
v -58.01 11.99 -16.00
v -57.03 9.00 -21.02
v -39.00 -0.00 -28.03
v -35.98 10.02 -22.99
v -36.97 -0.00 -27.03
v -38.02 9.98 -22.97
v -35.00 14.97 -17.97
v -32.97 10.02 -22.98
v -43.01 -0.00 -27.02
v -40.98 9.98 -23.01
v 0.02 10.01 -20.98
v -4.99 15.01 -16.99
v -3.02 10.02 -20.99
v -1.02 -0.00 -24.97
v -5.97 10.02 -21.01
v -19.03 -0.00 -26.00
v -19.01 11.03 -22.03
v -20.99 -0.00 -26.02
v -16.02 -0.00 -25.98
v -19.98 15.99 -16.98
v -22.03 11.03 -21.98
v -16.98 11.03 -22.01
v -70.99 -0.00 -22.99
v -66.02 11.03 -16.97
v -51.99 13.02 -16.02
v -59.98 -0.00 -25.01
v -45.97 -0.00 -27.00
v -39.97 14.01 -16.97
v -31.02 15.00 -17.99
v -34.02 -0.00 -27.01
v -24.00 -0.00 -27.01
v -22.02 16.03 -16.97
v -10.01 14.98 -15.99
v -2.99 -0.00 -24.99
v -13.99 -0.00 -25.97
v -18.02 16.02 -17.00
v -77.02 -0.00 -22.03
v -16.98 -8.97 -22.01
v -18.02 -14.03 -17.00
v -19.98 -14.00 -16.98
v -15.02 -9.00 -21.97
v -15.99 -13.99 -17.02
v -5.97 -9.02 -21.01
v -8.01 -8.98 -20.98
v -10.01 -12.99 -15.99
v -7.97 -13.03 -16.02
v -11.99 -13.01 -17.01
v -15.99 -15.99 -11.00
v -14.02 -14.03 -16.98
v -6.98 -15.99 -10.99
v -4.99 -13.02 -16.99
v -2.02 -13.00 -16.98
v -30.02 -15.99 -10.99
v -35.00 -12.98 -17.97
v -36.97 -13.01 -18.02
v -33.03 -13.02 -17.99
v -22.03 -8.97 -21.98
v -22.02 -13.97 -16.97
v -24.00 -9.02 -22.03
v -23.99 -14.02 -17.02
v -32.97 -9.01 -22.98
v -31.03 -9.01 -22.97
v -31.02 -13.01 -17.99
v -28.03 -13.99 -17.01
v -22.97 -17.00 -11.00
v -25.98 -14.00 -17.02
v -52.03 -12.99 -11.02
v -58.01 -10.00 -16.00
v -62.00 -10.00 -17.03
v -55.00 -10.98 -16.02
v -40.98 -7.99 -23.01
v -39.97 -13.00 -16.97
v -43.98 -7.98 -21.97
v -42.97 -12.01 -16.98
v -57.03 -7.01 -21.02
v -54.02 -7.98 -21.02
v -51.99 -11.03 -16.02
v -48.97 -12.00 -16.01
v -39.03 -15.00 -10.98
v -45.97 -12.01 -16.99
v -68.00 -7.01 -21.03
v -66.02 -10.03 -16.97
v -69.01 -5.98 -20.01
v -68.01 -9.00 -17.00
v 6.02 0.02 -24.00
v 4.97 -0.02 -23.01
v 3.97 0.01 -22.99
v -19.01 -8.97 -22.03
v -3.02 -9.02 -20.99
v 0.02 -8.02 -20.98
v -0.01 -12.00 -15.97
v -38.02 -7.99 -22.97
v -35.98 -9.01 -22.99
v -60.97 -7.01 -20.02
v -63.98 -7.01 -20.98
v -66.02 -7.01 -21.00
v -12.01 -9.00 -22.02
v -18.99 -17.02 -11.00
v -13.03 -16.00 -10.99
v -9.98 -8.98 -21.98
v -2.02 -15.01 -10.98
v -26.01 -16.00 -10.99
v -34.03 -15.97 -10.99
v -27.01 -9.02 -21.98
v -29.00 -9.01 -23.02
v -45.03 -13.97 -10.97
v -59.03 -12.03 -11.01
v -47.99 -7.98 -22.01
v -50.99 -7.98 -20.97
v -71.98 -5.98 -19.97
v -71.01 -9.00 -11.03
v -67.00 -9.01 -11.03
v -78.02 -3.00 -18.02
v 64.00 -2.03 -3.01
v 67.01 -1.03 -0.98
v 74.03 -0.01 2.98
v 70.00 -1.02 0.02
v 71.01 -0.99 -2.00
v 71.02 -1.00 -5.02
v 75.00 0.02 -3.00
v 78.01 0.02 -1.01
v 77.98 0.02 1.03
v 80.99 -0.03 7.03
v 83.98 -0.02 9.02
v 87.01 0.01 9.97
v 80.97 -0.00 -0.01
v 84.03 -0.02 5.02
v 88.99 0.02 10.97
v 91.99 0.01 12.03
v 98.97 -0.00 17.00
v 99.03 -0.00 19.03
v 98.02 -0.00 17.00
v 96.97 -0.00 14.01
v 97.00 -0.02 15.00
v 96.98 -0.00 17.03
v 98.00 -0.00 18.99
v 96.00 -0.01 17.00
v 94.98 0.01 13.01
v 93.00 -0.02 13.02
v 91.99 0.02 11.97
v 89.99 0.02 10.00
v 78.99 0.00 -2.00
v 84.98 -0.01 2.98
v 87.98 0.01 7.98
v 86.99 -0.01 6.03
v 88.01 -0.02 5.97
v 83.98 -0.03 0.98
v 87.01 0.02 6.00
v 51.97 -3.97 -2.98
v 55.98 -2.97 -4.00
v 71.00 -0.99 -5.97
v 60.01 -2.00 -4.99
v 56.02 -3.02 -6.00
v 51.98 -4.00 -7.00
v 65.00 -2.03 -7.03
v 75.02 -0.03 -10.02
v 66.99 -0.98 -10.01
v 71.00 -1.01 -9.98
v 79.98 0.02 -17.98
v 72.99 0.03 -14.00
v 28.00 0.02 -0.03
v 30.02 -0.02 1.00
v 31.01 -0.00 1.98
v 31.02 0.03 1.02
v 28.02 -0.01 -15.99
v 29.02 -0.01 -16.01
v 31.98 -0.01 -18.00
v 30.98 -0.02 -16.99
v 32.00 -0.03 -16.01
v 33.01 0.00 -13.99
v 33.97 -0.03 -15.03
v 38.03 -0.00 -14.98
v 35.02 -0.02 -14.97
v 35.99 -0.02 -14.97
v 35.99 -0.02 -15.02
v 35.02 -0.01 -13.98
v 37.01 0.00 -17.99
v 37.00 0.01 -19.99
v 37.03 -0.03 -18.98
v 35.97 -0.01 -17.00
v 35.99 -0.02 -17.00
v 35.01 0.03 -19.01
v 33.98 0.01 -16.02
v 34.99 0.03 -18.02
v 34.01 0.02 -19.01
v 31.97 -0.03 -17.98
v 33.97 -0.02 -16.01
v 33.98 -0.01 -16.02
v 33.02 0.02 -17.01
v 45.97 -4.99 -2.02
v 46.02 -5.03 -5.98
v 45.99 -4.98 -3.97
v 32.99 -5.97 -4.03
v 27.97 -7.02 -2.99
v 23.97 -7.98 -9.98
v 28.98 -7.02 -8.97
v 33.02 -5.99 -8.99
v 28.00 -7.00 -5.97
v 22.98 -7.98 -4.03
v 21.03 -8.01 -10.97
v 16.00 -9.02 -12.01
v 18.98 -9.02 -10.97
v 20.97 -8.00 -7.99
v 19.97 -8.02 -5.01
v 13.03 -9.99 -12.98
v 17.02 -8.98 -4.97
v 13.03 -10.98 -10.03
v 9.99 -10.01 -14.01
v 7.01 -11.02 -15.01
v 30.98 -0.02 0.03
v 15.00 -8.97 -5.02
v 11.98 -9.99 -4.01
v 13.97 -10.01 -5.00
v 6.97 -12.97 -11.03
v 5.01 -10.98 -13.98
v 3.98 -10.99 -4.03
v 7.02 -11.01 -4.00
v 8.99 -11.01 -3.97
v 3.01 -12.98 -10.97
v 3.03 -11.99 -14.00
v -25.97 -3.02 8.98
v -22.98 -3.00 13.01
v -21.03 -0.97 18.02
v 12.02 -0.00 -25.01
v 10.98 0.03 -25.03
v 10.99 0.01 -25.98
v 7.97 0.01 -25.02
v 10.97 -0.00 -24.02
v 9.97 0.00 -22.02
v 10.97 0.02 -22.99
v 7.97 0.00 -24.01
v 8.99 -0.00 -22.00
v 7.98 0.03 -20.98
v 8.97 0.03 -22.01
v 7.03 0.02 -23.01
v -17.97 -13.97 -4.03
v -13.98 -14.02 -4.02
v 0.98 -12.01 -15.02
v -77.02 -8.03 -6.02
v -74.03 -8.00 -7.03
v -82.97 -6.97 -8.03
v -80.02 -7.99 -7.02
v -68.02 -9.02 -6.98
v -64.98 -9.99 -6.00
v -69.97 -9.00 -6.97
v -63.01 -9.97 -6.02
v -41.03 -12.98 -2.98
v -35.00 -13.03 -3.97
v -47.98 -12.02 -4.00
v -55.02 -10.98 -5.03
v -23.02 -14.00 -4.02
v -27.03 -14.02 -4.01
v -31.02 -13.02 -4.00
v -3.01 -13.00 -4.00
v -8.99 -12.98 -3.99
v 2.00 -12.00 -4.99
v 0.03 -14.01 -10.98
v 5.99 0.00 -21.99
v 1.01 -14.02 -10.97
v 7.97 0.01 -23.00
v 8.97 0.02 -24.03
v 6.01 -13.01 -11.03
v 9.00 -12.01 -11.02
v 29.99 -0.02 -0.01
v 18.01 -9.01 -8.02
v 22.99 -8.03 -7.03
v 31.01 -0.03 -14.97
v 33.01 -6.03 -5.97
v 52.00 -4.02 -4.00
v 33.03 -0.01 -17.03
v 33.02 -0.01 -16.02
v 35.02 -0.02 -15.03
v 37.03 0.02 -18.02
v 74.02 -0.02 -13.99
v 68.00 -1.00 -6.99
v 66.97 -2.00 -3.97
v 83.02 -0.01 1.01
v 93.97 0.00 14.00
v 86.00 -0.02 6.02
v 97.99 -0.00 19.01
v 98.00 -0.00 15.01
v 81.00 0.02 3.03
v 73.99 0.02 -0.01
v 16.02 -0.00 -28.01
v 96.00 -0.00 13.01
v 34.00 -0.00 7.03
v 34.00 -0.00 6.01
v 35.01 -0.00 0.02
v 100.00 -0.00 18.00
v 94.01 -0.00 11.00
v 86.97 -0.00 -22.03
v 40.98 -0.00 -15.02
v 37.00 -0.00 -18.01
v -41.97 38.97 -21.01
v -35.98 40.97 -20.99
v -41.01 35.98 -22.03
v -35.98 37.98 -20.00
v -40.98 34.99 -19.03
v -34.01 13.01 -17.02
v -38.03 9.99 -16.99
v -44.03 21.02 -19.03
v -42.99 18.99 -16.01
v -51.01 10.01 -16.97
v -52.98 19.97 -18.02
v -37.03 22.02 -17.99
v -48.03 32.97 -20.99
v -42.98 27.99 -18.02
v -37.97 29.98 -20.00
v -42.99 30.01 -21.00
v -35.98 -40.97 -19.98
v -41.01 -35.98 -21.02
v -35.98 -37.98 -19.98
v -37.97 -29.98 -18.99
v -42.99 -30.01 -20.98
v -41.97 -38.97 -20.00
v -48.03 -32.97 -19.98
v -37.03 -22.02 -16.98
v -44.03 -21.02 -18.02
v -34.01 -13.01 -16.01
v -52.98 -19.97 -17.02
v -51.01 -10.01 -16.03
v -38.03 -9.99 -15.98
v -40.98 -34.99 -18.02
v -42.98 -27.99 -17.01
v -42.99 -18.99 -15.01
v -75.01 -5.01 -15.99
v -74.97 -5.00 -16.01
v -73.97 -5.01 -14.98
v -75.00 -4.98 -16.01
v -79.02 -1.99 -14.97
v -78.00 -3.02 -16.98
v -78.02 -2.98 -15.00
v -78.01 -3.01 -14.98
v -77.98 -3.00 -15.03
v -75.98 -5.01 -15.01
v -74.99 -5.02 -14.98
v -76.00 -6.03 -15.00
v -74.98 -4.98 -15.02
v -74.97 -5.00 -15.98
v -76.97 -4.01 -15.02
v -75.98 -5.00 -14.99
v -76.03 -5.03 -15.02
v -76.02 -4.98 -15.99
v -76.00 -5.03 -15.01
v -77.00 -2.99 -14.97
v -77.03 -4.03 -16.01
v -77.01 -4.01 -15.02
v -76.99 -3.99 -15.01
v -76.98 -4.01 -14.98
v -81.01 -0.03 -14.97
v -80.02 0.03 -15.01
v -80.99 -0.00 -14.98
v -79.99 -0.02 -16.98
v -81.02 0.00 -15.02
v -80.00 -0.98 -15.02
v -78.98 -0.97 -17.03
v -80.01 -1.02 -15.01
v -79.00 -0.99 -14.99
v -79.98 -1.02 -15.02
v -79.01 -1.00 -15.01
v -78.02 -2.00 -14.98
v -78.99 -2.02 -15.02
v -77.99 -1.97 -17.02
v -79.02 -2.02 -15.00
v -81.98 -0.01 -14.97
v -81.02 0.01 -16.98
v -81.99 0.02 -15.03
v -80.98 -0.02 -15.00
v -82.02 0.02 -14.98
v -81.02 1.00 -16.98
v -81.99 0.98 -15.03
v -78.99 3.02 -18.97
v -79.00 1.98 -19.01
v -80.00 3.03 -17.00
v -79.01 3.02 -18.00
v -79.00 3.03 -19.01
v -79.97 2.00 -19.01
v -81.03 2.00 -18.01
v -80.02 2.00 -19.98
v -80.03 1.03 -18.97
v -80.03 2.00 -18.97
v -80.00 0.98 -18.99
v -80.97 0.01 -20.00
v -80.97 0.99 -20.00
v -81.98 0.99 -17.99
v -80.97 0.98 -20.02
v -75.03 -4.97 -14.99
v -79.01 2.99 -15.01
v -77.99 2.98 -17.02
v -79.02 4.01 -15.00
v -77.97 4.00 -18.02
v -78.97 4.00 -17.02
v -79.01 4.00 -18.01
v -78.02 3.00 -14.98
v -78.03 3.03 -17.98
v -78.99 3.03 -15.02
v -78.03 4.00 -17.98
v -80.00 1.99 -15.02
v -79.00 2.98 -14.99
v -79.98 3.01 -15.02
v -78.98 3.02 -17.03
v -80.01 3.01 -15.01
v -81.01 0.97 -14.97
v -79.99 2.01 -16.98
v -81.02 1.99 -15.02
v -80.02 2.03 -15.01
v -80.99 1.99 -14.98
v -77.00 4.98 -14.97
v -76.99 4.99 -15.01
v -76.98 5.02 -14.98
v -77.03 4.97 -16.01
v -77.01 6.00 -15.02
v -76.97 6.00 -15.02
v -76.02 5.99 -15.99
v -76.00 7.02 -15.01
v -78.03 -2.99 -18.00
v -76.99 -1.97 -17.97
v -77.02 -3.01 -17.01
v -77.00 -3.02 -17.03
v -78.02 -2.98 -15.99
v -77.03 -3.03 -17.00
v -76.98 -4.00 -17.03
v -77.02 -3.99 -17.03
v -75.99 -4.01 -16.98
v -76.98 -3.97 -15.99
v -75.99 -4.99 -17.00
v -76.00 -3.97 -15.99
v -76.02 -4.03 -16.01
v -75.02 -3.97 -16.03
v -76.02 -4.00 -14.99
v -79.00 0.01 -19.01
v -79.00 -0.97 -19.01
v -78.99 -1.03 -18.97
v -79.01 -1.03 -18.00
v -75.98 6.01 -14.99
v -76.03 5.97 -15.02
v -75.98 7.00 -15.01
v -74.99 7.01 -14.98
v -74.98 6.97 -15.02
v -74.97 6.99 -15.98
v -76.00 8.02 -15.00
v -79.02 3.98 -14.97
v -78.00 4.03 -16.98
v -77.98 4.99 -15.03
v -78.02 3.98 -15.00
v -78.01 4.01 -14.98
v -73.97 7.00 -14.98
v -75.01 6.02 -15.99
v -74.97 6.99 -16.01
v -75.03 7.02 -14.99
v -75.00 6.97 -16.01
v -77.00 5.01 -17.03
v -78.02 5.03 -15.99
v -78.03 4.98 -18.00
v -76.99 4.03 -17.97
v -77.02 5.00 -17.01
v -75.99 6.00 -16.98
v -77.03 5.02 -17.00
v -76.98 5.01 -17.03
v -76.98 4.98 -15.99
v -77.02 5.98 -17.03
v -80.00 -0.97 -17.00
v -80.02 -0.01 -19.98
v -80.03 -0.02 -18.97
v -80.03 -0.01 -18.97
v -79.97 -0.01 -19.01
v -81.03 -0.01 -18.01
v -80.97 0.02 -20.00
v -80.97 0.02 -20.02
v -80.00 0.02 -18.99
v -81.98 0.02 -17.99
v -79.01 -2.01 -18.01
v -78.03 -2.02 -17.98
v -78.03 -2.01 -17.98
v -77.97 -2.01 -18.02
v -78.97 -2.01 -17.02
v -75.02 6.03 -16.03
v -76.02 5.99 -14.99
v -75.99 6.00 -17.00
v -76.00 6.03 -15.99
v -76.02 6.02 -16.01
f 1 2 3
f 1 2 4
f 2 4 4
f 2 4 5
f 2 5 3
f 2 3 3
f 1 4 6
f 4 4 7
f 4 5 8
f 5 3 9
f 3 3 10
f 3 1 11
f 1 12 11
f 1 12 6
f 4 6 13
f 4 13 7
f 4 7 14
f 4 14 8
f 5 8 15
f 5 15 9
f 3 9 16
f 3 16 10
f 3 10 17
f 3 17 11
f 18 19 20
f 20 18 18
f 18 21 22
f 21 23 22
f 23 23 22
f 23 24 22
f 24 25 26
f 25 18 24
f 18 27 25
f 18 20 27
f 18 24 22
f 28 21 18
f 21 29 28
f 21 30 29
f 30 23 21
f 23 31 30
f 23 32 31
f 32 23 23
f 23 33 32
f 23 34 33
f 34 24 23
f 26 34 24
f 18 18 22
f 18 28 19
f 35 36 37
f 38 39 40
f 41 42 35
f 35 37 42
f 38 39 43
f 38 39 44
f 45 46 47
f 45 46 48
f 36 49 50
f 45 48 51
f 52 51 53
f 53 52 54
f 54 53 55
f 54 55 56
f 38 57 58
f 38 57 59
f 38 59 60
f 38 60 44
f 45 51 52
f 37 49 36
f 61 62 63
f 64 65 66
f 61 66 67
f 61 66 68
f 66 67 69
f 66 68 69
f 70 71 69
f 70 71 72
f 71 69 68
f 61 71 68
f 19 73 20
f 19 73 74
f 73 20 27
f 19 74 28
f 29 74 28
f 25 73 27
f 25 73 75
f 25 75 26
f 75 26 34
f 37 49 76
f 35 77 41
f 36 77 35
f 50 77 36
f 49 78 76
f 50 78 49
f 50 79 78
f 50 79 77
f 80 78 79
f 80 77 79
f 74 77 80
f 61 62 64
f 64 81 82
f 29 77 74
f 30 77 29
f 31 77 30
f 41 83 42
f 41 84 83
f 75 82 34
f 64 82 75
f 33 82 34
f 64 61 66
f 32 82 33
f 31 82 32
f 38 58 43
f 38 40 43
f 58 43 85
f 43 85 86
f 43 86 48
f 43 48 46
f 40 43 39
f 39 43 46
f 46 39 87
f 46 87 47
f 88 89 90
f 88 89 91
f 91 88 92
f 88 92 93
f 93 88 94
f 88 94 95
f 88 95 96
f 95 96 97
f 97 96 98
f 96 98 99
f 99 96 100
f 96 100 101
f 102 103 104
f 102 103 105
f 105 102 106
f 103 105 107
f 108 109 110
f 108 109 111
f 111 108 104
f 109 111 112
f 113 102 106
f 113 102 108
f 108 113 110
f 102 108 104
f 113 114 106
f 113 114 115
f 115 113 110
f 114 115 116
f 117 109 110
f 117 109 118
f 118 117 119
f 109 118 112
f 120 121 122
f 120 121 115
f 115 120 110
f 121 115 116
f 123 117 119
f 123 117 120
f 120 123 122
f 117 120 110
f 123 124 119
f 123 124 125
f 125 123 122
f 124 125 126
f 127 125 122
f 127 125 128
f 128 127 129
f 125 128 126
f 130 131 132
f 130 131 121
f 121 130 122
f 131 121 116
f 133 127 129
f 133 127 130
f 130 133 132
f 127 130 122
f 133 134 129
f 133 134 135
f 135 133 132
f 134 135 136
f 137 138 139
f 137 138 140
f 140 137 141
f 142 137 141
f 142 137 143
f 143 142 144
f 137 143 139
f 142 145 141
f 142 145 146
f 146 142 144
f 145 146 147
f 148 135 132
f 148 135 149
f 149 148 144
f 135 149 136
f 150 151 152
f 150 151 131
f 131 150 132
f 151 131 116
f 153 148 144
f 153 148 150
f 150 153 152
f 148 150 132
f 153 146 144
f 153 146 154
f 154 153 152
f 146 154 147
f 155 156 157
f 155 156 158
f 158 155 159
f 160 151 152
f 160 151 161
f 161 160 157
f 151 161 116
f 162 155 159
f 162 155 160
f 160 162 152
f 155 160 157
f 162 163 159
f 162 163 154
f 154 162 152
f 163 154 147
f 164 105 106
f 164 105 165
f 165 164 166
f 105 165 107
f 167 168 169
f 167 168 114
f 114 167 106
f 168 114 116
f 170 164 166
f 170 164 167
f 167 170 169
f 164 167 106
f 170 171 166
f 170 171 172
f 172 170 169
f 171 172 173
f 174 168 169
f 174 168 175
f 175 174 176
f 168 175 116
f 177 178 179
f 177 178 172
f 172 177 169
f 178 172 173
f 180 174 176
f 180 174 177
f 177 180 179
f 174 177 169
f 180 181 176
f 180 181 182
f 182 180 179
f 181 182 183
f 184 185 186
f 184 185 187
f 187 184 188
f 189 178 179
f 189 178 190
f 190 189 186
f 178 190 173
f 191 184 188
f 191 184 189
f 189 191 179
f 184 189 186
f 191 192 188
f 191 192 182
f 182 191 179
f 192 182 183
f 193 194 195
f 193 194 196
f 196 193 197
f 194 196 198
f 101 96 195
f 88 193 197
f 88 193 96
f 193 96 195
f 88 90 197
f 199 200 201
f 199 200 202
f 202 199 203
f 200 202 204
f 205 206 207
f 205 206 208
f 208 205 201
f 206 208 209
f 210 199 203
f 210 199 205
f 205 210 207
f 199 205 201
f 210 211 203
f 210 211 212
f 212 210 207
f 211 212 213
f 214 215 216
f 214 215 217
f 217 214 218
f 219 220 221
f 219 220 222
f 222 219 216
f 220 222 223
f 224 214 218
f 224 214 219
f 219 224 221
f 214 219 216
f 224 225 218
f 224 225 226
f 226 224 221
f 225 226 213
f 227 228 229
f 227 228 230
f 230 227 231
f 232 233 234
f 232 233 235
f 235 232 229
f 233 235 236
f 237 227 231
f 237 227 232
f 232 237 234
f 227 232 229
f 237 238 231
f 237 238 239
f 239 237 234
f 238 239 223
f 240 233 234
f 240 233 241
f 241 240 242
f 233 241 236
f 243 244 245
f 243 244 239
f 239 243 234
f 244 239 223
f 246 240 242
f 246 240 243
f 243 246 245
f 240 243 234
f 246 247 242
f 246 247 248
f 248 246 245
f 247 248 209
f 249 226 221
f 249 226 212
f 212 249 207
f 226 212 213
f 250 244 245
f 250 244 220
f 220 250 221
f 244 220 223
f 251 249 207
f 251 249 250
f 250 251 245
f 249 250 221
f 251 206 207
f 251 206 248
f 248 251 245
f 206 248 209
f 252 165 166
f 252 165 253
f 253 252 254
f 165 253 107
f 255 256 257
f 255 256 171
f 171 255 166
f 256 171 173
f 258 252 254
f 258 252 255
f 255 258 257
f 252 255 166
f 258 259 254
f 258 259 260
f 260 258 257
f 259 260 89
f 261 262 263
f 261 262 264
f 264 261 265
f 262 264 213
f 266 256 257
f 266 256 267
f 267 266 263
f 256 267 173
f 268 261 265
f 268 261 266
f 266 268 257
f 261 266 263
f 268 269 265
f 268 269 260
f 260 268 257
f 269 260 89
f 270 211 203
f 270 211 264
f 264 270 265
f 211 264 213
f 271 272 273
f 271 272 202
f 202 271 203
f 272 202 204
f 274 270 265
f 274 270 271
f 271 274 273
f 270 271 203
f 274 269 265
f 274 269 275
f 275 274 273
f 269 275 89
f 276 272 273
f 276 272 277
f 277 276 278
f 272 277 204
f 279 280 281
f 279 280 275
f 275 279 273
f 280 275 89
f 282 276 278
f 282 276 279
f 279 282 281
f 276 279 273
f 282 283 278
f 282 283 284
f 284 282 281
f 283 284 285
f 286 90 197
f 286 90 280
f 280 286 281
f 90 280 89
f 287 288 289
f 287 288 196
f 196 287 197
f 288 196 198
f 290 286 281
f 290 286 287
f 287 290 289
f 286 287 197
f 290 284 281
f 290 284 291
f 291 290 289
f 284 291 285
f 292 293 294
f 292 293 295
f 295 292 296
f 293 295 297
f 298 288 289
f 298 288 299
f 299 298 294
f 288 299 198
f 300 292 296
f 300 292 298
f 298 300 289
f 292 298 294
f 300 301 296
f 300 301 291
f 291 300 289
f 301 291 285
f 302 53 51
f 302 53 303
f 303 302 304
f 53 303 55
f 86 302 304
f 86 302 48
f 302 48 51
f 86 305 304
f 86 305 85
f 305 85 306
f 58 85 307
f 307 58 57
f 85 307 306
f 308 309 310
f 308 309 311
f 311 308 312
f 309 311 313
f 314 315 316
f 314 315 317
f 317 314 310
f 318 308 312
f 318 308 314
f 314 318 316
f 308 314 310
f 318 319 312
f 318 319 320
f 320 318 316
f 319 320 321
f 322 323 324
f 322 323 311
f 311 322 312
f 323 311 313
f 325 326 327
f 325 326 328
f 328 325 324
f 326 328 329
f 330 322 312
f 330 322 325
f 325 330 327
f 322 325 324
f 330 319 312
f 330 319 331
f 331 330 327
f 319 331 321
f 332 333 334
f 332 333 326
f 326 332 327
f 333 326 329
f 335 336 337
f 335 336 338
f 338 335 334
f 336 338 285
f 339 332 327
f 339 332 335
f 335 339 337
f 332 335 334
f 339 331 327
f 339 331 340
f 340 339 337
f 331 340 321
f 341 342 343
f 341 342 344
f 344 341 345
f 342 344 47
f 346 301 296
f 346 301 336
f 336 346 337
f 301 336 285
f 347 348 349
f 347 348 295
f 295 347 296
f 348 295 297
f 350 346 337
f 350 346 347
f 347 350 349
f 346 347 296
f 350 340 351
f 350 340 337
f 352 353 354
f 352 353 344
f 344 352 345
f 353 344 47
f 355 348 349
f 355 348 356
f 356 355 354
f 348 356 297
f 357 352 345
f 357 352 355
f 355 357 349
f 352 355 354
f 358 359 360
f 358 359 54
f 54 358 52
f 359 54 56
f 361 358 52
f 361 358 362
f 362 361 363
f 358 362 360
f 361 45 52
f 361 45 364
f 364 361 363
f 45 364 47
f 365 342 343
f 365 342 364
f 364 365 363
f 342 364 47
f 366 367 368
f 366 367 369
f 369 366 370
f 367 369 371
f 372 366 370
f 372 366 373
f 373 372 374
f 366 373 368
f 372 375 370
f 372 375 376
f 376 372 374
f 375 376 56
f 377 359 360
f 377 359 376
f 376 377 374
f 359 376 56
f 378 379 380
f 378 379 381
f 381 378 61
f 379 381 382
f 67 378 383
f 67 378 61
f 384 385 386
f 384 385 367
f 367 384 368
f 385 367 371
f 387 379 380
f 387 379 388
f 388 387 386
f 379 388 382
f 389 384 368
f 389 384 387
f 387 389 380
f 384 387 386
f 390 391 392
f 390 391 393
f 393 390 62
f 391 393 394
f 395 396 392
f 395 396 382
f 63 390 62
f 63 390 396
f 396 63 61
f 390 396 392
f 75 64 62
f 75 393 62
f 75 393 73
f 393 73 394
f 74 397 73
f 397 73 394
f 149 144 143
f 381 61 396
f 381 382 396
f 341 343 398
f 341 345 399
f 350 349 351
f 357 345 400
f 357 349 351
f 362 363 401
f 362 360 402
f 365 343 403
f 365 363 404
f 373 374 405
f 373 368 406
f 377 360 407
f 377 374 408
f 378 380 383
f 389 368 406
f 389 380 409
f 410 411 412
f 410 411 72
f 410 67 412
f 410 67 69
f 72 70 410
f 70 69 410
f 410 72 412
f 64 413 81
f 84 82 41
f 84 81 82
f 84 413 81
f 83 413 84
f 77 82 31
f 77 82 41
f 65 413 64
f 83 414 415
f 83 414 413
f 42 76 37
f 42 415 76
f 42 415 83
f 414 65 413
f 416 118 117
f 112 416 118
f 112 416 111
f 417 180 182
f 417 191 182
f 418 78 76
f 418 80 78
f 418 80 419
f 74 419 397
f 74 419 80
f 420 421 422
f 57 423 307
f 419 397 424
f 419 424 425
f 418 425 419
f 418 425 426
f 427 428 429
f 427 430 429
f 112 431 118
f 112 431 111
f 431 118 432
f 414 433 434
f 435 415 436
f 435 415 76
f 436 414 434
f 436 414 415
f 433 434 437
f 438 439 440
f 438 439 16
f 436 434 441
f 434 441 442
f 441 442 439
f 441 439 440
f 434 437 442
f 437 442 439
f 439 16 10
f 439 10 17
f 439 17 11
f 437 439 443
f 439 443 11
f 440 441 436
f 440 436 435
f 16 438 9
f 438 9 15
f 438 15 424
f 438 424 425
f 438 425 444
f 425 426 444
f 445 444 438
f 445 444 426
f 445 426 446
f 445 438 447
f 438 447 448
f 438 448 440
f 449 446 447
f 446 447 445
f 448 447 449
f 448 449 435
f 440 435 448
f 450 39 451
f 450 39 452
f 450 39 44
f 453 454 47
f 453 454 455
f 453 455 456
f 453 456 457
f 456 457 458
f 458 457 459
f 459 458 55
f 459 55 56
f 450 57 423
f 450 57 59
f 450 59 60
f 450 60 44
f 60 44 460
f 461 462 463
f 461 462 437
f 437 461 464
f 437 433 464
f 461 464 465
f 461 464 466
f 464 465 467
f 464 466 467
f 71 72 468
f 71 468 467
f 71 467 466
f 461 71 466
f 12 11 443
f 15 8 424
f 14 8 424
f 14 7 469
f 13 7 469
f 13 6 469
f 12 6 443
f 450 452 451
f 450 452 423
f 39 451 452
f 383 470 67
f 383 470 471
f 470 472 473
f 470 472 67
f 474 475 476
f 474 475 477
f 475 408 478
f 475 408 479
f 407 477 480
f 407 477 478
f 477 474 481
f 482 483 484
f 482 483 485
f 483 404 486
f 483 404 487
f 403 485 488
f 403 485 486
f 485 482 489
f 490 491 492
f 490 491 493
f 491 399 494
f 491 399 495
f 398 493 496
f 398 493 494
f 493 490 497
f 409 498 499
f 409 498 500
f 498 501 502
f 498 501 503
f 501 504 505
f 501 504 502
f 504 405 506
f 504 405 507
f 406 502 506
f 406 502 500
f 508 509 510
f 508 509 511
f 509 401 512
f 509 401 513
f 508 511 514
f 511 402 515
f 511 402 512
f 351 516 340
f 351 516 517
f 516 321 518
f 516 321 340
f 321 518 519
f 518 400 520
f 518 400 517
f 521 522 523
f 521 522 524
f 522 525 526
f 522 525 527
f 406 500 389
f 500 409 389
f 528 499 503
f 528 499 471
f 499 409 529
f 409 529 380
f 529 383 471
f 529 383 380
f 471 528 473
f 407 478 377
f 408 478 377
f 405 507 530
f 507 531 479
f 507 531 505
f 531 479 476
f 408 479 530
f 408 530 374
f 530 405 374
f 532 515 514
f 532 515 480
f 402 515 533
f 402 533 360
f 533 407 480
f 533 407 360
f 480 532 481
f 405 506 373
f 506 406 373
f 403 486 365
f 404 486 365
f 401 513 534
f 513 535 487
f 513 535 510
f 535 487 484
f 404 487 534
f 404 534 363
f 534 401 363
f 536 526 523
f 536 526 488
f 525 526 537
f 525 537 343
f 537 403 488
f 537 403 343
f 488 536 489
f 401 512 362
f 402 512 362
f 400 517 357
f 517 351 357
f 398 494 341
f 399 494 341
f 400 520 538
f 520 539 495
f 520 539 519
f 539 495 492
f 399 495 538
f 399 538 345
f 538 400 345
f 540 527 524
f 540 527 496
f 525 527 541
f 525 541 343
f 541 398 496
f 541 398 343
f 496 540 497
f 67 412 542
f 472 67 542
f 473 471 470
f 479 476 475
f 477 478 475
f 481 480 477
f 487 484 483
f 485 486 483
f 489 488 485
f 495 492 491
f 493 494 491
f 497 496 493
f 499 503 498
f 502 500 498
f 507 505 504
f 502 506 504
f 513 510 509
f 512 511 509
f 515 514 511
f 518 517 516
f 520 519 518
f 527 524 522
f 526 523 522
f 529 471 499
f 479 530 507
f 533 480 515
f 487 534 513
f 537 488 526
f 495 538 520
f 541 496 527
f 76 418 426
f 426 76 446
f 76 446 449
f 76 449 435
f 543 544 545
f 543 544 546
f 546 543 540
f 544 546 547
f 548 549 539
f 548 549 550
f 550 548 551
f 549 550 552
f 553 554 552
f 553 554 547
f 555 556 557
f 555 556 551
f 558 559 560
f 558 559 561
f 562 563 545
f 562 563 564
f 564 562 536
f 563 564 565
f 566 567 535
f 566 567 568
f 568 566 561
f 567 568 569
f 570 571 569
f 570 571 565
f 572 573 574
f 572 573 575
f 576 577 560
f 576 577 578
f 578 576 532
f 577 578 579
f 580 581 531
f 580 581 582
f 582 580 575
f 581 582 583
f 584 585 583
f 584 585 579
f 586 587 422
f 586 587 588
f 588 586 528
f 587 588 589
f 454 39 452
f 420 421 574
f 320 321 590
f 321 590 591
f 321 591 592
f 593 562 545
f 593 562 523
f 523 593 521
f 562 523 536
f 593 543 545
f 593 543 524
f 524 593 521
f 543 524 540
f 594 548 551
f 594 548 519
f 519 594 321
f 548 519 539
f 595 594 321
f 595 594 556
f 556 595 557
f 594 556 551
f 321 592 595
f 592 557 596
f 592 557 595
f 597 576 560
f 597 576 514
f 514 597 508
f 576 514 532
f 598 559 561
f 598 559 597
f 597 598 508
f 559 597 560
f 598 566 561
f 598 566 510
f 510 598 508
f 566 510 535
f 599 573 575
f 599 573 600
f 600 599 501
f 573 600 574
f 599 580 575
f 599 580 505
f 505 599 501
f 580 505 531
f 601 600 501
f 601 600 421
f 421 601 422
f 600 421 574
f 601 503 501
f 601 503 586
f 586 601 422
f 503 586 528
f 602 497 490
f 602 497 546
f 546 602 547
f 497 546 540
f 603 544 545
f 603 544 547
f 604 550 551
f 604 550 552
f 605 554 552
f 605 554 602
f 602 605 490
f 554 602 547
f 605 549 552
f 605 549 492
f 492 605 490
f 549 492 539
f 603 547 553
f 553 552 604
f 557 596 606
f 604 551 555
f 555 557 606
f 558 561 607
f 558 560 608
f 609 489 482
f 609 489 564
f 564 609 565
f 489 564 536
f 603 545 563
f 603 563 565
f 561 607 568
f 607 568 569
f 610 571 569
f 610 571 609
f 609 610 482
f 571 609 565
f 610 567 569
f 610 567 484
f 484 610 482
f 567 484 535
f 603 565 570
f 570 569 607
f 572 575 611
f 572 574 612
f 613 481 474
f 613 481 578
f 578 613 579
f 481 578 532
f 560 608 577
f 608 577 579
f 575 611 582
f 611 582 583
f 614 585 583
f 614 585 613
f 613 614 474
f 585 613 579
f 614 581 583
f 614 581 476
f 476 614 474
f 581 476 531
f 608 579 584
f 584 583 611
f 465 542 412
f 465 542 472
f 615 473 472
f 615 473 588
f 588 615 589
f 473 588 528
f 465 472 615
f 465 589 616
f 465 589 615
f 589 616 617
f 589 617 587
f 617 587 422
f 574 612 420
f 420 422 617
f 465 412 618
f 412 618 72
f 412 618 411
f 72 412 411
f 454 87 39
f 103 619 620
f 621 111 622
f 620 622 623
f 624 625 623
f 621 118 432
f 626 625 627
f 432 627 628
f 124 629 628
f 629 128 630
f 631 626 632
f 630 632 633
f 134 634 633
f 635 636 637
f 138 638 639
f 637 639 640
f 641 642 640
f 138 140 643
f 149 642 143
f 643 143 644
f 145 645 644
f 634 149 646
f 647 631 648
f 646 648 649
f 645 650 649
f 156 158 651
f 647 161 652
f 651 652 653
f 163 650 653
f 619 654 655
f 656 624 657
f 655 657 658
f 659 660 658
f 656 175 661
f 662 660 663
f 661 663 430
f 181 429 430
f 185 187 664
f 662 190 665
f 664 665 428
f 192 429 428
f 194 666 667
f 101 668 100
f 668 669 95
f 667 668 669
f 93 94 669
f 200 670 671
f 672 208 673
f 671 673 674
f 675 676 674
f 215 217 677
f 678 222 679
f 677 679 680
f 225 681 680
f 228 230 682
f 683 235 684
f 682 684 685
f 238 686 685
f 683 241 687
f 688 686 689
f 687 689 690
f 247 691 690
f 681 676 692
f 688 678 693
f 692 693 694
f 672 691 694
f 654 253 695
f 696 659 697
f 695 697 698
f 259 699 698
f 262 700 701
f 696 267 702
f 701 702 703
f 704 699 703
f 675 700 705
f 706 670 707
f 705 707 708
f 704 709 708
f 706 277 710
f 711 709 712
f 710 712 713
f 283 714 713
f 715 711 716
f 717 666 718
f 716 718 719
f 714 720 719
f 293 721 722
f 717 299 723
f 722 723 724
f 725 720 724
f 458 303 726
f 454 455 452
f 455 727 452
f 726 455 727
f 728 727 452
f 305 728 727
f 423 728 452
f 728 307 423
f 309 729 730
f 315 317 731
f 730 731 732
f 590 320 732
f 323 729 733
f 734 328 735
f 733 735 736
f 590 591 736
f 333 734 737
f 738 338 739
f 737 739 740
f 591 592 740
f 741 742 553
f 725 738 743
f 618 468 467
f 618 468 72
f 411 72 618
f 618 467 465
f 461 463 744
f 461 744 745
f 382 744 395
f 382 744 745
f 443 462 437
f 443 462 746
f 462 463 747
f 392 744 395
f 392 744 747
f 462 747 746
f 747 392 391
f 617 420 748
f 420 612 749
f 386 748 388
f 386 748 749
f 748 617 750
f 612 749 751
f 749 386 385
f 461 616 745
f 461 616 465
f 616 617 750
f 611 584 752
f 584 608 753
f 611 754 752
f 611 754 572
f 754 370 755
f 754 370 375
f 612 572 755
f 370 755 369
f 755 612 751
f 607 570 756
f 570 603 741
f 607 757 756
f 607 757 558
f 757 457 758
f 757 457 453
f 608 558 758
f 457 758 459
f 758 608 753
f 606 555 759
f 555 604 760
f 354 759 356
f 354 759 760
f 759 606 761
f 604 760 742
f 760 354 353
f 606 596 762
f 596 763 743
f 596 763 592
f 764 762 721
f 764 762 743
f 762 606 761
f 763 743 738
f 743 764 725
f 604 553 742
f 553 603 741
f 763 740 592
f 763 740 739
f 740 765 737
f 740 765 591
f 334 739 338
f 334 739 737
f 739 763 738
f 765 737 734
f 737 334 333
f 765 736 591
f 765 736 735
f 736 766 733
f 736 766 590
f 324 735 328
f 324 735 733
f 735 765 734
f 766 733 729
f 733 324 323
f 316 732 320
f 316 732 731
f 732 766 730
f 732 766 590
f 310 731 317
f 310 731 730
f 731 316 315
f 766 730 729
f 730 310 309
f 761 721 762
f 727 304 726
f 727 304 305
f 455 456 726
f 304 726 303
f 726 456 458
f 767 724 720
f 767 724 723
f 724 764 722
f 724 764 725
f 294 723 299
f 294 723 722
f 723 767 717
f 764 722 721
f 722 294 293
f 767 719 720
f 767 719 718
f 719 768 716
f 719 768 714
f 769 718 666
f 769 718 716
f 718 767 717
f 768 716 711
f 716 769 715
f 768 713 714
f 768 713 712
f 713 278 710
f 713 278 283
f 770 712 709
f 770 712 710
f 712 768 711
f 278 710 277
f 710 770 706
f 770 708 709
f 770 708 707
f 708 771 705
f 708 771 704
f 772 707 670
f 772 707 705
f 707 770 706
f 771 705 700
f 705 772 675
f 773 703 699
f 773 703 702
f 703 771 701
f 703 771 704
f 263 702 267
f 263 702 701
f 702 773 696
f 771 701 700
f 701 263 262
f 773 698 699
f 773 698 697
f 698 254 695
f 698 254 259
f 774 697 659
f 774 697 695
f 697 773 696
f 254 695 253
f 695 774 654
f 775 694 691
f 775 694 693
f 694 776 692
f 694 776 672
f 777 693 678
f 777 693 692
f 693 775 688
f 776 692 676
f 692 777 681
f 775 690 691
f 775 690 689
f 690 242 687
f 690 242 247
f 778 689 686
f 778 689 687
f 689 775 688
f 242 687 241
f 687 778 683
f 778 685 686
f 778 685 684
f 685 231 682
f 685 231 238
f 229 684 235
f 229 684 682
f 684 778 683
f 231 682 230
f 682 229 228
f 777 680 681
f 777 680 679
f 680 218 677
f 680 218 225
f 216 679 222
f 216 679 677
f 679 777 678
f 218 677 217
f 677 216 215
f 776 674 676
f 776 674 673
f 674 772 671
f 674 772 675
f 201 673 208
f 201 673 671
f 673 776 672
f 772 671 670
f 671 201 200
f 669 769 667
f 669 769 715
f 195 668 101
f 195 668 667
f 769 667 666
f 667 195 194
f 779 428 429
f 779 428 665
f 428 188 664
f 428 188 192
f 186 665 190
f 186 665 664
f 665 779 662
f 188 664 187
f 664 186 185
f 779 430 429
f 779 430 663
f 430 176 661
f 430 176 181
f 780 663 660
f 780 663 661
f 663 779 662
f 176 661 175
f 661 780 656
f 780 658 660
f 780 658 657
f 658 774 655
f 658 774 659
f 781 657 624
f 781 657 655
f 657 780 656
f 774 655 654
f 655 781 619
f 782 653 650
f 782 653 652
f 653 159 651
f 653 159 163
f 157 652 161
f 157 652 651
f 652 782 647
f 159 651 158
f 651 157 156
f 782 649 650
f 782 649 648
f 649 783 646
f 649 783 645
f 784 648 631
f 784 648 646
f 648 782 647
f 783 646 149
f 646 784 634
f 783 644 645
f 783 644 143
f 644 141 643
f 644 141 145
f 143 139 642
f 143 139 643
f 143 783 149
f 141 643 140
f 643 139 138
f 139 640 642
f 139 640 639
f 640 785 637
f 640 785 641
f 786 639 638
f 786 639 637
f 639 139 138
f 785 637 636
f 637 786 635
f 784 633 634
f 784 633 632
f 633 129 630
f 633 129 134
f 787 632 626
f 787 632 630
f 632 784 631
f 129 630 128
f 630 787 629
f 787 628 629
f 787 628 627
f 628 119 432
f 628 119 124
f 788 627 625
f 788 627 432
f 627 787 626
f 119 432 118
f 432 788 621
f 788 623 625
f 788 623 622
f 623 781 620
f 623 781 624
f 104 622 111
f 104 622 620
f 622 788 621
f 781 620 619
f 620 104 103
f 394 397 469
f 469 394 746
f 394 746 391
f 382 750 388
f 382 750 745
f 752 56 375
f 752 56 753
f 371 751 369
f 371 751 385
f 756 47 453
f 756 47 741
f 56 753 459
f 297 761 356
f 297 761 721
f 742 47 741
f 742 47 353
f 285 738 338
f 285 738 725
f 329 734 328
f 329 734 333
f 789 315 317
f 313 729 309
f 313 729 323
f 728 306 305
f 728 306 307
f 454 47 87
f 458 55 303
f 720 285 714
f 720 285 725
f 198 717 299
f 198 717 666
f 285 714 283
f 89 711 715
f 89 711 709
f 709 89 704
f 204 706 277
f 204 706 670
f 297 721 293
f 699 89 259
f 699 89 704
f 173 696 267
f 173 696 659
f 213 700 262
f 213 700 675
f 691 209 247
f 691 209 672
f 223 688 678
f 223 688 686
f 686 223 238
f 236 683 241
f 236 683 235
f 681 213 225
f 681 213 676
f 223 678 222
f 213 676 675
f 209 672 208
f 670 204 200
f 715 89 669
f 198 666 194
f 429 183 181
f 429 183 192
f 173 662 190
f 173 662 660
f 660 173 659
f 116 656 175
f 116 656 624
f 107 654 253
f 107 654 619
f 650 147 645
f 650 147 163
f 116 647 161
f 116 647 631
f 147 645 145
f 149 136 634
f 149 136 642
f 642 136 641
f 790 138 140
f 790 138 638
f 634 136 134
f 116 631 626
f 629 126 124
f 629 126 128
f 116 626 625
f 625 116 624
f 112 621 118
f 112 621 111
f 107 619 103
f 101 791 792
f 100 99 668
f 98 99 668
f 792 100 101
f 95 94 669
f 94 793 93
f 98 97 668
f 95 97 668
f 92 91 669
f 89 91 259
f 89 91 669
f 92 93 669
f 636 794 635
f 158 795 156
f 187 796 185
f 217 797 215
f 230 798 228
f 397 469 424
f 469 424 14
f 746 469 443
f 469 443 6
f 744 747 463
f 391 746 747
f 748 749 420
f 750 388 748
f 751 385 749
f 750 745 616
f 753 752 584
f 375 752 754
f 572 755 754
f 751 369 755
f 741 756 570
f 453 756 757
f 558 758 757
f 753 459 758
f 759 760 555
f 761 356 759
f 353 742 760
f 762 743 596
f 799 800 801
f 800 802 801
f 800 802 803
f 804 805 806
f 804 805 807
f 805 808 806
f 805 808 807
f 808 809 806
f 808 809 807
f 810 804 806
f 810 804 807
f 809 811 806
f 809 811 812
f 813 810 814
f 813 810 812
f 811 799 814
f 811 799 812
f 802 813 801
f 802 813 803
f 809 807 812
f 807 812 810
f 803 812 813
f 803 812 799
f 806 814 810
f 806 814 811
f 813 814 801
f 799 814 801
f 815 816 817
f 816 817 818
f 816 818 819
f 816 820 819
f 820 819 821
f 818 819 822
f 819 822 823
f 822 823 824
f 819 821 823
f 821 823 825
f 823 825 826
f 823 824 827
f 823 827 826
f 817 828 815
f 817 828 818
f 828 818 829
f 818 829 822
f 829 822 830
f 829 821 820
f 829 821 825
f 829 825 830
f 829 820 828
f 820 828 815
f 822 830 824
f 825 830 826
f 830 826 827
f 830 827 824
f 815 816 820
f 799 800 803
f 831 832 833
f 831 832 834
f 835 836 837
f 835 837 838
f 839 836 835
f 839 835 838
f 839 837 835
f 839 837 838
f 839 837 836
f 840 841 842
f 840 843 842
f 841 844 840
f 844 840 842
f 841 843 840
f 841 843 842
f 845 846 847
f 845 848 846
f 849 845 847
f 841 844 842
f 849 846 848
f 849 846 845
f 849 846 847
f 850 851 852
f 850 853 852
f 850 854 852
f 853 851 850
f 853 851 852
f 849 848 845
f 853 854 852
f 855 856 857
f 855 858 856
f 859 855 857
f 859 858 855
f 859 856 858
f 859 856 855
f 859 856 857
f 860 861 862
f 860 863 862
f 853 854 850
f 863 861 860
f 863 861 862
f 863 864 860
f 863 864 862
f 865 866 867
f 865 868 866
f 869 865 867
f 869 868 865
f 869 866 868
f 869 866 865
f 869 866 867
f 870 871 872
f 870 873 872
f 870 874 872
f 873 871 870
f 873 871 872
f 873 874 870
f 873 874 872
f 864 860 862
f 870 875 873
f 876 870 874
f 876 875 870
f 877 878 879
f 877 878 880
f 877 878 881
f 882 883 884
f 882 885 884
f 882 886 884
f 885 883 882
f 885 883 884
f 885 886 882
f 885 886 884
f 887 888 889
f 887 890 888
f 891 887 889
f 891 890 887
f 876 873 875
f 891 888 890
f 876 873 870
f 831 892 834
f 877 879 880
f 891 888 889
f 893 894 895
f 896 897 898
f 893 899 895
f 896 900 898
f 893 901 895
f 896 902 898
f 900 897 896
f 900 897 898
f 900 902 896
f 900 902 898
f 899 894 893
f 899 894 895
f 899 901 893
f 899 901 895
f 903 904 905
f 903 906 904
f 907 903 905
f 907 906 903
f 907 904 906
f 907 904 903
f 907 904 905
f 908 909 910
f 908 911 910
f 908 912 910
f 911 909 908
f 911 909 910
f 911 912 908
f 911 912 910
f 913 914 915
f 913 916 914
f 917 913 915
f 917 916 913
f 917 914 916
f 917 914 913
f 917 914 915
f 918 919 920
f 831 892 833
f 832 833 834
f 833 831 834
f 892 833 834
f 921 922 923
f 921 922 924
f 921 922 925
f 921 925 924
f 921 924 923
f 925 924 922
f 922 924 923
f 926 927 928
f 926 927 929
f 926 930 928
f 926 930 929
f 927 929 928
f 929 926 928
f 930 929 928
f 931 932 933
f 931 932 934
f 931 932 935
f 931 935 934
f 931 934 933
f 935 934 932
f 932 934 933
f 936 937 938
f 936 937 939
f 891 888 887
f 918 940 920
f 918 941 920
f 940 919 918
f 940 919 920
f 940 941 918
f 940 941 920
f 942 943 944
f 942 945 943
f 946 942 944
f 946 945 942
f 946 943 945
f 946 943 942
f 946 943 944
f 947 948 949
f 947 950 949
f 947 951 949
f 950 948 947
f 950 948 949
f 950 951 947
f 950 951 949
f 952 953 954
f 952 955 953
f 956 952 954
f 956 955 952
f 956 953 955
f 956 953 952
f 956 953 954
f 957 958 959
f 957 960 959
f 957 961 959
f 960 958 957
f 960 958 959
f 960 961 957
f 960 961 959
f 962 963 964
f 962 965 963
f 966 962 964
f 966 965 962
f 966 963 965
f 966 963 962
f 966 963 964
f 936 967 938
f 936 967 939
f 937 939 938
f 939 936 938
f 967 939 938
f 968 969 970
f 968 969 971
f 968 969 972
f 968 972 971
f 968 971 970
f 972 971 969
f 969 971 970
f 888 973 974
f 888 973 975
f 888 976 974
f 888 976 975
f 973 975 974
f 975 888 974
f 976 975 974
f 977 978 979
f 977 978 980
f 977 978 981
f 977 981 980
f 977 980 979
f 981 980 978
f 978 980 979
f 876 873 874
f 877 880 881
f 982 983 984
f 982 985 984
f 982 986 984
f 985 983 982
f 985 983 984
f 985 986 982
f 985 986 984
f 878 880 881
f 879 880 878
