v 8.20 29.02 -19.98
v 8.20 29.02 -6.65
v 8.20 29.02 6.69
v 8.20 29.02 20.02
v 5.62 19.36 20.02
v 5.62 19.36 6.69
v 5.62 19.36 -6.65
v 5.62 19.36 -19.98
v 21.65 21.26 -19.98
v 21.65 21.26 -6.65
v 21.65 21.26 6.69
v 21.65 21.26 20.02
v 14.58 14.19 20.02
v 14.58 14.19 6.69
v 14.58 14.19 -6.65
v 14.58 14.19 -19.98
v 29.42 7.81 -19.98
v 29.42 7.81 -6.65
v 29.42 7.81 6.69
v 29.42 7.81 20.02
v 19.76 5.22 20.02
v 19.76 5.22 6.69
v 19.76 5.22 -6.65
v 19.76 5.22 -19.98
v 29.42 -7.72 -19.98
v 29.42 -7.72 -6.65
v 29.42 -7.72 6.69
v 29.42 -7.72 20.02
v 19.76 -5.13 20.02
v 19.76 -5.13 6.69
v 19.76 -5.13 -6.65
v 19.76 -5.13 -19.98
v 21.65 -21.17 -19.98
v 21.65 -21.17 -6.65
v 21.65 -21.17 6.69
v 21.65 -21.17 20.02
v 14.58 -14.10 20.02
v 14.58 -14.10 6.69
v 14.58 -14.10 -6.65
v 14.58 -14.10 -19.98
v 8.20 -28.93 -19.98
v 8.20 -28.93 -6.65
v 8.20 -28.93 6.69
v 8.20 -28.93 20.02
v 5.62 -19.27 20.02
v 5.62 -19.27 6.69
v 5.62 -19.27 -6.65
v 5.62 -19.27 -19.98
v -7.32 -28.93 -19.98
v -7.32 -28.93 -6.65
v -7.32 -28.93 6.69
v -7.32 -28.93 20.02
v -4.74 -19.27 20.02
v -4.74 -19.27 6.69
v -4.74 -19.27 -6.65
v -4.74 -19.27 -19.98
v -20.77 -21.17 -19.98
v -20.77 -21.17 -6.65
v -20.77 -21.17 6.69
v -20.77 -21.17 20.02
v -13.70 -14.10 20.02
v -13.70 -14.10 6.69
v -13.70 -14.10 -6.65
v -13.70 -14.10 -19.98
v -28.54 -7.72 -19.98
v -28.54 -7.72 -6.65
v -28.54 -7.72 6.69
v -28.54 -7.72 20.02
v -18.88 -5.13 20.02
v -18.88 -5.13 6.69
v -18.88 -5.13 -6.65
v -18.88 -5.13 -19.98
v -28.54 7.81 -19.98
v -28.54 7.81 -6.65
v -28.54 7.81 6.69
v -28.54 7.81 20.02
v -18.88 5.22 20.02
v -18.88 5.22 6.69
v -18.88 5.22 -6.65
v -18.88 5.22 -19.98
v -20.77 21.26 -19.98
v -20.77 21.26 -6.65
v -20.77 21.26 6.69
v -20.77 21.26 20.02
v -13.70 14.19 20.02
v -13.70 14.19 6.69
v -13.70 14.19 -6.65
v -13.70 14.19 -19.98
v -7.32 29.02 -19.98
v -7.32 29.02 -6.65
v -7.32 29.02 6.69
v -7.32 29.02 20.02
v -4.74 19.36 20.02
v -4.74 19.36 6.69
v -4.74 19.36 -6.65
v -4.74 19.36 -19.98
f 1 10 9
f 1 2 10
f 2 11 10
f 2 3 11
f 3 12 11
f 3 4 12
f 4 13 12
f 4 5 13
f 5 14 13
f 5 6 14
f 6 15 14
f 6 7 15
f 7 16 15
f 7 8 16
f 8 9 16
f 8 1 9
f 9 18 17
f 9 10 18
f 10 19 18
f 10 11 19
f 11 20 19
f 11 12 20
f 12 21 20
f 12 13 21
f 13 22 21
f 13 14 22
f 14 23 22
f 14 15 23
f 15 24 23
f 15 16 24
f 16 17 24
f 16 9 17
f 17 26 25
f 17 18 26
f 18 27 26
f 18 19 27
f 19 28 27
f 19 20 28
f 20 29 28
f 20 21 29
f 21 30 29
f 21 22 30
f 22 31 30
f 22 23 31
f 23 32 31
f 23 24 32
f 24 25 32
f 24 17 25
f 25 34 33
f 25 26 34
f 26 35 34
f 26 27 35
f 27 36 35
f 27 28 36
f 28 37 36
f 28 29 37
f 29 38 37
f 29 30 38
f 30 39 38
f 30 31 39
f 31 40 39
f 31 32 40
f 32 33 40
f 32 25 33
f 33 42 41
f 33 34 42
f 34 43 42
f 34 35 43
f 35 44 43
f 35 36 44
f 36 45 44
f 36 37 45
f 37 46 45
f 37 38 46
f 38 47 46
f 38 39 47
f 39 48 47
f 39 40 48
f 40 41 48
f 40 33 41
f 41 50 49
f 41 42 50
f 42 51 50
f 42 43 51
f 43 52 51
f 43 44 52
f 44 53 52
f 44 45 53
f 45 54 53
f 45 46 54
f 46 55 54
f 46 47 55
f 47 56 55
f 47 48 56
f 48 49 56
f 48 41 49
f 49 58 57
f 49 50 58
f 50 59 58
f 50 51 59
f 51 60 59
f 51 52 60
f 52 61 60
f 52 53 61
f 53 62 61
f 53 54 62
f 54 63 62
f 54 55 63
f 55 64 63
f 55 56 64
f 56 57 64
f 56 49 57
f 57 66 65
f 57 58 66
f 58 67 66
f 58 59 67
f 59 68 67
f 59 60 68
f 60 69 68
f 60 61 69
f 61 70 69
f 61 62 70
f 62 71 70
f 62 63 71
f 63 72 71
f 63 64 72
f 64 65 72
f 64 57 65
f 65 74 73
f 65 66 74
f 66 75 74
f 66 67 75
f 67 76 75
f 67 68 76
f 68 77 76
f 68 69 77
f 69 78 77
f 69 70 78
f 70 79 78
f 70 71 79
f 71 80 79
f 71 72 80
f 72 73 80
f 72 65 73
f 73 82 81
f 73 74 82
f 74 83 82
f 74 75 83
f 75 84 83
f 75 76 84
f 76 85 84
f 76 77 85
f 77 86 85
f 77 78 86
f 78 87 86
f 78 79 87
f 79 88 87
f 79 80 88
f 80 81 88
f 80 73 81
f 81 90 89
f 81 82 90
f 82 91 90
f 82 83 91
f 83 92 91
f 83 84 92
f 84 93 92
f 84 85 93
f 85 94 93
f 85 86 94
f 86 95 94
f 86 87 95
f 87 96 95
f 87 88 96
f 88 89 96
f 88 81 89
f 89 2 1
f 89 90 2
f 90 3 2
f 90 91 3
f 91 4 3
f 91 92 4
f 92 5 4
f 92 93 5
f 93 6 5
f 93 94 6
f 94 7 6
f 94 95 7
f 95 8 7
f 95 96 8
f 96 1 8
f 96 89 1
