v -142.16 19.01 10.11
v -142.15 19.01 -5.87
v -153.57 21.19 6.73
v -171.34 18.40 -7.87
v -153.56 21.19 -2.48
v -171.34 18.40 12.12
v -170.04 21.82 -6.34
v -170.04 21.82 9.86
v -189.65 20.44 10.23
v -187.45 18.06 -7.87
v -187.45 18.06 12.12
v -189.64 20.44 -5.98
v -207.43 17.65 -7.87
v -205.84 20.10 -5.98
v -207.43 17.65 12.12
v -205.84 20.10 10.23
v -215.18 19.33 -11.60
v -138.99 18.69 17.29
v -215.19 19.89 17.38
v -139.06 18.13 -11.62
v -215.23 21.80 17.45
v -139.03 20.61 17.36
v -215.22 21.24 -11.53
v -139.10 20.05 -11.55
v -219.08 -2.51 2.71
v -216.11 3.63 8.76
v -216.16 6.00 3.01
v -215.99 -2.12 11.14
v -215.82 -10.27 7.25
v -215.82 -10.24 3.01
v -215.82 -10.27 -1.93
v -215.99 -2.12 -5.11
v -216.11 3.63 -2.73
v -219.74 -13.86 -7.39
v -216.25 9.66 -8.39
v -215.71 -15.91 -8.39
v -220.19 7.44 -7.39
v -216.25 9.66 14.17
v -220.19 7.44 13.17
v -215.71 -15.91 14.17
v -219.74 -13.86 13.17
v 213.26 -17.11 -10.84
v 21.63 -4.71 -15.07
v 21.61 -16.26 -17.57
v 212.93 -8.48 -8.89
v -48.98 -4.65 -15.78
v -49.35 -15.32 -20.49
v -211.18 -20.56 -24.85
v -118.14 -21.96 -24.87
v -118.15 -25.51 -24.16
v -211.21 -24.20 -24.16
v -211.38 -31.39 -61.13
v -118.69 -61.56 -209.45
v -174.30 -60.71 -209.42
v -118.29 -32.67 -61.13
v -174.26 -57.16 -210.07
v -118.66 -58.01 -210.14
v -118.26 -29.06 -61.84
v -211.30 -27.77 -61.84
v -193.89 -40.35 -83.68
v -193.70 -31.57 -59.88
v -193.82 -36.35 -84.44
v -114.16 -41.47 -83.68
v -114.10 -32.74 -59.90
v -114.15 -37.47 -84.49
v -193.97 -47.40 -56.87
v -114.28 -48.52 -56.84
v -114.22 -41.69 -21.68
v -193.82 -40.55 -21.68
v -114.02 -25.91 -24.78
v -193.60 -24.72 -24.74
v -115.45 -59.61 -198.80
v -115.47 -60.89 -205.05
v -170.88 -58.74 -198.76
v -170.92 -60.02 -204.96
v -115.58 -64.44 -194.63
v -170.96 -63.54 -194.61
v -115.65 -70.37 -196.68
v -171.01 -69.55 -196.66
v -115.63 -71.62 -202.91
v -171.07 -70.78 -202.91
v -115.57 -66.82 -207.04
v -170.97 -66.00 -207.06
v -114.79 -64.53 -200.37
v -114.81 -64.80 -201.68
v -114.77 -65.56 -199.36
v -114.81 -66.96 -199.81
v -114.81 -67.14 -201.26
v -114.78 -66.12 -202.17
v 11.49 -68.00 -202.13
v 11.45 -69.09 -201.15
v 11.40 -68.72 -199.79
v 11.44 -67.44 -199.38
v 11.44 -66.37 -200.28
v 11.47 -66.64 -201.66
v 23.41 -67.88 -200.68
v 14.29 -71.38 -200.63
v 14.35 -71.18 -199.45
v 14.43 -64.37 -200.72
v 14.30 -64.64 -201.93
v -174.00 -65.19 -203.53
v -174.03 -67.36 -201.70
v -174.01 -66.80 -199.03
v -173.96 -64.19 -198.13
v -173.93 -62.11 -199.96
v -173.99 -62.65 -202.64
v -177.68 -62.06 -199.96
v -177.76 -62.55 -202.60
v -177.75 -64.11 -198.11
v -177.79 -66.74 -199.00
v -177.78 -67.28 -201.68
v -177.75 -65.20 -203.53
v -177.79 -65.69 -206.19
v -177.79 -69.85 -202.60
v -177.79 -68.82 -197.22
v -177.72 -63.62 -195.41
v -177.69 -59.44 -199.03
v -177.70 -60.47 -204.43
v -183.70 -59.39 -199.05
v -183.72 -60.42 -204.47
v -183.75 -63.50 -195.48
v -183.82 -68.72 -197.22
v -183.84 -69.75 -202.57
v -183.79 -65.60 -206.21
v -101.69 -50.64 -57.04
v -101.47 -42.34 -22.29
v -101.62 -43.79 -22.00
v -101.46 -49.21 -57.33
v -114.01 -38.05 -55.97
v -101.33 -38.25 -56.02
v -101.23 -30.15 -48.50
v -101.23 -28.10 -37.61
v -113.87 -29.95 -48.46
v -101.27 -32.74 -27.57
v -113.89 -27.85 -37.59
v -113.92 -32.51 -27.60
v -114.06 -42.18 -22.20
v -114.11 -48.99 -57.36
v -114.23 -43.61 -21.95
v -114.33 -50.42 -57.07
v -114.42 -60.08 -51.71
v -101.76 -60.29 -51.65
v -114.54 -64.75 -41.67
v -101.84 -64.91 -41.65
v -114.52 -62.61 -30.92
v -101.84 -62.81 -30.79
v -114.40 -54.55 -23.27
v -101.79 -54.73 -23.36
v -177.84 -53.36 -22.08
v -177.96 -61.46 -29.63
v -177.99 -63.56 -40.45
v -177.95 -58.89 -50.44
v -177.77 -49.25 -55.80
v -177.65 -42.42 -20.70
v -177.46 -58.95 -38.04
v -182.00 -54.22 -45.00
v -177.47 -57.57 -37.81
v -177.44 -56.45 -36.79
v -177.40 -56.23 -35.34
v -181.92 -49.67 -40.58
v -177.46 -56.78 -33.98
v -181.92 -48.40 -34.31
v -177.50 -58.08 -33.28
v -181.93 -51.01 -28.60
v -177.54 -59.53 -33.44
v -181.97 -56.48 -25.52
v -177.56 -60.60 -34.47
v -182.09 -62.68 -26.30
v -177.53 -60.85 -35.89
v -182.24 -67.31 -30.67
v -177.54 -60.27 -37.34
v -182.19 -68.53 -36.97
v -182.16 -65.92 -42.77
v -182.09 -60.43 -45.84
v -239.08 -65.10 -42.68
v -239.06 -59.66 -45.82
v -239.15 -67.74 -36.94
v -239.13 -66.56 -30.58
v -239.03 -61.91 -26.19
v -238.94 -55.66 -25.43
v -238.92 -50.22 -28.51
v -238.86 -47.60 -34.29
v -238.86 -48.81 -40.60
v -238.94 -53.41 -45.04
v -261.61 -53.73 -43.66
v -261.53 -49.84 -39.93
v -261.55 -48.77 -34.58
v -261.57 -51.03 -29.65
v -261.63 -55.69 -27.02
v -261.72 -60.94 -27.75
v -261.75 -64.84 -31.45
v -261.80 -65.85 -36.81
v -261.76 -63.68 -41.70
v -261.70 -59.02 -44.37
v -260.41 24.20 50.22
v -260.35 28.11 53.97
v -237.79 22.51 50.91
v -237.75 27.13 55.31
v -260.45 23.15 44.87
v -237.83 21.33 44.67
v -260.41 25.41 40.00
v -237.75 23.96 38.84
v -260.37 30.11 37.33
v -237.66 29.41 35.77
v -260.28 35.34 38.00
v -237.64 35.61 36.52
v -260.19 39.29 41.70
v -237.58 40.25 40.99
v -260.16 40.27 47.12
v -237.58 41.44 47.26
v -260.21 38.08 51.99
v -237.64 38.78 53.01
v -260.26 33.42 54.62
v -237.63 33.34 56.13
v -180.76 32.47 56.05
v -180.65 37.99 52.99
v -180.59 40.53 47.23
v -180.63 39.37 40.92
v -180.69 34.75 36.50
v -180.79 28.55 35.74
v -180.85 23.03 38.80
v -180.89 20.44 44.60
v -180.91 21.63 50.94
v -180.81 26.29 55.22
v -176.25 28.37 47.05
v -176.21 29.45 48.10
v -176.27 28.10 45.58
v -176.22 28.69 44.27
v -176.20 30.00 43.53
v -176.18 31.45 43.78
v -176.18 32.53 44.71
v -176.15 32.82 46.23
v -176.13 32.19 47.57
v -176.19 30.90 48.24
v -176.77 21.20 66.09
v -176.57 30.84 60.73
v -176.83 14.35 30.97
v -176.45 35.53 50.74
v -176.58 33.43 39.89
v -176.66 25.35 32.35
v -113.13 32.75 41.10
v -113.25 24.63 33.51
v -113.08 34.87 51.94
v -113.16 30.21 61.89
v -113.25 20.52 67.29
v -113.37 13.69 32.22
v -113.42 0.05 58.68
v -113.33 8.14 66.20
v -100.77 -0.10 58.72
v -100.71 7.93 66.24
v -113.49 -2.04 47.81
v -100.79 -2.22 47.86
v -113.39 2.62 37.82
v -100.75 2.40 37.86
v -113.26 12.26 32.42
v -100.62 12.06 32.49
v -113.13 19.07 67.58
v -100.50 18.91 67.58
v -100.76 13.46 32.22
v -100.61 20.30 67.22
v -100.51 30.00 61.96
v -100.47 34.60 51.94
v -100.49 32.53 41.10
v -100.64 24.47 33.56
v -182.23 37.69 216.50
v -176.29 32.39 214.74
v -182.34 32.51 214.69
v -182.34 31.41 209.29
v -182.30 35.63 205.70
v -176.29 31.34 209.34
v -182.25 40.79 207.51
v -176.27 35.54 205.72
v -182.20 41.86 212.91
v -176.20 40.71 207.51
v -176.18 41.76 212.91
v -176.27 37.59 216.48
v -176.17 39.13 212.02
v -176.21 37.10 213.78
v -176.22 38.62 209.32
v -176.30 36.03 208.40
v -176.26 33.95 210.16
v -176.20 34.47 212.91
v -172.52 34.43 212.91
v -172.55 33.90 210.19
v -172.44 36.00 208.42
v -172.45 38.61 209.34
v -172.46 39.10 211.99
v -172.51 37.02 213.76
v 15.72 30.88 212.15
v 12.97 32.96 211.90
v 15.88 30.63 210.97
v 12.98 32.72 210.48
v 24.96 33.86 210.88
v 13.00 33.79 209.58
v 15.93 37.64 210.86
v 12.97 35.13 210.05
v 16.05 37.42 209.67
v 12.99 35.39 211.41
v 13.01 34.32 212.33
v -113.29 37.21 211.53
v -113.26 36.12 212.44
v -113.28 36.97 210.14
v -113.30 35.63 209.63
v -113.32 34.53 210.59
v -113.30 34.82 211.99
v -169.39 42.46 213.18
v -169.40 37.67 217.37
v -169.43 41.24 207.00
v -169.52 35.25 204.90
v -169.58 30.45 209.05
v -169.54 31.68 215.23
v -114.11 30.88 215.25
v -114.16 29.67 209.05
v -114.03 34.47 204.90
v -113.94 40.46 206.95
v -113.96 41.68 213.20
v -114.06 36.88 217.35
v -193.25 -2.84 35.07
v -113.70 -4.01 35.01
v -193.05 12.94 32.00
v -113.42 11.79 31.88
v -113.32 18.65 67.00
v -193.01 19.77 67.13
v -113.59 2.80 70.12
v -193.24 3.96 70.17
v -193.23 8.74 94.73
v -113.47 7.55 94.73
v -193.13 12.67 93.97
v -113.42 11.48 93.93
v -210.86 0.67 72.15
v -117.83 -0.68 72.09
v -117.34 28.16 220.36
v -172.96 28.96 220.38
v -210.80 4.17 71.42
v -117.79 2.86 71.40
v -117.26 31.73 219.71
v -172.88 32.55 219.69
v -117.89 -4.26 34.32
v -210.90 -2.90 34.45
v -117.95 -7.81 35.07
v -210.98 -6.50 35.19
v -261.48 -48.30 47.86
v -261.55 -52.10 51.72
v -238.85 -47.27 48.48
v -238.91 -51.71 53.03
v -261.49 -47.43 42.44
v -238.87 -46.24 42.24
v -261.53 -49.84 37.60
v -238.90 -49.03 36.48
v -261.61 -54.57 35.23
v -238.98 -54.64 33.56
v -261.70 -59.84 36.08
v -239.10 -60.84 34.58
v -261.73 -63.61 39.92
v -239.14 -65.28 39.13
v -261.74 -64.49 45.31
v -239.12 -66.27 45.45
v -261.68 -62.07 50.11
v -239.09 -63.43 51.16
v -261.64 -57.32 52.59
v -239.03 -57.87 54.08
v -182.04 -58.73 54.04
v -182.15 -64.29 51.18
v -182.24 -67.13 45.47
v -182.20 -66.10 39.16
v -182.09 -61.68 34.54
v -182.06 -55.43 33.56
v -181.93 -49.87 36.46
v -181.86 -47.04 42.19
v -181.88 -48.02 48.48
v -181.95 -52.53 53.03
v -177.45 -55.07 44.87
v -177.45 -56.09 45.96
v -177.48 -54.82 43.40
v -177.44 -55.47 42.12
v -177.44 -56.78 41.39
v -177.47 -58.23 41.68
v -177.45 -59.24 42.73
v -177.49 -59.51 44.20
v -177.48 -58.86 45.52
v -177.47 -57.54 46.25
v -177.80 -47.17 63.65
v -177.88 -57.02 58.61
v -177.60 -41.57 28.38
v -177.95 -62.04 48.79
v -177.90 -60.34 37.91
v -177.82 -52.51 30.10
v -114.48 -61.47 39.09
v -114.40 -53.63 31.21
v -114.58 -63.19 49.98
v -114.41 -58.19 59.79
v -114.28 -48.36 64.86
v -114.20 -42.76 29.56
v -113.88 -28.25 55.53
v -113.98 -36.02 63.34
v -101.25 -28.39 55.53
v -101.28 -36.20 63.30
v -113.90 -26.44 44.65
v -101.19 -26.69 44.65
v -113.88 -31.49 34.74
v -101.31 -31.67 34.76
v -114.07 -41.31 29.85
v -101.44 -41.49 29.79
v -114.16 -46.96 65.10
v -101.46 -47.14 65.06
v -101.63 -42.92 29.56
v -101.58 -48.57 64.81
v -101.80 -58.39 59.79
v -101.90 -63.37 49.98
v -101.89 -61.63 39.07
v -101.78 -53.84 31.24
v -183.63 -58.27 214.52
v -177.58 -53.31 212.55
v -183.61 -53.19 212.55
v -183.58 -52.32 207.06
v -183.64 -56.62 203.69
v -177.53 -52.41 207.13
v -183.74 -61.71 205.64
v -177.57 -56.70 203.69
v -183.70 -62.58 211.08
v -177.67 -61.85 205.61
v -177.74 -62.64 211.08
v -177.58 -58.42 214.52
v -177.66 -60.14 210.10
v -177.61 -57.97 211.84
v -177.65 -59.67 207.35
v -177.61 -57.12 206.42
v -177.59 -54.98 208.09
v -177.58 -55.40 210.83
v -173.87 -55.48 210.77
v -173.79 -55.06 208.11
v -173.84 -57.18 206.37
v -173.87 -59.77 207.38
v -173.91 -60.17 210.08
v -173.91 -58.03 211.82
v 14.40 -57.50 210.03
v 11.58 -59.52 209.87
v 14.53 -57.31 208.83
v 11.62 -59.29 208.42
v 23.55 -60.85 208.87
v 11.60 -60.39 207.60
v 14.45 -64.26 208.98
v 11.56 -61.71 208.09
v 14.54 -64.10 207.76
v 11.57 -61.93 209.50
v 11.59 -60.81 210.32
v -114.75 -60.05 209.54
v -114.66 -58.99 210.43
v -114.69 -59.84 208.18
v -114.72 -58.50 207.64
v -114.72 -57.46 208.56
v -114.69 -57.66 209.94
v -170.94 -63.52 211.37
v -170.86 -58.63 215.32
v -170.91 -62.52 205.12
v -170.88 -56.65 202.85
v -170.80 -51.71 206.82
v -170.78 -52.74 213.06
v -115.34 -53.56 213.06
v -115.31 -52.58 206.86
v -115.45 -57.49 202.80
v -115.49 -63.41 205.10
v -115.53 -64.39 211.35
v -115.41 -59.50 215.39
v -193.55 -23.76 31.79
v -114.02 -24.93 31.68
v -193.84 -39.65 29.27
v -114.22 -40.89 29.21
v -114.28 -46.49 64.55
v -193.95 -45.24 64.61
v -114.03 -30.55 67.07
v -193.77 -29.34 67.11
v -193.77 -33.27 91.85
v -114.11 -34.48 91.76
v -193.85 -37.31 91.21
v -114.18 -38.48 91.16
v -211.23 -25.49 68.90
v -118.21 -26.89 68.90
v -118.50 -50.55 218.08
v -174.15 -49.73 218.08
v -211.31 -29.06 68.36
v -118.32 -30.46 68.25
v -118.54 -54.17 217.57
v -174.18 -53.35 217.55
v -118.15 -24.55 31.10
v -211.17 -23.19 31.19
v -118.12 -20.95 31.66
v -211.20 -19.60 31.73
v -139.16 11.97 -21.77
v -78.88 -15.02 -25.94
v -139.50 -14.13 -25.90
v -139.91 -39.22 -22.11
v -140.01 -45.44 4.44
v -78.58 -30.12 -21.79
v -139.98 -38.39 26.51
v -78.68 -36.26 4.89
v -139.59 -13.03 34.09
v -78.65 -29.23 26.93
v -139.16 12.12 29.18
v -78.85 -13.97 34.07
v -78.49 11.21 29.25
v -78.38 19.69 17.40
v -78.39 19.22 -11.60
v -78.51 11.14 -21.84
v -49.13 0.84 -11.31
v -49.13 1.87 -14.61
v -49.12 1.36 17.74
v -49.12 1.69 21.71
v -49.39 -14.51 25.37
v -49.52 -21.99 19.17
v -49.58 -25.48 4.71
v -49.49 -22.55 -14.81
v -49.35 -15.32 -20.01
v 21.61 -16.26 -17.09
v 21.44 -29.14 -9.43
v 21.41 -29.90 4.78
v 21.40 -28.65 16.91
v 21.62 -15.66 21.80
v 21.84 0.66 21.71
v 19.55 14.91 17.49
v 19.52 14.47 -11.55
v 21.88 0.79 -14.59
v 214.38 -6.91 -6.62
v 214.32 -6.47 -8.85
v 214.44 -6.64 13.01
v 214.35 -6.56 15.78
v 214.15 -17.63 15.80
v 214.03 -26.47 12.47
v 214.00 -27.32 4.29
v 214.03 -26.74 -5.33
v 214.19 -18.10 -10.53
v 215.30 -18.14 -11.42
v 215.12 -26.54 -5.35
v 215.13 -27.07 4.24
v 215.07 -26.18 12.50
v 215.25 -17.67 17.34
v 215.48 -6.58 16.80
v 215.53 -3.27 13.41
v 215.51 -3.61 -6.22
v 215.43 -6.29 -9.90
v -102.41 27.02 10.91
v -103.64 32.44 2.88
v -97.81 26.80 2.88
v -105.22 32.54 5.71
v -105.22 32.40 0.02
v -102.42 26.71 -4.95
v -108.55 32.49 0.02
v -111.66 26.83 -4.97
v -110.22 32.55 2.88
v -116.26 27.04 2.95
v -108.53 32.58 5.69
v -111.65 27.14 10.89
v -111.80 19.61 11.00
v -116.40 19.54 3.04
v -111.73 19.33 -4.86
v -102.53 19.23 -4.84
v -97.92 19.26 3.04
v -102.47 19.48 11.00
v -104.40 19.06 -4.77
v -110.34 19.07 -6.80
v -104.40 18.97 -6.78
v -110.32 19.09 -4.68
v -104.33 24.08 -4.82
v -104.33 23.97 -6.87
v -110.27 24.04 -6.89
v -110.27 24.09 -4.82
v -110.16 24.42 13.01
v -110.16 24.40 10.87
v -104.27 24.39 13.03
v -104.25 24.28 10.89
v -110.26 19.40 13.03
v -110.26 19.36 10.98
v -104.30 19.30 10.93
v -104.34 19.30 13.08
v -50.01 1.61 -11.93
v -48.02 24.70 -8.27
v -52.29 3.68 -11.49
v -45.70 22.58 -8.70
v 9.10 14.27 -11.33
v -49.13 1.16 18.36
v -48.32 25.34 15.46
v -51.66 3.67 18.10
v -45.82 22.80 15.75
v 13.46 14.83 17.43
v -67.46 21.55 15.20
v -48.26 25.27 13.90
v -67.21 21.35 -7.98
v -78.35 19.69 15.89
v -48.02 24.74 -6.33
v -78.35 19.29 -9.61
v -216.12 -38.14 -22.15
v -221.18 -12.67 -21.62
v -221.49 -34.19 -18.43
v -215.78 -13.00 -25.88
v -216.17 -44.34 4.51
v -221.56 -39.43 4.40
v -216.12 -37.31 26.62
v -221.53 -33.47 23.27
v -215.75 -11.97 34.29
v -221.18 -11.75 29.79
v -215.35 13.25 29.32
v -220.81 9.83 25.55
v -220.74 17.02 15.44
v -220.77 16.66 -9.32
v -215.37 13.21 -21.82
v -220.81 9.72 -18.11
v -211.00 -7.57 -25.72
v -117.97 -8.92 -25.77
v -117.93 -5.33 -25.12
v -210.95 -3.93 -25.12
v -210.89 1.96 -62.29
v -117.43 24.20 -211.54
v -173.06 25.05 -211.48
v -117.85 0.52 -62.31
v -173.10 21.43 -212.08
v -117.47 20.63 -212.12
v -117.84 -3.01 -62.87
v -210.88 -1.65 -62.96
v -193.11 9.63 -85.18
v -193.28 1.71 -61.08
v -193.18 5.61 -85.85
v -113.44 8.40 -85.18
v -113.59 0.52 -61.06
v -113.52 4.47 -85.78
v -193.01 17.60 -58.56
v -113.28 16.44 -58.56
v -113.49 10.79 -23.22
v -193.00 12.02 -23.24
v -113.72 -5.13 -25.81
v -193.25 -3.87 -25.77
v -114.23 23.54 -207.06
v -169.63 23.33 -200.79
v -114.21 22.60 -200.81
v -169.65 24.36 -207.08
v -169.58 28.29 -196.82
v -114.15 27.49 -196.84
v -169.55 34.18 -199.07
v -114.10 33.40 -199.07
v -169.46 35.17 -205.34
v -114.08 34.36 -205.39
v -169.58 30.30 -209.36
v -114.20 29.49 -209.33
v -113.39 27.39 -202.55
v -113.40 27.59 -203.93
v -113.42 28.42 -201.70
v -113.35 29.80 -202.17
v -113.36 30.00 -203.56
v -113.40 28.93 -204.40
v 12.83 27.02 -204.40
v 12.85 28.14 -203.47
v 12.88 27.94 -202.02
v 12.84 26.62 -201.57
v 12.82 25.48 -202.44
v 12.81 25.71 -203.87
v 24.84 26.67 -202.93
v 15.81 30.41 -203.00
v 15.86 30.26 -201.82
v 15.67 23.42 -202.91
v 15.58 23.60 -204.05
v -172.58 29.79 -205.79
v -172.56 31.91 -204.05
v -172.57 31.46 -201.37
v -172.67 28.89 -200.32
v -172.67 26.73 -202.08
v -172.68 27.18 -204.78
v -176.40 26.81 -202.08
v -176.38 27.19 -204.83
v -176.35 28.95 -200.39
v -176.34 31.56 -201.32
v -176.35 31.90 -204.05
v -176.39 29.75 -205.76
v -176.34 30.22 -208.51
v -176.25 34.49 -205.05
v -176.28 33.66 -199.58
v -176.32 28.51 -197.64
v -176.50 24.24 -201.08
v -176.39 25.09 -206.52
v -182.44 24.36 -201.10
v -182.44 25.19 -206.50
v -182.42 28.60 -197.67
v -182.32 33.71 -199.63
v -182.27 34.56 -205.03
v -182.34 30.30 -208.49
v -100.70 18.13 -58.85
v -100.65 11.10 -23.89
v -100.81 12.53 -23.67
v -100.52 16.66 -59.10
v -113.32 5.95 -57.36
v -100.71 5.77 -57.33
v -100.84 -2.00 -49.57
v -100.87 -3.77 -38.64
v -113.47 -1.82 -49.59
v -100.80 1.26 -28.76
v -113.48 -3.49 -38.64
v -113.45 1.46 -28.82
v -113.23 11.24 -23.76
v -113.20 16.86 -59.10
v -113.42 12.71 -23.53
v -113.27 18.29 -58.85
v -113.14 28.13 -53.83
v -100.53 27.95 -53.83
v -113.09 33.13 -43.99
v -100.43 32.95 -43.95
v -113.12 31.46 -33.11
v -100.44 31.26 -33.08
v -113.23 23.60 -25.25
v -100.61 23.44 -25.34
v -176.66 24.37 -24.03
v -176.53 32.14 -31.86
v -176.55 33.88 -42.74
v -176.60 28.92 -52.58
v -176.75 19.10 -57.58
v -176.77 13.46 -22.33
v -176.23 29.40 -40.13
v -180.82 24.55 -46.94
v -176.20 27.95 -39.91
v -176.25 26.92 -38.82
v -176.22 26.70 -37.39
v -180.88 20.09 -42.50
v -176.23 27.35 -36.03
v -180.92 19.10 -36.12
v -176.21 28.62 -35.38
v -180.85 21.87 -30.45
v -176.18 30.09 -35.60
v -180.72 27.45 -27.55
v -176.13 31.16 -36.65
v -180.69 33.66 -28.53
v -176.12 31.39 -38.10
v -180.63 38.10 -33.11
v -176.15 30.72 -39.49
v -180.58 39.11 -39.42
v -180.64 36.27 -45.11
v -180.74 30.76 -47.96
v -237.63 37.15 -45.04
v -237.73 31.59 -47.99
v -237.55 39.99 -39.40
v -237.62 38.98 -33.08
v -237.68 34.52 -28.51
v -237.71 28.31 -27.46
v -237.84 22.78 -30.41
v -237.89 19.92 -36.05
v -237.84 20.95 -42.45
v -237.78 25.39 -46.98
v -260.41 26.41 -45.69
v -260.51 22.61 -41.78
v -260.53 21.79 -36.43
v -260.45 24.18 -31.59
v -260.41 28.91 -29.11
v -260.30 34.18 -29.98
v -260.25 37.95 -33.80
v -260.20 38.84 -39.24
v -260.24 36.43 -44.08
v -260.36 31.68 -46.51
v -128.61 28.52 195.06
v -165.19 20.17 152.92
v -158.88 27.89 195.04
v -128.46 20.94 152.87
v -146.83 20.55 152.89
v -175.46 13.01 112.85
v -157.13 13.40 112.85
v -178.36 9.58 -105.70
v -159.98 9.99 -105.68
v -149.69 16.43 -145.79
v -168.10 16.05 -145.77
v -131.41 23.62 -188.05
v -131.27 16.82 -145.79
v -161.77 22.99 -188.05
v 245.70 -15.03 10.24
v 245.65 -15.03 -2.72
f 1 2 3
f 2 4 5
f 4 6 7
f 1 6 3
f 3 8 6
f 8 7 6
f 5 7 4
f 5 3 2
f 9 10 11
f 9 10 12
f 12 13 10
f 12 13 14
f 14 15 13
f 14 15 16
f 9 15 11
f 9 15 16
f 17 18 19
f 17 18 20
f 18 21 22
f 18 21 19
f 20 23 24
f 20 23 17
f 18 24 22
f 18 24 20
f 19 23 21
f 19 23 17
f 25 26 27
f 25 26 28
f 25 28 29
f 25 29 30
f 25 30 31
f 25 31 32
f 25 32 33
f 25 33 27
f 34 35 36
f 34 35 37
f 37 38 35
f 37 38 39
f 39 40 38
f 39 40 41
f 34 40 36
f 34 40 41
f 42 43 44
f 42 43 45
f 44 46 47
f 44 46 43
f 48 49 50
f 48 51 50
f 50 52 51
f 53 52 54
f 50 52 55
f 53 52 55
f 52 56 54
f 54 57 53
f 54 57 56
f 50 58 49
f 50 58 55
f 53 58 55
f 53 58 57
f 49 59 48
f 51 59 48
f 50 59 48
f 49 59 50
f 51 59 50
f 50 59 55
f 51 59 52
f 50 52 59
f 55 59 52
f 52 56 59
f 57 59 56
f 49 59 58
f 50 58 59
f 55 59 58
f 57 59 58
f 60 61 62
f 63 64 65
f 62 64 65
f 62 64 61
f 60 61 66
f 60 67 63
f 63 64 67
f 60 67 66
f 66 68 67
f 66 68 69
f 61 70 64
f 61 70 66
f 67 70 64
f 67 70 66
f 66 68 70
f 67 70 68
f 66 70 69
f 69 70 68
f 66 71 61
f 66 71 69
f 61 70 71
f 66 71 70
f 69 70 71
f 72 73 74
f 75 74 73
f 76 72 77
f 74 77 72
f 78 76 79
f 77 79 76
f 80 78 81
f 79 81 78
f 82 80 83
f 82 73 83
f 75 83 73
f 81 83 80
f 72 73 84
f 85 84 73
f 76 72 86
f 84 86 72
f 78 76 87
f 86 87 76
f 80 78 88
f 87 88 78
f 82 80 89
f 82 73 89
f 85 89 73
f 88 89 80
f 85 89 90
f 88 89 90
f 87 88 91
f 90 91 88
f 86 87 92
f 91 92 87
f 84 86 93
f 92 93 86
f 85 84 94
f 93 94 84
f 90 95 85
f 94 95 85
f 90 91 96
f 91 92 96
f 92 93 96
f 93 94 96
f 90 95 96
f 94 95 96
f 91 92 97
f 92 98 97
f 94 95 99
f 100 99 95
f 75 83 101
f 81 83 101
f 79 81 102
f 101 102 81
f 77 79 103
f 102 103 79
f 74 77 104
f 103 104 77
f 75 74 105
f 104 105 74
f 101 106 75
f 105 106 75
f 105 106 107
f 108 107 106
f 104 105 109
f 107 109 105
f 103 104 110
f 109 110 104
f 102 103 111
f 110 111 103
f 101 102 112
f 101 106 112
f 108 112 106
f 111 112 102
f 108 112 113
f 111 112 113
f 110 111 114
f 113 114 111
f 109 110 115
f 114 115 110
f 107 109 116
f 115 116 109
f 108 107 117
f 116 117 107
f 113 118 108
f 117 118 108
f 117 118 119
f 120 119 118
f 116 117 121
f 119 121 117
f 115 116 122
f 121 122 116
f 114 115 123
f 122 123 115
f 113 114 124
f 113 118 124
f 120 124 118
f 123 124 114
f 125 126 127
f 125 126 128
f 128 129 130
f 131 129 130
f 132 133 131
f 131 129 133
f 134 135 132
f 132 133 135
f 126 136 134
f 134 135 136
f 127 137 126
f 128 137 126
f 126 136 137
f 125 138 128
f 128 129 138
f 128 137 138
f 127 137 139
f 127 140 125
f 125 138 140
f 127 140 139
f 125 141 142
f 125 141 140
f 142 143 144
f 142 143 141
f 144 145 146
f 144 145 143
f 146 147 148
f 127 147 148
f 127 147 139
f 146 147 145
f 139 149 147
f 145 149 147
f 143 150 145
f 145 149 150
f 141 151 143
f 143 150 151
f 149 151 150
f 140 152 141
f 141 151 152
f 150 152 151
f 139 153 140
f 149 153 139
f 140 152 153
f 139 149 154
f 139 153 154
f 149 153 154
f 152 154 153
f 155 156 157
f 158 156 157
f 159 160 158
f 158 156 160
f 161 162 159
f 159 160 162
f 163 164 161
f 161 162 164
f 165 166 163
f 163 164 166
f 167 168 165
f 165 166 168
f 169 170 167
f 167 168 170
f 171 172 169
f 169 170 172
f 155 173 171
f 171 172 173
f 155 156 174
f 155 173 174
f 174 175 173
f 174 175 176
f 173 177 172
f 173 177 175
f 172 178 170
f 172 178 177
f 170 179 168
f 170 179 178
f 168 180 166
f 168 180 179
f 166 181 164
f 166 181 180
f 164 182 162
f 164 182 181
f 162 183 160
f 162 183 182
f 160 184 156
f 174 184 156
f 174 184 176
f 160 184 183
f 176 185 184
f 183 185 184
f 182 186 183
f 183 185 186
f 181 187 182
f 182 186 187
f 180 188 181
f 181 187 188
f 179 189 180
f 180 188 189
f 178 190 179
f 179 189 190
f 177 191 178
f 178 190 191
f 175 192 177
f 177 191 192
f 176 193 175
f 175 192 193
f 176 185 194
f 176 193 194
f 195 196 197
f 198 197 196
f 199 195 200
f 197 200 195
f 201 199 202
f 200 202 199
f 203 201 204
f 202 204 201
f 205 203 206
f 204 206 203
f 207 205 208
f 206 208 205
f 209 207 210
f 208 210 207
f 211 209 212
f 210 212 209
f 213 211 214
f 213 196 214
f 198 214 196
f 212 214 211
f 198 214 215
f 212 214 215
f 210 212 216
f 215 216 212
f 208 210 217
f 216 217 210
f 206 208 218
f 217 218 208
f 204 206 219
f 218 219 206
f 202 204 220
f 219 220 204
f 200 202 221
f 220 221 202
f 197 200 222
f 221 222 200
f 198 197 223
f 222 223 197
f 215 224 198
f 223 224 198
f 223 224 225
f 226 225 224
f 222 223 227
f 225 227 223
f 221 222 228
f 227 228 222
f 220 221 229
f 228 229 221
f 219 220 230
f 229 230 220
f 218 219 231
f 230 231 219
f 217 218 232
f 231 232 218
f 216 217 233
f 232 233 217
f 215 216 234
f 215 224 234
f 226 234 224
f 233 234 216
f 235 236 237
f 236 238 239
f 237 240 235
f 238 239 240
f 239 240 241
f 242 241 240
f 238 239 243
f 241 243 239
f 236 238 244
f 243 244 238
f 235 236 245
f 244 245 236
f 237 235 246
f 237 240 246
f 235 246 240
f 242 246 240
f 245 246 235
f 247 248 249
f 250 249 248
f 251 247 252
f 249 252 247
f 253 251 254
f 252 254 251
f 255 253 256
f 254 256 253
f 257 255 258
f 257 248 258
f 250 258 248
f 256 258 255
f 242 246 259
f 245 246 259
f 246 255 259
f 256 259 255
f 244 245 260
f 245 257 260
f 258 260 257
f 258 260 256
f 259 260 245
f 256 259 260
f 243 244 261
f 260 261 244
f 241 243 262
f 261 262 243
f 242 241 263
f 262 263 241
f 259 264 242
f 263 264 242
f 265 266 267
f 268 266 267
f 269 270 268
f 268 266 270
f 271 272 269
f 269 270 272
f 273 274 271
f 271 272 274
f 265 275 273
f 273 274 275
f 265 266 276
f 265 275 276
f 276 277 275
f 276 277 278
f 275 279 274
f 275 279 277
f 274 280 272
f 274 280 279
f 272 281 270
f 272 281 280
f 270 282 266
f 276 282 266
f 276 282 278
f 270 282 281
f 278 283 282
f 281 283 282
f 280 284 281
f 281 283 284
f 279 285 280
f 280 284 285
f 277 286 279
f 279 285 286
f 278 287 277
f 277 286 287
f 278 283 288
f 278 287 288
f 289 290 291
f 291 292 290
f 293 292 290
f 293 294 292
f 295 296 297
f 293 294 296
f 295 296 298
f 293 298 296
f 293 290 299
f 293 299 298
f 299 300 298
f 299 300 301
f 298 302 296
f 298 302 300
f 296 303 294
f 296 303 302
f 294 304 292
f 294 304 303
f 292 305 290
f 299 305 290
f 299 305 301
f 292 305 304
f 288 306 287
f 288 306 307
f 287 308 286
f 287 308 306
f 286 309 285
f 286 309 308
f 285 310 284
f 285 310 309
f 284 311 283
f 288 311 283
f 288 311 307
f 284 311 310
f 301 312 305
f 304 312 305
f 307 312 311
f 310 312 311
f 303 313 304
f 309 313 310
f 304 312 313
f 310 312 313
f 302 314 303
f 308 314 309
f 303 313 314
f 309 313 314
f 300 315 302
f 306 315 308
f 302 314 315
f 308 314 315
f 301 316 300
f 307 316 306
f 300 315 316
f 306 315 316
f 301 312 317
f 307 312 317
f 301 316 317
f 307 316 317
f 318 319 320
f 319 321 320
f 319 321 322
f 318 319 323
f 318 320 323
f 319 320 323
f 319 321 323
f 320 321 323
f 322 323 319
f 322 323 321
f 322 324 319
f 318 319 325
f 323 325 318
f 323 325 319
f 324 325 319
f 324 325 326
f 326 327 324
f 322 323 328
f 323 325 328
f 326 328 325
f 322 324 329
f 327 329 324
f 328 329 322
f 330 331 332
f 332 333 330
f 330 333 334
f 330 331 335
f 330 334 335
f 331 332 336
f 331 335 336
f 334 335 336
f 332 333 337
f 333 337 334
f 332 336 337
f 336 337 334
f 330 331 338
f 330 334 338
f 330 335 338
f 331 335 338
f 334 335 338
f 330 334 339
f 338 339 330
f 338 339 334
f 330 331 340
f 338 340 330
f 338 340 331
f 338 341 330
f 339 341 330
f 338 341 339
f 340 341 330
f 338 341 340
f 342 343 344
f 345 344 343
f 346 342 347
f 344 347 342
f 348 346 349
f 347 349 346
f 350 348 351
f 349 351 348
f 352 350 353
f 351 353 350
f 354 352 355
f 353 355 352
f 356 354 357
f 355 357 354
f 358 356 359
f 357 359 356
f 360 358 361
f 360 343 361
f 345 361 343
f 359 361 358
f 345 361 362
f 359 361 362
f 357 359 363
f 362 363 359
f 355 357 364
f 363 364 357
f 353 355 365
f 364 365 355
f 351 353 366
f 365 366 353
f 349 351 367
f 366 367 351
f 347 349 368
f 367 368 349
f 344 347 369
f 368 369 347
f 345 344 370
f 369 370 344
f 362 371 345
f 370 371 345
f 370 371 372
f 373 372 371
f 369 370 374
f 372 374 370
f 368 369 375
f 374 375 369
f 367 368 376
f 375 376 368
f 366 367 377
f 376 377 367
f 365 366 378
f 377 378 366
f 364 365 379
f 378 379 365
f 363 364 380
f 379 380 364
f 362 363 381
f 362 371 381
f 373 381 371
f 380 381 363
f 382 383 384
f 383 385 386
f 384 387 382
f 385 386 387
f 386 387 388
f 389 388 387
f 385 386 390
f 388 390 386
f 383 385 391
f 390 391 385
f 382 383 392
f 391 392 383
f 384 382 393
f 384 387 393
f 382 393 387
f 389 393 387
f 392 393 382
f 394 395 396
f 397 396 395
f 398 394 399
f 396 399 394
f 400 398 401
f 399 401 398
f 402 400 403
f 401 403 400
f 404 402 405
f 404 395 405
f 397 405 395
f 403 405 402
f 389 393 406
f 392 393 406
f 393 402 406
f 403 406 402
f 391 392 407
f 392 404 407
f 405 407 404
f 405 407 403
f 406 407 392
f 403 406 407
f 390 391 408
f 407 408 391
f 388 390 409
f 408 409 390
f 389 388 410
f 409 410 388
f 406 411 389
f 410 411 389
f 412 413 414
f 415 413 414
f 416 417 415
f 415 413 417
f 418 419 416
f 416 417 419
f 420 421 418
f 418 419 421
f 412 422 420
f 420 421 422
f 412 413 423
f 412 422 423
f 423 424 422
f 423 424 425
f 422 426 421
f 422 426 424
f 421 427 419
f 421 427 426
f 419 428 417
f 419 428 427
f 417 429 413
f 423 429 413
f 423 429 425
f 417 429 428
f 425 430 429
f 428 430 429
f 427 431 428
f 428 430 431
f 426 432 427
f 427 431 432
f 424 433 426
f 426 432 433
f 425 434 424
f 424 433 434
f 425 430 435
f 425 434 435
f 436 437 438
f 438 439 437
f 440 439 437
f 440 441 439
f 442 443 444
f 440 441 443
f 442 443 445
f 440 445 443
f 440 437 446
f 440 446 445
f 446 447 445
f 446 447 448
f 445 449 443
f 445 449 447
f 443 450 441
f 443 450 449
f 441 451 439
f 441 451 450
f 439 452 437
f 446 452 437
f 446 452 448
f 439 452 451
f 435 453 434
f 435 453 454
f 434 455 433
f 434 455 453
f 433 456 432
f 433 456 455
f 432 457 431
f 432 457 456
f 431 458 430
f 435 458 430
f 435 458 454
f 431 458 457
f 448 459 452
f 451 459 452
f 454 459 458
f 457 459 458
f 450 460 451
f 456 460 457
f 451 459 460
f 457 459 460
f 449 461 450
f 455 461 456
f 450 460 461
f 456 460 461
f 447 462 449
f 453 462 455
f 449 461 462
f 455 461 462
f 448 463 447
f 454 463 453
f 447 462 463
f 453 462 463
f 448 459 464
f 454 459 464
f 448 463 464
f 454 463 464
f 465 466 467
f 466 468 467
f 466 468 469
f 465 466 470
f 465 467 470
f 466 467 470
f 466 468 470
f 467 468 470
f 469 470 466
f 469 470 468
f 469 471 466
f 465 466 472
f 470 472 465
f 470 472 466
f 471 472 466
f 471 472 473
f 473 474 471
f 469 470 475
f 470 472 475
f 473 475 472
f 469 471 476
f 474 476 471
f 475 476 469
f 477 478 479
f 479 480 477
f 477 480 481
f 477 478 482
f 477 481 482
f 478 479 483
f 478 482 483
f 481 482 483
f 479 480 484
f 480 484 481
f 479 483 484
f 483 484 481
f 477 478 485
f 477 481 485
f 477 482 485
f 478 482 485
f 481 482 485
f 477 481 486
f 485 486 477
f 485 486 481
f 477 478 487
f 485 487 477
f 485 487 478
f 485 488 477
f 486 488 477
f 485 488 486
f 487 488 477
f 485 488 487
f 489 490 491
f 492 490 491
f 493 494 492
f 492 490 494
f 495 496 493
f 493 494 496
f 497 498 495
f 495 496 498
f 499 500 497
f 497 498 500
f 22 501 499
f 499 500 501
f 24 502 22
f 22 501 502
f 489 503 24
f 24 502 503
f 489 490 504
f 489 503 504
f 504 505 503
f 504 505 506
f 503 507 502
f 502 508 501
f 502 508 507
f 501 509 500
f 501 509 508
f 500 510 498
f 500 510 509
f 498 511 496
f 498 511 510
f 496 512 494
f 496 512 511
f 494 513 490
f 504 513 490
f 504 513 506
f 494 513 512
f 506 514 513
f 512 514 513
f 511 515 512
f 512 514 515
f 510 516 511
f 511 515 516
f 509 517 510
f 510 516 517
f 508 518 509
f 509 517 518
f 507 519 508
f 508 518 519
f 507 519 520
f 506 521 505
f 506 514 522
f 506 521 522
f 522 523 521
f 522 523 524
f 521 525 520
f 521 525 523
f 520 526 519
f 520 526 525
f 519 527 518
f 519 527 526
f 518 528 517
f 518 528 527
f 517 529 516
f 517 529 528
f 516 530 515
f 516 530 529
f 515 531 514
f 522 531 514
f 522 531 524
f 515 531 530
f 523 532 524
f 524 532 531
f 530 532 531
f 529 533 530
f 530 532 533
f 528 534 529
f 529 533 534
f 527 535 528
f 528 534 535
f 526 536 527
f 527 535 536
f 525 537 526
f 526 536 537
f 523 538 525
f 525 537 538
f 524 539 523
f 523 538 539
f 524 532 540
f 524 539 540
f 541 542 543
f 541 542 544
f 543 545 546
f 543 545 542
f 546 547 548
f 546 547 545
f 548 549 550
f 548 549 547
f 550 551 552
f 541 551 552
f 541 551 544
f 550 551 549
f 541 553 552
f 550 553 552
f 548 554 550
f 550 553 554
f 546 555 548
f 548 554 555
f 543 556 546
f 546 555 556
f 541 557 543
f 543 556 557
f 541 553 558
f 541 557 558
f 559 560 561
f 559 560 562
f 562 563 559
f 559 564 561
f 559 564 563
f 561 565 560
f 561 565 564
f 563 565 564
f 560 566 562
f 562 563 566
f 560 566 565
f 563 565 566
f 567 568 569
f 570 569 568
f 567 571 569
f 568 572 567
f 571 572 567
f 570 573 568
f 572 573 568
f 569 574 570
f 571 574 569
f 571 572 574
f 573 574 570
f 573 574 572
f 575 576 577
f 575 576 578
f 505 579 521
f 576 579 521
f 576 579 578
f 580 581 582
f 580 581 583
f 578 581 583
f 507 584 520
f 581 584 520
f 581 584 583
f 585 586 587
f 581 588 502
f 581 588 586
f 586 589 587
f 576 590 503
f 576 590 589
f 491 591 492
f 592 591 593
f 491 591 594
f 592 591 594
f 492 595 493
f 593 595 596
f 492 595 591
f 593 595 591
f 594 595 591
f 493 597 495
f 596 597 598
f 493 597 595
f 596 597 595
f 495 599 497
f 598 599 600
f 594 599 595
f 495 599 597
f 598 599 597
f 595 599 597
f 497 601 499
f 600 601 602
f 497 601 599
f 600 601 599
f 499 21 22
f 602 21 603
f 594 599 21
f 499 21 601
f 602 21 601
f 599 21 601
f 603 23 604
f 603 23 21
f 594 21 23
f 24 605 489
f 491 605 489
f 604 605 606
f 592 605 606
f 491 605 594
f 592 605 594
f 24 605 23
f 604 605 23
f 594 23 605
f 607 608 609
f 607 610 609
f 609 611 610
f 612 611 613
f 609 611 614
f 612 611 614
f 611 615 613
f 613 616 612
f 613 616 615
f 609 617 608
f 609 617 614
f 612 617 614
f 612 617 616
f 608 618 607
f 610 618 607
f 609 618 607
f 608 618 609
f 610 618 609
f 609 618 614
f 610 618 611
f 609 611 618
f 614 618 611
f 611 615 618
f 616 618 615
f 608 618 617
f 609 617 618
f 614 618 617
f 616 618 617
f 619 620 621
f 622 623 624
f 621 623 624
f 621 623 620
f 619 620 625
f 619 626 622
f 622 623 626
f 619 626 625
f 625 627 626
f 625 627 628
f 620 629 623
f 620 629 625
f 626 629 623
f 626 629 625
f 625 627 629
f 626 629 627
f 625 629 628
f 628 629 627
f 625 630 620
f 625 630 628
f 620 629 630
f 625 630 629
f 628 629 630
f 631 632 633
f 631 632 634
f 633 635 636
f 633 635 632
f 636 637 638
f 636 637 635
f 638 639 640
f 638 639 637
f 640 641 642
f 631 641 642
f 631 641 634
f 640 641 639
f 631 643 633
f 631 643 644
f 633 645 636
f 633 645 643
f 636 646 638
f 636 646 645
f 638 647 640
f 638 647 646
f 640 648 642
f 631 648 642
f 631 648 644
f 640 648 647
f 644 649 648
f 647 649 648
f 646 650 647
f 647 649 650
f 645 651 646
f 646 650 651
f 643 652 645
f 645 651 652
f 644 653 643
f 643 652 653
f 644 649 654
f 644 653 654
f 649 655 650
f 650 655 651
f 652 655 651
f 652 655 653
f 654 655 649
f 653 655 654
f 651 656 650
f 651 656 657
f 653 658 654
f 654 659 658
f 634 660 641
f 639 660 641
f 637 661 639
f 639 660 661
f 635 662 637
f 637 661 662
f 632 663 635
f 635 662 663
f 634 664 632
f 632 663 664
f 634 660 665
f 634 664 665
f 665 666 664
f 665 666 667
f 664 668 663
f 664 668 666
f 663 669 662
f 663 669 668
f 662 670 661
f 662 670 669
f 661 671 660
f 665 671 660
f 665 671 667
f 661 671 670
f 667 672 671
f 670 672 671
f 669 673 670
f 670 672 673
f 668 674 669
f 669 673 674
f 666 675 668
f 668 674 675
f 667 676 666
f 666 675 676
f 667 672 677
f 667 676 677
f 677 678 676
f 677 678 679
f 676 680 675
f 676 680 678
f 675 681 674
f 675 681 680
f 674 682 673
f 674 682 681
f 673 683 672
f 677 683 672
f 677 683 679
f 673 683 682
f 684 685 686
f 684 685 687
f 687 688 689
f 690 688 689
f 691 692 690
f 690 688 692
f 693 694 691
f 691 692 694
f 685 695 693
f 693 694 695
f 686 696 685
f 687 696 685
f 685 695 696
f 684 697 687
f 687 688 697
f 687 696 697
f 686 696 698
f 686 699 684
f 684 697 699
f 686 699 698
f 684 700 701
f 684 700 699
f 701 702 703
f 701 702 700
f 703 704 705
f 703 704 702
f 705 706 707
f 686 706 707
f 686 706 698
f 705 706 704
f 698 708 706
f 704 708 706
f 702 709 704
f 704 708 709
f 700 710 702
f 702 709 710
f 708 710 709
f 699 711 700
f 700 710 711
f 709 711 710
f 698 712 699
f 708 712 698
f 699 711 712
f 698 708 713
f 698 712 713
f 708 712 713
f 711 713 712
f 714 715 716
f 717 715 716
f 718 719 717
f 717 715 719
f 720 721 718
f 718 719 721
f 722 723 720
f 720 721 723
f 724 725 722
f 722 723 725
f 726 727 724
f 724 725 727
f 728 729 726
f 726 727 729
f 730 731 728
f 728 729 731
f 714 732 730
f 730 731 732
f 714 715 733
f 714 732 733
f 733 734 732
f 733 734 735
f 732 736 731
f 732 736 734
f 731 737 729
f 731 737 736
f 729 738 727
f 729 738 737
f 727 739 725
f 727 739 738
f 725 740 723
f 725 740 739
f 723 741 721
f 723 741 740
f 721 742 719
f 721 742 741
f 719 743 715
f 733 743 715
f 733 743 735
f 719 743 742
f 735 744 743
f 742 744 743
f 741 745 742
f 742 744 745
f 740 746 741
f 741 745 746
f 739 747 740
f 740 746 747
f 738 748 739
f 739 747 748
f 737 749 738
f 738 748 749
f 736 750 737
f 737 749 750
f 734 751 736
f 736 750 751
f 735 752 734
f 734 751 752
f 735 744 753
f 735 752 753
f 754 755 756
f 754 757 758
f 754 758 755
f 758 759 755
f 758 759 760
f 761 762 763
f 763 764 761
f 763 764 765
f 763 766 765
f 765 767 764
f 527 768 535
f 526 768 527
f 526 768 525
f 523 531 769
f 523 531 524
f 523 531 522
f 523 531 532
f 530 769 531
f 529 769 530
f 529 769 768
f 523 768 525
f 523 768 769
f 534 768 529
f 534 768 535
f 534 769 529
f 534 769 768
f 533 769 534
f 533 769 529
f 533 769 530
